<?xml version="1.0" encoding="utf-8"?>
<svg xmlns="http://www.w3.org/2000/svg" xmlns:xlink="http://www.w3.org/1999/xlink" width="600" height="400" viewBox="0 0 2400 1600">
<defs>
  <clipPath id="clip410">
    <rect x="0" y="0" width="2400" height="1600"/>
  </clipPath>
</defs>
<path clip-path="url(#clip410)" d="M0 1600 L2400 1600 L2400 0 L0 0  Z" fill="#ffffff" fill-rule="evenodd" fill-opacity="1"/>
<defs>
  <clipPath id="clip411">
    <rect x="480" y="0" width="1681" height="1600"/>
  </clipPath>
</defs>
<path clip-path="url(#clip410)" d="M186.274 1442.9 L2352.76 1442.9 L2352.76 47.2441 L186.274 47.2441  Z" fill="#ffffff" fill-rule="evenodd" fill-opacity="1"/>
<defs>
  <clipPath id="clip412">
    <rect x="186" y="47" width="2167" height="1397"/>
  </clipPath>
</defs>
<polyline clip-path="url(#clip412)" style="stroke:#000000; stroke-linecap:round; stroke-linejoin:round; stroke-width:2; stroke-opacity:0.1; fill:none" points="176.538,1442.9 176.538,47.2441 "/>
<polyline clip-path="url(#clip412)" style="stroke:#000000; stroke-linecap:round; stroke-linejoin:round; stroke-width:2; stroke-opacity:0.1; fill:none" points="303.286,1442.9 303.286,47.2441 "/>
<polyline clip-path="url(#clip412)" style="stroke:#000000; stroke-linecap:round; stroke-linejoin:round; stroke-width:2; stroke-opacity:0.1; fill:none" points="430.034,1442.9 430.034,47.2441 "/>
<polyline clip-path="url(#clip412)" style="stroke:#000000; stroke-linecap:round; stroke-linejoin:round; stroke-width:2; stroke-opacity:0.1; fill:none" points="556.783,1442.9 556.783,47.2441 "/>
<polyline clip-path="url(#clip412)" style="stroke:#000000; stroke-linecap:round; stroke-linejoin:round; stroke-width:2; stroke-opacity:0.1; fill:none" points="683.531,1442.9 683.531,47.2441 "/>
<polyline clip-path="url(#clip412)" style="stroke:#000000; stroke-linecap:round; stroke-linejoin:round; stroke-width:2; stroke-opacity:0.1; fill:none" points="810.28,1442.9 810.28,47.2441 "/>
<polyline clip-path="url(#clip412)" style="stroke:#000000; stroke-linecap:round; stroke-linejoin:round; stroke-width:2; stroke-opacity:0.1; fill:none" points="937.028,1442.9 937.028,47.2441 "/>
<polyline clip-path="url(#clip412)" style="stroke:#000000; stroke-linecap:round; stroke-linejoin:round; stroke-width:2; stroke-opacity:0.1; fill:none" points="1063.78,1442.9 1063.78,47.2441 "/>
<polyline clip-path="url(#clip412)" style="stroke:#000000; stroke-linecap:round; stroke-linejoin:round; stroke-width:2; stroke-opacity:0.1; fill:none" points="1190.52,1442.9 1190.52,47.2441 "/>
<polyline clip-path="url(#clip412)" style="stroke:#000000; stroke-linecap:round; stroke-linejoin:round; stroke-width:2; stroke-opacity:0.1; fill:none" points="1317.27,1442.9 1317.27,47.2441 "/>
<polyline clip-path="url(#clip412)" style="stroke:#000000; stroke-linecap:round; stroke-linejoin:round; stroke-width:2; stroke-opacity:0.1; fill:none" points="1444.02,1442.9 1444.02,47.2441 "/>
<polyline clip-path="url(#clip412)" style="stroke:#000000; stroke-linecap:round; stroke-linejoin:round; stroke-width:2; stroke-opacity:0.1; fill:none" points="1570.77,1442.9 1570.77,47.2441 "/>
<polyline clip-path="url(#clip412)" style="stroke:#000000; stroke-linecap:round; stroke-linejoin:round; stroke-width:2; stroke-opacity:0.1; fill:none" points="1697.52,1442.9 1697.52,47.2441 "/>
<polyline clip-path="url(#clip412)" style="stroke:#000000; stroke-linecap:round; stroke-linejoin:round; stroke-width:2; stroke-opacity:0.1; fill:none" points="1824.27,1442.9 1824.27,47.2441 "/>
<polyline clip-path="url(#clip412)" style="stroke:#000000; stroke-linecap:round; stroke-linejoin:round; stroke-width:2; stroke-opacity:0.1; fill:none" points="1951.02,1442.9 1951.02,47.2441 "/>
<polyline clip-path="url(#clip412)" style="stroke:#000000; stroke-linecap:round; stroke-linejoin:round; stroke-width:2; stroke-opacity:0.1; fill:none" points="2077.76,1442.9 2077.76,47.2441 "/>
<polyline clip-path="url(#clip412)" style="stroke:#000000; stroke-linecap:round; stroke-linejoin:round; stroke-width:2; stroke-opacity:0.1; fill:none" points="2204.51,1442.9 2204.51,47.2441 "/>
<polyline clip-path="url(#clip410)" style="stroke:#000000; stroke-linecap:round; stroke-linejoin:round; stroke-width:4; stroke-opacity:1; fill:none" points="186.274,1442.9 2352.76,1442.9 "/>
<polyline clip-path="url(#clip410)" style="stroke:#000000; stroke-linecap:round; stroke-linejoin:round; stroke-width:4; stroke-opacity:1; fill:none" points="176.538,1442.9 176.538,1424.01 "/>
<polyline clip-path="url(#clip410)" style="stroke:#000000; stroke-linecap:round; stroke-linejoin:round; stroke-width:4; stroke-opacity:1; fill:none" points="303.286,1442.9 303.286,1424.01 "/>
<polyline clip-path="url(#clip410)" style="stroke:#000000; stroke-linecap:round; stroke-linejoin:round; stroke-width:4; stroke-opacity:1; fill:none" points="430.034,1442.9 430.034,1424.01 "/>
<polyline clip-path="url(#clip410)" style="stroke:#000000; stroke-linecap:round; stroke-linejoin:round; stroke-width:4; stroke-opacity:1; fill:none" points="556.783,1442.9 556.783,1424.01 "/>
<polyline clip-path="url(#clip410)" style="stroke:#000000; stroke-linecap:round; stroke-linejoin:round; stroke-width:4; stroke-opacity:1; fill:none" points="683.531,1442.9 683.531,1424.01 "/>
<polyline clip-path="url(#clip410)" style="stroke:#000000; stroke-linecap:round; stroke-linejoin:round; stroke-width:4; stroke-opacity:1; fill:none" points="810.28,1442.9 810.28,1424.01 "/>
<polyline clip-path="url(#clip410)" style="stroke:#000000; stroke-linecap:round; stroke-linejoin:round; stroke-width:4; stroke-opacity:1; fill:none" points="937.028,1442.9 937.028,1424.01 "/>
<polyline clip-path="url(#clip410)" style="stroke:#000000; stroke-linecap:round; stroke-linejoin:round; stroke-width:4; stroke-opacity:1; fill:none" points="1063.78,1442.9 1063.78,1424.01 "/>
<polyline clip-path="url(#clip410)" style="stroke:#000000; stroke-linecap:round; stroke-linejoin:round; stroke-width:4; stroke-opacity:1; fill:none" points="1190.52,1442.9 1190.52,1424.01 "/>
<polyline clip-path="url(#clip410)" style="stroke:#000000; stroke-linecap:round; stroke-linejoin:round; stroke-width:4; stroke-opacity:1; fill:none" points="1317.27,1442.9 1317.27,1424.01 "/>
<polyline clip-path="url(#clip410)" style="stroke:#000000; stroke-linecap:round; stroke-linejoin:round; stroke-width:4; stroke-opacity:1; fill:none" points="1444.02,1442.9 1444.02,1424.01 "/>
<polyline clip-path="url(#clip410)" style="stroke:#000000; stroke-linecap:round; stroke-linejoin:round; stroke-width:4; stroke-opacity:1; fill:none" points="1570.77,1442.9 1570.77,1424.01 "/>
<polyline clip-path="url(#clip410)" style="stroke:#000000; stroke-linecap:round; stroke-linejoin:round; stroke-width:4; stroke-opacity:1; fill:none" points="1697.52,1442.9 1697.52,1424.01 "/>
<polyline clip-path="url(#clip410)" style="stroke:#000000; stroke-linecap:round; stroke-linejoin:round; stroke-width:4; stroke-opacity:1; fill:none" points="1824.27,1442.9 1824.27,1424.01 "/>
<polyline clip-path="url(#clip410)" style="stroke:#000000; stroke-linecap:round; stroke-linejoin:round; stroke-width:4; stroke-opacity:1; fill:none" points="1951.02,1442.9 1951.02,1424.01 "/>
<polyline clip-path="url(#clip410)" style="stroke:#000000; stroke-linecap:round; stroke-linejoin:round; stroke-width:4; stroke-opacity:1; fill:none" points="2077.76,1442.9 2077.76,1424.01 "/>
<polyline clip-path="url(#clip410)" style="stroke:#000000; stroke-linecap:round; stroke-linejoin:round; stroke-width:4; stroke-opacity:1; fill:none" points="2204.51,1442.9 2204.51,1424.01 "/>
<path clip-path="url(#clip410)" d="M107.685 1568.16 L113.087 1562.76 L94.4432 1544.11 L89.7456 1551.17 L86.7338 1548.16 L91.3987 1541.13 L94.7051 1537.83 L116.36 1559.48 L121.762 1554.08 L124.544 1556.86 L110.468 1570.94 L107.685 1568.16 Z" fill="#000000" fill-rule="nonzero" fill-opacity="1" /><path clip-path="url(#clip410)" d="M130.813 1549.58 L127.801 1546.57 Q129.635 1545.91 131.222 1544.95 Q132.81 1543.98 134.038 1542.75 Q137.311 1539.48 136.837 1535.57 Q136.362 1531.62 132.123 1526.89 Q132.581 1529.25 131.877 1531.46 Q131.173 1533.67 129.406 1535.44 Q125.739 1539.1 121.385 1539.04 Q117.031 1538.94 113.185 1535.09 Q109.42 1531.33 109.371 1526.83 Q109.322 1522.33 113.021 1518.63 Q117.26 1514.39 122.744 1515.42 Q128.227 1516.42 134.414 1522.61 Q140.192 1528.38 140.896 1534.59 Q141.6 1540.76 136.968 1545.39 Q135.724 1546.63 134.201 1547.66 Q132.679 1548.7 130.813 1549.58 M127.032 1532.64 Q129.258 1530.41 129.029 1527.6 Q128.816 1524.77 126.165 1522.11 Q123.529 1519.48 120.698 1519.27 Q117.866 1519.02 115.64 1521.25 Q113.414 1523.47 113.643 1526.32 Q113.872 1529.14 116.507 1531.77 Q119.159 1534.42 121.974 1534.65 Q124.806 1534.87 127.032 1532.64 Z" fill="#000000" fill-rule="nonzero" fill-opacity="1" /><path clip-path="url(#clip410)" d="M128.145 1504.39 L141.125 1491.41 L143.908 1494.19 L133.956 1504.14 L139.947 1510.13 Q140.421 1509.17 141.027 1508.33 Q141.616 1507.48 142.336 1506.76 Q146.428 1502.67 151.061 1502.52 Q155.693 1502.37 159.523 1506.2 Q163.468 1510.15 163.206 1514.8 Q162.927 1519.43 158.459 1523.9 Q156.92 1525.44 155.054 1526.78 Q153.205 1528.11 150.979 1529.28 L147.656 1525.96 Q149.931 1525.29 151.895 1524.11 Q153.859 1522.93 155.611 1521.18 Q158.443 1518.35 158.606 1515.21 Q158.77 1512.06 156.217 1509.51 Q153.663 1506.96 150.52 1507.12 Q147.378 1507.28 144.546 1510.12 Q143.22 1511.44 142.189 1513.06 Q141.174 1514.67 140.421 1516.66 L128.145 1504.39 Z" fill="#000000" fill-rule="nonzero" fill-opacity="1" /><path clip-path="url(#clip410)" d="M148.605 1483.93 L164.319 1468.21 L165.726 1469.62 L179.885 1501.52 L176.431 1504.98 L163.124 1474.97 L151.388 1486.71 L148.605 1483.93 Z" fill="#000000" fill-rule="nonzero" fill-opacity="1" /><path clip-path="url(#clip410)" d="M234.663 1567.93 L240.064 1562.53 L221.421 1543.88 L216.723 1550.94 L213.711 1547.93 L218.376 1540.9 L221.683 1537.6 L243.338 1559.25 L248.739 1553.85 L251.522 1556.63 L237.445 1570.71 L234.663 1567.93 Z" fill="#000000" fill-rule="nonzero" fill-opacity="1" /><path clip-path="url(#clip410)" d="M257.791 1549.35 L254.779 1546.34 Q256.612 1545.68 258.2 1544.72 Q259.788 1543.75 261.015 1542.53 Q264.289 1539.25 263.814 1535.34 Q263.34 1531.4 259.1 1526.66 Q259.559 1529.02 258.855 1531.23 Q258.151 1533.44 256.383 1535.21 Q252.717 1538.88 248.363 1538.81 Q244.009 1538.71 240.162 1534.87 Q236.398 1531.1 236.349 1526.6 Q236.299 1522.1 239.999 1518.4 Q244.238 1514.16 249.721 1515.19 Q255.205 1516.19 261.392 1522.38 Q267.17 1528.15 267.874 1534.36 Q268.577 1540.53 263.945 1545.16 Q262.701 1546.4 261.179 1547.44 Q259.657 1548.47 257.791 1549.35 M254.01 1532.41 Q256.236 1530.18 256.007 1527.37 Q255.794 1524.54 253.142 1521.89 Q250.507 1519.25 247.675 1519.04 Q244.844 1518.79 242.618 1521.02 Q240.391 1523.24 240.621 1526.09 Q240.85 1528.91 243.485 1531.54 Q246.137 1534.19 248.952 1534.42 Q251.784 1534.64 254.01 1532.41 Z" fill="#000000" fill-rule="nonzero" fill-opacity="1" /><path clip-path="url(#clip410)" d="M273.471 1507.61 Q271.245 1509.84 271.458 1512.67 Q271.687 1515.49 274.339 1518.14 Q276.974 1520.77 279.806 1521.02 Q282.638 1521.23 284.864 1519 Q287.09 1516.78 286.861 1513.96 Q286.631 1511.11 283.996 1508.48 Q281.344 1505.83 278.513 1505.62 Q275.697 1505.39 273.471 1507.61 M269.674 1490.69 L272.686 1493.7 Q270.853 1494.35 269.265 1495.32 Q267.693 1496.27 266.449 1497.51 Q263.176 1500.79 263.651 1504.73 Q264.142 1508.66 268.365 1513.37 Q267.906 1510.98 268.61 1508.77 Q269.298 1506.55 271.049 1504.8 Q274.732 1501.11 279.102 1501.23 Q283.472 1501.31 287.319 1505.16 Q291.084 1508.92 291.133 1513.42 Q291.182 1517.92 287.483 1521.62 Q283.243 1525.86 277.76 1524.86 Q272.26 1523.85 266.089 1517.68 Q260.295 1511.88 259.608 1505.7 Q258.904 1499.49 263.536 1494.86 Q264.78 1493.62 266.286 1492.6 Q267.808 1491.57 269.674 1490.69 Z" fill="#000000" fill-rule="nonzero" fill-opacity="1" /><path clip-path="url(#clip410)" d="M298.646 1503.95 L304.047 1498.54 L285.404 1479.9 L280.706 1486.96 L277.694 1483.94 L282.359 1476.92 L285.666 1473.62 L307.321 1495.27 L312.722 1489.87 L315.505 1492.65 L301.428 1506.73 L298.646 1503.95 Z" fill="#000000" fill-rule="nonzero" fill-opacity="1" /><path clip-path="url(#clip410)" d="M361.247 1568.09 L366.649 1562.69 L348.006 1544.05 L343.308 1551.1 L340.296 1548.09 L344.961 1541.07 L348.267 1537.76 L369.922 1559.42 L375.324 1554.02 L378.107 1556.8 L364.03 1570.87 L361.247 1568.09 Z" fill="#000000" fill-rule="nonzero" fill-opacity="1" /><path clip-path="url(#clip410)" d="M384.375 1549.51 L381.364 1546.5 Q383.197 1545.85 384.785 1544.88 Q386.372 1543.92 387.6 1542.69 Q390.874 1539.42 390.399 1535.5 Q389.924 1531.56 385.685 1526.83 Q386.143 1529.19 385.439 1531.4 Q384.736 1533.6 382.968 1535.37 Q379.301 1539.04 374.947 1538.97 Q370.594 1538.88 366.747 1535.03 Q362.982 1531.26 362.933 1526.76 Q362.884 1522.26 366.583 1518.56 Q370.823 1514.32 376.306 1515.35 Q381.789 1516.35 387.976 1522.54 Q393.754 1528.32 394.458 1534.52 Q395.162 1540.69 390.53 1545.32 Q389.286 1546.57 387.764 1547.6 Q386.241 1548.63 384.375 1549.51 M380.594 1532.57 Q382.821 1530.35 382.591 1527.53 Q382.379 1524.7 379.727 1522.05 Q377.092 1519.41 374.26 1519.2 Q371.428 1518.96 369.202 1521.18 Q366.976 1523.41 367.205 1526.26 Q367.434 1529.07 370.07 1531.71 Q372.721 1534.36 375.537 1534.59 Q378.368 1534.8 380.594 1532.57 Z" fill="#000000" fill-rule="nonzero" fill-opacity="1" /><path clip-path="url(#clip410)" d="M400.056 1507.78 Q397.83 1510 398.043 1512.83 Q398.272 1515.65 400.924 1518.3 Q403.559 1520.94 406.391 1521.18 Q409.222 1521.39 411.448 1519.17 Q413.674 1516.94 413.445 1514.13 Q413.216 1511.28 410.581 1508.64 Q407.929 1505.99 405.098 1505.78 Q402.282 1505.55 400.056 1507.78 M396.259 1490.85 L399.27 1493.86 Q397.437 1494.52 395.85 1495.48 Q394.278 1496.43 393.034 1497.68 Q389.761 1500.95 390.235 1504.9 Q390.726 1508.82 394.949 1513.54 Q394.491 1511.15 395.195 1508.94 Q395.882 1506.71 397.634 1504.96 Q401.317 1501.28 405.687 1501.39 Q410.057 1501.47 413.904 1505.32 Q417.668 1509.09 417.717 1513.59 Q417.766 1518.09 414.067 1521.79 Q409.828 1526.03 404.345 1525.03 Q398.845 1524.01 392.674 1517.84 Q386.88 1512.05 386.192 1505.86 Q385.489 1499.66 390.121 1495.03 Q391.365 1493.78 392.871 1492.77 Q394.393 1491.74 396.259 1490.85 Z" fill="#000000" fill-rule="nonzero" fill-opacity="1" /><path clip-path="url(#clip410)" d="M403.035 1482.99 L416.015 1470.01 L418.798 1472.8 L408.846 1482.75 L414.837 1488.74 Q415.311 1487.77 415.917 1486.94 Q416.506 1486.09 417.226 1485.37 Q421.318 1481.28 425.951 1481.13 Q430.583 1480.98 434.413 1484.81 Q438.358 1488.76 438.096 1493.4 Q437.817 1498.04 433.349 1502.51 Q431.81 1504.04 429.944 1505.39 Q428.095 1506.71 425.869 1507.89 L422.546 1504.57 Q424.821 1503.9 426.785 1502.72 Q428.749 1501.54 430.501 1499.79 Q433.333 1496.96 433.496 1493.81 Q433.66 1490.67 431.106 1488.12 Q428.553 1485.56 425.41 1485.73 Q422.268 1485.89 419.436 1488.72 Q418.11 1490.05 417.079 1491.67 Q416.064 1493.27 415.311 1495.27 L403.035 1482.99 Z" fill="#000000" fill-rule="nonzero" fill-opacity="1" /><path clip-path="url(#clip410)" d="M487.423 1568.67 L492.824 1563.26 L474.181 1544.62 L469.483 1551.68 L466.472 1548.66 L471.137 1541.64 L474.443 1538.34 L496.098 1559.99 L501.499 1554.59 L504.282 1557.37 L490.205 1571.45 L487.423 1568.67 Z" fill="#000000" fill-rule="nonzero" fill-opacity="1" /><path clip-path="url(#clip410)" d="M510.551 1550.09 L507.539 1547.08 Q509.373 1546.42 510.96 1545.46 Q512.548 1544.49 513.776 1543.26 Q517.049 1539.99 516.575 1536.08 Q516.1 1532.13 511.86 1527.4 Q512.319 1529.76 511.615 1531.97 Q510.911 1534.18 509.143 1535.95 Q505.477 1539.61 501.123 1539.55 Q496.769 1539.45 492.923 1535.6 Q489.158 1531.84 489.109 1527.34 Q489.06 1522.83 492.759 1519.14 Q496.998 1514.9 502.482 1515.93 Q507.965 1516.93 514.152 1523.11 Q519.93 1528.89 520.634 1535.09 Q521.338 1541.26 516.705 1545.9 Q515.461 1547.14 513.939 1548.17 Q512.417 1549.2 510.551 1550.09 M506.77 1533.15 Q508.996 1530.92 508.767 1528.11 Q508.554 1525.27 505.902 1522.62 Q503.267 1519.99 500.436 1519.77 Q497.604 1519.53 495.378 1521.75 Q493.152 1523.98 493.381 1526.83 Q493.61 1529.64 496.245 1532.28 Q498.897 1534.93 501.712 1535.16 Q504.544 1535.37 506.77 1533.15 Z" fill="#000000" fill-rule="nonzero" fill-opacity="1" /><path clip-path="url(#clip410)" d="M526.232 1508.35 Q524.006 1510.57 524.218 1513.41 Q524.448 1516.22 527.099 1518.87 Q529.734 1521.51 532.566 1521.75 Q535.398 1521.97 537.624 1519.74 Q539.85 1517.51 539.621 1514.7 Q539.392 1511.85 536.756 1509.22 Q534.105 1506.56 531.273 1506.35 Q528.458 1506.12 526.232 1508.35 M522.434 1491.42 L525.446 1494.44 Q523.613 1495.09 522.025 1496.06 Q520.454 1497.01 519.21 1498.25 Q515.936 1501.52 516.411 1505.47 Q516.902 1509.4 521.125 1514.11 Q520.667 1511.72 521.37 1509.51 Q522.058 1507.28 523.809 1505.53 Q527.492 1501.85 531.862 1501.97 Q536.233 1502.05 540.079 1505.89 Q543.844 1509.66 543.893 1514.16 Q543.942 1518.66 540.243 1522.36 Q536.003 1526.6 530.52 1525.6 Q525.02 1524.59 518.85 1518.42 Q513.055 1512.62 512.368 1506.43 Q511.664 1500.23 516.296 1495.6 Q517.54 1494.35 519.046 1493.34 Q520.568 1492.31 522.434 1491.42 Z" fill="#000000" fill-rule="nonzero" fill-opacity="1" /><path clip-path="url(#clip410)" d="M553.206 1507.43 L550.195 1504.42 Q552.028 1503.77 553.616 1502.8 Q555.203 1501.83 556.431 1500.61 Q559.705 1497.33 559.23 1493.42 Q558.755 1489.48 554.516 1484.75 Q554.974 1487.1 554.27 1489.31 Q553.566 1491.52 551.799 1493.29 Q548.132 1496.96 543.778 1496.89 Q539.424 1496.79 535.578 1492.95 Q531.813 1489.18 531.764 1484.68 Q531.715 1480.18 535.414 1476.48 Q539.654 1472.24 545.137 1473.27 Q550.62 1474.27 556.807 1480.46 Q562.585 1486.24 563.289 1492.44 Q563.993 1498.61 559.361 1503.24 Q558.117 1504.49 556.595 1505.52 Q555.072 1506.55 553.206 1507.43 M549.425 1490.49 Q551.651 1488.26 551.422 1485.45 Q551.209 1482.62 548.558 1479.97 Q545.923 1477.33 543.091 1477.12 Q540.259 1476.87 538.033 1479.1 Q535.807 1481.32 536.036 1484.17 Q536.265 1486.99 538.901 1489.62 Q541.552 1492.28 544.368 1492.5 Q547.199 1492.72 549.425 1490.49 Z" fill="#000000" fill-rule="nonzero" fill-opacity="1" /><path clip-path="url(#clip410)" d="M614.499 1568.34 L619.9 1562.94 L601.257 1544.29 L596.559 1551.35 L593.547 1548.34 L598.212 1541.31 L601.519 1538.01 L623.174 1559.66 L628.575 1554.26 L631.358 1557.04 L617.281 1571.12 L614.499 1568.34 Z" fill="#000000" fill-rule="nonzero" fill-opacity="1" /><path clip-path="url(#clip410)" d="M637.627 1549.76 L634.615 1546.75 Q636.448 1546.09 638.036 1545.13 Q639.624 1544.16 640.851 1542.93 Q644.125 1539.66 643.65 1535.75 Q643.176 1531.8 638.936 1527.07 Q639.395 1529.43 638.691 1531.64 Q637.987 1533.85 636.219 1535.62 Q632.553 1539.28 628.199 1539.22 Q623.845 1539.12 619.998 1535.27 Q616.234 1531.51 616.185 1527.01 Q616.135 1522.51 619.835 1518.81 Q624.074 1514.57 629.557 1515.6 Q635.041 1516.6 641.228 1522.79 Q647.006 1528.56 647.71 1534.77 Q648.413 1540.94 643.781 1545.57 Q642.537 1546.81 641.015 1547.84 Q639.493 1548.88 637.627 1549.76 M633.846 1532.82 Q636.072 1530.59 635.843 1527.78 Q635.63 1524.95 632.978 1522.29 Q630.343 1519.66 627.511 1519.45 Q624.68 1519.2 622.454 1521.43 Q620.228 1523.65 620.457 1526.5 Q620.686 1529.32 623.321 1531.95 Q625.973 1534.6 628.788 1534.83 Q631.62 1535.05 633.846 1532.82 Z" fill="#000000" fill-rule="nonzero" fill-opacity="1" /><path clip-path="url(#clip410)" d="M634.091 1505.44 L649.805 1489.72 L651.212 1491.13 L665.371 1523.03 L661.917 1526.48 L648.61 1496.48 L636.874 1508.22 L634.091 1505.44 Z" fill="#000000" fill-rule="nonzero" fill-opacity="1" /><path clip-path="url(#clip410)" d="M677.532 1484.52 Q680.413 1482.65 683.343 1482.93 Q686.289 1483.19 688.646 1485.55 Q692.264 1489.17 691.756 1493.63 Q691.249 1498.1 686.666 1502.69 Q685.127 1504.22 683.179 1505.55 Q681.264 1506.88 678.924 1508 L675.732 1504.81 Q677.909 1504.24 679.955 1503.01 Q682.001 1501.79 683.785 1500 Q686.895 1496.89 687.288 1494.04 Q687.697 1491.18 685.356 1488.84 Q683.196 1486.68 680.462 1486.99 Q677.729 1487.27 675.028 1489.97 L672.18 1492.82 L669.463 1490.1 L672.442 1487.12 Q674.881 1484.68 675.208 1482.42 Q675.519 1480.15 673.686 1478.31 Q671.803 1476.43 669.463 1476.77 Q667.122 1477.09 664.634 1479.57 Q663.276 1480.93 662.015 1482.78 Q660.755 1484.63 659.511 1487.12 L656.565 1484.17 Q657.923 1481.77 659.298 1479.87 Q660.69 1477.95 662.146 1476.5 Q665.911 1472.73 669.823 1472.26 Q673.719 1471.77 676.632 1474.68 Q678.662 1476.71 678.907 1479.28 Q679.136 1481.83 677.532 1484.52 Z" fill="#000000" fill-rule="nonzero" fill-opacity="1" /><path clip-path="url(#clip410)" d="M741.427 1568.16 L746.829 1562.76 L728.185 1544.11 L723.488 1551.17 L720.476 1548.16 L725.141 1541.13 L728.447 1537.83 L750.102 1559.48 L755.504 1554.08 L758.286 1556.86 L744.21 1570.94 L741.427 1568.16 Z" fill="#000000" fill-rule="nonzero" fill-opacity="1" /><path clip-path="url(#clip410)" d="M764.555 1549.58 L761.544 1546.57 Q763.377 1545.91 764.964 1544.95 Q766.552 1543.98 767.78 1542.75 Q771.053 1539.48 770.579 1535.57 Q770.104 1531.62 765.865 1526.89 Q766.323 1529.25 765.619 1531.46 Q764.915 1533.67 763.148 1535.44 Q759.481 1539.1 755.127 1539.04 Q750.773 1538.94 746.927 1535.09 Q743.162 1531.33 743.113 1526.83 Q743.064 1522.33 746.763 1518.63 Q751.002 1514.39 756.486 1515.42 Q761.969 1516.42 768.156 1522.61 Q773.934 1528.38 774.638 1534.59 Q775.342 1540.76 770.71 1545.39 Q769.466 1546.63 767.943 1547.66 Q766.421 1548.7 764.555 1549.58 M760.774 1532.64 Q763 1530.41 762.771 1527.6 Q762.558 1524.77 759.907 1522.11 Q757.271 1519.48 754.44 1519.27 Q751.608 1519.02 749.382 1521.25 Q747.156 1523.47 747.385 1526.32 Q747.614 1529.14 750.25 1531.77 Q752.901 1534.42 755.717 1534.65 Q758.548 1534.87 760.774 1532.64 Z" fill="#000000" fill-rule="nonzero" fill-opacity="1" /><path clip-path="url(#clip410)" d="M761.02 1505.26 L776.733 1489.54 L778.141 1490.95 L792.299 1522.85 L788.846 1526.3 L775.538 1496.3 L763.802 1508.04 L761.02 1505.26 Z" fill="#000000" fill-rule="nonzero" fill-opacity="1" /><path clip-path="url(#clip410)" d="M782.347 1483.93 L798.061 1468.21 L799.469 1469.62 L813.627 1501.52 L810.173 1504.98 L796.866 1474.97 L785.13 1486.71 L782.347 1483.93 Z" fill="#000000" fill-rule="nonzero" fill-opacity="1" /><path clip-path="url(#clip410)" d="M868.405 1567.93 L873.806 1562.53 L855.163 1543.88 L850.465 1550.94 L847.454 1547.93 L852.118 1540.9 L855.425 1537.6 L877.08 1559.25 L882.481 1553.85 L885.264 1556.63 L871.187 1570.71 L868.405 1567.93 Z" fill="#000000" fill-rule="nonzero" fill-opacity="1" /><path clip-path="url(#clip410)" d="M891.533 1549.35 L888.521 1546.34 Q890.354 1545.68 891.942 1544.72 Q893.53 1543.75 894.757 1542.53 Q898.031 1539.25 897.556 1535.34 Q897.082 1531.4 892.842 1526.66 Q893.301 1529.02 892.597 1531.23 Q891.893 1533.44 890.125 1535.21 Q886.459 1538.88 882.105 1538.81 Q877.751 1538.71 873.904 1534.87 Q870.14 1531.1 870.091 1526.6 Q870.042 1522.1 873.741 1518.4 Q877.98 1514.16 883.463 1515.19 Q888.947 1516.19 895.134 1522.38 Q900.912 1528.15 901.616 1534.36 Q902.319 1540.53 897.687 1545.16 Q896.443 1546.4 894.921 1547.44 Q893.399 1548.47 891.533 1549.35 M887.752 1532.41 Q889.978 1530.18 889.749 1527.37 Q889.536 1524.54 886.884 1521.89 Q884.249 1519.25 881.417 1519.04 Q878.586 1518.79 876.36 1521.02 Q874.134 1523.24 874.363 1526.09 Q874.592 1528.91 877.227 1531.54 Q879.879 1534.19 882.694 1534.42 Q885.526 1534.64 887.752 1532.41 Z" fill="#000000" fill-rule="nonzero" fill-opacity="1" /><path clip-path="url(#clip410)" d="M908.736 1509.95 Q906.379 1512.31 906.281 1514.93 Q906.199 1517.53 908.408 1519.74 Q910.618 1521.95 913.221 1521.87 Q915.84 1521.77 918.197 1519.41 Q920.554 1517.06 920.652 1514.44 Q920.734 1511.8 918.54 1509.61 Q916.331 1507.4 913.712 1507.5 Q911.109 1507.58 908.736 1509.95 M904.022 1511.85 Q901.37 1513.46 898.718 1513.19 Q896.083 1512.92 893.988 1510.82 Q891.058 1507.89 891.435 1504.11 Q891.827 1500.31 895.461 1496.68 Q899.111 1493.03 902.892 1492.65 Q906.673 1492.28 909.603 1495.21 Q911.698 1497.3 911.96 1499.95 Q912.239 1502.59 910.651 1505.22 Q913.597 1503.39 916.543 1503.68 Q919.506 1503.96 921.847 1506.3 Q925.399 1509.85 925.12 1513.93 Q924.858 1517.99 920.815 1522.03 Q916.773 1526.08 912.697 1526.35 Q908.638 1526.62 905.086 1523.06 Q902.745 1520.72 902.467 1517.76 Q902.189 1514.8 904.022 1511.85 M897.589 1507.84 Q899.488 1509.74 901.73 1509.63 Q903.989 1509.49 906.133 1507.35 Q908.261 1505.22 908.392 1502.96 Q908.539 1500.69 906.641 1498.79 Q904.742 1496.89 902.467 1497.04 Q900.208 1497.17 898.08 1499.3 Q895.936 1501.44 895.805 1503.7 Q895.69 1505.94 897.589 1507.84 Z" fill="#000000" fill-rule="nonzero" fill-opacity="1" /><path clip-path="url(#clip410)" d="M932.388 1503.95 L937.789 1498.54 L919.146 1479.9 L914.448 1486.96 L911.437 1483.94 L916.101 1476.92 L919.408 1473.62 L941.063 1495.27 L946.464 1489.87 L949.247 1492.65 L935.17 1506.73 L932.388 1503.95 Z" fill="#000000" fill-rule="nonzero" fill-opacity="1" /><path clip-path="url(#clip410)" d="M994.989 1568.09 L1000.39 1562.69 L981.748 1544.05 L977.05 1551.1 L974.038 1548.09 L978.703 1541.07 L982.01 1537.76 L1003.66 1559.42 L1009.07 1554.02 L1011.85 1556.8 L997.772 1570.87 L994.989 1568.09 Z" fill="#000000" fill-rule="nonzero" fill-opacity="1" /><path clip-path="url(#clip410)" d="M1018.12 1549.51 L1015.11 1546.5 Q1016.94 1545.85 1018.53 1544.88 Q1020.11 1543.92 1021.34 1542.69 Q1024.62 1539.42 1024.14 1535.5 Q1023.67 1531.56 1019.43 1526.83 Q1019.89 1529.19 1019.18 1531.4 Q1018.48 1533.6 1016.71 1535.37 Q1013.04 1539.04 1008.69 1538.97 Q1004.34 1538.88 1000.49 1535.03 Q996.724 1531.26 996.675 1526.76 Q996.626 1522.26 1000.33 1518.56 Q1004.56 1514.32 1010.05 1515.35 Q1015.53 1516.35 1021.72 1522.54 Q1027.5 1528.32 1028.2 1534.52 Q1028.9 1540.69 1024.27 1545.32 Q1023.03 1546.57 1021.51 1547.6 Q1019.98 1548.63 1018.12 1549.51 M1014.34 1532.57 Q1016.56 1530.35 1016.33 1527.53 Q1016.12 1524.7 1013.47 1522.05 Q1010.83 1519.41 1008 1519.2 Q1005.17 1518.96 1002.94 1521.18 Q1000.72 1523.41 1000.95 1526.26 Q1001.18 1529.07 1003.81 1531.71 Q1006.46 1534.36 1009.28 1534.59 Q1012.11 1534.8 1014.34 1532.57 Z" fill="#000000" fill-rule="nonzero" fill-opacity="1" /><path clip-path="url(#clip410)" d="M1035.32 1510.12 Q1032.96 1512.47 1032.87 1515.09 Q1032.78 1517.69 1034.99 1519.9 Q1037.2 1522.11 1039.81 1522.03 Q1042.42 1521.93 1044.78 1519.58 Q1047.14 1517.22 1047.24 1514.6 Q1047.32 1511.97 1045.13 1509.77 Q1042.92 1507.56 1040.3 1507.66 Q1037.69 1507.74 1035.32 1510.12 M1030.61 1512.02 Q1027.95 1513.62 1025.3 1513.36 Q1022.67 1513.08 1020.57 1510.98 Q1017.64 1508.05 1018.02 1504.27 Q1018.41 1500.48 1022.05 1496.84 Q1025.7 1493.19 1029.48 1492.82 Q1033.26 1492.44 1036.19 1495.37 Q1038.28 1497.46 1038.55 1500.12 Q1038.82 1502.75 1037.24 1505.39 Q1040.18 1503.55 1043.13 1503.85 Q1046.09 1504.13 1048.43 1506.47 Q1051.98 1510.02 1051.71 1514.09 Q1051.44 1518.15 1047.4 1522.2 Q1043.36 1526.24 1039.28 1526.52 Q1035.22 1526.78 1031.67 1523.23 Q1029.33 1520.89 1029.05 1517.92 Q1028.77 1514.96 1030.61 1512.02 M1024.17 1508 Q1026.07 1509.9 1028.31 1509.79 Q1030.57 1509.66 1032.72 1507.51 Q1034.85 1505.39 1034.98 1503.13 Q1035.12 1500.85 1033.23 1498.95 Q1031.33 1497.05 1029.05 1497.2 Q1026.79 1497.33 1024.66 1499.46 Q1022.52 1501.61 1022.39 1503.86 Q1022.28 1506.11 1024.17 1508 Z" fill="#000000" fill-rule="nonzero" fill-opacity="1" /><path clip-path="url(#clip410)" d="M1036.78 1482.99 L1049.76 1470.01 L1052.54 1472.8 L1042.59 1482.75 L1048.58 1488.74 Q1049.05 1487.77 1049.66 1486.94 Q1050.25 1486.09 1050.97 1485.37 Q1055.06 1481.28 1059.69 1481.13 Q1064.32 1480.98 1068.15 1484.81 Q1072.1 1488.76 1071.84 1493.4 Q1071.56 1498.04 1067.09 1502.51 Q1065.55 1504.04 1063.69 1505.39 Q1061.84 1506.71 1059.61 1507.89 L1056.29 1504.57 Q1058.56 1503.9 1060.53 1502.72 Q1062.49 1501.54 1064.24 1499.79 Q1067.07 1496.96 1067.24 1493.81 Q1067.4 1490.67 1064.85 1488.12 Q1062.3 1485.56 1059.15 1485.73 Q1056.01 1485.89 1053.18 1488.72 Q1051.85 1490.05 1050.82 1491.67 Q1049.81 1493.27 1049.05 1495.27 L1036.78 1482.99 Z" fill="#000000" fill-rule="nonzero" fill-opacity="1" /><path clip-path="url(#clip410)" d="M1121.16 1568.67 L1126.57 1563.26 L1107.92 1544.62 L1103.23 1551.68 L1100.21 1548.66 L1104.88 1541.64 L1108.19 1538.34 L1129.84 1559.99 L1135.24 1554.59 L1138.02 1557.37 L1123.95 1571.45 L1121.16 1568.67 Z" fill="#000000" fill-rule="nonzero" fill-opacity="1" /><path clip-path="url(#clip410)" d="M1144.29 1550.09 L1141.28 1547.08 Q1143.11 1546.42 1144.7 1545.46 Q1146.29 1544.49 1147.52 1543.26 Q1150.79 1539.99 1150.32 1536.08 Q1149.84 1532.13 1145.6 1527.4 Q1146.06 1529.76 1145.36 1531.97 Q1144.65 1534.18 1142.89 1535.95 Q1139.22 1539.61 1134.87 1539.55 Q1130.51 1539.45 1126.66 1535.6 Q1122.9 1531.84 1122.85 1527.34 Q1122.8 1522.83 1126.5 1519.14 Q1130.74 1514.9 1136.22 1515.93 Q1141.71 1516.93 1147.89 1523.11 Q1153.67 1528.89 1154.38 1535.09 Q1155.08 1541.26 1150.45 1545.9 Q1149.2 1547.14 1147.68 1548.17 Q1146.16 1549.2 1144.29 1550.09 M1140.51 1533.15 Q1142.74 1530.92 1142.51 1528.11 Q1142.3 1525.27 1139.64 1522.62 Q1137.01 1519.99 1134.18 1519.77 Q1131.35 1519.53 1129.12 1521.75 Q1126.89 1523.98 1127.12 1526.83 Q1127.35 1529.64 1129.99 1532.28 Q1132.64 1534.93 1135.45 1535.16 Q1138.29 1535.37 1140.51 1533.15 Z" fill="#000000" fill-rule="nonzero" fill-opacity="1" /><path clip-path="url(#clip410)" d="M1161.5 1510.69 Q1159.14 1513.05 1159.04 1515.67 Q1158.96 1518.27 1161.17 1520.48 Q1163.38 1522.69 1165.98 1522.61 Q1168.6 1522.51 1170.96 1520.15 Q1173.31 1517.79 1173.41 1515.17 Q1173.49 1512.54 1171.3 1510.35 Q1169.09 1508.14 1166.47 1508.23 Q1163.87 1508.32 1161.5 1510.69 M1156.78 1512.59 Q1154.13 1514.19 1151.48 1513.93 Q1148.84 1513.65 1146.75 1511.56 Q1143.82 1508.63 1144.19 1504.85 Q1144.59 1501.05 1148.22 1497.41 Q1151.87 1493.76 1155.65 1493.39 Q1159.43 1493.01 1162.36 1495.94 Q1164.46 1498.04 1164.72 1500.69 Q1165 1503.32 1163.41 1505.96 Q1166.36 1504.13 1169.3 1504.42 Q1172.27 1504.7 1174.61 1507.04 Q1178.16 1510.59 1177.88 1514.67 Q1177.62 1518.73 1173.58 1522.77 Q1169.53 1526.81 1165.46 1527.09 Q1161.4 1527.35 1157.85 1523.8 Q1155.51 1521.46 1155.23 1518.5 Q1154.95 1515.53 1156.78 1512.59 M1150.35 1508.58 Q1152.25 1510.48 1154.49 1510.36 Q1156.75 1510.23 1158.89 1508.09 Q1161.02 1505.96 1161.15 1503.7 Q1161.3 1501.42 1159.4 1499.53 Q1157.5 1497.63 1155.23 1497.77 Q1152.97 1497.91 1150.84 1500.03 Q1148.7 1502.18 1148.57 1504.44 Q1148.45 1506.68 1150.35 1508.58 Z" fill="#000000" fill-rule="nonzero" fill-opacity="1" /><path clip-path="url(#clip410)" d="M1186.95 1507.43 L1183.94 1504.42 Q1185.77 1503.77 1187.36 1502.8 Q1188.95 1501.83 1190.17 1500.61 Q1193.45 1497.33 1192.97 1493.42 Q1192.5 1489.48 1188.26 1484.75 Q1188.72 1487.1 1188.01 1489.31 Q1187.31 1491.52 1185.54 1493.29 Q1181.87 1496.96 1177.52 1496.89 Q1173.17 1496.79 1169.32 1492.95 Q1165.56 1489.18 1165.51 1484.68 Q1165.46 1480.18 1169.16 1476.48 Q1173.4 1472.24 1178.88 1473.27 Q1184.36 1474.27 1190.55 1480.46 Q1196.33 1486.24 1197.03 1492.44 Q1197.74 1498.61 1193.1 1503.24 Q1191.86 1504.49 1190.34 1505.52 Q1188.81 1506.55 1186.95 1507.43 M1183.17 1490.49 Q1185.39 1488.26 1185.16 1485.45 Q1184.95 1482.62 1182.3 1479.97 Q1179.66 1477.33 1176.83 1477.12 Q1174 1476.87 1171.78 1479.1 Q1169.55 1481.32 1169.78 1484.17 Q1170.01 1486.99 1172.64 1489.62 Q1175.29 1492.28 1178.11 1492.5 Q1180.94 1492.72 1183.17 1490.49 Z" fill="#000000" fill-rule="nonzero" fill-opacity="1" /><path clip-path="url(#clip410)" d="M1248.24 1568.34 L1253.64 1562.94 L1235 1544.29 L1230.3 1551.35 L1227.29 1548.34 L1231.95 1541.31 L1235.26 1538.01 L1256.92 1559.66 L1262.32 1554.26 L1265.1 1557.04 L1251.02 1571.12 L1248.24 1568.34 Z" fill="#000000" fill-rule="nonzero" fill-opacity="1" /><path clip-path="url(#clip410)" d="M1271.37 1549.76 L1268.36 1546.75 Q1270.19 1546.09 1271.78 1545.13 Q1273.37 1544.16 1274.59 1542.93 Q1277.87 1539.66 1277.39 1535.75 Q1276.92 1531.8 1272.68 1527.07 Q1273.14 1529.43 1272.43 1531.64 Q1271.73 1533.85 1269.96 1535.62 Q1266.29 1539.28 1261.94 1539.22 Q1257.59 1539.12 1253.74 1535.27 Q1249.98 1531.51 1249.93 1527.01 Q1249.88 1522.51 1253.58 1518.81 Q1257.82 1514.57 1263.3 1515.6 Q1268.78 1516.6 1274.97 1522.79 Q1280.75 1528.56 1281.45 1534.77 Q1282.16 1540.94 1277.52 1545.57 Q1276.28 1546.81 1274.76 1547.84 Q1273.23 1548.88 1271.37 1549.76 M1267.59 1532.82 Q1269.81 1530.59 1269.58 1527.78 Q1269.37 1524.95 1266.72 1522.29 Q1264.09 1519.66 1261.25 1519.45 Q1258.42 1519.2 1256.2 1521.43 Q1253.97 1523.65 1254.2 1526.5 Q1254.43 1529.32 1257.06 1531.95 Q1259.71 1534.6 1262.53 1534.83 Q1265.36 1535.05 1267.59 1532.82 Z" fill="#000000" fill-rule="nonzero" fill-opacity="1" /><path clip-path="url(#clip410)" d="M1292.7 1528.43 L1289.68 1525.42 Q1291.52 1524.77 1293.11 1523.8 Q1294.69 1522.83 1295.92 1521.61 Q1299.19 1518.33 1298.72 1514.42 Q1298.25 1510.48 1294.01 1505.75 Q1294.46 1508.1 1293.76 1510.31 Q1293.06 1512.52 1291.29 1514.29 Q1287.62 1517.96 1283.27 1517.89 Q1278.91 1517.79 1275.07 1513.95 Q1271.3 1510.18 1271.25 1505.68 Q1271.21 1501.18 1274.9 1497.48 Q1279.14 1493.24 1284.63 1494.27 Q1290.11 1495.27 1296.3 1501.46 Q1302.08 1507.24 1302.78 1513.44 Q1303.48 1519.61 1298.85 1524.24 Q1297.61 1525.49 1296.08 1526.52 Q1294.56 1527.55 1292.7 1528.43 M1288.92 1511.49 Q1291.14 1509.27 1290.91 1506.45 Q1290.7 1503.62 1288.05 1500.97 Q1285.41 1498.33 1282.58 1498.12 Q1279.75 1497.87 1277.52 1500.1 Q1275.3 1502.33 1275.53 1505.17 Q1275.76 1507.99 1278.39 1510.62 Q1281.04 1513.28 1283.86 1513.5 Q1286.69 1513.72 1288.92 1511.49 Z" fill="#000000" fill-rule="nonzero" fill-opacity="1" /><path clip-path="url(#clip410)" d="M1311.27 1484.52 Q1314.16 1482.65 1317.09 1482.93 Q1320.03 1483.19 1322.39 1485.55 Q1326.01 1489.17 1325.5 1493.63 Q1324.99 1498.1 1320.41 1502.69 Q1318.87 1504.22 1316.92 1505.55 Q1315.01 1506.88 1312.67 1508 L1309.47 1504.81 Q1311.65 1504.24 1313.7 1503.01 Q1315.74 1501.79 1317.53 1500 Q1320.64 1496.89 1321.03 1494.04 Q1321.44 1491.18 1319.1 1488.84 Q1316.94 1486.68 1314.2 1486.99 Q1311.47 1487.27 1308.77 1489.97 L1305.92 1492.82 L1303.2 1490.1 L1306.18 1487.12 Q1308.62 1484.68 1308.95 1482.42 Q1309.26 1480.15 1307.43 1478.31 Q1305.55 1476.43 1303.2 1476.77 Q1300.86 1477.09 1298.38 1479.57 Q1297.02 1480.93 1295.76 1482.78 Q1294.5 1484.63 1293.25 1487.12 L1290.31 1484.17 Q1291.67 1481.77 1293.04 1479.87 Q1294.43 1477.95 1295.89 1476.5 Q1299.65 1472.73 1303.57 1472.26 Q1307.46 1471.77 1310.37 1474.68 Q1312.4 1476.71 1312.65 1479.28 Q1312.88 1481.83 1311.27 1484.52 Z" fill="#000000" fill-rule="nonzero" fill-opacity="1" /><path clip-path="url(#clip410)" d="M1375.17 1568.16 L1380.57 1562.76 L1361.93 1544.11 L1357.23 1551.17 L1354.22 1548.16 L1358.88 1541.13 L1362.19 1537.83 L1383.84 1559.48 L1389.25 1554.08 L1392.03 1556.86 L1377.95 1570.94 L1375.17 1568.16 Z" fill="#000000" fill-rule="nonzero" fill-opacity="1" /><path clip-path="url(#clip410)" d="M1398.3 1549.58 L1395.29 1546.57 Q1397.12 1545.91 1398.71 1544.95 Q1400.29 1543.98 1401.52 1542.75 Q1404.8 1539.48 1404.32 1535.57 Q1403.85 1531.62 1399.61 1526.89 Q1400.07 1529.25 1399.36 1531.46 Q1398.66 1533.67 1396.89 1535.44 Q1393.22 1539.1 1388.87 1539.04 Q1384.52 1538.94 1380.67 1535.09 Q1376.9 1531.33 1376.86 1526.83 Q1376.81 1522.33 1380.51 1518.63 Q1384.74 1514.39 1390.23 1515.42 Q1395.71 1516.42 1401.9 1522.61 Q1407.68 1528.38 1408.38 1534.59 Q1409.08 1540.76 1404.45 1545.39 Q1403.21 1546.63 1401.69 1547.66 Q1400.16 1548.7 1398.3 1549.58 M1394.52 1532.64 Q1396.74 1530.41 1396.51 1527.6 Q1396.3 1524.77 1393.65 1522.11 Q1391.01 1519.48 1388.18 1519.27 Q1385.35 1519.02 1383.12 1521.25 Q1380.9 1523.47 1381.13 1526.32 Q1381.36 1529.14 1383.99 1531.77 Q1386.64 1534.42 1389.46 1534.65 Q1392.29 1534.87 1394.52 1532.64 Z" fill="#000000" fill-rule="nonzero" fill-opacity="1" /><path clip-path="url(#clip410)" d="M1419.63 1528.25 L1416.61 1525.24 Q1418.45 1524.59 1420.03 1523.62 Q1421.62 1522.65 1422.85 1521.43 Q1426.12 1518.15 1425.65 1514.24 Q1425.17 1510.3 1420.93 1505.57 Q1421.39 1507.92 1420.69 1510.13 Q1419.99 1512.34 1418.22 1514.11 Q1414.55 1517.78 1410.2 1517.71 Q1405.84 1517.61 1402 1513.77 Q1398.23 1510 1398.18 1505.5 Q1398.13 1501 1401.83 1497.3 Q1406.07 1493.06 1411.56 1494.09 Q1417.04 1495.09 1423.23 1501.28 Q1429 1507.06 1429.71 1513.26 Q1430.41 1519.43 1425.78 1524.06 Q1424.54 1525.31 1423.01 1526.34 Q1421.49 1527.37 1419.63 1528.25 M1415.84 1511.31 Q1418.07 1509.09 1417.84 1506.27 Q1417.63 1503.44 1414.98 1500.79 Q1412.34 1498.15 1409.51 1497.94 Q1406.68 1497.69 1404.45 1499.92 Q1402.23 1502.15 1402.45 1504.99 Q1402.68 1507.81 1405.32 1510.44 Q1407.97 1513.1 1410.79 1513.32 Q1413.62 1513.54 1415.84 1511.31 Z" fill="#000000" fill-rule="nonzero" fill-opacity="1" /><path clip-path="url(#clip410)" d="M1416.09 1483.93 L1431.8 1468.21 L1433.21 1469.62 L1447.37 1501.52 L1443.92 1504.98 L1430.61 1474.97 L1418.87 1486.71 L1416.09 1483.93 Z" fill="#000000" fill-rule="nonzero" fill-opacity="1" /><path clip-path="url(#clip410)" d="M1504.42 1565.65 L1515.96 1554.11 L1518.74 1556.9 L1503.23 1572.41 L1500.44 1569.63 Q1500.38 1565.8 1500.35 1559.29 Q1500.31 1552.74 1500.2 1550.95 Q1500 1547.58 1499.4 1545.73 Q1498.79 1543.85 1497.6 1542.66 Q1495.65 1540.71 1493.05 1540.86 Q1490.46 1540.99 1488.27 1543.18 Q1486.71 1544.74 1485.52 1547.01 Q1484.34 1549.27 1483.47 1552.33 L1480.13 1548.99 Q1481.33 1546.19 1482.65 1544.05 Q1483.98 1541.9 1485.42 1540.46 Q1489.22 1536.67 1493.37 1536.31 Q1497.53 1535.95 1500.71 1539.12 Q1502.21 1540.63 1503 1542.56 Q1503.78 1544.46 1504.13 1547.78 Q1504.19 1548.66 1504.27 1553.13 Q1504.34 1557.58 1504.42 1565.65 Z" fill="#000000" fill-rule="nonzero" fill-opacity="1" /><path clip-path="url(#clip410)" d="M1510.49 1520.62 Q1507.94 1523.18 1509.17 1526.99 Q1510.4 1530.77 1515.44 1535.81 Q1520.46 1540.84 1524.26 1542.08 Q1528.06 1543.29 1530.61 1540.74 Q1533.18 1538.17 1531.95 1534.39 Q1530.73 1530.58 1525.7 1525.55 Q1520.66 1520.51 1516.86 1519.3 Q1513.06 1518.05 1510.49 1520.62 M1507.88 1518.01 Q1511.98 1513.9 1517.4 1514.99 Q1522.82 1516.06 1529.01 1522.25 Q1535.18 1528.42 1536.26 1533.85 Q1537.34 1539.25 1533.23 1543.36 Q1529.12 1547.47 1523.7 1546.4 Q1518.29 1545.31 1512.12 1539.14 Q1505.93 1532.95 1504.85 1527.55 Q1503.77 1522.11 1507.88 1518.01 Z" fill="#000000" fill-rule="nonzero" fill-opacity="1" /><path clip-path="url(#clip410)" d="M1531.82 1499.3 Q1529.27 1501.85 1530.5 1505.66 Q1531.72 1509.45 1536.77 1514.49 Q1541.79 1519.51 1545.59 1520.76 Q1549.39 1521.97 1551.94 1519.41 Q1554.51 1516.84 1553.28 1513.06 Q1552.05 1509.25 1547.03 1504.22 Q1541.99 1499.18 1538.19 1497.97 Q1534.39 1496.73 1531.82 1499.3 M1529.2 1496.68 Q1533.31 1492.57 1538.73 1493.67 Q1544.15 1494.73 1550.33 1500.92 Q1556.51 1507.09 1557.59 1512.52 Q1558.67 1517.92 1554.56 1522.03 Q1550.45 1526.14 1545.03 1525.08 Q1539.61 1523.98 1533.44 1517.81 Q1527.26 1511.62 1526.18 1506.22 Q1525.09 1500.79 1529.2 1496.68 Z" fill="#000000" fill-rule="nonzero" fill-opacity="1" /><path clip-path="url(#clip410)" d="M1566.13 1503.95 L1571.53 1498.54 L1552.89 1479.9 L1548.19 1486.96 L1545.18 1483.94 L1549.84 1476.92 L1553.15 1473.62 L1574.8 1495.27 L1580.21 1489.87 L1582.99 1492.65 L1568.91 1506.73 L1566.13 1503.95 Z" fill="#000000" fill-rule="nonzero" fill-opacity="1" /><path clip-path="url(#clip410)" d="M1631.01 1565.82 L1642.55 1554.28 L1645.33 1557.06 L1629.81 1572.58 L1627.03 1569.79 Q1626.96 1565.96 1626.93 1559.45 Q1626.9 1552.9 1626.78 1551.12 Q1626.59 1547.75 1625.98 1545.9 Q1625.38 1544.01 1624.18 1542.82 Q1622.23 1540.87 1619.63 1541.02 Q1617.04 1541.15 1614.85 1543.34 Q1613.3 1544.9 1612.1 1547.17 Q1610.92 1549.43 1610.06 1552.49 L1606.72 1549.15 Q1607.91 1546.36 1609.24 1544.21 Q1610.56 1542.07 1612 1540.63 Q1615.8 1536.83 1619.96 1536.47 Q1624.12 1536.11 1627.29 1539.28 Q1628.8 1540.79 1629.58 1542.72 Q1630.37 1544.62 1630.71 1547.94 Q1630.78 1548.83 1630.86 1553.3 Q1630.92 1557.75 1631.01 1565.82 Z" fill="#000000" fill-rule="nonzero" fill-opacity="1" /><path clip-path="url(#clip410)" d="M1637.08 1520.79 Q1634.53 1523.34 1635.75 1527.16 Q1636.98 1530.94 1642.02 1535.98 Q1647.05 1541 1650.84 1542.25 Q1654.64 1543.46 1657.2 1540.9 Q1659.77 1538.34 1658.54 1534.55 Q1657.31 1530.74 1652.29 1525.72 Q1647.24 1520.67 1643.45 1519.46 Q1639.65 1518.22 1637.08 1520.79 M1634.46 1518.17 Q1638.57 1514.06 1643.99 1515.16 Q1649.4 1516.22 1655.59 1522.41 Q1661.76 1528.58 1662.84 1534.01 Q1663.92 1539.42 1659.81 1543.52 Q1655.71 1547.63 1650.29 1546.57 Q1644.87 1545.47 1638.7 1539.3 Q1632.51 1533.11 1631.43 1527.71 Q1630.35 1522.28 1634.46 1518.17 Z" fill="#000000" fill-rule="nonzero" fill-opacity="1" /><path clip-path="url(#clip410)" d="M1658.41 1499.46 Q1655.85 1502.01 1657.08 1505.83 Q1658.31 1509.61 1663.35 1514.65 Q1668.38 1519.68 1672.17 1520.92 Q1675.97 1522.13 1678.52 1519.58 Q1681.09 1517.01 1679.87 1513.23 Q1678.64 1509.41 1673.61 1504.39 Q1668.57 1499.35 1664.77 1498.13 Q1660.98 1496.89 1658.41 1499.46 M1655.79 1496.84 Q1659.9 1492.73 1665.31 1493.83 Q1670.73 1494.89 1676.92 1501.08 Q1683.09 1507.25 1684.17 1512.69 Q1685.25 1518.09 1681.14 1522.2 Q1677.03 1526.3 1671.62 1525.24 Q1666.2 1524.14 1660.03 1517.97 Q1653.84 1511.79 1652.76 1506.38 Q1651.68 1500.95 1655.79 1496.84 Z" fill="#000000" fill-rule="nonzero" fill-opacity="1" /><path clip-path="url(#clip410)" d="M1670.52 1482.99 L1683.5 1470.01 L1686.28 1472.8 L1676.33 1482.75 L1682.32 1488.74 Q1682.8 1487.77 1683.4 1486.94 Q1683.99 1486.09 1684.71 1485.37 Q1688.8 1481.28 1693.43 1481.13 Q1698.07 1480.98 1701.9 1484.81 Q1705.84 1488.76 1705.58 1493.4 Q1705.3 1498.04 1700.83 1502.51 Q1699.29 1504.04 1697.43 1505.39 Q1695.58 1506.71 1693.35 1507.89 L1690.03 1504.57 Q1692.31 1503.9 1694.27 1502.72 Q1696.23 1501.54 1697.99 1499.79 Q1700.82 1496.96 1700.98 1493.81 Q1701.14 1490.67 1698.59 1488.12 Q1696.04 1485.56 1692.89 1485.73 Q1689.75 1485.89 1686.92 1488.72 Q1685.59 1490.05 1684.56 1491.67 Q1683.55 1493.27 1682.8 1495.27 L1670.52 1482.99 Z" fill="#000000" fill-rule="nonzero" fill-opacity="1" /><path clip-path="url(#clip410)" d="M1757.18 1566.39 L1768.72 1554.85 L1771.5 1557.63 L1755.99 1573.15 L1753.2 1570.37 Q1753.14 1566.54 1753.11 1560.02 Q1753.07 1553.48 1752.96 1551.69 Q1752.76 1548.32 1752.16 1546.47 Q1751.55 1544.59 1750.36 1543.39 Q1748.41 1541.45 1745.81 1541.59 Q1743.22 1541.72 1741.03 1543.92 Q1739.47 1545.47 1738.28 1547.75 Q1737.1 1550.01 1736.23 1553.07 L1732.89 1549.73 Q1734.09 1546.93 1735.41 1544.78 Q1736.74 1542.64 1738.18 1541.2 Q1741.98 1537.4 1746.13 1537.04 Q1750.29 1536.68 1753.47 1539.86 Q1754.97 1541.36 1755.76 1543.29 Q1756.54 1545.19 1756.89 1548.52 Q1756.95 1549.4 1757.03 1553.87 Q1757.1 1558.32 1757.18 1566.39 Z" fill="#000000" fill-rule="nonzero" fill-opacity="1" /><path clip-path="url(#clip410)" d="M1763.25 1521.36 Q1760.7 1523.91 1761.93 1527.73 Q1763.16 1531.51 1768.2 1536.55 Q1773.22 1541.58 1777.02 1542.82 Q1780.82 1544.03 1783.37 1541.48 Q1785.94 1538.91 1784.71 1535.13 Q1783.49 1531.31 1778.46 1526.29 Q1773.42 1521.25 1769.62 1520.04 Q1765.82 1518.79 1763.25 1521.36 M1760.64 1518.74 Q1764.74 1514.63 1770.16 1515.73 Q1775.58 1516.79 1781.77 1522.98 Q1787.94 1529.15 1789.02 1534.59 Q1790.1 1539.99 1785.99 1544.1 Q1781.88 1548.21 1776.46 1547.14 Q1771.05 1546.04 1764.88 1539.87 Q1758.69 1533.69 1757.61 1528.29 Q1756.53 1522.85 1760.64 1518.74 Z" fill="#000000" fill-rule="nonzero" fill-opacity="1" /><path clip-path="url(#clip410)" d="M1784.58 1500.03 Q1782.03 1502.59 1783.26 1506.4 Q1784.48 1510.18 1789.53 1515.22 Q1794.55 1520.25 1798.35 1521.49 Q1802.15 1522.7 1804.7 1520.15 Q1807.27 1517.58 1806.04 1513.8 Q1804.81 1509.99 1799.79 1504.96 Q1794.75 1499.92 1790.95 1498.71 Q1787.15 1497.46 1784.58 1500.03 M1781.96 1497.41 Q1786.07 1493.31 1791.49 1494.4 Q1796.91 1495.47 1803.09 1501.65 Q1809.27 1507.82 1810.35 1513.26 Q1811.43 1518.66 1807.32 1522.77 Q1803.21 1526.88 1797.79 1525.81 Q1792.37 1524.72 1786.2 1518.55 Q1780.02 1512.36 1778.94 1506.96 Q1777.86 1501.52 1781.96 1497.41 Z" fill="#000000" fill-rule="nonzero" fill-opacity="1" /><path clip-path="url(#clip410)" d="M1820.69 1507.43 L1817.68 1504.42 Q1819.51 1503.77 1821.1 1502.8 Q1822.69 1501.83 1823.92 1500.61 Q1827.19 1497.33 1826.71 1493.42 Q1826.24 1489.48 1822 1484.75 Q1822.46 1487.1 1821.75 1489.31 Q1821.05 1491.52 1819.28 1493.29 Q1815.62 1496.96 1811.26 1496.89 Q1806.91 1496.79 1803.06 1492.95 Q1799.3 1489.18 1799.25 1484.68 Q1799.2 1480.18 1802.9 1476.48 Q1807.14 1472.24 1812.62 1473.27 Q1818.1 1474.27 1824.29 1480.46 Q1830.07 1486.24 1830.77 1492.44 Q1831.48 1498.61 1826.85 1503.24 Q1825.6 1504.49 1824.08 1505.52 Q1822.56 1506.55 1820.69 1507.43 M1816.91 1490.49 Q1819.14 1488.26 1818.91 1485.45 Q1818.69 1482.62 1816.04 1479.97 Q1813.41 1477.33 1810.58 1477.12 Q1807.74 1476.87 1805.52 1479.1 Q1803.29 1481.32 1803.52 1484.17 Q1803.75 1486.99 1806.38 1489.62 Q1809.04 1492.28 1811.85 1492.5 Q1814.68 1492.72 1816.91 1490.49 Z" fill="#000000" fill-rule="nonzero" fill-opacity="1" /><path clip-path="url(#clip410)" d="M1884.26 1566.06 L1895.8 1554.52 L1898.58 1557.31 L1883.06 1572.82 L1880.28 1570.04 Q1880.22 1566.21 1880.18 1559.7 Q1880.15 1553.15 1880.04 1551.36 Q1879.84 1547.99 1879.23 1546.14 Q1878.63 1544.26 1877.43 1543.07 Q1875.48 1541.12 1872.88 1541.26 Q1870.3 1541.4 1868.1 1543.59 Q1866.55 1545.14 1865.35 1547.42 Q1864.17 1549.68 1863.31 1552.74 L1859.97 1549.4 Q1861.16 1546.6 1862.49 1544.46 Q1863.81 1542.31 1865.25 1540.87 Q1869.05 1537.07 1873.21 1536.71 Q1877.37 1536.35 1880.54 1539.53 Q1882.05 1541.04 1882.83 1542.97 Q1883.62 1544.87 1883.96 1548.19 Q1884.03 1549.07 1884.11 1553.54 Q1884.18 1557.99 1884.26 1566.06 Z" fill="#000000" fill-rule="nonzero" fill-opacity="1" /><path clip-path="url(#clip410)" d="M1890.33 1521.03 Q1887.78 1523.59 1889 1527.4 Q1890.23 1531.18 1895.27 1536.22 Q1900.3 1541.25 1904.1 1542.49 Q1907.89 1543.7 1910.45 1541.15 Q1913.02 1538.58 1911.79 1534.8 Q1910.56 1530.99 1905.54 1525.96 Q1900.5 1520.92 1896.7 1519.71 Q1892.9 1518.46 1890.33 1521.03 M1887.71 1518.42 Q1891.82 1514.31 1897.24 1515.4 Q1902.66 1516.47 1908.84 1522.65 Q1915.01 1528.83 1916.09 1534.26 Q1917.17 1539.66 1913.07 1543.77 Q1908.96 1547.88 1903.54 1546.81 Q1898.12 1545.72 1891.95 1539.55 Q1885.76 1533.36 1884.68 1527.96 Q1883.6 1522.52 1887.71 1518.42 Z" fill="#000000" fill-rule="nonzero" fill-opacity="1" /><path clip-path="url(#clip410)" d="M1924.64 1525.68 L1930.04 1520.28 L1911.4 1501.64 L1906.7 1508.69 L1903.69 1505.68 L1908.35 1498.66 L1911.66 1495.35 L1933.31 1517.01 L1938.71 1511.61 L1941.5 1514.39 L1927.42 1528.47 L1924.64 1525.68 Z" fill="#000000" fill-rule="nonzero" fill-opacity="1" /><path clip-path="url(#clip410)" d="M1945.02 1484.52 Q1947.9 1482.65 1950.83 1482.93 Q1953.77 1483.19 1956.13 1485.55 Q1959.75 1489.17 1959.24 1493.63 Q1958.73 1498.1 1954.15 1502.69 Q1952.61 1504.22 1950.66 1505.55 Q1948.75 1506.88 1946.41 1508 L1943.22 1504.81 Q1945.39 1504.24 1947.44 1503.01 Q1949.49 1501.79 1951.27 1500 Q1954.38 1496.89 1954.77 1494.04 Q1955.18 1491.18 1952.84 1488.84 Q1950.68 1486.68 1947.95 1486.99 Q1945.21 1487.27 1942.51 1489.97 L1939.66 1492.82 L1936.95 1490.1 L1939.93 1487.12 Q1942.36 1484.68 1942.69 1482.42 Q1943 1480.15 1941.17 1478.31 Q1939.29 1476.43 1936.95 1476.77 Q1934.61 1477.09 1932.12 1479.57 Q1930.76 1480.93 1929.5 1482.78 Q1928.24 1484.63 1927 1487.12 L1924.05 1484.17 Q1925.41 1481.77 1926.78 1479.87 Q1928.17 1477.95 1929.63 1476.5 Q1933.4 1472.73 1937.31 1472.26 Q1941.2 1471.77 1944.12 1474.68 Q1946.15 1476.71 1946.39 1479.28 Q1946.62 1481.83 1945.02 1484.52 Z" fill="#000000" fill-rule="nonzero" fill-opacity="1" /><path clip-path="url(#clip410)" d="M2011.19 1565.88 L2022.73 1554.34 L2025.51 1557.13 L2009.99 1572.64 L2007.21 1569.86 Q2007.14 1566.03 2007.11 1559.52 Q2007.08 1552.97 2006.96 1551.18 Q2006.77 1547.81 2006.16 1545.96 Q2005.56 1544.08 2004.36 1542.89 Q2002.41 1540.94 1999.81 1541.08 Q1997.22 1541.22 1995.03 1543.41 Q1993.48 1544.96 1992.28 1547.24 Q1991.1 1549.5 1990.24 1552.56 L1986.9 1549.22 Q1988.09 1546.42 1989.42 1544.28 Q1990.74 1542.13 1992.18 1540.69 Q1995.98 1536.89 2000.14 1536.53 Q2004.3 1536.17 2007.47 1539.35 Q2008.98 1540.86 2009.76 1542.79 Q2010.55 1544.69 2010.89 1548.01 Q2010.96 1548.89 2011.04 1553.36 Q2011.1 1557.81 2011.19 1565.88 Z" fill="#000000" fill-rule="nonzero" fill-opacity="1" /><path clip-path="url(#clip410)" d="M2017.26 1520.85 Q2014.71 1523.41 2015.93 1527.22 Q2017.16 1531 2022.2 1536.04 Q2027.23 1541.07 2031.02 1542.31 Q2034.82 1543.52 2037.38 1540.97 Q2039.95 1538.4 2038.72 1534.62 Q2037.49 1530.81 2032.47 1525.78 Q2027.42 1520.74 2023.63 1519.53 Q2019.83 1518.28 2017.26 1520.85 M2014.64 1518.24 Q2018.75 1514.13 2024.17 1515.22 Q2029.58 1516.29 2035.77 1522.47 Q2041.94 1528.65 2043.02 1534.08 Q2044.1 1539.48 2039.99 1543.59 Q2035.89 1547.7 2030.47 1546.63 Q2025.05 1545.54 2018.88 1539.37 Q2012.69 1533.18 2011.61 1527.78 Q2010.53 1522.34 2014.64 1518.24 Z" fill="#000000" fill-rule="nonzero" fill-opacity="1" /><path clip-path="url(#clip410)" d="M2051.57 1525.5 L2056.97 1520.1 L2038.32 1501.46 L2033.63 1508.51 L2030.62 1505.5 L2035.28 1498.48 L2038.59 1495.17 L2060.24 1516.83 L2065.64 1511.43 L2068.43 1514.21 L2054.35 1528.29 L2051.57 1525.5 Z" fill="#000000" fill-rule="nonzero" fill-opacity="1" /><path clip-path="url(#clip410)" d="M2049.83 1483.93 L2065.55 1468.21 L2066.95 1469.62 L2081.11 1501.52 L2077.66 1504.98 L2064.35 1474.97 L2052.61 1486.71 L2049.83 1483.93 Z" fill="#000000" fill-rule="nonzero" fill-opacity="1" /><path clip-path="url(#clip410)" d="M2138.16 1565.65 L2149.7 1554.11 L2152.49 1556.9 L2136.97 1572.41 L2134.19 1569.63 Q2134.12 1565.8 2134.09 1559.29 Q2134.06 1552.74 2133.94 1550.95 Q2133.74 1547.58 2133.14 1545.73 Q2132.53 1543.85 2131.34 1542.66 Q2129.39 1540.71 2126.79 1540.86 Q2124.2 1540.99 2122.01 1543.18 Q2120.45 1544.74 2119.26 1547.01 Q2118.08 1549.27 2117.21 1552.33 L2113.87 1548.99 Q2115.07 1546.19 2116.39 1544.05 Q2117.72 1541.9 2119.16 1540.46 Q2122.96 1536.67 2127.12 1536.31 Q2131.27 1535.95 2134.45 1539.12 Q2135.95 1540.63 2136.74 1542.56 Q2137.53 1544.46 2137.87 1547.78 Q2137.93 1548.66 2138.02 1553.13 Q2138.08 1557.58 2138.16 1565.65 Z" fill="#000000" fill-rule="nonzero" fill-opacity="1" /><path clip-path="url(#clip410)" d="M2144.24 1520.62 Q2141.68 1523.18 2142.91 1526.99 Q2144.14 1530.77 2149.18 1535.81 Q2154.2 1540.84 2158 1542.08 Q2161.8 1543.29 2164.35 1540.74 Q2166.92 1538.17 2165.7 1534.39 Q2164.47 1530.58 2159.44 1525.55 Q2154.4 1520.51 2150.6 1519.3 Q2146.81 1518.05 2144.24 1520.62 M2141.62 1518.01 Q2145.73 1513.9 2151.14 1514.99 Q2156.56 1516.06 2162.75 1522.25 Q2168.92 1528.42 2170 1533.85 Q2171.08 1539.25 2166.97 1543.36 Q2162.86 1547.47 2157.45 1546.4 Q2152.03 1545.31 2145.86 1539.14 Q2139.67 1532.95 2138.59 1527.55 Q2137.51 1522.11 2141.62 1518.01 Z" fill="#000000" fill-rule="nonzero" fill-opacity="1" /><path clip-path="url(#clip410)" d="M2180.82 1523 L2192.36 1511.46 L2195.14 1514.24 L2179.62 1529.76 L2176.84 1526.98 Q2176.78 1523.15 2176.74 1516.63 Q2176.71 1510.08 2176.6 1508.3 Q2176.4 1504.93 2175.79 1503.08 Q2175.19 1501.2 2173.99 1500 Q2172.05 1498.05 2169.44 1498.2 Q2166.86 1498.33 2164.66 1500.52 Q2163.11 1502.08 2161.91 1504.35 Q2160.74 1506.61 2159.87 1509.67 L2156.53 1506.34 Q2157.72 1503.54 2159.05 1501.39 Q2160.38 1499.25 2161.82 1497.81 Q2165.61 1494.01 2169.77 1493.65 Q2173.93 1493.29 2177.1 1496.47 Q2178.61 1497.97 2179.4 1499.9 Q2180.18 1501.8 2180.52 1505.12 Q2180.59 1506.01 2180.67 1510.48 Q2180.74 1514.93 2180.82 1523 Z" fill="#000000" fill-rule="nonzero" fill-opacity="1" /><path clip-path="url(#clip410)" d="M2199.87 1503.95 L2205.27 1498.54 L2186.63 1479.9 L2181.93 1486.96 L2178.92 1483.94 L2183.59 1476.92 L2186.89 1473.62 L2208.55 1495.27 L2213.95 1489.87 L2216.73 1492.65 L2202.65 1506.73 L2199.87 1503.95 Z" fill="#000000" fill-rule="nonzero" fill-opacity="1" /><polyline clip-path="url(#clip412)" style="stroke:#000000; stroke-linecap:round; stroke-linejoin:round; stroke-width:2; stroke-opacity:0.1; fill:none" points="186.274,1403.4 2352.76,1403.4 "/>
<polyline clip-path="url(#clip412)" style="stroke:#000000; stroke-linecap:round; stroke-linejoin:round; stroke-width:2; stroke-opacity:0.1; fill:none" points="186.274,1074.24 2352.76,1074.24 "/>
<polyline clip-path="url(#clip412)" style="stroke:#000000; stroke-linecap:round; stroke-linejoin:round; stroke-width:2; stroke-opacity:0.1; fill:none" points="186.274,745.074 2352.76,745.074 "/>
<polyline clip-path="url(#clip412)" style="stroke:#000000; stroke-linecap:round; stroke-linejoin:round; stroke-width:2; stroke-opacity:0.1; fill:none" points="186.274,415.909 2352.76,415.909 "/>
<polyline clip-path="url(#clip412)" style="stroke:#000000; stroke-linecap:round; stroke-linejoin:round; stroke-width:2; stroke-opacity:0.1; fill:none" points="186.274,86.7439 2352.76,86.7439 "/>
<polyline clip-path="url(#clip410)" style="stroke:#000000; stroke-linecap:round; stroke-linejoin:round; stroke-width:4; stroke-opacity:1; fill:none" points="186.274,1442.9 186.274,47.2441 "/>
<polyline clip-path="url(#clip410)" style="stroke:#000000; stroke-linecap:round; stroke-linejoin:round; stroke-width:4; stroke-opacity:1; fill:none" points="186.274,1403.4 205.172,1403.4 "/>
<polyline clip-path="url(#clip410)" style="stroke:#000000; stroke-linecap:round; stroke-linejoin:round; stroke-width:4; stroke-opacity:1; fill:none" points="186.274,1074.24 205.172,1074.24 "/>
<polyline clip-path="url(#clip410)" style="stroke:#000000; stroke-linecap:round; stroke-linejoin:round; stroke-width:4; stroke-opacity:1; fill:none" points="186.274,745.074 205.172,745.074 "/>
<polyline clip-path="url(#clip410)" style="stroke:#000000; stroke-linecap:round; stroke-linejoin:round; stroke-width:4; stroke-opacity:1; fill:none" points="186.274,415.909 205.172,415.909 "/>
<polyline clip-path="url(#clip410)" style="stroke:#000000; stroke-linecap:round; stroke-linejoin:round; stroke-width:4; stroke-opacity:1; fill:none" points="186.274,86.7439 205.172,86.7439 "/>
<path clip-path="url(#clip410)" d="M62.9365 1389.2 Q59.3254 1389.2 57.4967 1392.77 Q55.6912 1396.31 55.6912 1403.44 Q55.6912 1410.55 57.4967 1414.11 Q59.3254 1417.65 62.9365 1417.65 Q66.5707 1417.65 68.3763 1414.11 Q70.205 1410.55 70.205 1403.44 Q70.205 1396.31 68.3763 1392.77 Q66.5707 1389.2 62.9365 1389.2 M62.9365 1385.5 Q68.7467 1385.5 71.8022 1390.11 Q74.8809 1394.69 74.8809 1403.44 Q74.8809 1412.17 71.8022 1416.77 Q68.7467 1421.36 62.9365 1421.36 Q57.1264 1421.36 54.0477 1416.77 Q50.9921 1412.17 50.9921 1403.44 Q50.9921 1394.69 54.0477 1390.11 Q57.1264 1385.5 62.9365 1385.5 Z" fill="#000000" fill-rule="nonzero" fill-opacity="1" /><path clip-path="url(#clip410)" d="M83.0984 1414.81 L87.9827 1414.81 L87.9827 1420.68 L83.0984 1420.68 L83.0984 1414.81 Z" fill="#000000" fill-rule="nonzero" fill-opacity="1" /><path clip-path="url(#clip410)" d="M108.168 1389.2 Q104.557 1389.2 102.728 1392.77 Q100.922 1396.31 100.922 1403.44 Q100.922 1410.55 102.728 1414.11 Q104.557 1417.65 108.168 1417.65 Q111.802 1417.65 113.608 1414.11 Q115.436 1410.55 115.436 1403.44 Q115.436 1396.31 113.608 1392.77 Q111.802 1389.2 108.168 1389.2 M108.168 1385.5 Q113.978 1385.5 117.033 1390.11 Q120.112 1394.69 120.112 1403.44 Q120.112 1412.17 117.033 1416.77 Q113.978 1421.36 108.168 1421.36 Q102.358 1421.36 99.2789 1416.77 Q96.2234 1412.17 96.2234 1403.44 Q96.2234 1394.69 99.2789 1390.11 Q102.358 1385.5 108.168 1385.5 Z" fill="#000000" fill-rule="nonzero" fill-opacity="1" /><path clip-path="url(#clip410)" d="M138.33 1389.2 Q134.719 1389.2 132.89 1392.77 Q131.084 1396.31 131.084 1403.44 Q131.084 1410.55 132.89 1414.11 Q134.719 1417.65 138.33 1417.65 Q141.964 1417.65 143.769 1414.11 Q145.598 1410.55 145.598 1403.44 Q145.598 1396.31 143.769 1392.77 Q141.964 1389.2 138.33 1389.2 M138.33 1385.5 Q144.14 1385.5 147.195 1390.11 Q150.274 1394.69 150.274 1403.44 Q150.274 1412.17 147.195 1416.77 Q144.14 1421.36 138.33 1421.36 Q132.519 1421.36 129.441 1416.77 Q126.385 1412.17 126.385 1403.44 Q126.385 1394.69 129.441 1390.11 Q132.519 1385.5 138.33 1385.5 Z" fill="#000000" fill-rule="nonzero" fill-opacity="1" /><path clip-path="url(#clip410)" d="M63.9319 1060.04 Q60.3208 1060.04 58.4921 1063.6 Q56.6865 1067.14 56.6865 1074.27 Q56.6865 1081.38 58.4921 1084.95 Q60.3208 1088.49 63.9319 1088.49 Q67.5661 1088.49 69.3717 1084.95 Q71.2004 1081.38 71.2004 1074.27 Q71.2004 1067.14 69.3717 1063.6 Q67.5661 1060.04 63.9319 1060.04 M63.9319 1056.33 Q69.742 1056.33 72.7976 1060.94 Q75.8763 1065.52 75.8763 1074.27 Q75.8763 1083 72.7976 1087.61 Q69.742 1092.19 63.9319 1092.19 Q58.1217 1092.19 55.043 1087.61 Q51.9875 1083 51.9875 1074.27 Q51.9875 1065.52 55.043 1060.94 Q58.1217 1056.33 63.9319 1056.33 Z" fill="#000000" fill-rule="nonzero" fill-opacity="1" /><path clip-path="url(#clip410)" d="M84.0938 1085.64 L88.978 1085.64 L88.978 1091.52 L84.0938 1091.52 L84.0938 1085.64 Z" fill="#000000" fill-rule="nonzero" fill-opacity="1" /><path clip-path="url(#clip410)" d="M103.191 1087.58 L119.51 1087.58 L119.51 1091.52 L97.566 1091.52 L97.566 1087.58 Q100.228 1084.83 104.811 1080.2 Q109.418 1075.55 110.598 1074.2 Q112.844 1071.68 113.723 1069.95 Q114.626 1068.19 114.626 1066.5 Q114.626 1063.74 112.682 1062.01 Q110.76 1060.27 107.658 1060.27 Q105.459 1060.27 103.006 1061.03 Q100.575 1061.8 97.7974 1063.35 L97.7974 1058.63 Q100.621 1057.49 103.075 1056.91 Q105.529 1056.33 107.566 1056.33 Q112.936 1056.33 116.131 1059.02 Q119.325 1061.7 119.325 1066.2 Q119.325 1068.33 118.515 1070.25 Q117.728 1072.14 115.621 1074.74 Q115.043 1075.41 111.941 1078.63 Q108.839 1081.82 103.191 1087.58 Z" fill="#000000" fill-rule="nonzero" fill-opacity="1" /><path clip-path="url(#clip410)" d="M129.371 1056.96 L147.728 1056.96 L147.728 1060.89 L133.654 1060.89 L133.654 1069.37 Q134.672 1069.02 135.691 1068.86 Q136.709 1068.67 137.728 1068.67 Q143.515 1068.67 146.894 1071.84 Q150.274 1075.02 150.274 1080.43 Q150.274 1086.01 146.802 1089.11 Q143.33 1092.19 137.01 1092.19 Q134.834 1092.19 132.566 1091.82 Q130.32 1091.45 127.913 1090.71 L127.913 1086.01 Q129.996 1087.14 132.219 1087.7 Q134.441 1088.26 136.918 1088.26 Q140.922 1088.26 143.26 1086.15 Q145.598 1084.04 145.598 1080.43 Q145.598 1076.82 143.26 1074.71 Q140.922 1072.61 136.918 1072.61 Q135.043 1072.61 133.168 1073.02 Q131.316 1073.44 129.371 1074.32 L129.371 1056.96 Z" fill="#000000" fill-rule="nonzero" fill-opacity="1" /><path clip-path="url(#clip410)" d="M62.9365 730.873 Q59.3254 730.873 57.4967 734.438 Q55.6912 737.979 55.6912 745.109 Q55.6912 752.216 57.4967 755.78 Q59.3254 759.322 62.9365 759.322 Q66.5707 759.322 68.3763 755.78 Q70.205 752.216 70.205 745.109 Q70.205 737.979 68.3763 734.438 Q66.5707 730.873 62.9365 730.873 M62.9365 727.169 Q68.7467 727.169 71.8022 731.776 Q74.8809 736.359 74.8809 745.109 Q74.8809 753.836 71.8022 758.442 Q68.7467 763.026 62.9365 763.026 Q57.1264 763.026 54.0477 758.442 Q50.9921 753.836 50.9921 745.109 Q50.9921 736.359 54.0477 731.776 Q57.1264 727.169 62.9365 727.169 Z" fill="#000000" fill-rule="nonzero" fill-opacity="1" /><path clip-path="url(#clip410)" d="M83.0984 756.475 L87.9827 756.475 L87.9827 762.354 L83.0984 762.354 L83.0984 756.475 Z" fill="#000000" fill-rule="nonzero" fill-opacity="1" /><path clip-path="url(#clip410)" d="M98.2141 727.794 L116.57 727.794 L116.57 731.73 L102.496 731.73 L102.496 740.202 Q103.515 739.854 104.534 739.692 Q105.552 739.507 106.571 739.507 Q112.358 739.507 115.737 742.679 Q119.117 745.85 119.117 751.266 Q119.117 756.845 115.645 759.947 Q112.172 763.026 105.853 763.026 Q103.677 763.026 101.409 762.655 Q99.1632 762.285 96.7558 761.544 L96.7558 756.845 Q98.8391 757.979 101.061 758.535 Q103.284 759.09 105.76 759.09 Q109.765 759.09 112.103 756.984 Q114.441 754.878 114.441 751.266 Q114.441 747.655 112.103 745.549 Q109.765 743.442 105.76 743.442 Q103.885 743.442 102.01 743.859 Q100.159 744.276 98.2141 745.155 L98.2141 727.794 Z" fill="#000000" fill-rule="nonzero" fill-opacity="1" /><path clip-path="url(#clip410)" d="M138.33 730.873 Q134.719 730.873 132.89 734.438 Q131.084 737.979 131.084 745.109 Q131.084 752.216 132.89 755.78 Q134.719 759.322 138.33 759.322 Q141.964 759.322 143.769 755.78 Q145.598 752.216 145.598 745.109 Q145.598 737.979 143.769 734.438 Q141.964 730.873 138.33 730.873 M138.33 727.169 Q144.14 727.169 147.195 731.776 Q150.274 736.359 150.274 745.109 Q150.274 753.836 147.195 758.442 Q144.14 763.026 138.33 763.026 Q132.519 763.026 129.441 758.442 Q126.385 753.836 126.385 745.109 Q126.385 736.359 129.441 731.776 Q132.519 727.169 138.33 727.169 Z" fill="#000000" fill-rule="nonzero" fill-opacity="1" /><path clip-path="url(#clip410)" d="M63.9319 401.708 Q60.3208 401.708 58.4921 405.273 Q56.6865 408.814 56.6865 415.944 Q56.6865 423.05 58.4921 426.615 Q60.3208 430.157 63.9319 430.157 Q67.5661 430.157 69.3717 426.615 Q71.2004 423.05 71.2004 415.944 Q71.2004 408.814 69.3717 405.273 Q67.5661 401.708 63.9319 401.708 M63.9319 398.004 Q69.742 398.004 72.7976 402.611 Q75.8763 407.194 75.8763 415.944 Q75.8763 424.671 72.7976 429.277 Q69.742 433.86 63.9319 433.86 Q58.1217 433.86 55.043 429.277 Q51.9875 424.671 51.9875 415.944 Q51.9875 407.194 55.043 402.611 Q58.1217 398.004 63.9319 398.004 Z" fill="#000000" fill-rule="nonzero" fill-opacity="1" /><path clip-path="url(#clip410)" d="M84.0938 427.31 L88.978 427.31 L88.978 433.189 L84.0938 433.189 L84.0938 427.31 Z" fill="#000000" fill-rule="nonzero" fill-opacity="1" /><path clip-path="url(#clip410)" d="M97.9826 398.629 L120.205 398.629 L120.205 400.62 L107.658 433.189 L102.774 433.189 L114.58 402.564 L97.9826 402.564 L97.9826 398.629 Z" fill="#000000" fill-rule="nonzero" fill-opacity="1" /><path clip-path="url(#clip410)" d="M129.371 398.629 L147.728 398.629 L147.728 402.564 L133.654 402.564 L133.654 411.036 Q134.672 410.689 135.691 410.527 Q136.709 410.342 137.728 410.342 Q143.515 410.342 146.894 413.513 Q150.274 416.685 150.274 422.101 Q150.274 427.68 146.802 430.782 Q143.33 433.86 137.01 433.86 Q134.834 433.86 132.566 433.49 Q130.32 433.12 127.913 432.379 L127.913 427.68 Q129.996 428.814 132.219 429.37 Q134.441 429.925 136.918 429.925 Q140.922 429.925 143.26 427.819 Q145.598 425.712 145.598 422.101 Q145.598 418.49 143.26 416.384 Q140.922 414.277 136.918 414.277 Q135.043 414.277 133.168 414.694 Q131.316 415.111 129.371 415.99 L129.371 398.629 Z" fill="#000000" fill-rule="nonzero" fill-opacity="1" /><path clip-path="url(#clip410)" d="M53.7467 100.089 L61.3856 100.089 L61.3856 73.7232 L53.0754 75.3898 L53.0754 71.1306 L61.3393 69.4639 L66.0152 69.4639 L66.0152 100.089 L73.654 100.089 L73.654 104.024 L53.7467 104.024 L53.7467 100.089 Z" fill="#000000" fill-rule="nonzero" fill-opacity="1" /><path clip-path="url(#clip410)" d="M83.0984 98.1443 L87.9827 98.1443 L87.9827 104.024 L83.0984 104.024 L83.0984 98.1443 Z" fill="#000000" fill-rule="nonzero" fill-opacity="1" /><path clip-path="url(#clip410)" d="M108.168 72.5426 Q104.557 72.5426 102.728 76.1074 Q100.922 79.6491 100.922 86.7786 Q100.922 93.8851 102.728 97.4499 Q104.557 100.992 108.168 100.992 Q111.802 100.992 113.608 97.4499 Q115.436 93.8851 115.436 86.7786 Q115.436 79.6491 113.608 76.1074 Q111.802 72.5426 108.168 72.5426 M108.168 68.8389 Q113.978 68.8389 117.033 73.4454 Q120.112 78.0287 120.112 86.7786 Q120.112 95.5054 117.033 100.112 Q113.978 104.695 108.168 104.695 Q102.358 104.695 99.2789 100.112 Q96.2234 95.5054 96.2234 86.7786 Q96.2234 78.0287 99.2789 73.4454 Q102.358 68.8389 108.168 68.8389 Z" fill="#000000" fill-rule="nonzero" fill-opacity="1" /><path clip-path="url(#clip410)" d="M138.33 72.5426 Q134.719 72.5426 132.89 76.1074 Q131.084 79.6491 131.084 86.7786 Q131.084 93.8851 132.89 97.4499 Q134.719 100.992 138.33 100.992 Q141.964 100.992 143.769 97.4499 Q145.598 93.8851 145.598 86.7786 Q145.598 79.6491 143.769 76.1074 Q141.964 72.5426 138.33 72.5426 M138.33 68.8389 Q144.14 68.8389 147.195 73.4454 Q150.274 78.0287 150.274 86.7786 Q150.274 95.5054 147.195 100.112 Q144.14 104.695 138.33 104.695 Q132.519 104.695 129.441 100.112 Q126.385 95.5054 126.385 86.7786 Q126.385 78.0287 129.441 73.4454 Q132.519 68.8389 138.33 68.8389 Z" fill="#000000" fill-rule="nonzero" fill-opacity="1" /><polyline clip-path="url(#clip412)" style="stroke:#009af9; stroke-linecap:round; stroke-linejoin:round; stroke-width:8; stroke-opacity:1; fill:none" points="247.59,993.035 255.484,1145.21 263.466,1305.75 271.447,1245.18 279.342,1338.6 287.236,1371.18 295.218,88.5614 303.199,285.158 311.007,475.938 318.902,792.987 326.883,1117.37 334.865,1277.85 342.673,1351.39 350.567,1372.61 358.549,1380.48 366.53,1378.67 374.338,1380.07 382.233,1380.08 390.214,1380.34 398.195,1352.82 406.09,1370.45 413.985,1376.55 421.966,1064.9 429.948,1185.84 437.756,1317.38 445.65,1369.17 453.632,1377.65 461.613,1372.56 469.421,1385.51 477.316,103.206 485.297,105.398 493.278,167.125 501.086,693.927 508.981,745.366 516.962,110.409 524.944,87.5479 532.839,88.0273 540.733,89.1743 548.715,86.7601 556.696,86.8061 564.504,86.7441 572.399,87.8182 580.38,86.7505 588.361,93.8696 596.169,86.744 604.064,86.7444 612.045,149.034 620.027,86.7465 627.835,114.456 635.729,87.5368 643.711,161.557 651.692,585.966 659.587,1100.07 667.482,1178.33 675.463,1335.41 683.444,1375.59 691.252,1202.63 699.147,1125.19 707.128,90.9085 715.11,86.7505 722.918,86.7439 730.812,86.7439 738.794,86.7439 746.775,86.7439 754.583,90.8488 762.478,531.919 770.459,1216.18 778.441,173.178 786.335,88.5216 794.23,269.857 802.211,86.7556 810.193,134.797 818.001,86.7439 825.895,86.7454 833.877,96.3703 841.858,87.6306 849.666,86.7451 857.561,86.7439 865.542,86.7439 873.524,86.7439 881.332,86.7439 889.226,86.7439 897.208,86.7439 905.189,86.7439 913.084,86.7439 920.978,86.7439 928.96,728.741 936.941,86.7439 944.749,669.421 952.644,86.744 960.625,86.7439 968.607,553.194 976.415,531.083 984.309,86.7439 992.291,341.246 1000.27,86.7439 1008.08,253.284 1015.97,289.121 1023.96,87.2374 1031.94,86.7874 1039.83,86.7457 1047.73,87.0456 1055.71,87.6402 1063.69,200.438 1071.5,93.5972 1079.39,210.032 1087.37,506.147 1095.36,88.1858 1103.16,173.694 1111.06,385.652 1119.04,111.523 1127.02,123.109 1134.83,95.8347 1142.72,86.8299 1150.7,87.1638 1158.69,99.4369 1166.58,106.674 1174.48,88.1502 1182.46,88.5012 1190.44,125.24 1198.25,105.493 1206.14,106.246 1214.12,467.683 1222.1,97.5407 1229.91,86.773 1237.81,103.624 1245.79,86.7502 1253.77,148.722 1261.58,97.7552 1269.47,376.577 1277.45,473.428 1285.43,842.904 1293.33,1119.33 1301.22,1228.82 1309.21,1328.05 1317.19,841.642 1324.99,987.801 1332.89,953.249 1340.87,1228.86 1348.85,996.909 1356.66,1249.04 1364.55,1329.94 1372.54,1350.77 1380.52,1379.11 1388.33,916.215 1396.22,1094.78 1404.2,1291.49 1412.18,1365.11 1420.08,1330.84 1427.97,1374.14 1435.95,1381.47 1443.94,1387.56 1451.74,1389.91 1459.64,1390.88 1467.62,1389.34 1475.6,1390.7 1483.41,1389.65 1491.3,1386.44 1499.28,1384.23 1507.27,1353.9 1515.07,1331.41 1522.97,1372.65 1530.95,1340.95 1538.93,1381.61 1546.83,1353.34 1554.72,1385.9 1562.7,1392.71 1570.68,1394.45 1578.49,1391.29 1586.39,1391.29 1594.37,1391.34 1602.35,1389.22 1610.16,1384.54 1618.05,1385.54 1626.03,1377.6 1634.01,1382.34 1641.82,1370.26 1649.72,1306.16 1657.7,1357.04 1665.68,1306.49 1673.57,1340.47 1681.47,1367.87 1689.45,1382.06 1697.43,1385.05 1705.24,1370.8 1713.13,1272.57 1721.12,1363.22 1729.1,1386.93 1736.91,1388.66 1744.8,1384.72 1752.78,1393.07 1760.76,1383.81 1768.57,1389.94 1776.47,1390.7 1784.45,1390.66 1792.43,1357.57 1800.32,1384.27 1808.22,1388.13 1816.2,1387.85 1824.18,86.7579 1831.99,297.677 1839.88,661.952 1847.86,1114.47 1855.85,1210.46 1863.65,1076.99 1871.55,1214.04 1879.53,1300.13 1887.51,1341.67 1895.32,1364.96 1903.21,1370.83 1911.2,1369.72 1919.18,1378.43 1927.07,1373.71 1934.97,1366.03 1942.95,1375.56 1950.93,1377.11 1958.74,1380.76 1966.63,1342.81 1974.61,1362.24 1982.59,1376.88 1990.4,1380.16 1998.3,1380.29 2006.28,1382.02 2014.26,1368.49 2022.07,1381.39 2029.96,1370.75 2037.94,1372.1 2045.92,1361.72 2053.82,1333.76 2061.71,1087.57 2069.7,1215.75 2077.68,1336.14 2085.49,1376.89 2093.38,1378.58 2101.36,1388.23 2109.34,1387.39 2117.15,1355.42 2125.05,1384.86 2133.03,1388.02 2141.01,1389.57 2148.82,1392.27 2156.71,1393.59 2164.69,1390.31 2172.67,1388.13 2180.57,1388.29 2188.46,86.754 2196.44,86.7716 2204.43,281.189 2212.23,607.571 2220.13,86.7439 2228.11,195.026 2236.09,86.7439 2243.9,87.1068 2251.79,86.7453 2259.77,197.76 2267.76,1216.45 2275.56,1392.14 2283.46,1401.08 2291.44,1399.62 "/>
<polyline clip-path="url(#clip412)" style="stroke:#e26f46; stroke-linecap:round; stroke-linejoin:round; stroke-width:8; stroke-opacity:1; fill:none" points="247.59,497.114 255.484,344.943 263.466,184.394 271.447,244.967 279.342,151.552 287.236,118.971 295.218,1401.59 303.199,1204.99 311.007,1014.21 318.902,697.162 326.883,372.781 334.865,212.298 342.673,138.763 350.567,117.54 358.549,109.671 366.53,111.477 374.338,110.079 382.233,110.065 390.214,109.813 398.195,137.333 406.09,119.694 413.985,113.599 421.966,425.251 429.948,304.31 437.756,172.773 445.65,120.981 453.632,112.502 461.613,117.592 469.421,104.636 477.316,1386.94 485.297,1384.75 493.278,1323.02 501.086,796.222 508.981,744.782 516.962,1379.74 524.944,1402.6 532.839,1402.12 540.733,1400.97 548.715,1403.39 556.696,1403.34 564.504,1403.4 572.399,1402.33 580.38,1403.4 588.361,1396.28 596.169,1403.4 604.064,1403.4 612.045,1341.11 620.027,1403.4 627.835,1375.69 635.729,1402.61 643.711,1328.59 651.692,904.183 659.587,390.074 667.482,311.816 675.463,154.744 683.444,114.557 691.252,287.521 699.147,364.962 707.128,1399.24 715.11,1403.4 722.918,1403.4 730.812,1403.4 738.794,1403.4 746.775,1403.4 754.583,1399.3 762.478,958.23 770.459,273.966 778.441,1316.97 786.335,1401.63 794.23,1220.29 802.211,1403.39 810.193,1355.35 818.001,1403.4 825.895,1403.4 833.877,1393.78 841.858,1402.52 849.666,1403.4 857.561,1403.4 865.542,1403.4 873.524,1403.4 881.332,1403.4 889.226,1403.4 897.208,1403.4 905.189,1403.4 913.084,1403.4 920.978,1403.4 928.96,761.408 936.941,1403.4 944.749,820.727 952.644,1403.4 960.625,1403.4 968.607,936.955 976.415,959.066 984.309,1403.4 992.291,1148.9 1000.27,1403.4 1008.08,1236.87 1015.97,1201.03 1023.96,1402.91 1031.94,1403.36 1039.83,1403.4 1047.73,1403.1 1055.71,1402.51 1063.69,1289.71 1071.5,1396.55 1079.39,1280.12 1087.37,984.002 1095.36,1401.96 1103.16,1316.45 1111.06,1104.5 1119.04,1378.63 1127.02,1367.04 1134.83,1394.31 1142.72,1403.32 1150.7,1402.98 1158.69,1390.71 1166.58,1383.47 1174.48,1402 1182.46,1401.65 1190.44,1364.91 1198.25,1384.66 1206.14,1383.9 1214.12,1022.47 1222.1,1392.61 1229.91,1403.38 1237.81,1386.52 1245.79,1403.4 1253.77,1341.43 1261.58,1392.39 1269.47,1113.57 1277.45,1016.72 1285.43,647.245 1293.33,370.823 1301.22,261.328 1309.21,162.096 1317.19,648.506 1324.99,502.347 1332.89,536.9 1340.87,261.289 1348.85,493.24 1356.66,241.106 1364.55,160.207 1372.54,139.375 1380.52,111.035 1388.33,573.933 1396.22,395.368 1404.2,198.659 1412.18,125.044 1420.08,159.31 1427.97,116.011 1435.95,108.676 1443.94,102.586 1451.74,100.235 1459.64,99.2712 1467.62,100.812 1475.6,99.4439 1483.41,100.497 1491.3,103.708 1499.28,105.924 1507.27,136.245 1515.07,158.734 1522.97,117.5 1530.95,149.202 1538.93,108.537 1546.83,136.805 1554.72,104.247 1562.7,97.4419 1570.68,95.6964 1578.49,98.857 1586.39,98.8597 1594.37,98.8083 1602.35,100.925 1610.16,105.604 1618.05,104.605 1626.03,112.544 1634.01,107.804 1641.82,119.885 1649.72,183.988 1657.7,133.109 1665.68,183.659 1673.57,149.683 1681.47,122.28 1689.45,108.093 1697.43,105.095 1705.24,119.347 1713.13,217.58 1721.12,126.933 1729.1,103.222 1736.91,101.49 1744.8,105.429 1752.78,97.0773 1760.76,106.341 1768.57,100.204 1776.47,99.4467 1784.45,99.4862 1792.43,132.579 1800.32,105.881 1808.22,102.017 1816.2,102.294 1824.18,1403.39 1831.99,1192.47 1839.88,828.197 1847.86,375.675 1855.85,279.686 1863.65,413.156 1871.55,276.104 1879.53,190.022 1887.51,148.478 1895.32,125.191 1903.21,119.319 1911.2,120.429 1919.18,111.719 1927.07,116.435 1934.97,124.115 1942.95,114.587 1950.93,113.034 1958.74,109.391 1966.63,147.336 1974.61,127.909 1982.59,113.266 1990.4,109.992 1998.3,109.859 2006.28,108.133 2014.26,121.661 2022.07,108.758 2029.96,119.396 2037.94,118.045 2045.92,128.429 2053.82,156.39 2061.71,402.578 2069.7,274.395 2077.68,154.009 2085.49,113.262 2093.38,111.568 2101.36,101.924 2109.34,102.754 2117.15,134.725 2125.05,105.288 2133.03,102.128 2141.01,100.574 2148.82,97.876 2156.71,96.5604 2164.69,99.8401 2172.67,102.023 2180.57,101.858 2188.46,1403.39 2196.44,1403.38 2204.43,1208.96 2212.23,882.578 2220.13,1403.4 2228.11,1295.12 2236.09,1403.4 2243.9,1403.04 2251.79,1403.4 2259.77,1292.39 2267.76,273.703 2275.56,98.007 2283.46,89.0718 2291.44,90.5294 "/>
<path clip-path="url(#clip410)" d="M258.49 1396.38 L935.668 1396.38 L935.668 1240.86 L258.49 1240.86  Z" fill="#ffffff" fill-rule="evenodd" fill-opacity="1"/>
<polyline clip-path="url(#clip410)" style="stroke:#000000; stroke-linecap:round; stroke-linejoin:round; stroke-width:4; stroke-opacity:1; fill:none" points="258.49,1396.38 935.668,1396.38 935.668,1240.86 258.49,1240.86 258.49,1396.38 "/>
<polyline clip-path="url(#clip410)" style="stroke:#009af9; stroke-linecap:round; stroke-linejoin:round; stroke-width:8; stroke-opacity:1; fill:none" points="282.562,1292.7 426.994,1292.7 "/>
<path clip-path="url(#clip410)" d="M473.311 1276.56 L473.311 1281.12 Q470.649 1279.84 468.288 1279.22 Q465.927 1278.59 463.728 1278.59 Q459.909 1278.59 457.825 1280.08 Q455.765 1281.56 455.765 1284.29 Q455.765 1286.58 457.131 1287.76 Q458.52 1288.92 462.362 1289.64 L465.187 1290.21 Q470.418 1291.21 472.895 1293.73 Q475.395 1296.23 475.395 1300.45 Q475.395 1305.47 472.015 1308.06 Q468.659 1310.65 462.154 1310.65 Q459.7 1310.65 456.923 1310.1 Q454.168 1309.54 451.205 1308.45 L451.205 1303.64 Q454.052 1305.24 456.784 1306.05 Q459.515 1306.86 462.154 1306.86 Q466.159 1306.86 468.335 1305.28 Q470.511 1303.71 470.511 1300.79 Q470.511 1298.25 468.937 1296.81 Q467.386 1295.38 463.821 1294.66 L460.974 1294.1 Q455.742 1293.06 453.404 1290.84 Q451.066 1288.62 451.066 1284.66 Q451.066 1280.08 454.284 1277.44 Q457.525 1274.8 463.196 1274.8 Q465.626 1274.8 468.149 1275.24 Q470.673 1275.68 473.311 1276.56 Z" fill="#000000" fill-rule="nonzero" fill-opacity="1" /><path clip-path="url(#clip410)" d="M486.714 1276.7 L486.714 1284.06 L495.487 1284.06 L495.487 1287.37 L486.714 1287.37 L486.714 1301.44 Q486.714 1304.61 487.571 1305.52 Q488.45 1306.42 491.112 1306.42 L495.487 1306.42 L495.487 1309.98 L491.112 1309.98 Q486.182 1309.98 484.307 1308.15 Q482.432 1306.3 482.432 1301.44 L482.432 1287.37 L479.307 1287.37 L479.307 1284.06 L482.432 1284.06 L482.432 1276.7 L486.714 1276.7 Z" fill="#000000" fill-rule="nonzero" fill-opacity="1" /><path clip-path="url(#clip410)" d="M523.265 1295.95 L523.265 1298.04 L503.682 1298.04 Q503.959 1302.44 506.321 1304.75 Q508.705 1307.04 512.941 1307.04 Q515.395 1307.04 517.686 1306.44 Q520.001 1305.84 522.27 1304.64 L522.27 1308.66 Q519.978 1309.64 517.571 1310.14 Q515.163 1310.65 512.686 1310.65 Q506.483 1310.65 502.848 1307.04 Q499.237 1303.43 499.237 1297.27 Q499.237 1290.91 502.663 1287.18 Q506.112 1283.43 511.946 1283.43 Q517.177 1283.43 520.209 1286.81 Q523.265 1290.17 523.265 1295.95 M519.006 1294.7 Q518.959 1291.21 517.038 1289.13 Q515.14 1287.04 511.992 1287.04 Q508.427 1287.04 506.274 1289.06 Q504.145 1291.07 503.821 1294.73 L519.006 1294.7 Z" fill="#000000" fill-rule="nonzero" fill-opacity="1" /><path clip-path="url(#clip410)" d="M552.431 1295.95 L552.431 1298.04 L532.848 1298.04 Q533.126 1302.44 535.487 1304.75 Q537.871 1307.04 542.107 1307.04 Q544.561 1307.04 546.853 1306.44 Q549.168 1305.84 551.436 1304.64 L551.436 1308.66 Q549.144 1309.64 546.737 1310.14 Q544.33 1310.65 541.853 1310.65 Q535.649 1310.65 532.015 1307.04 Q528.404 1303.43 528.404 1297.27 Q528.404 1290.91 531.83 1287.18 Q535.279 1283.43 541.112 1283.43 Q546.344 1283.43 549.376 1286.81 Q552.431 1290.17 552.431 1295.95 M548.172 1294.7 Q548.126 1291.21 546.205 1289.13 Q544.306 1287.04 541.158 1287.04 Q537.594 1287.04 535.441 1289.06 Q533.311 1291.07 532.987 1294.73 L548.172 1294.7 Z" fill="#000000" fill-rule="nonzero" fill-opacity="1" /><path clip-path="url(#clip410)" d="M563.542 1306.09 L563.542 1319.84 L559.26 1319.84 L559.26 1284.06 L563.542 1284.06 L563.542 1287.99 Q564.885 1285.68 566.922 1284.57 Q568.982 1283.43 571.829 1283.43 Q576.552 1283.43 579.491 1287.18 Q582.454 1290.93 582.454 1297.04 Q582.454 1303.15 579.491 1306.9 Q576.552 1310.65 571.829 1310.65 Q568.982 1310.65 566.922 1309.54 Q564.885 1308.41 563.542 1306.09 M578.033 1297.04 Q578.033 1292.34 576.089 1289.68 Q574.167 1287 570.788 1287 Q567.408 1287 565.464 1289.68 Q563.542 1292.34 563.542 1297.04 Q563.542 1301.74 565.464 1304.43 Q567.408 1307.09 570.788 1307.09 Q574.167 1307.09 576.089 1304.43 Q578.033 1301.74 578.033 1297.04 Z" fill="#000000" fill-rule="nonzero" fill-opacity="1" /><path clip-path="url(#clip410)" d="M609.445 1279.27 L609.445 1292.25 L615.325 1292.25 Q618.588 1292.25 620.371 1290.56 Q622.153 1288.87 622.153 1285.75 Q622.153 1282.64 620.371 1280.95 Q618.588 1279.27 615.325 1279.27 L609.445 1279.27 M604.769 1275.42 L615.325 1275.42 Q621.135 1275.42 624.098 1278.06 Q627.084 1280.68 627.084 1285.75 Q627.084 1290.86 624.098 1293.48 Q621.135 1296.09 615.325 1296.09 L609.445 1296.09 L609.445 1309.98 L604.769 1309.98 L604.769 1275.42 Z" fill="#000000" fill-rule="nonzero" fill-opacity="1" /><path clip-path="url(#clip410)" d="M654.723 1294.33 L654.723 1309.98 L650.463 1309.98 L650.463 1294.47 Q650.463 1290.79 649.028 1288.96 Q647.593 1287.14 644.723 1287.14 Q641.274 1287.14 639.283 1289.33 Q637.292 1291.53 637.292 1295.33 L637.292 1309.98 L633.01 1309.98 L633.01 1273.96 L637.292 1273.96 L637.292 1288.08 Q638.82 1285.75 640.88 1284.59 Q642.963 1283.43 645.672 1283.43 Q650.139 1283.43 652.431 1286.21 Q654.723 1288.96 654.723 1294.33 Z" fill="#000000" fill-rule="nonzero" fill-opacity="1" /><path clip-path="url(#clip410)" d="M663.218 1284.06 L667.477 1284.06 L667.477 1309.98 L663.218 1309.98 L663.218 1284.06 M663.218 1273.96 L667.477 1273.96 L667.477 1279.36 L663.218 1279.36 L663.218 1273.96 Z" fill="#000000" fill-rule="nonzero" fill-opacity="1" /><path clip-path="url(#clip410)" d="M676.389 1273.96 L680.648 1273.96 L680.648 1309.98 L676.389 1309.98 L676.389 1273.96 Z" fill="#000000" fill-rule="nonzero" fill-opacity="1" /><path clip-path="url(#clip410)" d="M689.56 1273.96 L693.82 1273.96 L693.82 1309.98 L689.56 1309.98 L689.56 1273.96 Z" fill="#000000" fill-rule="nonzero" fill-opacity="1" /><path clip-path="url(#clip410)" d="M702.732 1284.06 L706.991 1284.06 L706.991 1309.98 L702.732 1309.98 L702.732 1284.06 M702.732 1273.96 L706.991 1273.96 L706.991 1279.36 L702.732 1279.36 L702.732 1273.96 Z" fill="#000000" fill-rule="nonzero" fill-opacity="1" /><path clip-path="url(#clip410)" d="M720.023 1306.09 L720.023 1319.84 L715.741 1319.84 L715.741 1284.06 L720.023 1284.06 L720.023 1287.99 Q721.366 1285.68 723.403 1284.57 Q725.463 1283.43 728.31 1283.43 Q733.032 1283.43 735.972 1287.18 Q738.935 1290.93 738.935 1297.04 Q738.935 1303.15 735.972 1306.9 Q733.032 1310.65 728.31 1310.65 Q725.463 1310.65 723.403 1309.54 Q721.366 1308.41 720.023 1306.09 M734.514 1297.04 Q734.514 1292.34 732.569 1289.68 Q730.648 1287 727.268 1287 Q723.889 1287 721.944 1289.68 Q720.023 1292.34 720.023 1297.04 Q720.023 1301.74 721.944 1304.43 Q723.889 1307.09 727.268 1307.09 Q730.648 1307.09 732.569 1304.43 Q734.514 1301.74 734.514 1297.04 Z" fill="#000000" fill-rule="nonzero" fill-opacity="1" /><path clip-path="url(#clip410)" d="M762.523 1284.82 L762.523 1288.85 Q760.717 1287.92 758.773 1287.46 Q756.828 1287 754.745 1287 Q751.574 1287 749.977 1287.97 Q748.403 1288.94 748.403 1290.89 Q748.403 1292.37 749.537 1293.22 Q750.671 1294.06 754.097 1294.82 L755.555 1295.14 Q760.092 1296.12 761.99 1297.9 Q763.912 1299.66 763.912 1302.83 Q763.912 1306.44 761.041 1308.55 Q758.194 1310.65 753.194 1310.65 Q751.111 1310.65 748.842 1310.24 Q746.597 1309.84 744.097 1309.03 L744.097 1304.64 Q746.458 1305.86 748.75 1306.49 Q751.041 1307.09 753.287 1307.09 Q756.296 1307.09 757.916 1306.07 Q759.537 1305.03 759.537 1303.15 Q759.537 1301.42 758.356 1300.49 Q757.199 1299.57 753.241 1298.71 L751.759 1298.36 Q747.801 1297.53 746.042 1295.82 Q744.282 1294.08 744.282 1291.07 Q744.282 1287.41 746.875 1285.42 Q749.467 1283.43 754.236 1283.43 Q756.597 1283.43 758.68 1283.78 Q760.764 1284.13 762.523 1284.82 Z" fill="#000000" fill-rule="nonzero" fill-opacity="1" /><path clip-path="url(#clip410)" d="M804.421 1285.05 L804.421 1289.03 Q802.615 1288.04 800.787 1287.55 Q798.981 1287.04 797.129 1287.04 Q792.986 1287.04 790.694 1289.68 Q788.402 1292.3 788.402 1297.04 Q788.402 1301.79 790.694 1304.43 Q792.986 1307.04 797.129 1307.04 Q798.981 1307.04 800.787 1306.56 Q802.615 1306.05 804.421 1305.05 L804.421 1308.99 Q802.638 1309.82 800.717 1310.24 Q798.819 1310.65 796.666 1310.65 Q790.81 1310.65 787.361 1306.97 Q783.912 1303.29 783.912 1297.04 Q783.912 1290.7 787.384 1287.07 Q790.879 1283.43 796.944 1283.43 Q798.912 1283.43 800.787 1283.85 Q802.662 1284.24 804.421 1285.05 Z" fill="#000000" fill-rule="nonzero" fill-opacity="1" /><path clip-path="url(#clip410)" d="M811.388 1299.75 L811.388 1284.06 L815.648 1284.06 L815.648 1299.59 Q815.648 1303.27 817.083 1305.12 Q818.518 1306.95 821.388 1306.95 Q824.837 1306.95 826.828 1304.75 Q828.842 1302.55 828.842 1298.76 L828.842 1284.06 L833.101 1284.06 L833.101 1309.98 L828.842 1309.98 L828.842 1306 Q827.291 1308.36 825.231 1309.52 Q823.194 1310.65 820.486 1310.65 Q816.018 1310.65 813.703 1307.88 Q811.388 1305.1 811.388 1299.75 M822.106 1283.43 L822.106 1283.43 Z" fill="#000000" fill-rule="nonzero" fill-opacity="1" /><path clip-path="url(#clip410)" d="M856.897 1288.04 Q856.18 1287.62 855.323 1287.44 Q854.49 1287.23 853.471 1287.23 Q849.86 1287.23 847.916 1289.59 Q845.995 1291.93 845.995 1296.33 L845.995 1309.98 L841.712 1309.98 L841.712 1284.06 L845.995 1284.06 L845.995 1288.08 Q847.337 1285.72 849.49 1284.59 Q851.643 1283.43 854.721 1283.43 Q855.161 1283.43 855.694 1283.5 Q856.226 1283.55 856.874 1283.66 L856.897 1288.04 Z" fill="#000000" fill-rule="nonzero" fill-opacity="1" /><path clip-path="url(#clip410)" d="M858.309 1284.06 L862.823 1284.06 L870.925 1305.82 L879.027 1284.06 L883.541 1284.06 L873.819 1309.98 L868.032 1309.98 L858.309 1284.06 Z" fill="#000000" fill-rule="nonzero" fill-opacity="1" /><path clip-path="url(#clip410)" d="M911.596 1295.95 L911.596 1298.04 L892.013 1298.04 Q892.291 1302.44 894.652 1304.75 Q897.036 1307.04 901.272 1307.04 Q903.726 1307.04 906.018 1306.44 Q908.332 1305.84 910.601 1304.64 L910.601 1308.66 Q908.309 1309.64 905.902 1310.14 Q903.494 1310.65 901.018 1310.65 Q894.814 1310.65 891.18 1307.04 Q887.569 1303.43 887.569 1297.27 Q887.569 1290.91 890.994 1287.18 Q894.443 1283.43 900.277 1283.43 Q905.508 1283.43 908.541 1286.81 Q911.596 1290.17 911.596 1295.95 M907.337 1294.7 Q907.291 1291.21 905.369 1289.13 Q903.471 1287.04 900.323 1287.04 Q896.758 1287.04 894.606 1289.06 Q892.476 1291.07 892.152 1294.73 L907.337 1294.7 Z" fill="#000000" fill-rule="nonzero" fill-opacity="1" /><polyline clip-path="url(#clip410)" style="stroke:#e26f46; stroke-linecap:round; stroke-linejoin:round; stroke-width:8; stroke-opacity:1; fill:none" points="282.562,1344.54 426.994,1344.54 "/>
<path clip-path="url(#clip410)" d="M451.066 1327.26 L470.927 1327.26 L470.927 1331.2 L455.742 1331.2 L455.742 1341.38 L469.446 1341.38 L469.446 1345.32 L455.742 1345.32 L455.742 1361.82 L451.066 1361.82 L451.066 1327.26 Z" fill="#000000" fill-rule="nonzero" fill-opacity="1" /><path clip-path="url(#clip410)" d="M478.149 1325.8 L482.409 1325.8 L482.409 1361.82 L478.149 1361.82 L478.149 1325.8 Z" fill="#000000" fill-rule="nonzero" fill-opacity="1" /><path clip-path="url(#clip410)" d="M503.103 1348.79 Q497.941 1348.79 495.95 1349.97 Q493.96 1351.15 493.96 1354 Q493.96 1356.27 495.441 1357.61 Q496.946 1358.93 499.515 1358.93 Q503.057 1358.93 505.186 1356.43 Q507.339 1353.91 507.339 1349.74 L507.339 1348.79 L503.103 1348.79 M511.598 1347.03 L511.598 1361.82 L507.339 1361.82 L507.339 1357.89 Q505.881 1360.25 503.705 1361.38 Q501.529 1362.49 498.381 1362.49 Q494.399 1362.49 492.038 1360.27 Q489.7 1358.03 489.7 1354.28 Q489.7 1349.9 492.617 1347.68 Q495.557 1345.46 501.367 1345.46 L507.339 1345.46 L507.339 1345.04 Q507.339 1342.1 505.395 1340.5 Q503.473 1338.88 499.978 1338.88 Q497.756 1338.88 495.649 1339.42 Q493.543 1339.95 491.598 1341.01 L491.598 1337.08 Q493.936 1336.17 496.135 1335.73 Q498.334 1335.27 500.418 1335.27 Q506.043 1335.27 508.821 1338.19 Q511.598 1341.11 511.598 1347.03 Z" fill="#000000" fill-rule="nonzero" fill-opacity="1" /><path clip-path="url(#clip410)" d="M524.584 1328.54 L524.584 1335.9 L533.357 1335.9 L533.357 1339.21 L524.584 1339.21 L524.584 1353.28 Q524.584 1356.45 525.441 1357.36 Q526.32 1358.26 528.982 1358.26 L533.357 1358.26 L533.357 1361.82 L528.982 1361.82 Q524.052 1361.82 522.177 1359.99 Q520.302 1358.14 520.302 1353.28 L520.302 1339.21 L517.177 1339.21 L517.177 1335.9 L520.302 1335.9 L520.302 1328.54 L524.584 1328.54 Z" fill="#000000" fill-rule="nonzero" fill-opacity="1" /><path clip-path="url(#clip410)" d="M558.89 1331.11 L558.89 1344.09 L564.769 1344.09 Q568.033 1344.09 569.816 1342.4 Q571.598 1340.71 571.598 1337.59 Q571.598 1334.48 569.816 1332.79 Q568.033 1331.11 564.769 1331.11 L558.89 1331.11 M554.214 1327.26 L564.769 1327.26 Q570.579 1327.26 573.542 1329.9 Q576.529 1332.52 576.529 1337.59 Q576.529 1342.7 573.542 1345.32 Q570.579 1347.93 564.769 1347.93 L558.89 1347.93 L558.89 1361.82 L554.214 1361.82 L554.214 1327.26 Z" fill="#000000" fill-rule="nonzero" fill-opacity="1" /><path clip-path="url(#clip410)" d="M604.167 1346.17 L604.167 1361.82 L599.908 1361.82 L599.908 1346.31 Q599.908 1342.63 598.473 1340.8 Q597.038 1338.98 594.167 1338.98 Q590.718 1338.98 588.728 1341.17 Q586.737 1343.37 586.737 1347.17 L586.737 1361.82 L582.454 1361.82 L582.454 1325.8 L586.737 1325.8 L586.737 1339.92 Q588.265 1337.59 590.325 1336.43 Q592.408 1335.27 595.116 1335.27 Q599.584 1335.27 601.876 1338.05 Q604.167 1340.8 604.167 1346.17 Z" fill="#000000" fill-rule="nonzero" fill-opacity="1" /><path clip-path="url(#clip410)" d="M612.663 1335.9 L616.922 1335.9 L616.922 1361.82 L612.663 1361.82 L612.663 1335.9 M612.663 1325.8 L616.922 1325.8 L616.922 1331.2 L612.663 1331.2 L612.663 1325.8 Z" fill="#000000" fill-rule="nonzero" fill-opacity="1" /><path clip-path="url(#clip410)" d="M625.834 1325.8 L630.093 1325.8 L630.093 1361.82 L625.834 1361.82 L625.834 1325.8 Z" fill="#000000" fill-rule="nonzero" fill-opacity="1" /><path clip-path="url(#clip410)" d="M639.005 1325.8 L643.264 1325.8 L643.264 1361.82 L639.005 1361.82 L639.005 1325.8 Z" fill="#000000" fill-rule="nonzero" fill-opacity="1" /><path clip-path="url(#clip410)" d="M652.176 1335.9 L656.436 1335.9 L656.436 1361.82 L652.176 1361.82 L652.176 1335.9 M652.176 1325.8 L656.436 1325.8 L656.436 1331.2 L652.176 1331.2 L652.176 1325.8 Z" fill="#000000" fill-rule="nonzero" fill-opacity="1" /><path clip-path="url(#clip410)" d="M669.468 1357.93 L669.468 1371.68 L665.185 1371.68 L665.185 1335.9 L669.468 1335.9 L669.468 1339.83 Q670.81 1337.52 672.847 1336.41 Q674.908 1335.27 677.755 1335.27 Q682.477 1335.27 685.417 1339.02 Q688.38 1342.77 688.38 1348.88 Q688.38 1354.99 685.417 1358.74 Q682.477 1362.49 677.755 1362.49 Q674.908 1362.49 672.847 1361.38 Q670.81 1360.25 669.468 1357.93 M683.959 1348.88 Q683.959 1344.18 682.014 1341.52 Q680.093 1338.84 676.713 1338.84 Q673.334 1338.84 671.389 1341.52 Q669.468 1344.18 669.468 1348.88 Q669.468 1353.58 671.389 1356.27 Q673.334 1358.93 676.713 1358.93 Q680.093 1358.93 682.014 1356.27 Q683.959 1353.58 683.959 1348.88 Z" fill="#000000" fill-rule="nonzero" fill-opacity="1" /><path clip-path="url(#clip410)" d="M711.968 1336.66 L711.968 1340.69 Q710.162 1339.76 708.218 1339.3 Q706.273 1338.84 704.19 1338.84 Q701.019 1338.84 699.421 1339.81 Q697.847 1340.78 697.847 1342.73 Q697.847 1344.21 698.982 1345.06 Q700.116 1345.9 703.542 1346.66 L705 1346.98 Q709.537 1347.96 711.435 1349.74 Q713.356 1351.5 713.356 1354.67 Q713.356 1358.28 710.486 1360.39 Q707.639 1362.49 702.639 1362.49 Q700.556 1362.49 698.287 1362.08 Q696.042 1361.68 693.542 1360.87 L693.542 1356.48 Q695.903 1357.7 698.195 1358.33 Q700.486 1358.93 702.732 1358.93 Q705.741 1358.93 707.361 1357.91 Q708.982 1356.87 708.982 1354.99 Q708.982 1353.26 707.801 1352.33 Q706.644 1351.41 702.685 1350.55 L701.204 1350.2 Q697.245 1349.37 695.486 1347.66 Q693.727 1345.92 693.727 1342.91 Q693.727 1339.25 696.32 1337.26 Q698.912 1335.27 703.681 1335.27 Q706.042 1335.27 708.125 1335.62 Q710.208 1335.97 711.968 1336.66 Z" fill="#000000" fill-rule="nonzero" fill-opacity="1" /><path clip-path="url(#clip410)" d="M753.866 1336.89 L753.866 1340.87 Q752.06 1339.88 750.231 1339.39 Q748.426 1338.88 746.574 1338.88 Q742.43 1338.88 740.139 1341.52 Q737.847 1344.14 737.847 1348.88 Q737.847 1353.63 740.139 1356.27 Q742.43 1358.88 746.574 1358.88 Q748.426 1358.88 750.231 1358.4 Q752.06 1357.89 753.866 1356.89 L753.866 1360.83 Q752.083 1361.66 750.162 1362.08 Q748.264 1362.49 746.111 1362.49 Q740.254 1362.49 736.805 1358.81 Q733.356 1355.13 733.356 1348.88 Q733.356 1342.54 736.829 1338.91 Q740.324 1335.27 746.389 1335.27 Q748.356 1335.27 750.231 1335.69 Q752.106 1336.08 753.866 1336.89 Z" fill="#000000" fill-rule="nonzero" fill-opacity="1" /><path clip-path="url(#clip410)" d="M760.833 1351.59 L760.833 1335.9 L765.092 1335.9 L765.092 1351.43 Q765.092 1355.11 766.528 1356.96 Q767.963 1358.79 770.833 1358.79 Q774.282 1358.79 776.273 1356.59 Q778.287 1354.39 778.287 1350.6 L778.287 1335.9 L782.546 1335.9 L782.546 1361.82 L778.287 1361.82 L778.287 1357.84 Q776.736 1360.2 774.676 1361.36 Q772.639 1362.49 769.93 1362.49 Q765.463 1362.49 763.148 1359.72 Q760.833 1356.94 760.833 1351.59 M771.551 1335.27 L771.551 1335.27 Z" fill="#000000" fill-rule="nonzero" fill-opacity="1" /><path clip-path="url(#clip410)" d="M806.342 1339.88 Q805.625 1339.46 804.768 1339.28 Q803.935 1339.07 802.916 1339.07 Q799.305 1339.07 797.361 1341.43 Q795.439 1343.77 795.439 1348.17 L795.439 1361.82 L791.157 1361.82 L791.157 1335.9 L795.439 1335.9 L795.439 1339.92 Q796.782 1337.56 798.935 1336.43 Q801.088 1335.27 804.166 1335.27 Q804.606 1335.27 805.138 1335.34 Q805.671 1335.39 806.319 1335.5 L806.342 1339.88 Z" fill="#000000" fill-rule="nonzero" fill-opacity="1" /><path clip-path="url(#clip410)" d="M807.754 1335.9 L812.268 1335.9 L820.37 1357.66 L828.472 1335.9 L832.985 1335.9 L823.263 1361.82 L817.476 1361.82 L807.754 1335.9 Z" fill="#000000" fill-rule="nonzero" fill-opacity="1" /><path clip-path="url(#clip410)" d="M861.041 1347.79 L861.041 1349.88 L841.458 1349.88 Q841.735 1354.28 844.097 1356.59 Q846.481 1358.88 850.717 1358.88 Q853.171 1358.88 855.462 1358.28 Q857.777 1357.68 860.046 1356.48 L860.046 1360.5 Q857.754 1361.48 855.346 1361.98 Q852.939 1362.49 850.462 1362.49 Q844.259 1362.49 840.624 1358.88 Q837.013 1355.27 837.013 1349.11 Q837.013 1342.75 840.439 1339.02 Q843.888 1335.27 849.722 1335.27 Q854.953 1335.27 857.985 1338.65 Q861.041 1342.01 861.041 1347.79 M856.782 1346.54 Q856.735 1343.05 854.814 1340.97 Q852.916 1338.88 849.768 1338.88 Q846.203 1338.88 844.05 1340.9 Q841.921 1342.91 841.597 1346.57 L856.782 1346.54 Z" fill="#000000" fill-rule="nonzero" fill-opacity="1" /></svg>
