<?xml version="1.0" encoding="utf-8"?>
<svg xmlns="http://www.w3.org/2000/svg" xmlns:xlink="http://www.w3.org/1999/xlink" width="600" height="400" viewBox="0 0 2400 1600">
<defs>
  <clipPath id="clip180">
    <rect x="0" y="0" width="2400" height="1600"/>
  </clipPath>
</defs>
<path clip-path="url(#clip180)" d="M0 1600 L2400 1600 L2400 0 L0 0  Z" fill="#ffffff" fill-rule="evenodd" fill-opacity="1"/>
<defs>
  <clipPath id="clip181">
    <rect x="480" y="0" width="1681" height="1600"/>
  </clipPath>
</defs>
<path clip-path="url(#clip180)" d="M202.227 1423.18 L2352.76 1423.18 L2352.76 123.472 L202.227 123.472  Z" fill="#ffffff" fill-rule="evenodd" fill-opacity="1"/>
<defs>
  <clipPath id="clip182">
    <rect x="202" y="123" width="2152" height="1301"/>
  </clipPath>
</defs>
<polyline clip-path="url(#clip182)" style="stroke:#000000; stroke-linecap:round; stroke-linejoin:round; stroke-width:2; stroke-opacity:0.1; fill:none" points="423.26,1423.18 423.26,123.472 "/>
<polyline clip-path="url(#clip182)" style="stroke:#000000; stroke-linecap:round; stroke-linejoin:round; stroke-width:2; stroke-opacity:0.1; fill:none" points="957.155,1423.18 957.155,123.472 "/>
<polyline clip-path="url(#clip182)" style="stroke:#000000; stroke-linecap:round; stroke-linejoin:round; stroke-width:2; stroke-opacity:0.1; fill:none" points="1491.05,1423.18 1491.05,123.472 "/>
<polyline clip-path="url(#clip182)" style="stroke:#000000; stroke-linecap:round; stroke-linejoin:round; stroke-width:2; stroke-opacity:0.1; fill:none" points="2024.94,1423.18 2024.94,123.472 "/>
<polyline clip-path="url(#clip180)" style="stroke:#000000; stroke-linecap:round; stroke-linejoin:round; stroke-width:4; stroke-opacity:1; fill:none" points="202.227,1423.18 2352.76,1423.18 "/>
<polyline clip-path="url(#clip180)" style="stroke:#000000; stroke-linecap:round; stroke-linejoin:round; stroke-width:4; stroke-opacity:1; fill:none" points="423.26,1423.18 423.26,1404.28 "/>
<polyline clip-path="url(#clip180)" style="stroke:#000000; stroke-linecap:round; stroke-linejoin:round; stroke-width:4; stroke-opacity:1; fill:none" points="957.155,1423.18 957.155,1404.28 "/>
<polyline clip-path="url(#clip180)" style="stroke:#000000; stroke-linecap:round; stroke-linejoin:round; stroke-width:4; stroke-opacity:1; fill:none" points="1491.05,1423.18 1491.05,1404.28 "/>
<polyline clip-path="url(#clip180)" style="stroke:#000000; stroke-linecap:round; stroke-linejoin:round; stroke-width:4; stroke-opacity:1; fill:none" points="2024.94,1423.18 2024.94,1404.28 "/>
<path clip-path="url(#clip180)" d="M426.269 1455.09 L414.464 1473.54 L426.269 1473.54 L426.269 1455.09 M425.042 1451.02 L430.922 1451.02 L430.922 1473.54 L435.852 1473.54 L435.852 1477.43 L430.922 1477.43 L430.922 1485.58 L426.269 1485.58 L426.269 1477.43 L410.667 1477.43 L410.667 1472.92 L425.042 1451.02 Z" fill="#000000" fill-rule="nonzero" fill-opacity="1" /><path clip-path="url(#clip180)" d="M957.56 1466.44 Q954.412 1466.44 952.56 1468.59 Q950.731 1470.74 950.731 1474.49 Q950.731 1478.22 952.56 1480.39 Q954.412 1482.55 957.56 1482.55 Q960.708 1482.55 962.537 1480.39 Q964.389 1478.22 964.389 1474.49 Q964.389 1470.74 962.537 1468.59 Q960.708 1466.44 957.56 1466.44 M966.842 1451.78 L966.842 1456.04 Q965.083 1455.21 963.277 1454.77 Q961.495 1454.33 959.736 1454.33 Q955.106 1454.33 952.652 1457.45 Q950.222 1460.58 949.875 1466.9 Q951.24 1464.89 953.301 1463.82 Q955.361 1462.73 957.838 1462.73 Q963.046 1462.73 966.055 1465.9 Q969.088 1469.05 969.088 1474.49 Q969.088 1479.82 965.939 1483.03 Q962.791 1486.25 957.56 1486.25 Q951.565 1486.25 948.393 1481.67 Q945.222 1477.06 945.222 1468.33 Q945.222 1460.14 949.111 1455.28 Q953 1450.39 959.551 1450.39 Q961.31 1450.39 963.092 1450.74 Q964.898 1451.09 966.842 1451.78 Z" fill="#000000" fill-rule="nonzero" fill-opacity="1" /><path clip-path="url(#clip180)" d="M1491.05 1469.17 Q1487.72 1469.17 1485.8 1470.95 Q1483.9 1472.73 1483.9 1475.86 Q1483.9 1478.98 1485.8 1480.77 Q1487.72 1482.55 1491.05 1482.55 Q1494.38 1482.55 1496.3 1480.77 Q1498.23 1478.96 1498.23 1475.86 Q1498.23 1472.73 1496.3 1470.95 Q1494.41 1469.17 1491.05 1469.17 M1486.37 1467.18 Q1483.36 1466.44 1481.67 1464.38 Q1480.01 1462.32 1480.01 1459.35 Q1480.01 1455.21 1482.95 1452.8 Q1485.91 1450.39 1491.05 1450.39 Q1496.21 1450.39 1499.15 1452.8 Q1502.09 1455.21 1502.09 1459.35 Q1502.09 1462.32 1500.4 1464.38 Q1498.73 1466.44 1495.75 1467.18 Q1499.13 1467.96 1501 1470.26 Q1502.9 1472.55 1502.9 1475.86 Q1502.9 1480.88 1499.82 1483.57 Q1496.77 1486.25 1491.05 1486.25 Q1485.33 1486.25 1482.25 1483.57 Q1479.2 1480.88 1479.2 1475.86 Q1479.2 1472.55 1481.1 1470.26 Q1482.99 1467.96 1486.37 1467.18 M1484.66 1459.79 Q1484.66 1462.48 1486.33 1463.98 Q1488.02 1465.49 1491.05 1465.49 Q1494.06 1465.49 1495.75 1463.98 Q1497.46 1462.48 1497.46 1459.79 Q1497.46 1457.11 1495.75 1455.6 Q1494.06 1454.1 1491.05 1454.1 Q1488.02 1454.1 1486.33 1455.6 Q1484.66 1457.11 1484.66 1459.79 Z" fill="#000000" fill-rule="nonzero" fill-opacity="1" /><path clip-path="url(#clip180)" d="M1999.63 1481.64 L2007.27 1481.64 L2007.27 1455.28 L1998.96 1456.95 L1998.96 1452.69 L2007.22 1451.02 L2011.9 1451.02 L2011.9 1481.64 L2019.54 1481.64 L2019.54 1485.58 L1999.63 1485.58 L1999.63 1481.64 Z" fill="#000000" fill-rule="nonzero" fill-opacity="1" /><path clip-path="url(#clip180)" d="M2038.98 1454.1 Q2035.37 1454.1 2033.54 1457.66 Q2031.74 1461.2 2031.74 1468.33 Q2031.74 1475.44 2033.54 1479.01 Q2035.37 1482.55 2038.98 1482.55 Q2042.62 1482.55 2044.42 1479.01 Q2046.25 1475.44 2046.25 1468.33 Q2046.25 1461.2 2044.42 1457.66 Q2042.62 1454.1 2038.98 1454.1 M2038.98 1450.39 Q2044.79 1450.39 2047.85 1455 Q2050.93 1459.58 2050.93 1468.33 Q2050.93 1477.06 2047.85 1481.67 Q2044.79 1486.25 2038.98 1486.25 Q2033.17 1486.25 2030.09 1481.67 Q2027.04 1477.06 2027.04 1468.33 Q2027.04 1459.58 2030.09 1455 Q2033.17 1450.39 2038.98 1450.39 Z" fill="#000000" fill-rule="nonzero" fill-opacity="1" /><path clip-path="url(#clip180)" d="M883.311 1520.52 L889.772 1520.52 L889.772 1549.39 Q889.772 1557.03 892.541 1560.4 Q895.311 1563.75 901.517 1563.75 Q907.692 1563.75 910.461 1560.4 Q913.23 1557.03 913.23 1549.39 L913.23 1520.52 L919.691 1520.52 L919.691 1550.19 Q919.691 1559.48 915.076 1564.22 Q910.493 1568.97 901.517 1568.97 Q892.51 1568.97 887.895 1564.22 Q883.311 1559.48 883.311 1550.19 L883.311 1520.52 Z" fill="#000000" fill-rule="nonzero" fill-opacity="1" /><path clip-path="url(#clip180)" d="M961.132 1546.53 L961.132 1568.04 L955.276 1568.04 L955.276 1546.72 Q955.276 1541.66 953.302 1539.14 Q951.329 1536.63 947.382 1536.63 Q942.64 1536.63 939.902 1539.65 Q937.165 1542.68 937.165 1547.9 L937.165 1568.04 L931.277 1568.04 L931.277 1532.4 L937.165 1532.4 L937.165 1537.93 Q939.266 1534.72 942.099 1533.13 Q944.963 1531.54 948.687 1531.54 Q954.83 1531.54 957.981 1535.36 Q961.132 1539.14 961.132 1546.53 Z" fill="#000000" fill-rule="nonzero" fill-opacity="1" /><path clip-path="url(#clip180)" d="M1003.3 1548.76 L1003.3 1551.62 L976.378 1551.62 Q976.76 1557.67 980.006 1560.85 Q983.285 1564 989.109 1564 Q992.483 1564 995.634 1563.17 Q998.817 1562.35 1001.94 1560.69 L1001.94 1566.23 Q998.785 1567.57 995.475 1568.27 Q992.165 1568.97 988.759 1568.97 Q980.229 1568.97 975.232 1564 Q970.267 1559.04 970.267 1550.57 Q970.267 1541.82 974.977 1536.69 Q979.72 1531.54 987.741 1531.54 Q994.934 1531.54 999.103 1536.18 Q1003.3 1540.8 1003.3 1548.76 M997.448 1547.04 Q997.385 1542.23 994.743 1539.37 Q992.133 1536.5 987.804 1536.5 Q982.903 1536.5 979.943 1539.27 Q977.014 1542.04 976.569 1547.07 L997.448 1547.04 Z" fill="#000000" fill-rule="nonzero" fill-opacity="1" /><path clip-path="url(#clip180)" d="M1040.67 1539.24 Q1042.87 1535.29 1045.92 1533.41 Q1048.98 1531.54 1053.12 1531.54 Q1058.69 1531.54 1061.71 1535.45 Q1064.73 1539.33 1064.73 1546.53 L1064.73 1568.04 L1058.85 1568.04 L1058.85 1546.72 Q1058.85 1541.59 1057.03 1539.11 Q1055.22 1536.63 1051.49 1536.63 Q1046.94 1536.63 1044.3 1539.65 Q1041.66 1542.68 1041.66 1547.9 L1041.66 1568.04 L1035.77 1568.04 L1035.77 1546.72 Q1035.77 1541.56 1033.96 1539.11 Q1032.14 1536.63 1028.35 1536.63 Q1023.87 1536.63 1021.22 1539.68 Q1018.58 1542.71 1018.58 1547.9 L1018.58 1568.04 L1012.69 1568.04 L1012.69 1532.4 L1018.58 1532.4 L1018.58 1537.93 Q1020.59 1534.66 1023.39 1533.1 Q1026.19 1531.54 1030.04 1531.54 Q1033.92 1531.54 1036.63 1533.51 Q1039.37 1535.48 1040.67 1539.24 Z" fill="#000000" fill-rule="nonzero" fill-opacity="1" /><path clip-path="url(#clip180)" d="M1082.08 1562.7 L1082.08 1581.6 L1076.19 1581.6 L1076.19 1532.4 L1082.08 1532.4 L1082.08 1537.81 Q1083.93 1534.62 1086.73 1533.1 Q1089.56 1531.54 1093.48 1531.54 Q1099.97 1531.54 1104.01 1536.69 Q1108.08 1541.85 1108.08 1550.25 Q1108.08 1558.65 1104.01 1563.81 Q1099.97 1568.97 1093.48 1568.97 Q1089.56 1568.97 1086.73 1567.44 Q1083.93 1565.88 1082.08 1562.7 M1102.01 1550.25 Q1102.01 1543.79 1099.33 1540.13 Q1096.69 1536.44 1092.04 1536.44 Q1087.4 1536.44 1084.72 1540.13 Q1082.08 1543.79 1082.08 1550.25 Q1082.08 1556.71 1084.72 1560.4 Q1087.4 1564.07 1092.04 1564.07 Q1096.69 1564.07 1099.33 1560.4 Q1102.01 1556.71 1102.01 1550.25 Z" fill="#000000" fill-rule="nonzero" fill-opacity="1" /><path clip-path="url(#clip180)" d="M1117.79 1518.52 L1123.65 1518.52 L1123.65 1568.04 L1117.79 1568.04 L1117.79 1518.52 Z" fill="#000000" fill-rule="nonzero" fill-opacity="1" /><path clip-path="url(#clip180)" d="M1149.72 1536.5 Q1145.01 1536.5 1142.27 1540.19 Q1139.53 1543.85 1139.53 1550.25 Q1139.53 1556.65 1142.24 1560.34 Q1144.97 1564 1149.72 1564 Q1154.39 1564 1157.13 1560.31 Q1159.87 1556.62 1159.87 1550.25 Q1159.87 1543.92 1157.13 1540.23 Q1154.39 1536.5 1149.72 1536.5 M1149.72 1531.54 Q1157.35 1531.54 1161.72 1536.5 Q1166.08 1541.47 1166.08 1550.25 Q1166.08 1559 1161.72 1564 Q1157.35 1568.97 1149.72 1568.97 Q1142.05 1568.97 1137.68 1564 Q1133.36 1559 1133.36 1550.25 Q1133.36 1541.47 1137.68 1536.5 Q1142.05 1531.54 1149.72 1531.54 Z" fill="#000000" fill-rule="nonzero" fill-opacity="1" /><path clip-path="url(#clip180)" d="M1190.62 1571.35 Q1188.13 1577.72 1185.78 1579.66 Q1183.42 1581.6 1179.48 1581.6 L1174.8 1581.6 L1174.8 1576.7 L1178.23 1576.7 Q1180.65 1576.7 1181.99 1575.56 Q1183.33 1574.41 1184.95 1570.14 L1186 1567.47 L1171.58 1532.4 L1177.79 1532.4 L1188.93 1560.28 L1200.07 1532.4 L1206.28 1532.4 L1190.62 1571.35 Z" fill="#000000" fill-rule="nonzero" fill-opacity="1" /><path clip-path="url(#clip180)" d="M1242.11 1539.24 Q1244.31 1535.29 1247.37 1533.41 Q1250.42 1531.54 1254.56 1531.54 Q1260.13 1531.54 1263.15 1535.45 Q1266.18 1539.33 1266.18 1546.53 L1266.18 1568.04 L1260.29 1568.04 L1260.29 1546.72 Q1260.29 1541.59 1258.47 1539.11 Q1256.66 1536.63 1252.94 1536.63 Q1248.38 1536.63 1245.74 1539.65 Q1243.1 1542.68 1243.1 1547.9 L1243.1 1568.04 L1237.21 1568.04 L1237.21 1546.72 Q1237.21 1541.56 1235.4 1539.11 Q1233.58 1536.63 1229.8 1536.63 Q1225.31 1536.63 1222.67 1539.68 Q1220.03 1542.71 1220.03 1547.9 L1220.03 1568.04 L1214.14 1568.04 L1214.14 1532.4 L1220.03 1532.4 L1220.03 1537.93 Q1222.03 1534.66 1224.83 1533.1 Q1227.63 1531.54 1231.48 1531.54 Q1235.37 1531.54 1238.07 1533.51 Q1240.81 1535.48 1242.11 1539.24 Z" fill="#000000" fill-rule="nonzero" fill-opacity="1" /><path clip-path="url(#clip180)" d="M1308.35 1548.76 L1308.35 1551.62 L1281.42 1551.62 Q1281.8 1557.67 1285.05 1560.85 Q1288.33 1564 1294.15 1564 Q1297.53 1564 1300.68 1563.17 Q1303.86 1562.35 1306.98 1560.69 L1306.98 1566.23 Q1303.83 1567.57 1300.52 1568.27 Q1297.21 1568.97 1293.8 1568.97 Q1285.27 1568.97 1280.28 1564 Q1275.31 1559.04 1275.31 1550.57 Q1275.31 1541.82 1280.02 1536.69 Q1284.76 1531.54 1292.79 1531.54 Q1299.98 1531.54 1304.15 1536.18 Q1308.35 1540.8 1308.35 1548.76 M1302.49 1547.04 Q1302.43 1542.23 1299.79 1539.37 Q1297.18 1536.5 1292.85 1536.5 Q1287.95 1536.5 1284.99 1539.27 Q1282.06 1542.04 1281.61 1547.07 L1302.49 1547.04 Z" fill="#000000" fill-rule="nonzero" fill-opacity="1" /><path clip-path="url(#clip180)" d="M1347.59 1546.53 L1347.59 1568.04 L1341.74 1568.04 L1341.74 1546.72 Q1341.74 1541.66 1339.76 1539.14 Q1337.79 1536.63 1333.84 1536.63 Q1329.1 1536.63 1326.36 1539.65 Q1323.63 1542.68 1323.63 1547.9 L1323.63 1568.04 L1317.74 1568.04 L1317.74 1532.4 L1323.63 1532.4 L1323.63 1537.93 Q1325.73 1534.72 1328.56 1533.13 Q1331.43 1531.54 1335.15 1531.54 Q1341.29 1531.54 1344.44 1535.36 Q1347.59 1539.14 1347.59 1546.53 Z" fill="#000000" fill-rule="nonzero" fill-opacity="1" /><path clip-path="url(#clip180)" d="M1365.07 1522.27 L1365.07 1532.4 L1377.13 1532.4 L1377.13 1536.95 L1365.07 1536.95 L1365.07 1556.3 Q1365.07 1560.66 1366.25 1561.9 Q1367.46 1563.14 1371.12 1563.14 L1377.13 1563.14 L1377.13 1568.04 L1371.12 1568.04 Q1364.34 1568.04 1361.76 1565.53 Q1359.18 1562.98 1359.18 1556.3 L1359.18 1536.95 L1354.88 1536.95 L1354.88 1532.4 L1359.18 1532.4 L1359.18 1522.27 L1365.07 1522.27 Z" fill="#000000" fill-rule="nonzero" fill-opacity="1" /><path clip-path="url(#clip180)" d="M1426.21 1537.87 Q1425.22 1537.3 1424.05 1537.04 Q1422.9 1536.76 1421.5 1536.76 Q1416.53 1536.76 1413.86 1540 Q1411.22 1543.22 1411.22 1549.27 L1411.22 1568.04 L1405.33 1568.04 L1405.33 1532.4 L1411.22 1532.4 L1411.22 1537.93 Q1413.07 1534.69 1416.03 1533.13 Q1418.99 1531.54 1423.22 1531.54 Q1423.82 1531.54 1424.56 1531.63 Q1425.29 1531.7 1426.18 1531.85 L1426.21 1537.87 Z" fill="#000000" fill-rule="nonzero" fill-opacity="1" /><path clip-path="url(#clip180)" d="M1448.55 1550.12 Q1441.46 1550.12 1438.72 1551.75 Q1435.98 1553.37 1435.98 1557.29 Q1435.98 1560.4 1438.02 1562.25 Q1440.09 1564.07 1443.62 1564.07 Q1448.49 1564.07 1451.42 1560.63 Q1454.38 1557.16 1454.38 1551.43 L1454.38 1550.12 L1448.55 1550.12 M1460.24 1547.71 L1460.24 1568.04 L1454.38 1568.04 L1454.38 1562.63 Q1452.37 1565.88 1449.38 1567.44 Q1446.39 1568.97 1442.06 1568.97 Q1436.59 1568.97 1433.34 1565.91 Q1430.13 1562.82 1430.13 1557.67 Q1430.13 1551.65 1434.14 1548.6 Q1438.18 1545.54 1446.17 1545.54 L1454.38 1545.54 L1454.38 1544.97 Q1454.38 1540.93 1451.71 1538.73 Q1449.06 1536.5 1444.26 1536.5 Q1441.2 1536.5 1438.31 1537.23 Q1435.41 1537.97 1432.74 1539.43 L1432.74 1534.02 Q1435.95 1532.78 1438.97 1532.17 Q1442 1531.54 1444.86 1531.54 Q1452.6 1531.54 1456.42 1535.55 Q1460.24 1539.56 1460.24 1547.71 Z" fill="#000000" fill-rule="nonzero" fill-opacity="1" /><path clip-path="url(#clip180)" d="M1478.09 1522.27 L1478.09 1532.4 L1490.15 1532.4 L1490.15 1536.95 L1478.09 1536.95 L1478.09 1556.3 Q1478.09 1560.66 1479.27 1561.9 Q1480.48 1563.14 1484.14 1563.14 L1490.15 1563.14 L1490.15 1568.04 L1484.14 1568.04 Q1477.36 1568.04 1474.78 1565.53 Q1472.2 1562.98 1472.2 1556.3 L1472.2 1536.95 L1467.91 1536.95 L1467.91 1532.4 L1472.2 1532.4 L1472.2 1522.27 L1478.09 1522.27 Z" fill="#000000" fill-rule="nonzero" fill-opacity="1" /><path clip-path="url(#clip180)" d="M1528.35 1548.76 L1528.35 1551.62 L1501.42 1551.62 Q1501.8 1557.67 1505.05 1560.85 Q1508.33 1564 1514.15 1564 Q1517.53 1564 1520.68 1563.17 Q1523.86 1562.35 1526.98 1560.69 L1526.98 1566.23 Q1523.83 1567.57 1520.52 1568.27 Q1517.21 1568.97 1513.8 1568.97 Q1505.27 1568.97 1500.28 1564 Q1495.31 1559.04 1495.31 1550.57 Q1495.31 1541.82 1500.02 1536.69 Q1504.76 1531.54 1512.78 1531.54 Q1519.98 1531.54 1524.15 1536.18 Q1528.35 1540.8 1528.35 1548.76 M1522.49 1547.04 Q1522.43 1542.23 1519.79 1539.37 Q1517.18 1536.5 1512.85 1536.5 Q1507.95 1536.5 1504.99 1539.27 Q1502.06 1542.04 1501.61 1547.07 L1522.49 1547.04 Z" fill="#000000" fill-rule="nonzero" fill-opacity="1" /><path clip-path="url(#clip180)" d="M1582.14 1549.81 Q1582.14 1543.44 1579.5 1539.94 Q1576.89 1536.44 1572.14 1536.44 Q1567.43 1536.44 1564.79 1539.94 Q1562.18 1543.44 1562.18 1549.81 Q1562.18 1556.14 1564.79 1559.64 Q1567.43 1563.14 1572.14 1563.14 Q1576.89 1563.14 1579.5 1559.64 Q1582.14 1556.14 1582.14 1549.81 M1587.99 1563.62 Q1587.99 1572.72 1583.95 1577.15 Q1579.91 1581.6 1571.57 1581.6 Q1568.48 1581.6 1565.75 1581.13 Q1563.01 1580.68 1560.43 1579.72 L1560.43 1574.03 Q1563.01 1575.43 1565.52 1576.1 Q1568.04 1576.76 1570.65 1576.76 Q1576.41 1576.76 1579.27 1573.74 Q1582.14 1570.75 1582.14 1564.67 L1582.14 1561.77 Q1580.32 1564.92 1577.49 1566.48 Q1574.66 1568.04 1570.71 1568.04 Q1564.16 1568.04 1560.14 1563.05 Q1556.13 1558.05 1556.13 1549.81 Q1556.13 1541.53 1560.14 1536.53 Q1564.16 1531.54 1570.71 1531.54 Q1574.66 1531.54 1577.49 1533.1 Q1580.32 1534.66 1582.14 1537.81 L1582.14 1532.4 L1587.99 1532.4 L1587.99 1563.62 Z" fill="#000000" fill-rule="nonzero" fill-opacity="1" /><path clip-path="url(#clip180)" d="M1616.26 1550.12 Q1609.16 1550.12 1606.42 1551.75 Q1603.69 1553.37 1603.69 1557.29 Q1603.69 1560.4 1605.72 1562.25 Q1607.79 1564.07 1611.33 1564.07 Q1616.2 1564.07 1619.12 1560.63 Q1622.08 1557.16 1622.08 1551.43 L1622.08 1550.12 L1616.26 1550.12 M1627.94 1547.71 L1627.94 1568.04 L1622.08 1568.04 L1622.08 1562.63 Q1620.08 1565.88 1617.09 1567.44 Q1614.09 1568.97 1609.77 1568.97 Q1604.29 1568.97 1601.04 1565.91 Q1597.83 1562.82 1597.83 1557.67 Q1597.83 1551.65 1601.84 1548.6 Q1605.88 1545.54 1613.87 1545.54 L1622.08 1545.54 L1622.08 1544.97 Q1622.08 1540.93 1619.41 1538.73 Q1616.77 1536.5 1611.96 1536.5 Q1608.91 1536.5 1606.01 1537.23 Q1603.11 1537.97 1600.44 1539.43 L1600.44 1534.02 Q1603.65 1532.78 1606.68 1532.17 Q1609.7 1531.54 1612.57 1531.54 Q1620.3 1531.54 1624.12 1535.55 Q1627.94 1539.56 1627.94 1547.71 Z" fill="#000000" fill-rule="nonzero" fill-opacity="1" /><path clip-path="url(#clip180)" d="M1645.67 1562.7 L1645.67 1581.6 L1639.78 1581.6 L1639.78 1532.4 L1645.67 1532.4 L1645.67 1537.81 Q1647.51 1534.62 1650.32 1533.1 Q1653.15 1531.54 1657.06 1531.54 Q1663.56 1531.54 1667.6 1536.69 Q1671.67 1541.85 1671.67 1550.25 Q1671.67 1558.65 1667.6 1563.81 Q1663.56 1568.97 1657.06 1568.97 Q1653.15 1568.97 1650.32 1567.44 Q1647.51 1565.88 1645.67 1562.7 M1665.59 1550.25 Q1665.59 1543.79 1662.92 1540.13 Q1660.28 1536.44 1655.63 1536.44 Q1650.98 1536.44 1648.31 1540.13 Q1645.67 1543.79 1645.67 1550.25 Q1645.67 1556.71 1648.31 1560.4 Q1650.98 1564.07 1655.63 1564.07 Q1660.28 1564.07 1662.92 1560.4 Q1665.59 1556.71 1665.59 1550.25 Z" fill="#000000" fill-rule="nonzero" fill-opacity="1" /><polyline clip-path="url(#clip182)" style="stroke:#000000; stroke-linecap:round; stroke-linejoin:round; stroke-width:2; stroke-opacity:0.1; fill:none" points="202.227,1248.37 2352.76,1248.37 "/>
<polyline clip-path="url(#clip182)" style="stroke:#000000; stroke-linecap:round; stroke-linejoin:round; stroke-width:2; stroke-opacity:0.1; fill:none" points="202.227,914.754 2352.76,914.754 "/>
<polyline clip-path="url(#clip182)" style="stroke:#000000; stroke-linecap:round; stroke-linejoin:round; stroke-width:2; stroke-opacity:0.1; fill:none" points="202.227,581.141 2352.76,581.141 "/>
<polyline clip-path="url(#clip182)" style="stroke:#000000; stroke-linecap:round; stroke-linejoin:round; stroke-width:2; stroke-opacity:0.1; fill:none" points="202.227,247.529 2352.76,247.529 "/>
<polyline clip-path="url(#clip180)" style="stroke:#000000; stroke-linecap:round; stroke-linejoin:round; stroke-width:4; stroke-opacity:1; fill:none" points="202.227,1423.18 202.227,123.472 "/>
<polyline clip-path="url(#clip180)" style="stroke:#000000; stroke-linecap:round; stroke-linejoin:round; stroke-width:4; stroke-opacity:1; fill:none" points="202.227,1248.37 221.125,1248.37 "/>
<polyline clip-path="url(#clip180)" style="stroke:#000000; stroke-linecap:round; stroke-linejoin:round; stroke-width:4; stroke-opacity:1; fill:none" points="202.227,914.754 221.125,914.754 "/>
<polyline clip-path="url(#clip180)" style="stroke:#000000; stroke-linecap:round; stroke-linejoin:round; stroke-width:4; stroke-opacity:1; fill:none" points="202.227,581.141 221.125,581.141 "/>
<polyline clip-path="url(#clip180)" style="stroke:#000000; stroke-linecap:round; stroke-linejoin:round; stroke-width:4; stroke-opacity:1; fill:none" points="202.227,247.529 221.125,247.529 "/>
<path clip-path="url(#clip180)" d="M154.283 1234.17 Q150.672 1234.17 148.843 1237.73 Q147.038 1241.27 147.038 1248.4 Q147.038 1255.51 148.843 1259.07 Q150.672 1262.61 154.283 1262.61 Q157.917 1262.61 159.723 1259.07 Q161.552 1255.51 161.552 1248.4 Q161.552 1241.27 159.723 1237.73 Q157.917 1234.17 154.283 1234.17 M154.283 1230.46 Q160.093 1230.46 163.149 1235.07 Q166.227 1239.65 166.227 1248.4 Q166.227 1257.13 163.149 1261.73 Q160.093 1266.32 154.283 1266.32 Q148.473 1266.32 145.394 1261.73 Q142.339 1257.13 142.339 1248.4 Q142.339 1239.65 145.394 1235.07 Q148.473 1230.46 154.283 1230.46 Z" fill="#000000" fill-rule="nonzero" fill-opacity="1" /><path clip-path="url(#clip180)" d="M145.325 897.474 L163.681 897.474 L163.681 901.409 L149.607 901.409 L149.607 909.882 Q150.626 909.534 151.644 909.372 Q152.663 909.187 153.681 909.187 Q159.468 909.187 162.848 912.358 Q166.227 915.53 166.227 920.946 Q166.227 926.525 162.755 929.627 Q159.283 932.705 152.964 932.705 Q150.788 932.705 148.519 932.335 Q146.274 931.965 143.866 931.224 L143.866 926.525 Q145.95 927.659 148.172 928.215 Q150.394 928.77 152.871 928.77 Q156.876 928.77 159.214 926.664 Q161.552 924.557 161.552 920.946 Q161.552 917.335 159.214 915.229 Q156.876 913.122 152.871 913.122 Q150.996 913.122 149.121 913.539 Q147.269 913.956 145.325 914.835 L145.325 897.474 Z" fill="#000000" fill-rule="nonzero" fill-opacity="1" /><path clip-path="url(#clip180)" d="M114.931 594.486 L122.57 594.486 L122.57 568.121 L114.26 569.787 L114.26 565.528 L122.524 563.861 L127.2 563.861 L127.2 594.486 L134.839 594.486 L134.839 598.421 L114.931 598.421 L114.931 594.486 Z" fill="#000000" fill-rule="nonzero" fill-opacity="1" /><path clip-path="url(#clip180)" d="M154.283 566.94 Q150.672 566.94 148.843 570.505 Q147.038 574.047 147.038 581.176 Q147.038 588.283 148.843 591.847 Q150.672 595.389 154.283 595.389 Q157.917 595.389 159.723 591.847 Q161.552 588.283 161.552 581.176 Q161.552 574.047 159.723 570.505 Q157.917 566.94 154.283 566.94 M154.283 563.236 Q160.093 563.236 163.149 567.843 Q166.227 572.426 166.227 581.176 Q166.227 589.903 163.149 594.509 Q160.093 599.093 154.283 599.093 Q148.473 599.093 145.394 594.509 Q142.339 589.903 142.339 581.176 Q142.339 572.426 145.394 567.843 Q148.473 563.236 154.283 563.236 Z" fill="#000000" fill-rule="nonzero" fill-opacity="1" /><path clip-path="url(#clip180)" d="M115.927 260.874 L123.566 260.874 L123.566 234.508 L115.256 236.175 L115.256 231.915 L123.519 230.249 L128.195 230.249 L128.195 260.874 L135.834 260.874 L135.834 264.809 L115.927 264.809 L115.927 260.874 Z" fill="#000000" fill-rule="nonzero" fill-opacity="1" /><path clip-path="url(#clip180)" d="M145.325 230.249 L163.681 230.249 L163.681 234.184 L149.607 234.184 L149.607 242.656 Q150.626 242.309 151.644 242.147 Q152.663 241.962 153.681 241.962 Q159.468 241.962 162.848 245.133 Q166.227 248.304 166.227 253.721 Q166.227 259.3 162.755 262.401 Q159.283 265.48 152.964 265.48 Q150.788 265.48 148.519 265.11 Q146.274 264.739 143.866 263.999 L143.866 259.3 Q145.95 260.434 148.172 260.989 Q150.394 261.545 152.871 261.545 Q156.876 261.545 159.214 259.438 Q161.552 257.332 161.552 253.721 Q161.552 250.11 159.214 248.003 Q156.876 245.897 152.871 245.897 Q150.996 245.897 149.121 246.314 Q147.269 246.73 145.325 247.61 L145.325 230.249 Z" fill="#000000" fill-rule="nonzero" fill-opacity="1" /><path clip-path="url(#clip180)" d="M20.1444 913.769 L26.9239 913.769 Q23.9002 917.016 22.4043 920.708 Q20.9083 924.368 20.9083 928.506 Q20.9083 936.654 25.9054 940.983 Q30.8707 945.311 40.2919 945.311 Q49.6813 945.311 54.6784 940.983 Q59.6436 936.654 59.6436 928.506 Q59.6436 924.368 58.1477 920.708 Q56.6518 917.016 53.6281 913.769 L60.3439 913.769 Q62.6355 917.143 63.7814 920.931 Q64.9272 924.687 64.9272 928.888 Q64.9272 939.678 58.3387 945.884 Q51.7183 952.091 40.2919 952.091 Q28.8336 952.091 22.2451 945.884 Q15.6248 939.678 15.6248 928.888 Q15.6248 924.623 16.7706 920.867 Q17.8846 917.08 20.1444 913.769 Z" fill="#000000" fill-rule="nonzero" fill-opacity="1" /><path clip-path="url(#clip180)" d="M21.7677 897.41 L39.6235 897.41 L39.6235 889.325 Q39.6235 884.837 37.3 882.386 Q34.9765 879.936 30.6797 879.936 Q26.4147 879.936 24.0912 882.386 Q21.7677 884.837 21.7677 889.325 L21.7677 897.41 M16.4842 903.839 L16.4842 889.325 Q16.4842 881.336 20.1126 877.262 Q23.7092 873.156 30.6797 873.156 Q37.7138 873.156 41.3104 877.262 Q44.907 881.336 44.907 889.325 L44.907 897.41 L64.0042 897.41 L64.0042 903.839 L16.4842 903.839 Z" fill="#000000" fill-rule="nonzero" fill-opacity="1" /><path clip-path="url(#clip180)" d="M16.4842 864.531 L16.4842 858.101 L64.0042 858.101 L64.0042 864.531 L16.4842 864.531 Z" fill="#000000" fill-rule="nonzero" fill-opacity="1" /><path clip-path="url(#clip180)" d="M29.7248 799.187 L35.1993 799.187 Q33.8307 801.669 33.1623 804.184 Q32.4621 806.666 32.4621 809.213 Q32.4621 814.91 36.0905 818.061 Q39.6872 821.212 46.212 821.212 Q52.7369 821.212 56.3653 818.061 Q59.9619 814.91 59.9619 809.213 Q59.9619 806.666 59.2935 804.184 Q58.5933 801.669 57.2247 799.187 L62.6355 799.187 Q63.7814 801.637 64.3543 804.279 Q64.9272 806.889 64.9272 809.849 Q64.9272 817.902 59.8664 822.644 Q54.8057 827.387 46.212 827.387 Q37.491 827.387 32.4939 822.612 Q27.4968 817.806 27.4968 809.467 Q27.4968 806.762 28.0697 804.184 Q28.6108 801.606 29.7248 799.187 Z" fill="#000000" fill-rule="nonzero" fill-opacity="1" /><path clip-path="url(#clip180)" d="M42.4881 759.369 L64.0042 759.369 L64.0042 765.226 L42.679 765.226 Q37.6183 765.226 35.1038 767.199 Q32.5894 769.172 32.5894 773.119 Q32.5894 777.862 35.6131 780.599 Q38.6368 783.336 43.8567 783.336 L64.0042 783.336 L64.0042 789.224 L14.479 789.224 L14.479 783.336 L33.8944 783.336 Q30.6797 781.235 29.0883 778.403 Q27.4968 775.538 27.4968 771.814 Q27.4968 765.671 31.3163 762.52 Q35.1038 759.369 42.4881 759.369 Z" fill="#000000" fill-rule="nonzero" fill-opacity="1" /><path clip-path="url(#clip180)" d="M46.0847 731.487 Q46.0847 738.585 47.7079 741.322 Q49.3312 744.06 53.2461 744.06 Q56.3653 744.06 58.2114 742.023 Q60.0256 739.954 60.0256 736.421 Q60.0256 731.551 56.5881 728.623 Q53.1188 725.663 47.3897 725.663 L46.0847 725.663 L46.0847 731.487 M43.6657 719.806 L64.0042 719.806 L64.0042 725.663 L58.5933 725.663 Q61.8398 727.668 63.3994 730.66 Q64.9272 733.652 64.9272 737.98 Q64.9272 743.455 61.8716 746.701 Q58.7843 749.916 53.6281 749.916 Q47.6125 749.916 44.5569 745.906 Q41.5014 741.863 41.5014 733.875 L41.5014 725.663 L40.9285 725.663 Q36.8862 725.663 34.6901 728.336 Q32.4621 730.978 32.4621 735.784 Q32.4621 738.84 33.1941 741.736 Q33.9262 744.633 35.3903 747.306 L29.9795 747.306 Q28.7381 744.091 28.1334 741.068 Q27.4968 738.044 27.4968 735.179 Q27.4968 727.445 31.5072 723.626 Q35.5176 719.806 43.6657 719.806 Z" fill="#000000" fill-rule="nonzero" fill-opacity="1" /><path clip-path="url(#clip180)" d="M42.4881 678.111 L64.0042 678.111 L64.0042 683.967 L42.679 683.967 Q37.6183 683.967 35.1038 685.941 Q32.5894 687.914 32.5894 691.861 Q32.5894 696.603 35.6131 699.341 Q38.6368 702.078 43.8567 702.078 L64.0042 702.078 L64.0042 707.966 L28.3562 707.966 L28.3562 702.078 L33.8944 702.078 Q30.6797 699.977 29.0883 697.144 Q27.4968 694.28 27.4968 690.556 Q27.4968 684.413 31.3163 681.262 Q35.1038 678.111 42.4881 678.111 Z" fill="#000000" fill-rule="nonzero" fill-opacity="1" /><path clip-path="url(#clip180)" d="M45.7664 642.972 Q39.4007 642.972 35.8996 645.614 Q32.3984 648.224 32.3984 652.966 Q32.3984 657.677 35.8996 660.319 Q39.4007 662.929 45.7664 662.929 Q52.1003 662.929 55.6014 660.319 Q59.1026 657.677 59.1026 652.966 Q59.1026 648.224 55.6014 645.614 Q52.1003 642.972 45.7664 642.972 M59.58 637.116 Q68.683 637.116 73.1071 641.158 Q77.5631 645.2 77.5631 653.539 Q77.5631 656.627 77.0857 659.364 Q76.6401 662.101 75.6852 664.679 L69.9879 664.679 Q71.3884 662.101 72.0568 659.587 Q72.7252 657.072 72.7252 654.462 Q72.7252 648.701 69.7015 645.837 Q66.7096 642.972 60.6303 642.972 L57.7339 642.972 Q60.885 644.786 62.4446 647.619 Q64.0042 650.452 64.0042 654.399 Q64.0042 660.955 59.0071 664.966 Q54.01 668.976 45.7664 668.976 Q37.491 668.976 32.4939 664.966 Q27.4968 660.955 27.4968 654.399 Q27.4968 650.452 29.0564 647.619 Q30.616 644.786 33.7671 642.972 L28.3562 642.972 L28.3562 637.116 L59.58 637.116 Z" fill="#000000" fill-rule="nonzero" fill-opacity="1" /><path clip-path="url(#clip180)" d="M44.7161 594.561 L47.5806 594.561 L47.5806 621.488 Q53.6281 621.106 56.8109 617.86 Q59.9619 614.581 59.9619 608.757 Q59.9619 605.383 59.1344 602.232 Q58.3069 599.049 56.6518 595.93 L62.1899 595.93 Q63.5267 599.081 64.227 602.391 Q64.9272 605.701 64.9272 609.107 Q64.9272 617.637 59.9619 622.634 Q54.9967 627.599 46.5303 627.599 Q37.7774 627.599 32.6531 622.888 Q27.4968 618.146 27.4968 610.125 Q27.4968 602.932 32.1438 598.762 Q36.7589 594.561 44.7161 594.561 M42.9973 600.417 Q38.1912 600.481 35.3266 603.123 Q32.4621 605.733 32.4621 610.062 Q32.4621 614.963 35.2312 617.923 Q38.0002 620.851 43.0292 621.297 L42.9973 600.417 Z" fill="#000000" fill-rule="nonzero" fill-opacity="1" /><path clip-path="url(#clip180)" d="M846.091 18.8205 L846.091 41.5461 L856.38 41.5461 Q862.092 41.5461 865.211 38.5889 Q868.33 35.6318 868.33 30.163 Q868.33 24.7348 865.211 21.7777 Q862.092 18.8205 856.38 18.8205 L846.091 18.8205 M837.908 12.096 L856.38 12.096 Q866.548 12.096 871.733 16.714 Q876.959 21.2916 876.959 30.163 Q876.959 39.1155 871.733 43.6931 Q866.548 48.2706 856.38 48.2706 L846.091 48.2706 L846.091 72.576 L837.908 72.576 L837.908 12.096 Z" fill="#000000" fill-rule="nonzero" fill-opacity="1" /><path clip-path="url(#clip180)" d="M925.326 45.1919 L925.326 72.576 L917.873 72.576 L917.873 45.4349 Q917.873 38.994 915.361 35.7938 Q912.85 32.5936 907.826 32.5936 Q901.791 32.5936 898.307 36.4419 Q894.823 40.2903 894.823 46.9338 L894.823 72.576 L887.329 72.576 L887.329 9.54393 L894.823 9.54393 L894.823 34.2544 Q897.497 30.163 901.102 28.1376 Q904.748 26.1121 909.487 26.1121 Q917.306 26.1121 921.316 30.9732 Q925.326 35.7938 925.326 45.1919 Z" fill="#000000" fill-rule="nonzero" fill-opacity="1" /><path clip-path="url(#clip180)" d="M940.193 27.2059 L947.647 27.2059 L947.647 72.576 L940.193 72.576 L940.193 27.2059 M940.193 9.54393 L947.647 9.54393 L947.647 18.9825 L940.193 18.9825 L940.193 9.54393 Z" fill="#000000" fill-rule="nonzero" fill-opacity="1" /><path clip-path="url(#clip180)" d="M963.243 9.54393 L970.696 9.54393 L970.696 72.576 L963.243 72.576 L963.243 9.54393 Z" fill="#000000" fill-rule="nonzero" fill-opacity="1" /><path clip-path="url(#clip180)" d="M986.292 9.54393 L993.746 9.54393 L993.746 72.576 L986.292 72.576 L986.292 9.54393 Z" fill="#000000" fill-rule="nonzero" fill-opacity="1" /><path clip-path="url(#clip180)" d="M1009.34 27.2059 L1016.8 27.2059 L1016.8 72.576 L1009.34 72.576 L1009.34 27.2059 M1009.34 9.54393 L1016.8 9.54393 L1016.8 18.9825 L1009.34 18.9825 L1009.34 9.54393 Z" fill="#000000" fill-rule="nonzero" fill-opacity="1" /><path clip-path="url(#clip180)" d="M1039.6 65.7705 L1039.6 89.8329 L1032.11 89.8329 L1032.11 27.2059 L1039.6 27.2059 L1039.6 34.0924 Q1041.95 30.0415 1045.52 28.0971 Q1049.12 26.1121 1054.1 26.1121 Q1062.37 26.1121 1067.51 32.6746 Q1072.7 39.2371 1072.7 49.9314 Q1072.7 60.6258 1067.51 67.1883 Q1062.37 73.7508 1054.1 73.7508 Q1049.12 73.7508 1045.52 71.8063 Q1041.95 69.8214 1039.6 65.7705 M1064.96 49.9314 Q1064.96 41.7081 1061.56 37.0496 Q1058.2 32.3505 1052.28 32.3505 Q1046.37 32.3505 1042.96 37.0496 Q1039.6 41.7081 1039.6 49.9314 Q1039.6 58.1548 1042.96 62.8538 Q1046.37 67.5124 1052.28 67.5124 Q1058.2 67.5124 1061.56 62.8538 Q1064.96 58.1548 1064.96 49.9314 Z" fill="#000000" fill-rule="nonzero" fill-opacity="1" /><path clip-path="url(#clip180)" d="M1113.98 28.5427 L1113.98 35.5912 Q1110.82 33.9709 1107.41 33.1607 Q1104.01 32.3505 1100.37 32.3505 Q1094.82 32.3505 1092.02 34.0519 Q1089.27 35.7533 1089.27 39.156 Q1089.27 41.7486 1091.25 43.2475 Q1093.24 44.7058 1099.23 46.0426 L1101.78 46.6097 Q1109.72 48.3111 1113.05 51.4303 Q1116.41 54.509 1116.41 60.0587 Q1116.41 66.3781 1111.38 70.0644 Q1106.4 73.7508 1097.65 73.7508 Q1094.01 73.7508 1090.04 73.0216 Q1086.11 72.3329 1081.73 70.9151 L1081.73 63.2184 Q1085.86 65.3654 1089.87 66.4591 Q1093.88 67.5124 1097.81 67.5124 Q1103.08 67.5124 1105.92 65.73 Q1108.75 63.9071 1108.75 60.6258 Q1108.75 57.5877 1106.69 55.9673 Q1104.66 54.3469 1097.73 52.8481 L1095.14 52.2405 Q1088.21 50.7821 1085.13 47.7845 Q1082.06 44.7463 1082.06 39.4801 Q1082.06 33.0797 1086.59 29.5959 Q1091.13 26.1121 1099.47 26.1121 Q1103.61 26.1121 1107.25 26.7198 Q1110.9 27.3274 1113.98 28.5427 Z" fill="#000000" fill-rule="nonzero" fill-opacity="1" /><path clip-path="url(#clip180)" d="M1187.3 28.9478 L1187.3 35.9153 Q1184.14 34.1734 1180.94 33.3227 Q1177.78 32.4315 1174.54 32.4315 Q1167.29 32.4315 1163.28 37.0496 Q1159.27 41.6271 1159.27 49.9314 Q1159.27 58.2358 1163.28 62.8538 Q1167.29 67.4314 1174.54 67.4314 Q1177.78 67.4314 1180.94 66.5807 Q1184.14 65.6895 1187.3 63.9476 L1187.3 70.8341 Q1184.18 72.2924 1180.82 73.0216 Q1177.5 73.7508 1173.73 73.7508 Q1163.48 73.7508 1157.44 67.3098 Q1151.41 60.8689 1151.41 49.9314 Q1151.41 38.832 1157.48 32.472 Q1163.6 26.1121 1174.21 26.1121 Q1177.66 26.1121 1180.94 26.8413 Q1184.22 27.5299 1187.3 28.9478 Z" fill="#000000" fill-rule="nonzero" fill-opacity="1" /><path clip-path="url(#clip180)" d="M1199.49 54.671 L1199.49 27.2059 L1206.95 27.2059 L1206.95 54.3874 Q1206.95 60.8284 1209.46 64.0691 Q1211.97 67.2693 1216.99 67.2693 Q1223.03 67.2693 1226.51 63.421 Q1230.04 59.5726 1230.04 52.9291 L1230.04 27.2059 L1237.49 27.2059 L1237.49 72.576 L1230.04 72.576 L1230.04 65.6084 Q1227.32 69.7404 1223.72 71.7658 Q1220.15 73.7508 1215.41 73.7508 Q1207.59 73.7508 1203.54 68.8897 Q1199.49 64.0286 1199.49 54.671 M1218.25 26.1121 L1218.25 26.1121 Z" fill="#000000" fill-rule="nonzero" fill-opacity="1" /><path clip-path="url(#clip180)" d="M1279.13 34.1734 Q1277.88 33.4443 1276.38 33.1202 Q1274.92 32.7556 1273.14 32.7556 Q1266.82 32.7556 1263.41 36.8875 Q1260.05 40.9789 1260.05 48.6757 L1260.05 72.576 L1252.56 72.576 L1252.56 27.2059 L1260.05 27.2059 L1260.05 34.2544 Q1262.4 30.1225 1266.17 28.1376 Q1269.94 26.1121 1275.32 26.1121 Q1276.09 26.1121 1277.03 26.2337 Q1277.96 26.3147 1279.09 26.5172 L1279.13 34.1734 Z" fill="#000000" fill-rule="nonzero" fill-opacity="1" /><path clip-path="url(#clip180)" d="M1281.6 27.2059 L1289.5 27.2059 L1303.68 65.2844 L1317.86 27.2059 L1325.76 27.2059 L1308.74 72.576 L1298.62 72.576 L1281.6 27.2059 Z" fill="#000000" fill-rule="nonzero" fill-opacity="1" /><path clip-path="url(#clip180)" d="M1374.86 48.0275 L1374.86 51.6733 L1340.58 51.6733 Q1341.07 59.3701 1345.2 63.421 Q1349.37 67.4314 1356.79 67.4314 Q1361.08 67.4314 1365.09 66.3781 Q1369.14 65.3249 1373.11 63.2184 L1373.11 70.267 Q1369.1 71.9684 1364.89 72.8596 Q1360.68 73.7508 1356.34 73.7508 Q1345.49 73.7508 1339.13 67.4314 Q1332.81 61.1119 1332.81 50.3365 Q1332.81 39.1965 1338.8 32.6746 Q1344.84 26.1121 1355.05 26.1121 Q1364.2 26.1121 1369.51 32.0264 Q1374.86 37.9003 1374.86 48.0275 M1367.4 45.84 Q1367.32 39.7232 1363.96 36.0774 Q1360.64 32.4315 1355.13 32.4315 Q1348.89 32.4315 1345.12 35.9558 Q1341.39 39.4801 1340.83 45.8805 L1367.4 45.84 Z" fill="#000000" fill-rule="nonzero" fill-opacity="1" /><path clip-path="url(#clip180)" d="M1436.43 9.54393 L1436.43 15.7418 L1429.3 15.7418 Q1425.29 15.7418 1423.71 17.3622 Q1422.17 18.9825 1422.17 23.1955 L1422.17 27.2059 L1434.44 27.2059 L1434.44 32.9987 L1422.17 32.9987 L1422.17 72.576 L1414.68 72.576 L1414.68 32.9987 L1407.55 32.9987 L1407.55 27.2059 L1414.68 27.2059 L1414.68 24.0462 Q1414.68 16.471 1418.2 13.0277 Q1421.72 9.54393 1429.38 9.54393 L1436.43 9.54393 Z" fill="#000000" fill-rule="nonzero" fill-opacity="1" /><path clip-path="url(#clip180)" d="M1460.25 32.4315 Q1454.25 32.4315 1450.77 37.1306 Q1447.29 41.7891 1447.29 49.9314 Q1447.29 58.0738 1450.73 62.7728 Q1454.21 67.4314 1460.25 67.4314 Q1466.2 67.4314 1469.69 62.7323 Q1473.17 58.0333 1473.17 49.9314 Q1473.17 41.8701 1469.69 37.1711 Q1466.2 32.4315 1460.25 32.4315 M1460.25 26.1121 Q1469.97 26.1121 1475.52 32.4315 Q1481.07 38.7509 1481.07 49.9314 Q1481.07 61.0714 1475.52 67.4314 Q1469.97 73.7508 1460.25 73.7508 Q1450.49 73.7508 1444.94 67.4314 Q1439.43 61.0714 1439.43 49.9314 Q1439.43 38.7509 1444.94 32.4315 Q1450.49 26.1121 1460.25 26.1121 Z" fill="#000000" fill-rule="nonzero" fill-opacity="1" /><path clip-path="url(#clip180)" d="M1519.72 34.1734 Q1518.46 33.4443 1516.96 33.1202 Q1515.5 32.7556 1513.72 32.7556 Q1507.4 32.7556 1504 36.8875 Q1500.64 40.9789 1500.64 48.6757 L1500.64 72.576 L1493.14 72.576 L1493.14 27.2059 L1500.64 27.2059 L1500.64 34.2544 Q1502.99 30.1225 1506.75 28.1376 Q1510.52 26.1121 1515.91 26.1121 Q1516.68 26.1121 1517.61 26.2337 Q1518.54 26.3147 1519.67 26.5172 L1519.72 34.1734 Z" fill="#000000" fill-rule="nonzero" fill-opacity="1" /><path clip-path="url(#clip180)" d="M1553.3 12.096 L1561.52 12.096 L1561.52 48.8377 Q1561.52 58.5599 1565.05 62.8538 Q1568.57 67.1073 1576.47 67.1073 Q1584.33 67.1073 1587.85 62.8538 Q1591.38 58.5599 1591.38 48.8377 L1591.38 12.096 L1599.6 12.096 L1599.6 49.8504 Q1599.6 61.6791 1593.73 67.7149 Q1587.89 73.7508 1576.47 73.7508 Q1565 73.7508 1559.13 67.7149 Q1553.3 61.6791 1553.3 49.8504 L1553.3 12.096 Z" fill="#000000" fill-rule="nonzero" fill-opacity="1" /><path clip-path="url(#clip180)" d="M1651.21 14.0809 L1651.21 22.0612 Q1646.55 19.8332 1642.42 18.7395 Q1638.29 17.6457 1634.44 17.6457 Q1627.75 17.6457 1624.11 20.2383 Q1620.5 22.8309 1620.5 27.611 Q1620.5 31.6214 1622.89 33.6873 Q1625.32 35.7128 1632.05 36.9686 L1636.99 37.9813 Q1646.14 39.7232 1650.48 44.1387 Q1654.85 48.5136 1654.85 55.8863 Q1654.85 64.6767 1648.94 69.2137 Q1643.07 73.7508 1631.68 73.7508 Q1627.39 73.7508 1622.53 72.7785 Q1617.71 71.8063 1612.52 69.9024 L1612.52 61.4765 Q1617.5 64.2716 1622.28 65.6895 Q1627.06 67.1073 1631.68 67.1073 Q1638.69 67.1073 1642.5 64.3527 Q1646.31 61.598 1646.31 56.4939 Q1646.31 52.0379 1643.55 49.5264 Q1640.84 47.0148 1634.6 45.759 L1629.62 44.7868 Q1620.46 42.9639 1616.37 39.075 Q1612.28 35.1862 1612.28 28.2591 Q1612.28 20.2383 1617.91 15.6203 Q1623.58 11.0023 1633.51 11.0023 Q1637.76 11.0023 1642.17 11.7719 Q1646.59 12.5416 1651.21 14.0809 Z" fill="#000000" fill-rule="nonzero" fill-opacity="1" /><path clip-path="url(#clip180)" d="M1689.37 20.1573 L1678.27 50.2555 L1700.51 50.2555 L1689.37 20.1573 M1684.75 12.096 L1694.03 12.096 L1717.08 72.576 L1708.57 72.576 L1703.06 57.061 L1675.8 57.061 L1670.29 72.576 L1661.66 72.576 L1684.75 12.096 Z" fill="#000000" fill-rule="nonzero" fill-opacity="1" /><circle clip-path="url(#clip182)" cx="850.376" cy="1248.37" r="14.4" fill="#009af9" fill-rule="evenodd" fill-opacity="1" stroke="#000000" stroke-opacity="1" stroke-width="3.2"/>
<circle clip-path="url(#clip182)" cx="690.207" cy="1119.7" r="14.4" fill="#009af9" fill-rule="evenodd" fill-opacity="1" stroke="#000000" stroke-opacity="1" stroke-width="3.2"/>
<circle clip-path="url(#clip182)" cx="823.681" cy="1120.32" r="14.4" fill="#009af9" fill-rule="evenodd" fill-opacity="1" stroke="#000000" stroke-opacity="1" stroke-width="3.2"/>
<circle clip-path="url(#clip182)" cx="770.292" cy="1102.77" r="14.4" fill="#009af9" fill-rule="evenodd" fill-opacity="1" stroke="#000000" stroke-opacity="1" stroke-width="3.2"/>
<circle clip-path="url(#clip182)" cx="796.986" cy="1248.37" r="14.4" fill="#009af9" fill-rule="evenodd" fill-opacity="1" stroke="#000000" stroke-opacity="1" stroke-width="3.2"/>
<circle clip-path="url(#clip182)" cx="796.986" cy="1067.49" r="14.4" fill="#009af9" fill-rule="evenodd" fill-opacity="1" stroke="#000000" stroke-opacity="1" stroke-width="3.2"/>
<circle clip-path="url(#clip182)" cx="823.681" cy="1248.37" r="14.4" fill="#009af9" fill-rule="evenodd" fill-opacity="1" stroke="#000000" stroke-opacity="1" stroke-width="3.2"/>
<circle clip-path="url(#clip182)" cx="1117.32" cy="1068.7" r="14.4" fill="#009af9" fill-rule="evenodd" fill-opacity="1" stroke="#000000" stroke-opacity="1" stroke-width="3.2"/>
<circle clip-path="url(#clip182)" cx="1197.41" cy="1221.52" r="14.4" fill="#009af9" fill-rule="evenodd" fill-opacity="1" stroke="#000000" stroke-opacity="1" stroke-width="3.2"/>
<circle clip-path="url(#clip182)" cx="1197.41" cy="1248.37" r="14.4" fill="#009af9" fill-rule="evenodd" fill-opacity="1" stroke="#000000" stroke-opacity="1" stroke-width="3.2"/>
<circle clip-path="url(#clip182)" cx="1144.02" cy="1123.44" r="14.4" fill="#009af9" fill-rule="evenodd" fill-opacity="1" stroke="#000000" stroke-opacity="1" stroke-width="3.2"/>
<circle clip-path="url(#clip182)" cx="957.155" cy="1221.67" r="14.4" fill="#009af9" fill-rule="evenodd" fill-opacity="1" stroke="#000000" stroke-opacity="1" stroke-width="3.2"/>
<circle clip-path="url(#clip182)" cx="850.376" cy="1106.45" r="14.4" fill="#009af9" fill-rule="evenodd" fill-opacity="1" stroke="#000000" stroke-opacity="1" stroke-width="3.2"/>
<circle clip-path="url(#clip182)" cx="823.681" cy="1213.01" r="14.4" fill="#009af9" fill-rule="evenodd" fill-opacity="1" stroke="#000000" stroke-opacity="1" stroke-width="3.2"/>
<circle clip-path="url(#clip182)" cx="850.376" cy="1063.48" r="14.4" fill="#009af9" fill-rule="evenodd" fill-opacity="1" stroke="#000000" stroke-opacity="1" stroke-width="3.2"/>
<circle clip-path="url(#clip182)" cx="823.681" cy="1283.48" r="14.4" fill="#009af9" fill-rule="evenodd" fill-opacity="1" stroke="#000000" stroke-opacity="1" stroke-width="3.2"/>
<circle clip-path="url(#clip182)" cx="877.071" cy="1134.4" r="14.4" fill="#009af9" fill-rule="evenodd" fill-opacity="1" stroke="#000000" stroke-opacity="1" stroke-width="3.2"/>
<circle clip-path="url(#clip182)" cx="850.376" cy="1161.03" r="14.4" fill="#009af9" fill-rule="evenodd" fill-opacity="1" stroke="#000000" stroke-opacity="1" stroke-width="3.2"/>
<circle clip-path="url(#clip182)" cx="823.681" cy="1152.63" r="14.4" fill="#009af9" fill-rule="evenodd" fill-opacity="1" stroke="#000000" stroke-opacity="1" stroke-width="3.2"/>
<circle clip-path="url(#clip182)" cx="823.681" cy="1109.72" r="14.4" fill="#009af9" fill-rule="evenodd" fill-opacity="1" stroke="#000000" stroke-opacity="1" stroke-width="3.2"/>
<circle clip-path="url(#clip182)" cx="796.986" cy="1196.56" r="14.4" fill="#009af9" fill-rule="evenodd" fill-opacity="1" stroke="#000000" stroke-opacity="1" stroke-width="3.2"/>
<circle clip-path="url(#clip182)" cx="743.597" cy="1188.05" r="14.4" fill="#009af9" fill-rule="evenodd" fill-opacity="1" stroke="#000000" stroke-opacity="1" stroke-width="3.2"/>
<circle clip-path="url(#clip182)" cx="716.902" cy="1188.19" r="14.4" fill="#009af9" fill-rule="evenodd" fill-opacity="1" stroke="#000000" stroke-opacity="1" stroke-width="3.2"/>
<circle clip-path="url(#clip182)" cx="690.207" cy="1102.78" r="14.4" fill="#009af9" fill-rule="evenodd" fill-opacity="1" stroke="#000000" stroke-opacity="1" stroke-width="3.2"/>
<circle clip-path="url(#clip182)" cx="610.123" cy="1197.17" r="14.4" fill="#009af9" fill-rule="evenodd" fill-opacity="1" stroke="#000000" stroke-opacity="1" stroke-width="3.2"/>
<circle clip-path="url(#clip182)" cx="583.428" cy="993.861" r="14.4" fill="#009af9" fill-rule="evenodd" fill-opacity="1" stroke="#000000" stroke-opacity="1" stroke-width="3.2"/>
<circle clip-path="url(#clip182)" cx="503.344" cy="1239.93" r="14.4" fill="#009af9" fill-rule="evenodd" fill-opacity="1" stroke="#000000" stroke-opacity="1" stroke-width="3.2"/>
<circle clip-path="url(#clip182)" cx="423.26" cy="1054.94" r="14.4" fill="#009af9" fill-rule="evenodd" fill-opacity="1" stroke="#000000" stroke-opacity="1" stroke-width="3.2"/>
<circle clip-path="url(#clip182)" cx="369.87" cy="973.263" r="14.4" fill="#009af9" fill-rule="evenodd" fill-opacity="1" stroke="#000000" stroke-opacity="1" stroke-width="3.2"/>
<circle clip-path="url(#clip182)" cx="369.87" cy="1083.01" r="14.4" fill="#009af9" fill-rule="evenodd" fill-opacity="1" stroke="#000000" stroke-opacity="1" stroke-width="3.2"/>
<circle clip-path="url(#clip182)" cx="343.176" cy="945.126" r="14.4" fill="#009af9" fill-rule="evenodd" fill-opacity="1" stroke="#000000" stroke-opacity="1" stroke-width="3.2"/>
<circle clip-path="url(#clip182)" cx="369.87" cy="1110.19" r="14.4" fill="#009af9" fill-rule="evenodd" fill-opacity="1" stroke="#000000" stroke-opacity="1" stroke-width="3.2"/>
<circle clip-path="url(#clip182)" cx="369.87" cy="1183.59" r="14.4" fill="#009af9" fill-rule="evenodd" fill-opacity="1" stroke="#000000" stroke-opacity="1" stroke-width="3.2"/>
<circle clip-path="url(#clip182)" cx="396.565" cy="1006.84" r="14.4" fill="#009af9" fill-rule="evenodd" fill-opacity="1" stroke="#000000" stroke-opacity="1" stroke-width="3.2"/>
<circle clip-path="url(#clip182)" cx="369.87" cy="1009" r="14.4" fill="#009af9" fill-rule="evenodd" fill-opacity="1" stroke="#000000" stroke-opacity="1" stroke-width="3.2"/>
<circle clip-path="url(#clip182)" cx="369.87" cy="932.517" r="14.4" fill="#009af9" fill-rule="evenodd" fill-opacity="1" stroke="#000000" stroke-opacity="1" stroke-width="3.2"/>
<circle clip-path="url(#clip182)" cx="343.176" cy="1013.91" r="14.4" fill="#009af9" fill-rule="evenodd" fill-opacity="1" stroke="#000000" stroke-opacity="1" stroke-width="3.2"/>
<circle clip-path="url(#clip182)" cx="343.176" cy="938.926" r="14.4" fill="#009af9" fill-rule="evenodd" fill-opacity="1" stroke="#000000" stroke-opacity="1" stroke-width="3.2"/>
<circle clip-path="url(#clip182)" cx="263.091" cy="942.472" r="14.4" fill="#009af9" fill-rule="evenodd" fill-opacity="1" stroke="#000000" stroke-opacity="1" stroke-width="3.2"/>
<circle clip-path="url(#clip182)" cx="263.091" cy="870.864" r="14.4" fill="#009af9" fill-rule="evenodd" fill-opacity="1" stroke="#000000" stroke-opacity="1" stroke-width="3.2"/>
<circle clip-path="url(#clip182)" cx="263.091" cy="876.129" r="14.4" fill="#009af9" fill-rule="evenodd" fill-opacity="1" stroke="#000000" stroke-opacity="1" stroke-width="3.2"/>
<circle clip-path="url(#clip182)" cx="289.786" cy="881.249" r="14.4" fill="#009af9" fill-rule="evenodd" fill-opacity="1" stroke="#000000" stroke-opacity="1" stroke-width="3.2"/>
<circle clip-path="url(#clip182)" cx="343.176" cy="886.231" r="14.4" fill="#009af9" fill-rule="evenodd" fill-opacity="1" stroke="#000000" stroke-opacity="1" stroke-width="3.2"/>
<circle clip-path="url(#clip182)" cx="289.786" cy="820.192" r="14.4" fill="#009af9" fill-rule="evenodd" fill-opacity="1" stroke="#000000" stroke-opacity="1" stroke-width="3.2"/>
<circle clip-path="url(#clip182)" cx="530.039" cy="826.953" r="14.4" fill="#009af9" fill-rule="evenodd" fill-opacity="1" stroke="#000000" stroke-opacity="1" stroke-width="3.2"/>
<circle clip-path="url(#clip182)" cx="663.513" cy="902.201" r="14.4" fill="#009af9" fill-rule="evenodd" fill-opacity="1" stroke="#000000" stroke-opacity="1" stroke-width="3.2"/>
<circle clip-path="url(#clip182)" cx="796.986" cy="974.631" r="14.4" fill="#009af9" fill-rule="evenodd" fill-opacity="1" stroke="#000000" stroke-opacity="1" stroke-width="3.2"/>
<circle clip-path="url(#clip182)" cx="983.85" cy="842.956" r="14.4" fill="#009af9" fill-rule="evenodd" fill-opacity="1" stroke="#000000" stroke-opacity="1" stroke-width="3.2"/>
<circle clip-path="url(#clip182)" cx="957.155" cy="1114.59" r="14.4" fill="#009af9" fill-rule="evenodd" fill-opacity="1" stroke="#000000" stroke-opacity="1" stroke-width="3.2"/>
<circle clip-path="url(#clip182)" cx="930.46" cy="916.822" r="14.4" fill="#009af9" fill-rule="evenodd" fill-opacity="1" stroke="#000000" stroke-opacity="1" stroke-width="3.2"/>
<circle clip-path="url(#clip182)" cx="957.155" cy="1051.4" r="14.4" fill="#009af9" fill-rule="evenodd" fill-opacity="1" stroke="#000000" stroke-opacity="1" stroke-width="3.2"/>
<circle clip-path="url(#clip182)" cx="957.155" cy="1052.84" r="14.4" fill="#009af9" fill-rule="evenodd" fill-opacity="1" stroke="#000000" stroke-opacity="1" stroke-width="3.2"/>
<circle clip-path="url(#clip182)" cx="903.765" cy="1054.26" r="14.4" fill="#009af9" fill-rule="evenodd" fill-opacity="1" stroke="#000000" stroke-opacity="1" stroke-width="3.2"/>
<circle clip-path="url(#clip182)" cx="877.071" cy="1055.67" r="14.4" fill="#009af9" fill-rule="evenodd" fill-opacity="1" stroke="#000000" stroke-opacity="1" stroke-width="3.2"/>
<circle clip-path="url(#clip182)" cx="823.681" cy="993.577" r="14.4" fill="#009af9" fill-rule="evenodd" fill-opacity="1" stroke="#000000" stroke-opacity="1" stroke-width="3.2"/>
<circle clip-path="url(#clip182)" cx="743.597" cy="995.987" r="14.4" fill="#009af9" fill-rule="evenodd" fill-opacity="1" stroke="#000000" stroke-opacity="1" stroke-width="3.2"/>
<circle clip-path="url(#clip182)" cx="663.513" cy="689.089" r="14.4" fill="#009af9" fill-rule="evenodd" fill-opacity="1" stroke="#000000" stroke-opacity="1" stroke-width="3.2"/>
<circle clip-path="url(#clip182)" cx="663.513" cy="760.883" r="14.4" fill="#009af9" fill-rule="evenodd" fill-opacity="1" stroke="#000000" stroke-opacity="1" stroke-width="3.2"/>
<circle clip-path="url(#clip182)" cx="636.818" cy="651.272" r="14.4" fill="#009af9" fill-rule="evenodd" fill-opacity="1" stroke="#000000" stroke-opacity="1" stroke-width="3.2"/>
<circle clip-path="url(#clip182)" cx="663.513" cy="606.633" r="14.4" fill="#009af9" fill-rule="evenodd" fill-opacity="1" stroke="#000000" stroke-opacity="1" stroke-width="3.2"/>
<circle clip-path="url(#clip182)" cx="716.902" cy="397.423" r="14.4" fill="#009af9" fill-rule="evenodd" fill-opacity="1" stroke="#000000" stroke-opacity="1" stroke-width="3.2"/>
<circle clip-path="url(#clip182)" cx="796.986" cy="586.622" r="14.4" fill="#009af9" fill-rule="evenodd" fill-opacity="1" stroke="#000000" stroke-opacity="1" stroke-width="3.2"/>
<circle clip-path="url(#clip182)" cx="930.46" cy="390.815" r="14.4" fill="#009af9" fill-rule="evenodd" fill-opacity="1" stroke="#000000" stroke-opacity="1" stroke-width="3.2"/>
<circle clip-path="url(#clip182)" cx="1277.49" cy="571.341" r="14.4" fill="#009af9" fill-rule="evenodd" fill-opacity="1" stroke="#000000" stroke-opacity="1" stroke-width="3.2"/>
<circle clip-path="url(#clip182)" cx="1651.22" cy="789.519" r="14.4" fill="#009af9" fill-rule="evenodd" fill-opacity="1" stroke="#000000" stroke-opacity="1" stroke-width="3.2"/>
<circle clip-path="url(#clip182)" cx="1704.61" cy="896.86" r="14.4" fill="#009af9" fill-rule="evenodd" fill-opacity="1" stroke="#000000" stroke-opacity="1" stroke-width="3.2"/>
<circle clip-path="url(#clip182)" cx="1597.83" cy="705.186" r="14.4" fill="#009af9" fill-rule="evenodd" fill-opacity="1" stroke="#000000" stroke-opacity="1" stroke-width="3.2"/>
<circle clip-path="url(#clip182)" cx="1544.44" cy="763.979" r="14.4" fill="#009af9" fill-rule="evenodd" fill-opacity="1" stroke="#000000" stroke-opacity="1" stroke-width="3.2"/>
<circle clip-path="url(#clip182)" cx="1384.27" cy="1057.05" r="14.4" fill="#009af9" fill-rule="evenodd" fill-opacity="1" stroke="#000000" stroke-opacity="1" stroke-width="3.2"/>
<circle clip-path="url(#clip182)" cx="1384.27" cy="916.822" r="14.4" fill="#009af9" fill-rule="evenodd" fill-opacity="1" stroke="#000000" stroke-opacity="1" stroke-width="3.2"/>
<circle clip-path="url(#clip182)" cx="1384.27" cy="828.059" r="14.4" fill="#009af9" fill-rule="evenodd" fill-opacity="1" stroke="#000000" stroke-opacity="1" stroke-width="3.2"/>
<circle clip-path="url(#clip182)" cx="1437.66" cy="880.237" r="14.4" fill="#009af9" fill-rule="evenodd" fill-opacity="1" stroke="#000000" stroke-opacity="1" stroke-width="3.2"/>
<circle clip-path="url(#clip182)" cx="1330.88" cy="705.521" r="14.4" fill="#009af9" fill-rule="evenodd" fill-opacity="1" stroke="#000000" stroke-opacity="1" stroke-width="3.2"/>
<circle clip-path="url(#clip182)" cx="1277.49" cy="848.357" r="14.4" fill="#009af9" fill-rule="evenodd" fill-opacity="1" stroke="#000000" stroke-opacity="1" stroke-width="3.2"/>
<circle clip-path="url(#clip182)" cx="1170.71" cy="897.767" r="14.4" fill="#009af9" fill-rule="evenodd" fill-opacity="1" stroke="#000000" stroke-opacity="1" stroke-width="3.2"/>
<circle clip-path="url(#clip182)" cx="1063.93" cy="816.496" r="14.4" fill="#009af9" fill-rule="evenodd" fill-opacity="1" stroke="#000000" stroke-opacity="1" stroke-width="3.2"/>
<circle clip-path="url(#clip182)" cx="1037.24" cy="781.244" r="14.4" fill="#009af9" fill-rule="evenodd" fill-opacity="1" stroke="#000000" stroke-opacity="1" stroke-width="3.2"/>
<circle clip-path="url(#clip182)" cx="930.46" cy="583.186" r="14.4" fill="#009af9" fill-rule="evenodd" fill-opacity="1" stroke="#000000" stroke-opacity="1" stroke-width="3.2"/>
<circle clip-path="url(#clip182)" cx="957.155" cy="639.466" r="14.4" fill="#009af9" fill-rule="evenodd" fill-opacity="1" stroke="#000000" stroke-opacity="1" stroke-width="3.2"/>
<circle clip-path="url(#clip182)" cx="957.155" cy="692.326" r="14.4" fill="#009af9" fill-rule="evenodd" fill-opacity="1" stroke="#000000" stroke-opacity="1" stroke-width="3.2"/>
<circle clip-path="url(#clip182)" cx="903.765" cy="473.595" r="14.4" fill="#009af9" fill-rule="evenodd" fill-opacity="1" stroke="#000000" stroke-opacity="1" stroke-width="3.2"/>
<circle clip-path="url(#clip182)" cx="877.071" cy="384.326" r="14.4" fill="#009af9" fill-rule="evenodd" fill-opacity="1" stroke="#000000" stroke-opacity="1" stroke-width="3.2"/>
<circle clip-path="url(#clip182)" cx="930.46" cy="447.272" r="14.4" fill="#009af9" fill-rule="evenodd" fill-opacity="1" stroke="#000000" stroke-opacity="1" stroke-width="3.2"/>
<circle clip-path="url(#clip182)" cx="957.155" cy="366.297" r="14.4" fill="#009af9" fill-rule="evenodd" fill-opacity="1" stroke="#000000" stroke-opacity="1" stroke-width="3.2"/>
<circle clip-path="url(#clip182)" cx="1037.24" cy="160.256" r="14.4" fill="#009af9" fill-rule="evenodd" fill-opacity="1" stroke="#000000" stroke-opacity="1" stroke-width="3.2"/>
<circle clip-path="url(#clip182)" cx="1384.27" cy="460.442" r="14.4" fill="#009af9" fill-rule="evenodd" fill-opacity="1" stroke="#000000" stroke-opacity="1" stroke-width="3.2"/>
<circle clip-path="url(#clip182)" cx="1357.58" cy="799.262" r="14.4" fill="#009af9" fill-rule="evenodd" fill-opacity="1" stroke="#000000" stroke-opacity="1" stroke-width="3.2"/>
<circle clip-path="url(#clip182)" cx="1277.49" cy="464.722" r="14.4" fill="#009af9" fill-rule="evenodd" fill-opacity="1" stroke="#000000" stroke-opacity="1" stroke-width="3.2"/>
<circle clip-path="url(#clip182)" cx="1330.88" cy="577.293" r="14.4" fill="#009af9" fill-rule="evenodd" fill-opacity="1" stroke="#000000" stroke-opacity="1" stroke-width="3.2"/>
<circle clip-path="url(#clip182)" cx="1357.58" cy="682.08" r="14.4" fill="#009af9" fill-rule="evenodd" fill-opacity="1" stroke="#000000" stroke-opacity="1" stroke-width="3.2"/>
<circle clip-path="url(#clip182)" cx="1384.27" cy="492.418" r="14.4" fill="#009af9" fill-rule="evenodd" fill-opacity="1" stroke="#000000" stroke-opacity="1" stroke-width="3.2"/>
<circle clip-path="url(#clip182)" cx="1624.52" cy="963.225" r="14.4" fill="#009af9" fill-rule="evenodd" fill-opacity="1" stroke="#000000" stroke-opacity="1" stroke-width="3.2"/>
<circle clip-path="url(#clip182)" cx="1758" cy="1078.73" r="14.4" fill="#009af9" fill-rule="evenodd" fill-opacity="1" stroke="#000000" stroke-opacity="1" stroke-width="3.2"/>
<circle clip-path="url(#clip182)" cx="1918.17" cy="607.911" r="14.4" fill="#009af9" fill-rule="evenodd" fill-opacity="1" stroke="#000000" stroke-opacity="1" stroke-width="3.2"/>
<circle clip-path="url(#clip182)" cx="2051.64" cy="1056.46" r="14.4" fill="#009af9" fill-rule="evenodd" fill-opacity="1" stroke="#000000" stroke-opacity="1" stroke-width="3.2"/>
<circle clip-path="url(#clip182)" cx="2238.5" cy="1248.37" r="14.4" fill="#009af9" fill-rule="evenodd" fill-opacity="1" stroke="#000000" stroke-opacity="1" stroke-width="3.2"/>
<circle clip-path="url(#clip182)" cx="2105.03" cy="1139.32" r="14.4" fill="#009af9" fill-rule="evenodd" fill-opacity="1" stroke="#000000" stroke-opacity="1" stroke-width="3.2"/>
<circle clip-path="url(#clip182)" cx="2051.64" cy="897.013" r="14.4" fill="#009af9" fill-rule="evenodd" fill-opacity="1" stroke="#000000" stroke-opacity="1" stroke-width="3.2"/>
<circle clip-path="url(#clip182)" cx="1811.39" cy="981.207" r="14.4" fill="#009af9" fill-rule="evenodd" fill-opacity="1" stroke="#000000" stroke-opacity="1" stroke-width="3.2"/>
<circle clip-path="url(#clip182)" cx="1571.13" cy="983.855" r="14.4" fill="#009af9" fill-rule="evenodd" fill-opacity="1" stroke="#000000" stroke-opacity="1" stroke-width="3.2"/>
<circle clip-path="url(#clip182)" cx="1437.66" cy="856.451" r="14.4" fill="#009af9" fill-rule="evenodd" fill-opacity="1" stroke="#000000" stroke-opacity="1" stroke-width="3.2"/>
<circle clip-path="url(#clip182)" cx="1277.49" cy="1041.67" r="14.4" fill="#009af9" fill-rule="evenodd" fill-opacity="1" stroke="#000000" stroke-opacity="1" stroke-width="3.2"/>
<circle clip-path="url(#clip182)" cx="1304.19" cy="992.232" r="14.4" fill="#009af9" fill-rule="evenodd" fill-opacity="1" stroke="#000000" stroke-opacity="1" stroke-width="3.2"/>
<circle clip-path="url(#clip182)" cx="1304.19" cy="1045.21" r="14.4" fill="#009af9" fill-rule="evenodd" fill-opacity="1" stroke="#000000" stroke-opacity="1" stroke-width="3.2"/>
<circle clip-path="url(#clip182)" cx="1277.49" cy="921.507" r="14.4" fill="#009af9" fill-rule="evenodd" fill-opacity="1" stroke="#000000" stroke-opacity="1" stroke-width="3.2"/>
<circle clip-path="url(#clip182)" cx="1330.88" cy="1074.01" r="14.4" fill="#009af9" fill-rule="evenodd" fill-opacity="1" stroke="#000000" stroke-opacity="1" stroke-width="3.2"/>
<circle clip-path="url(#clip182)" cx="1250.8" cy="1099.82" r="14.4" fill="#009af9" fill-rule="evenodd" fill-opacity="1" stroke="#000000" stroke-opacity="1" stroke-width="3.2"/>
<circle clip-path="url(#clip182)" cx="1224.1" cy="904.937" r="14.4" fill="#009af9" fill-rule="evenodd" fill-opacity="1" stroke="#000000" stroke-opacity="1" stroke-width="3.2"/>
<circle clip-path="url(#clip182)" cx="1277.49" cy="1346.04" r="14.4" fill="#009af9" fill-rule="evenodd" fill-opacity="1" stroke="#000000" stroke-opacity="1" stroke-width="3.2"/>
<circle clip-path="url(#clip182)" cx="1277.49" cy="1175.08" r="14.4" fill="#009af9" fill-rule="evenodd" fill-opacity="1" stroke="#000000" stroke-opacity="1" stroke-width="3.2"/>
<circle clip-path="url(#clip182)" cx="1224.1" cy="1102.39" r="14.4" fill="#009af9" fill-rule="evenodd" fill-opacity="1" stroke="#000000" stroke-opacity="1" stroke-width="3.2"/>
<circle clip-path="url(#clip182)" cx="1117.32" cy="1054.97" r="14.4" fill="#009af9" fill-rule="evenodd" fill-opacity="1" stroke="#000000" stroke-opacity="1" stroke-width="3.2"/>
<circle clip-path="url(#clip182)" cx="1117.32" cy="913.254" r="14.4" fill="#009af9" fill-rule="evenodd" fill-opacity="1" stroke="#000000" stroke-opacity="1" stroke-width="3.2"/>
<circle clip-path="url(#clip182)" cx="1010.54" cy="940.914" r="14.4" fill="#009af9" fill-rule="evenodd" fill-opacity="1" stroke="#000000" stroke-opacity="1" stroke-width="3.2"/>
<circle clip-path="url(#clip182)" cx="930.46" cy="967.674" r="14.4" fill="#009af9" fill-rule="evenodd" fill-opacity="1" stroke="#000000" stroke-opacity="1" stroke-width="3.2"/>
<circle clip-path="url(#clip182)" cx="877.071" cy="1039.77" r="14.4" fill="#009af9" fill-rule="evenodd" fill-opacity="1" stroke="#000000" stroke-opacity="1" stroke-width="3.2"/>
<circle clip-path="url(#clip182)" cx="877.071" cy="1041.39" r="14.4" fill="#009af9" fill-rule="evenodd" fill-opacity="1" stroke="#000000" stroke-opacity="1" stroke-width="3.2"/>
<circle clip-path="url(#clip182)" cx="796.986" cy="906.925" r="14.4" fill="#009af9" fill-rule="evenodd" fill-opacity="1" stroke="#000000" stroke-opacity="1" stroke-width="3.2"/>
<circle clip-path="url(#clip182)" cx="796.986" cy="911.238" r="14.4" fill="#009af9" fill-rule="evenodd" fill-opacity="1" stroke="#000000" stroke-opacity="1" stroke-width="3.2"/>
<circle clip-path="url(#clip182)" cx="770.292" cy="981.697" r="14.4" fill="#009af9" fill-rule="evenodd" fill-opacity="1" stroke="#000000" stroke-opacity="1" stroke-width="3.2"/>
<circle clip-path="url(#clip182)" cx="690.207" cy="918.733" r="14.4" fill="#009af9" fill-rule="evenodd" fill-opacity="1" stroke="#000000" stroke-opacity="1" stroke-width="3.2"/>
<circle clip-path="url(#clip182)" cx="770.292" cy="836.592" r="14.4" fill="#009af9" fill-rule="evenodd" fill-opacity="1" stroke="#000000" stroke-opacity="1" stroke-width="3.2"/>
<circle clip-path="url(#clip182)" cx="770.292" cy="1098.25" r="14.4" fill="#009af9" fill-rule="evenodd" fill-opacity="1" stroke="#000000" stroke-opacity="1" stroke-width="3.2"/>
<circle clip-path="url(#clip182)" cx="796.986" cy="929.498" r="14.4" fill="#009af9" fill-rule="evenodd" fill-opacity="1" stroke="#000000" stroke-opacity="1" stroke-width="3.2"/>
<circle clip-path="url(#clip182)" cx="743.597" cy="766.716" r="14.4" fill="#009af9" fill-rule="evenodd" fill-opacity="1" stroke="#000000" stroke-opacity="1" stroke-width="3.2"/>
<circle clip-path="url(#clip182)" cx="743.597" cy="979.926" r="14.4" fill="#009af9" fill-rule="evenodd" fill-opacity="1" stroke="#000000" stroke-opacity="1" stroke-width="3.2"/>
<circle clip-path="url(#clip182)" cx="930.46" cy="719.451" r="14.4" fill="#009af9" fill-rule="evenodd" fill-opacity="1" stroke="#000000" stroke-opacity="1" stroke-width="3.2"/>
<circle clip-path="url(#clip182)" cx="1037.24" cy="908.12" r="14.4" fill="#009af9" fill-rule="evenodd" fill-opacity="1" stroke="#000000" stroke-opacity="1" stroke-width="3.2"/>
<circle clip-path="url(#clip182)" cx="1170.71" cy="1129.31" r="14.4" fill="#009af9" fill-rule="evenodd" fill-opacity="1" stroke="#000000" stroke-opacity="1" stroke-width="3.2"/>
<circle clip-path="url(#clip182)" cx="1197.41" cy="1011.83" r="14.4" fill="#009af9" fill-rule="evenodd" fill-opacity="1" stroke="#000000" stroke-opacity="1" stroke-width="3.2"/>
<circle clip-path="url(#clip182)" cx="1197.41" cy="1052.84" r="14.4" fill="#009af9" fill-rule="evenodd" fill-opacity="1" stroke="#000000" stroke-opacity="1" stroke-width="3.2"/>
<circle clip-path="url(#clip182)" cx="1304.19" cy="1015.61" r="14.4" fill="#009af9" fill-rule="evenodd" fill-opacity="1" stroke="#000000" stroke-opacity="1" stroke-width="3.2"/>
<circle clip-path="url(#clip182)" cx="1330.88" cy="1075.12" r="14.4" fill="#009af9" fill-rule="evenodd" fill-opacity="1" stroke="#000000" stroke-opacity="1" stroke-width="3.2"/>
<circle clip-path="url(#clip182)" cx="1437.66" cy="1057.18" r="14.4" fill="#009af9" fill-rule="evenodd" fill-opacity="1" stroke="#000000" stroke-opacity="1" stroke-width="3.2"/>
<circle clip-path="url(#clip182)" cx="1384.27" cy="1058.54" r="14.4" fill="#009af9" fill-rule="evenodd" fill-opacity="1" stroke="#000000" stroke-opacity="1" stroke-width="3.2"/>
<circle clip-path="url(#clip182)" cx="1330.88" cy="1022.35" r="14.4" fill="#009af9" fill-rule="evenodd" fill-opacity="1" stroke="#000000" stroke-opacity="1" stroke-width="3.2"/>
<circle clip-path="url(#clip182)" cx="1224.1" cy="1061.47" r="14.4" fill="#009af9" fill-rule="evenodd" fill-opacity="1" stroke="#000000" stroke-opacity="1" stroke-width="3.2"/>
<circle clip-path="url(#clip182)" cx="1224.1" cy="1062.77" r="14.4" fill="#009af9" fill-rule="evenodd" fill-opacity="1" stroke="#000000" stroke-opacity="1" stroke-width="3.2"/>
<circle clip-path="url(#clip182)" cx="1144.02" cy="1119.21" r="14.4" fill="#009af9" fill-rule="evenodd" fill-opacity="1" stroke="#000000" stroke-opacity="1" stroke-width="3.2"/>
<circle clip-path="url(#clip182)" cx="1090.63" cy="1010.15" r="14.4" fill="#009af9" fill-rule="evenodd" fill-opacity="1" stroke="#000000" stroke-opacity="1" stroke-width="3.2"/>
<circle clip-path="url(#clip182)" cx="1090.63" cy="1102.82" r="14.4" fill="#009af9" fill-rule="evenodd" fill-opacity="1" stroke="#000000" stroke-opacity="1" stroke-width="3.2"/>
<circle clip-path="url(#clip182)" cx="983.85" cy="1103.61" r="14.4" fill="#009af9" fill-rule="evenodd" fill-opacity="1" stroke="#000000" stroke-opacity="1" stroke-width="3.2"/>
<circle clip-path="url(#clip182)" cx="930.46" cy="996.921" r="14.4" fill="#009af9" fill-rule="evenodd" fill-opacity="1" stroke="#000000" stroke-opacity="1" stroke-width="3.2"/>
<circle clip-path="url(#clip182)" cx="823.681" cy="1105.74" r="14.4" fill="#009af9" fill-rule="evenodd" fill-opacity="1" stroke="#000000" stroke-opacity="1" stroke-width="3.2"/>
<circle clip-path="url(#clip182)" cx="796.986" cy="1053.49" r="14.4" fill="#009af9" fill-rule="evenodd" fill-opacity="1" stroke="#000000" stroke-opacity="1" stroke-width="3.2"/>
<circle clip-path="url(#clip182)" cx="850.376" cy="1037.39" r="14.4" fill="#009af9" fill-rule="evenodd" fill-opacity="1" stroke="#000000" stroke-opacity="1" stroke-width="3.2"/>
<circle clip-path="url(#clip182)" cx="850.376" cy="1126.06" r="14.4" fill="#009af9" fill-rule="evenodd" fill-opacity="1" stroke="#000000" stroke-opacity="1" stroke-width="3.2"/>
<circle clip-path="url(#clip182)" cx="850.376" cy="1109.27" r="14.4" fill="#009af9" fill-rule="evenodd" fill-opacity="1" stroke="#000000" stroke-opacity="1" stroke-width="3.2"/>
<circle clip-path="url(#clip182)" cx="823.681" cy="972.331" r="14.4" fill="#009af9" fill-rule="evenodd" fill-opacity="1" stroke="#000000" stroke-opacity="1" stroke-width="3.2"/>
<circle clip-path="url(#clip182)" cx="770.292" cy="1043.2" r="14.4" fill="#009af9" fill-rule="evenodd" fill-opacity="1" stroke="#000000" stroke-opacity="1" stroke-width="3.2"/>
<circle clip-path="url(#clip182)" cx="743.597" cy="1078.59" r="14.4" fill="#009af9" fill-rule="evenodd" fill-opacity="1" stroke="#000000" stroke-opacity="1" stroke-width="3.2"/>
<circle clip-path="url(#clip182)" cx="796.986" cy="1012.48" r="14.4" fill="#009af9" fill-rule="evenodd" fill-opacity="1" stroke="#000000" stroke-opacity="1" stroke-width="3.2"/>
<circle clip-path="url(#clip182)" cx="743.597" cy="1131.2" r="14.4" fill="#009af9" fill-rule="evenodd" fill-opacity="1" stroke="#000000" stroke-opacity="1" stroke-width="3.2"/>
<circle clip-path="url(#clip182)" cx="690.207" cy="1181.64" r="14.4" fill="#009af9" fill-rule="evenodd" fill-opacity="1" stroke="#000000" stroke-opacity="1" stroke-width="3.2"/>
<circle clip-path="url(#clip182)" cx="663.513" cy="1082.29" r="14.4" fill="#009af9" fill-rule="evenodd" fill-opacity="1" stroke="#000000" stroke-opacity="1" stroke-width="3.2"/>
<circle clip-path="url(#clip182)" cx="610.123" cy="1149.21" r="14.4" fill="#009af9" fill-rule="evenodd" fill-opacity="1" stroke="#000000" stroke-opacity="1" stroke-width="3.2"/>
<circle clip-path="url(#clip182)" cx="610.123" cy="1215.4" r="14.4" fill="#009af9" fill-rule="evenodd" fill-opacity="1" stroke="#000000" stroke-opacity="1" stroke-width="3.2"/>
<circle clip-path="url(#clip182)" cx="556.734" cy="1116.89" r="14.4" fill="#009af9" fill-rule="evenodd" fill-opacity="1" stroke="#000000" stroke-opacity="1" stroke-width="3.2"/>
<circle clip-path="url(#clip182)" cx="583.428" cy="1133.86" r="14.4" fill="#009af9" fill-rule="evenodd" fill-opacity="1" stroke="#000000" stroke-opacity="1" stroke-width="3.2"/>
<circle clip-path="url(#clip182)" cx="530.039" cy="1101.86" r="14.4" fill="#009af9" fill-rule="evenodd" fill-opacity="1" stroke="#000000" stroke-opacity="1" stroke-width="3.2"/>
<circle clip-path="url(#clip182)" cx="476.649" cy="1183.51" r="14.4" fill="#009af9" fill-rule="evenodd" fill-opacity="1" stroke="#000000" stroke-opacity="1" stroke-width="3.2"/>
<circle clip-path="url(#clip182)" cx="503.344" cy="1054.73" r="14.4" fill="#009af9" fill-rule="evenodd" fill-opacity="1" stroke="#000000" stroke-opacity="1" stroke-width="3.2"/>
<circle clip-path="url(#clip182)" cx="476.649" cy="960.526" r="14.4" fill="#009af9" fill-rule="evenodd" fill-opacity="1" stroke="#000000" stroke-opacity="1" stroke-width="3.2"/>
<circle clip-path="url(#clip182)" cx="423.26" cy="1089.79" r="14.4" fill="#009af9" fill-rule="evenodd" fill-opacity="1" stroke="#000000" stroke-opacity="1" stroke-width="3.2"/>
<circle clip-path="url(#clip182)" cx="423.26" cy="902.772" r="14.4" fill="#009af9" fill-rule="evenodd" fill-opacity="1" stroke="#000000" stroke-opacity="1" stroke-width="3.2"/>
<circle clip-path="url(#clip182)" cx="423.26" cy="1061.73" r="14.4" fill="#009af9" fill-rule="evenodd" fill-opacity="1" stroke="#000000" stroke-opacity="1" stroke-width="3.2"/>
<circle clip-path="url(#clip182)" cx="396.565" cy="1032.26" r="14.4" fill="#009af9" fill-rule="evenodd" fill-opacity="1" stroke="#000000" stroke-opacity="1" stroke-width="3.2"/>
<circle clip-path="url(#clip182)" cx="396.565" cy="1095.07" r="14.4" fill="#009af9" fill-rule="evenodd" fill-opacity="1" stroke="#000000" stroke-opacity="1" stroke-width="3.2"/>
<circle clip-path="url(#clip182)" cx="503.344" cy="1020.06" r="14.4" fill="#009af9" fill-rule="evenodd" fill-opacity="1" stroke="#000000" stroke-opacity="1" stroke-width="3.2"/>
<circle clip-path="url(#clip182)" cx="556.734" cy="1006.97" r="14.4" fill="#009af9" fill-rule="evenodd" fill-opacity="1" stroke="#000000" stroke-opacity="1" stroke-width="3.2"/>
<circle clip-path="url(#clip182)" cx="690.207" cy="1188.36" r="14.4" fill="#009af9" fill-rule="evenodd" fill-opacity="1" stroke="#000000" stroke-opacity="1" stroke-width="3.2"/>
<circle clip-path="url(#clip182)" cx="877.071" cy="1353.47" r="14.4" fill="#009af9" fill-rule="evenodd" fill-opacity="1" stroke="#000000" stroke-opacity="1" stroke-width="3.2"/>
<circle clip-path="url(#clip182)" cx="877.071" cy="1083.39" r="14.4" fill="#009af9" fill-rule="evenodd" fill-opacity="1" stroke="#000000" stroke-opacity="1" stroke-width="3.2"/>
<circle clip-path="url(#clip182)" cx="903.765" cy="1084.4" r="14.4" fill="#009af9" fill-rule="evenodd" fill-opacity="1" stroke="#000000" stroke-opacity="1" stroke-width="3.2"/>
<circle clip-path="url(#clip182)" cx="877.071" cy="1070.64" r="14.4" fill="#009af9" fill-rule="evenodd" fill-opacity="1" stroke="#000000" stroke-opacity="1" stroke-width="3.2"/>
<circle clip-path="url(#clip182)" cx="957.155" cy="1101.16" r="14.4" fill="#009af9" fill-rule="evenodd" fill-opacity="1" stroke="#000000" stroke-opacity="1" stroke-width="3.2"/>
<circle clip-path="url(#clip182)" cx="930.46" cy="941.845" r="14.4" fill="#009af9" fill-rule="evenodd" fill-opacity="1" stroke="#000000" stroke-opacity="1" stroke-width="3.2"/>
<circle clip-path="url(#clip182)" cx="1037.24" cy="1364.72" r="14.4" fill="#009af9" fill-rule="evenodd" fill-opacity="1" stroke="#000000" stroke-opacity="1" stroke-width="3.2"/>
<circle clip-path="url(#clip182)" cx="983.85" cy="958.424" r="14.4" fill="#009af9" fill-rule="evenodd" fill-opacity="1" stroke="#000000" stroke-opacity="1" stroke-width="3.2"/>
<circle clip-path="url(#clip182)" cx="877.071" cy="1190.75" r="14.4" fill="#009af9" fill-rule="evenodd" fill-opacity="1" stroke="#000000" stroke-opacity="1" stroke-width="3.2"/>
<circle clip-path="url(#clip182)" cx="903.765" cy="1019.15" r="14.4" fill="#009af9" fill-rule="evenodd" fill-opacity="1" stroke="#000000" stroke-opacity="1" stroke-width="3.2"/>
<circle clip-path="url(#clip182)" cx="850.376" cy="992.832" r="14.4" fill="#009af9" fill-rule="evenodd" fill-opacity="1" stroke="#000000" stroke-opacity="1" stroke-width="3.2"/>
<circle clip-path="url(#clip182)" cx="796.986" cy="1121.51" r="14.4" fill="#009af9" fill-rule="evenodd" fill-opacity="1" stroke="#000000" stroke-opacity="1" stroke-width="3.2"/>
<circle clip-path="url(#clip182)" cx="796.986" cy="982.524" r="14.4" fill="#009af9" fill-rule="evenodd" fill-opacity="1" stroke="#000000" stroke-opacity="1" stroke-width="3.2"/>
<circle clip-path="url(#clip182)" cx="743.597" cy="1054.16" r="14.4" fill="#009af9" fill-rule="evenodd" fill-opacity="1" stroke="#000000" stroke-opacity="1" stroke-width="3.2"/>
<circle clip-path="url(#clip182)" cx="690.207" cy="1165.57" r="14.4" fill="#009af9" fill-rule="evenodd" fill-opacity="1" stroke="#000000" stroke-opacity="1" stroke-width="3.2"/>
<circle clip-path="url(#clip182)" cx="690.207" cy="554.753" r="14.4" fill="#009af9" fill-rule="evenodd" fill-opacity="1" stroke="#000000" stroke-opacity="1" stroke-width="3.2"/>
<circle clip-path="url(#clip182)" cx="663.513" cy="1342.51" r="14.4" fill="#009af9" fill-rule="evenodd" fill-opacity="1" stroke="#000000" stroke-opacity="1" stroke-width="3.2"/>
<circle clip-path="url(#clip182)" cx="610.123" cy="1033.67" r="14.4" fill="#009af9" fill-rule="evenodd" fill-opacity="1" stroke="#000000" stroke-opacity="1" stroke-width="3.2"/>
<circle clip-path="url(#clip182)" cx="583.428" cy="969.177" r="14.4" fill="#009af9" fill-rule="evenodd" fill-opacity="1" stroke="#000000" stroke-opacity="1" stroke-width="3.2"/>
<circle clip-path="url(#clip182)" cx="556.734" cy="1116.44" r="14.4" fill="#009af9" fill-rule="evenodd" fill-opacity="1" stroke="#000000" stroke-opacity="1" stroke-width="3.2"/>
<circle clip-path="url(#clip182)" cx="530.039" cy="1208.92" r="14.4" fill="#009af9" fill-rule="evenodd" fill-opacity="1" stroke="#000000" stroke-opacity="1" stroke-width="3.2"/>
<circle clip-path="url(#clip182)" cx="530.039" cy="962.383" r="14.4" fill="#009af9" fill-rule="evenodd" fill-opacity="1" stroke="#000000" stroke-opacity="1" stroke-width="3.2"/>
<circle clip-path="url(#clip182)" cx="583.428" cy="996.564" r="14.4" fill="#009af9" fill-rule="evenodd" fill-opacity="1" stroke="#000000" stroke-opacity="1" stroke-width="3.2"/>
<circle clip-path="url(#clip182)" cx="610.123" cy="1079.8" r="14.4" fill="#009af9" fill-rule="evenodd" fill-opacity="1" stroke="#000000" stroke-opacity="1" stroke-width="3.2"/>
<circle clip-path="url(#clip182)" cx="690.207" cy="880.046" r="14.4" fill="#009af9" fill-rule="evenodd" fill-opacity="1" stroke="#000000" stroke-opacity="1" stroke-width="3.2"/>
<circle clip-path="url(#clip182)" cx="716.902" cy="996.734" r="14.4" fill="#009af9" fill-rule="evenodd" fill-opacity="1" stroke="#000000" stroke-opacity="1" stroke-width="3.2"/>
<circle clip-path="url(#clip182)" cx="850.376" cy="751.004" r="14.4" fill="#009af9" fill-rule="evenodd" fill-opacity="1" stroke="#000000" stroke-opacity="1" stroke-width="3.2"/>
<circle clip-path="url(#clip182)" cx="983.85" cy="1075.39" r="14.4" fill="#009af9" fill-rule="evenodd" fill-opacity="1" stroke="#000000" stroke-opacity="1" stroke-width="3.2"/>
<circle clip-path="url(#clip182)" cx="1677.91" cy="1110.23" r="14.4" fill="#009af9" fill-rule="evenodd" fill-opacity="1" stroke="#000000" stroke-opacity="1" stroke-width="3.2"/>
<circle clip-path="url(#clip182)" cx="1891.47" cy="961.664" r="14.4" fill="#009af9" fill-rule="evenodd" fill-opacity="1" stroke="#000000" stroke-opacity="1" stroke-width="3.2"/>
<circle clip-path="url(#clip182)" cx="1971.55" cy="1115.62" r="14.4" fill="#009af9" fill-rule="evenodd" fill-opacity="1" stroke="#000000" stroke-opacity="1" stroke-width="3.2"/>
<circle clip-path="url(#clip182)" cx="1998.25" cy="1065.27" r="14.4" fill="#009af9" fill-rule="evenodd" fill-opacity="1" stroke="#000000" stroke-opacity="1" stroke-width="3.2"/>
<circle clip-path="url(#clip182)" cx="1998.25" cy="1247.63" r="14.4" fill="#009af9" fill-rule="evenodd" fill-opacity="1" stroke="#000000" stroke-opacity="1" stroke-width="3.2"/>
<circle clip-path="url(#clip182)" cx="1864.78" cy="1267.28" r="14.4" fill="#009af9" fill-rule="evenodd" fill-opacity="1" stroke="#000000" stroke-opacity="1" stroke-width="3.2"/>
<circle clip-path="url(#clip182)" cx="1891.47" cy="1116.48" r="14.4" fill="#009af9" fill-rule="evenodd" fill-opacity="1" stroke="#000000" stroke-opacity="1" stroke-width="3.2"/>
<circle clip-path="url(#clip182)" cx="1838.08" cy="981.077" r="14.4" fill="#009af9" fill-rule="evenodd" fill-opacity="1" stroke="#000000" stroke-opacity="1" stroke-width="3.2"/>
<circle clip-path="url(#clip182)" cx="1758" cy="938.579" r="14.4" fill="#009af9" fill-rule="evenodd" fill-opacity="1" stroke="#000000" stroke-opacity="1" stroke-width="3.2"/>
<circle clip-path="url(#clip182)" cx="1784.69" cy="1038.6" r="14.4" fill="#009af9" fill-rule="evenodd" fill-opacity="1" stroke="#000000" stroke-opacity="1" stroke-width="3.2"/>
<circle clip-path="url(#clip182)" cx="1758" cy="1036.58" r="14.4" fill="#009af9" fill-rule="evenodd" fill-opacity="1" stroke="#000000" stroke-opacity="1" stroke-width="3.2"/>
<circle clip-path="url(#clip182)" cx="1624.52" cy="1174.74" r="14.4" fill="#009af9" fill-rule="evenodd" fill-opacity="1" stroke="#000000" stroke-opacity="1" stroke-width="3.2"/>
<circle clip-path="url(#clip182)" cx="1544.44" cy="1062.96" r="14.4" fill="#009af9" fill-rule="evenodd" fill-opacity="1" stroke="#000000" stroke-opacity="1" stroke-width="3.2"/>
<circle clip-path="url(#clip182)" cx="1544.44" cy="1281.4" r="14.4" fill="#009af9" fill-rule="evenodd" fill-opacity="1" stroke="#000000" stroke-opacity="1" stroke-width="3.2"/>
<circle clip-path="url(#clip182)" cx="1437.66" cy="959.02" r="14.4" fill="#009af9" fill-rule="evenodd" fill-opacity="1" stroke="#000000" stroke-opacity="1" stroke-width="3.2"/>
<circle clip-path="url(#clip182)" cx="1464.35" cy="1224.58" r="14.4" fill="#009af9" fill-rule="evenodd" fill-opacity="1" stroke="#000000" stroke-opacity="1" stroke-width="3.2"/>
<circle clip-path="url(#clip182)" cx="1357.58" cy="1126.18" r="14.4" fill="#009af9" fill-rule="evenodd" fill-opacity="1" stroke="#000000" stroke-opacity="1" stroke-width="3.2"/>
<circle clip-path="url(#clip182)" cx="1357.58" cy="1229.64" r="14.4" fill="#009af9" fill-rule="evenodd" fill-opacity="1" stroke="#000000" stroke-opacity="1" stroke-width="3.2"/>
<circle clip-path="url(#clip182)" cx="1277.49" cy="1122.48" r="14.4" fill="#009af9" fill-rule="evenodd" fill-opacity="1" stroke="#000000" stroke-opacity="1" stroke-width="3.2"/>
<circle clip-path="url(#clip182)" cx="1144.02" cy="1114.43" r="14.4" fill="#009af9" fill-rule="evenodd" fill-opacity="1" stroke="#000000" stroke-opacity="1" stroke-width="3.2"/>
<circle clip-path="url(#clip182)" cx="1144.02" cy="1099.94" r="14.4" fill="#009af9" fill-rule="evenodd" fill-opacity="1" stroke="#000000" stroke-opacity="1" stroke-width="3.2"/>
<circle clip-path="url(#clip182)" cx="983.85" cy="1112.68" r="14.4" fill="#009af9" fill-rule="evenodd" fill-opacity="1" stroke="#000000" stroke-opacity="1" stroke-width="3.2"/>
<circle clip-path="url(#clip182)" cx="930.46" cy="1220.71" r="14.4" fill="#009af9" fill-rule="evenodd" fill-opacity="1" stroke="#000000" stroke-opacity="1" stroke-width="3.2"/>
<circle clip-path="url(#clip182)" cx="850.376" cy="1386.4" r="14.4" fill="#009af9" fill-rule="evenodd" fill-opacity="1" stroke="#000000" stroke-opacity="1" stroke-width="3.2"/>
<circle clip-path="url(#clip182)" cx="796.986" cy="1279.56" r="14.4" fill="#009af9" fill-rule="evenodd" fill-opacity="1" stroke="#000000" stroke-opacity="1" stroke-width="3.2"/>
<circle clip-path="url(#clip182)" cx="770.292" cy="1058.92" r="14.4" fill="#009af9" fill-rule="evenodd" fill-opacity="1" stroke="#000000" stroke-opacity="1" stroke-width="3.2"/>
<circle clip-path="url(#clip182)" cx="690.207" cy="1266.23" r="14.4" fill="#009af9" fill-rule="evenodd" fill-opacity="1" stroke="#000000" stroke-opacity="1" stroke-width="3.2"/>
<circle clip-path="url(#clip182)" cx="690.207" cy="1218.83" r="14.4" fill="#009af9" fill-rule="evenodd" fill-opacity="1" stroke="#000000" stroke-opacity="1" stroke-width="3.2"/>
<circle clip-path="url(#clip182)" cx="690.207" cy="1212.58" r="14.4" fill="#009af9" fill-rule="evenodd" fill-opacity="1" stroke="#000000" stroke-opacity="1" stroke-width="3.2"/>
<circle clip-path="url(#clip182)" cx="663.513" cy="1009.32" r="14.4" fill="#009af9" fill-rule="evenodd" fill-opacity="1" stroke="#000000" stroke-opacity="1" stroke-width="3.2"/>
<circle clip-path="url(#clip182)" cx="690.207" cy="1142.59" r="14.4" fill="#009af9" fill-rule="evenodd" fill-opacity="1" stroke="#000000" stroke-opacity="1" stroke-width="3.2"/>
<circle clip-path="url(#clip182)" cx="610.123" cy="1087.18" r="14.4" fill="#009af9" fill-rule="evenodd" fill-opacity="1" stroke="#000000" stroke-opacity="1" stroke-width="3.2"/>
<circle clip-path="url(#clip182)" cx="530.039" cy="1110.68" r="14.4" fill="#009af9" fill-rule="evenodd" fill-opacity="1" stroke="#000000" stroke-opacity="1" stroke-width="3.2"/>
<circle clip-path="url(#clip182)" cx="503.344" cy="1218.73" r="14.4" fill="#009af9" fill-rule="evenodd" fill-opacity="1" stroke="#000000" stroke-opacity="1" stroke-width="3.2"/>
<circle clip-path="url(#clip182)" cx="503.344" cy="1001.17" r="14.4" fill="#009af9" fill-rule="evenodd" fill-opacity="1" stroke="#000000" stroke-opacity="1" stroke-width="3.2"/>
<circle clip-path="url(#clip182)" cx="449.955" cy="1100.41" r="14.4" fill="#009af9" fill-rule="evenodd" fill-opacity="1" stroke="#000000" stroke-opacity="1" stroke-width="3.2"/>
<circle clip-path="url(#clip182)" cx="423.26" cy="1058.2" r="14.4" fill="#009af9" fill-rule="evenodd" fill-opacity="1" stroke="#000000" stroke-opacity="1" stroke-width="3.2"/>
<circle clip-path="url(#clip182)" cx="423.26" cy="1094.71" r="14.4" fill="#009af9" fill-rule="evenodd" fill-opacity="1" stroke="#000000" stroke-opacity="1" stroke-width="3.2"/>
<circle clip-path="url(#clip182)" cx="343.176" cy="1124.89" r="14.4" fill="#009af9" fill-rule="evenodd" fill-opacity="1" stroke="#000000" stroke-opacity="1" stroke-width="3.2"/>
<circle clip-path="url(#clip182)" cx="396.565" cy="1186.53" r="14.4" fill="#009af9" fill-rule="evenodd" fill-opacity="1" stroke="#000000" stroke-opacity="1" stroke-width="3.2"/>
<circle clip-path="url(#clip182)" cx="369.87" cy="1097.28" r="14.4" fill="#009af9" fill-rule="evenodd" fill-opacity="1" stroke="#000000" stroke-opacity="1" stroke-width="3.2"/>
<circle clip-path="url(#clip182)" cx="316.481" cy="1148.08" r="14.4" fill="#009af9" fill-rule="evenodd" fill-opacity="1" stroke="#000000" stroke-opacity="1" stroke-width="3.2"/>
<circle clip-path="url(#clip182)" cx="289.786" cy="1107.32" r="14.4" fill="#009af9" fill-rule="evenodd" fill-opacity="1" stroke="#000000" stroke-opacity="1" stroke-width="3.2"/>
<circle clip-path="url(#clip182)" cx="316.481" cy="1030.24" r="14.4" fill="#009af9" fill-rule="evenodd" fill-opacity="1" stroke="#000000" stroke-opacity="1" stroke-width="3.2"/>
<circle clip-path="url(#clip182)" cx="530.039" cy="1299.19" r="14.4" fill="#009af9" fill-rule="evenodd" fill-opacity="1" stroke="#000000" stroke-opacity="1" stroke-width="3.2"/>
<circle clip-path="url(#clip182)" cx="2291.89" cy="1366.29" r="14.4" fill="#009af9" fill-rule="evenodd" fill-opacity="1" stroke="#000000" stroke-opacity="1" stroke-width="3.2"/>
<circle clip-path="url(#clip182)" cx="1464.35" cy="934.196" r="14.4" fill="#009af9" fill-rule="evenodd" fill-opacity="1" stroke="#000000" stroke-opacity="1" stroke-width="3.2"/>
<circle clip-path="url(#clip182)" cx="1144.02" cy="1043.26" r="14.4" fill="#009af9" fill-rule="evenodd" fill-opacity="1" stroke="#000000" stroke-opacity="1" stroke-width="3.2"/>
<circle clip-path="url(#clip182)" cx="983.85" cy="956.732" r="14.4" fill="#009af9" fill-rule="evenodd" fill-opacity="1" stroke="#000000" stroke-opacity="1" stroke-width="3.2"/>
<circle clip-path="url(#clip182)" cx="930.46" cy="685.63" r="14.4" fill="#009af9" fill-rule="evenodd" fill-opacity="1" stroke="#000000" stroke-opacity="1" stroke-width="3.2"/>
<circle clip-path="url(#clip182)" cx="636.818" cy="908.346" r="14.4" fill="#009af9" fill-rule="evenodd" fill-opacity="1" stroke="#000000" stroke-opacity="1" stroke-width="3.2"/>
<circle clip-path="url(#clip182)" cx="396.565" cy="588.557" r="14.4" fill="#009af9" fill-rule="evenodd" fill-opacity="1" stroke="#000000" stroke-opacity="1" stroke-width="3.2"/>
<circle clip-path="url(#clip182)" cx="316.481" cy="629.902" r="14.4" fill="#009af9" fill-rule="evenodd" fill-opacity="1" stroke="#000000" stroke-opacity="1" stroke-width="3.2"/>
<circle clip-path="url(#clip182)" cx="316.481" cy="583.078" r="14.4" fill="#009af9" fill-rule="evenodd" fill-opacity="1" stroke="#000000" stroke-opacity="1" stroke-width="3.2"/>
<circle clip-path="url(#clip182)" cx="289.786" cy="1084.87" r="14.4" fill="#009af9" fill-rule="evenodd" fill-opacity="1" stroke="#000000" stroke-opacity="1" stroke-width="3.2"/>
<circle clip-path="url(#clip182)" cx="289.786" cy="1028.68" r="14.4" fill="#009af9" fill-rule="evenodd" fill-opacity="1" stroke="#000000" stroke-opacity="1" stroke-width="3.2"/>
<circle clip-path="url(#clip182)" cx="289.786" cy="997.999" r="14.4" fill="#009af9" fill-rule="evenodd" fill-opacity="1" stroke="#000000" stroke-opacity="1" stroke-width="3.2"/>
<circle clip-path="url(#clip182)" cx="316.481" cy="1069.19" r="14.4" fill="#009af9" fill-rule="evenodd" fill-opacity="1" stroke="#000000" stroke-opacity="1" stroke-width="3.2"/>
<circle clip-path="url(#clip182)" cx="369.87" cy="930.534" r="14.4" fill="#009af9" fill-rule="evenodd" fill-opacity="1" stroke="#000000" stroke-opacity="1" stroke-width="3.2"/>
</svg>
