<?xml version="1.0" encoding="utf-8"?>
<svg xmlns="http://www.w3.org/2000/svg" xmlns:xlink="http://www.w3.org/1999/xlink" width="600" height="400" viewBox="0 0 2400 1600">
<defs>
  <clipPath id="clip030">
    <rect x="0" y="0" width="2400" height="1600"/>
  </clipPath>
</defs>
<path clip-path="url(#clip030)" d="M0 1600 L2400 1600 L2400 0 L0 0  Z" fill="#ffffff" fill-rule="evenodd" fill-opacity="1"/>
<defs>
  <clipPath id="clip031">
    <rect x="480" y="0" width="1681" height="1600"/>
  </clipPath>
</defs>
<path clip-path="url(#clip030)" d="M186.274 1486.45 L2352.76 1486.45 L2352.76 123.472 L186.274 123.472  Z" fill="#ffffff" fill-rule="evenodd" fill-opacity="1"/>
<defs>
  <clipPath id="clip032">
    <rect x="186" y="123" width="2167" height="1364"/>
  </clipPath>
</defs>
<polyline clip-path="url(#clip032)" style="stroke:#000000; stroke-linecap:round; stroke-linejoin:round; stroke-width:2; stroke-opacity:0.1; fill:none" points="242.467,1486.45 242.467,123.472 "/>
<polyline clip-path="url(#clip032)" style="stroke:#000000; stroke-linecap:round; stroke-linejoin:round; stroke-width:2; stroke-opacity:0.1; fill:none" points="754.71,1486.45 754.71,123.472 "/>
<polyline clip-path="url(#clip032)" style="stroke:#000000; stroke-linecap:round; stroke-linejoin:round; stroke-width:2; stroke-opacity:0.1; fill:none" points="1266.95,1486.45 1266.95,123.472 "/>
<polyline clip-path="url(#clip032)" style="stroke:#000000; stroke-linecap:round; stroke-linejoin:round; stroke-width:2; stroke-opacity:0.1; fill:none" points="1779.2,1486.45 1779.2,123.472 "/>
<polyline clip-path="url(#clip032)" style="stroke:#000000; stroke-linecap:round; stroke-linejoin:round; stroke-width:2; stroke-opacity:0.1; fill:none" points="2291.44,1486.45 2291.44,123.472 "/>
<polyline clip-path="url(#clip030)" style="stroke:#000000; stroke-linecap:round; stroke-linejoin:round; stroke-width:4; stroke-opacity:1; fill:none" points="186.274,1486.45 2352.76,1486.45 "/>
<polyline clip-path="url(#clip030)" style="stroke:#000000; stroke-linecap:round; stroke-linejoin:round; stroke-width:4; stroke-opacity:1; fill:none" points="242.467,1486.45 242.467,1467.55 "/>
<polyline clip-path="url(#clip030)" style="stroke:#000000; stroke-linecap:round; stroke-linejoin:round; stroke-width:4; stroke-opacity:1; fill:none" points="754.71,1486.45 754.71,1467.55 "/>
<polyline clip-path="url(#clip030)" style="stroke:#000000; stroke-linecap:round; stroke-linejoin:round; stroke-width:4; stroke-opacity:1; fill:none" points="1266.95,1486.45 1266.95,1467.55 "/>
<polyline clip-path="url(#clip030)" style="stroke:#000000; stroke-linecap:round; stroke-linejoin:round; stroke-width:4; stroke-opacity:1; fill:none" points="1779.2,1486.45 1779.2,1467.55 "/>
<polyline clip-path="url(#clip030)" style="stroke:#000000; stroke-linecap:round; stroke-linejoin:round; stroke-width:4; stroke-opacity:1; fill:none" points="2291.44,1486.45 2291.44,1467.55 "/>
<path clip-path="url(#clip030)" d="M242.467 1517.37 Q238.856 1517.37 237.027 1520.93 Q235.222 1524.47 235.222 1531.6 Q235.222 1538.71 237.027 1542.27 Q238.856 1545.82 242.467 1545.82 Q246.101 1545.82 247.907 1542.27 Q249.736 1538.71 249.736 1531.6 Q249.736 1524.47 247.907 1520.93 Q246.101 1517.37 242.467 1517.37 M242.467 1513.66 Q248.277 1513.66 251.333 1518.27 Q254.411 1522.85 254.411 1531.6 Q254.411 1540.33 251.333 1544.94 Q248.277 1549.52 242.467 1549.52 Q236.657 1549.52 233.578 1544.94 Q230.523 1540.33 230.523 1531.6 Q230.523 1522.85 233.578 1518.27 Q236.657 1513.66 242.467 1513.66 Z" fill="#000000" fill-rule="nonzero" fill-opacity="1" /><path clip-path="url(#clip030)" d="M714.317 1544.91 L721.956 1544.91 L721.956 1518.55 L713.646 1520.21 L713.646 1515.95 L721.91 1514.29 L726.586 1514.29 L726.586 1544.91 L734.224 1544.91 L734.224 1548.85 L714.317 1548.85 L714.317 1544.91 Z" fill="#000000" fill-rule="nonzero" fill-opacity="1" /><path clip-path="url(#clip030)" d="M753.669 1517.37 Q750.058 1517.37 748.229 1520.93 Q746.423 1524.47 746.423 1531.6 Q746.423 1538.71 748.229 1542.27 Q750.058 1545.82 753.669 1545.82 Q757.303 1545.82 759.109 1542.27 Q760.937 1538.71 760.937 1531.6 Q760.937 1524.47 759.109 1520.93 Q757.303 1517.37 753.669 1517.37 M753.669 1513.66 Q759.479 1513.66 762.534 1518.27 Q765.613 1522.85 765.613 1531.6 Q765.613 1540.33 762.534 1544.94 Q759.479 1549.52 753.669 1549.52 Q747.859 1549.52 744.78 1544.94 Q741.724 1540.33 741.724 1531.6 Q741.724 1522.85 744.78 1518.27 Q747.859 1513.66 753.669 1513.66 Z" fill="#000000" fill-rule="nonzero" fill-opacity="1" /><path clip-path="url(#clip030)" d="M783.831 1517.37 Q780.22 1517.37 778.391 1520.93 Q776.585 1524.47 776.585 1531.6 Q776.585 1538.71 778.391 1542.27 Q780.22 1545.82 783.831 1545.82 Q787.465 1545.82 789.27 1542.27 Q791.099 1538.71 791.099 1531.6 Q791.099 1524.47 789.27 1520.93 Q787.465 1517.37 783.831 1517.37 M783.831 1513.66 Q789.641 1513.66 792.696 1518.27 Q795.775 1522.85 795.775 1531.6 Q795.775 1540.33 792.696 1544.94 Q789.641 1549.52 783.831 1549.52 Q778.02 1549.52 774.942 1544.94 Q771.886 1540.33 771.886 1531.6 Q771.886 1522.85 774.942 1518.27 Q778.02 1513.66 783.831 1513.66 Z" fill="#000000" fill-rule="nonzero" fill-opacity="1" /><path clip-path="url(#clip030)" d="M1230.65 1544.91 L1246.97 1544.91 L1246.97 1548.85 L1225.02 1548.85 L1225.02 1544.91 Q1227.68 1542.16 1232.27 1537.53 Q1236.87 1532.88 1238.05 1531.53 Q1240.3 1529.01 1241.18 1527.27 Q1242.08 1525.51 1242.08 1523.82 Q1242.08 1521.07 1240.14 1519.33 Q1238.22 1517.6 1235.11 1517.6 Q1232.91 1517.6 1230.46 1518.36 Q1228.03 1519.13 1225.25 1520.68 L1225.25 1515.95 Q1228.08 1514.82 1230.53 1514.24 Q1232.98 1513.66 1235.02 1513.66 Q1240.39 1513.66 1243.59 1516.35 Q1246.78 1519.03 1246.78 1523.52 Q1246.78 1525.65 1245.97 1527.57 Q1245.18 1529.47 1243.08 1532.07 Q1242.5 1532.74 1239.4 1535.95 Q1236.29 1539.15 1230.65 1544.91 Z" fill="#000000" fill-rule="nonzero" fill-opacity="1" /><path clip-path="url(#clip030)" d="M1266.78 1517.37 Q1263.17 1517.37 1261.34 1520.93 Q1259.53 1524.47 1259.53 1531.6 Q1259.53 1538.71 1261.34 1542.27 Q1263.17 1545.82 1266.78 1545.82 Q1270.41 1545.82 1272.22 1542.27 Q1274.05 1538.71 1274.05 1531.6 Q1274.05 1524.47 1272.22 1520.93 Q1270.41 1517.37 1266.78 1517.37 M1266.78 1513.66 Q1272.59 1513.66 1275.65 1518.27 Q1278.72 1522.85 1278.72 1531.6 Q1278.72 1540.33 1275.65 1544.94 Q1272.59 1549.52 1266.78 1549.52 Q1260.97 1549.52 1257.89 1544.94 Q1254.84 1540.33 1254.84 1531.6 Q1254.84 1522.85 1257.89 1518.27 Q1260.97 1513.66 1266.78 1513.66 Z" fill="#000000" fill-rule="nonzero" fill-opacity="1" /><path clip-path="url(#clip030)" d="M1296.94 1517.37 Q1293.33 1517.37 1291.5 1520.93 Q1289.7 1524.47 1289.7 1531.6 Q1289.7 1538.71 1291.5 1542.27 Q1293.33 1545.82 1296.94 1545.82 Q1300.58 1545.82 1302.38 1542.27 Q1304.21 1538.71 1304.21 1531.6 Q1304.21 1524.47 1302.38 1520.93 Q1300.58 1517.37 1296.94 1517.37 M1296.94 1513.66 Q1302.75 1513.66 1305.81 1518.27 Q1308.89 1522.85 1308.89 1531.6 Q1308.89 1540.33 1305.81 1544.94 Q1302.75 1549.52 1296.94 1549.52 Q1291.13 1549.52 1288.05 1544.94 Q1285 1540.33 1285 1531.6 Q1285 1522.85 1288.05 1518.27 Q1291.13 1513.66 1296.94 1513.66 Z" fill="#000000" fill-rule="nonzero" fill-opacity="1" /><path clip-path="url(#clip030)" d="M1752.96 1530.21 Q1756.32 1530.93 1758.19 1533.2 Q1760.09 1535.47 1760.09 1538.8 Q1760.09 1543.92 1756.57 1546.72 Q1753.05 1549.52 1746.57 1549.52 Q1744.39 1549.52 1742.08 1549.08 Q1739.79 1548.66 1737.33 1547.81 L1737.33 1543.29 Q1739.28 1544.43 1741.59 1545.01 Q1743.91 1545.58 1746.43 1545.58 Q1750.83 1545.58 1753.12 1543.85 Q1755.44 1542.11 1755.44 1538.8 Q1755.44 1535.75 1753.28 1534.03 Q1751.15 1532.3 1747.33 1532.3 L1743.31 1532.3 L1743.31 1528.45 L1747.52 1528.45 Q1750.97 1528.45 1752.8 1527.09 Q1754.63 1525.7 1754.63 1523.11 Q1754.63 1520.45 1752.73 1519.03 Q1750.85 1517.6 1747.33 1517.6 Q1745.41 1517.6 1743.21 1518.01 Q1741.01 1518.43 1738.38 1519.31 L1738.38 1515.14 Q1741.04 1514.4 1743.35 1514.03 Q1745.69 1513.66 1747.75 1513.66 Q1753.07 1513.66 1756.18 1516.09 Q1759.28 1518.5 1759.28 1522.62 Q1759.28 1525.49 1757.63 1527.48 Q1755.99 1529.45 1752.96 1530.21 Z" fill="#000000" fill-rule="nonzero" fill-opacity="1" /><path clip-path="url(#clip030)" d="M1778.95 1517.37 Q1775.34 1517.37 1773.51 1520.93 Q1771.71 1524.47 1771.71 1531.6 Q1771.71 1538.71 1773.51 1542.27 Q1775.34 1545.82 1778.95 1545.82 Q1782.59 1545.82 1784.39 1542.27 Q1786.22 1538.71 1786.22 1531.6 Q1786.22 1524.47 1784.39 1520.93 Q1782.59 1517.37 1778.95 1517.37 M1778.95 1513.66 Q1784.76 1513.66 1787.82 1518.27 Q1790.9 1522.85 1790.9 1531.6 Q1790.9 1540.33 1787.82 1544.94 Q1784.76 1549.52 1778.95 1549.52 Q1773.14 1549.52 1770.07 1544.94 Q1767.01 1540.33 1767.01 1531.6 Q1767.01 1522.85 1770.07 1518.27 Q1773.14 1513.66 1778.95 1513.66 Z" fill="#000000" fill-rule="nonzero" fill-opacity="1" /><path clip-path="url(#clip030)" d="M1809.12 1517.37 Q1805.5 1517.37 1803.68 1520.93 Q1801.87 1524.47 1801.87 1531.6 Q1801.87 1538.71 1803.68 1542.27 Q1805.5 1545.82 1809.12 1545.82 Q1812.75 1545.82 1814.56 1542.27 Q1816.38 1538.71 1816.38 1531.6 Q1816.38 1524.47 1814.56 1520.93 Q1812.75 1517.37 1809.12 1517.37 M1809.12 1513.66 Q1814.93 1513.66 1817.98 1518.27 Q1821.06 1522.85 1821.06 1531.6 Q1821.06 1540.33 1817.98 1544.94 Q1814.93 1549.52 1809.12 1549.52 Q1803.31 1549.52 1800.23 1544.94 Q1797.17 1540.33 1797.17 1531.6 Q1797.17 1522.85 1800.23 1518.27 Q1803.31 1513.66 1809.12 1513.66 Z" fill="#000000" fill-rule="nonzero" fill-opacity="1" /><path clip-path="url(#clip030)" d="M2264.53 1518.36 L2252.73 1536.81 L2264.53 1536.81 L2264.53 1518.36 M2263.3 1514.29 L2269.18 1514.29 L2269.18 1536.81 L2274.11 1536.81 L2274.11 1540.7 L2269.18 1540.7 L2269.18 1548.85 L2264.53 1548.85 L2264.53 1540.7 L2248.93 1540.7 L2248.93 1536.19 L2263.3 1514.29 Z" fill="#000000" fill-rule="nonzero" fill-opacity="1" /><path clip-path="url(#clip030)" d="M2291.85 1517.37 Q2288.23 1517.37 2286.41 1520.93 Q2284.6 1524.47 2284.6 1531.6 Q2284.6 1538.71 2286.41 1542.27 Q2288.23 1545.82 2291.85 1545.82 Q2295.48 1545.82 2297.29 1542.27 Q2299.11 1538.71 2299.11 1531.6 Q2299.11 1524.47 2297.29 1520.93 Q2295.48 1517.37 2291.85 1517.37 M2291.85 1513.66 Q2297.66 1513.66 2300.71 1518.27 Q2303.79 1522.85 2303.79 1531.6 Q2303.79 1540.33 2300.71 1544.94 Q2297.66 1549.52 2291.85 1549.52 Q2286.04 1549.52 2282.96 1544.94 Q2279.9 1540.33 2279.9 1531.6 Q2279.9 1522.85 2282.96 1518.27 Q2286.04 1513.66 2291.85 1513.66 Z" fill="#000000" fill-rule="nonzero" fill-opacity="1" /><path clip-path="url(#clip030)" d="M2322.01 1517.37 Q2318.4 1517.37 2316.57 1520.93 Q2314.76 1524.47 2314.76 1531.6 Q2314.76 1538.71 2316.57 1542.27 Q2318.4 1545.82 2322.01 1545.82 Q2325.64 1545.82 2327.45 1542.27 Q2329.28 1538.71 2329.28 1531.6 Q2329.28 1524.47 2327.45 1520.93 Q2325.64 1517.37 2322.01 1517.37 M2322.01 1513.66 Q2327.82 1513.66 2330.87 1518.27 Q2333.95 1522.85 2333.95 1531.6 Q2333.95 1540.33 2330.87 1544.94 Q2327.82 1549.52 2322.01 1549.52 Q2316.2 1549.52 2313.12 1544.94 Q2310.06 1540.33 2310.06 1531.6 Q2310.06 1522.85 2313.12 1518.27 Q2316.2 1513.66 2322.01 1513.66 Z" fill="#000000" fill-rule="nonzero" fill-opacity="1" /><polyline clip-path="url(#clip032)" style="stroke:#000000; stroke-linecap:round; stroke-linejoin:round; stroke-width:2; stroke-opacity:0.1; fill:none" points="186.274,1447.87 2352.76,1447.87 "/>
<polyline clip-path="url(#clip032)" style="stroke:#000000; stroke-linecap:round; stroke-linejoin:round; stroke-width:2; stroke-opacity:0.1; fill:none" points="186.274,1126.42 2352.76,1126.42 "/>
<polyline clip-path="url(#clip032)" style="stroke:#000000; stroke-linecap:round; stroke-linejoin:round; stroke-width:2; stroke-opacity:0.1; fill:none" points="186.274,804.96 2352.76,804.96 "/>
<polyline clip-path="url(#clip032)" style="stroke:#000000; stroke-linecap:round; stroke-linejoin:round; stroke-width:2; stroke-opacity:0.1; fill:none" points="186.274,483.503 2352.76,483.503 "/>
<polyline clip-path="url(#clip032)" style="stroke:#000000; stroke-linecap:round; stroke-linejoin:round; stroke-width:2; stroke-opacity:0.1; fill:none" points="186.274,162.047 2352.76,162.047 "/>
<polyline clip-path="url(#clip030)" style="stroke:#000000; stroke-linecap:round; stroke-linejoin:round; stroke-width:4; stroke-opacity:1; fill:none" points="186.274,1486.45 186.274,123.472 "/>
<polyline clip-path="url(#clip030)" style="stroke:#000000; stroke-linecap:round; stroke-linejoin:round; stroke-width:4; stroke-opacity:1; fill:none" points="186.274,1447.87 205.172,1447.87 "/>
<polyline clip-path="url(#clip030)" style="stroke:#000000; stroke-linecap:round; stroke-linejoin:round; stroke-width:4; stroke-opacity:1; fill:none" points="186.274,1126.42 205.172,1126.42 "/>
<polyline clip-path="url(#clip030)" style="stroke:#000000; stroke-linecap:round; stroke-linejoin:round; stroke-width:4; stroke-opacity:1; fill:none" points="186.274,804.96 205.172,804.96 "/>
<polyline clip-path="url(#clip030)" style="stroke:#000000; stroke-linecap:round; stroke-linejoin:round; stroke-width:4; stroke-opacity:1; fill:none" points="186.274,483.503 205.172,483.503 "/>
<polyline clip-path="url(#clip030)" style="stroke:#000000; stroke-linecap:round; stroke-linejoin:round; stroke-width:4; stroke-opacity:1; fill:none" points="186.274,162.047 205.172,162.047 "/>
<path clip-path="url(#clip030)" d="M62.9365 1433.67 Q59.3254 1433.67 57.4967 1437.24 Q55.6912 1440.78 55.6912 1447.91 Q55.6912 1455.01 57.4967 1458.58 Q59.3254 1462.12 62.9365 1462.12 Q66.5707 1462.12 68.3763 1458.58 Q70.205 1455.01 70.205 1447.91 Q70.205 1440.78 68.3763 1437.24 Q66.5707 1433.67 62.9365 1433.67 M62.9365 1429.97 Q68.7467 1429.97 71.8022 1434.57 Q74.8809 1439.16 74.8809 1447.91 Q74.8809 1456.63 71.8022 1461.24 Q68.7467 1465.82 62.9365 1465.82 Q57.1264 1465.82 54.0477 1461.24 Q50.9921 1456.63 50.9921 1447.91 Q50.9921 1439.16 54.0477 1434.57 Q57.1264 1429.97 62.9365 1429.97 Z" fill="#000000" fill-rule="nonzero" fill-opacity="1" /><path clip-path="url(#clip030)" d="M83.0984 1459.27 L87.9827 1459.27 L87.9827 1465.15 L83.0984 1465.15 L83.0984 1459.27 Z" fill="#000000" fill-rule="nonzero" fill-opacity="1" /><path clip-path="url(#clip030)" d="M108.168 1433.67 Q104.557 1433.67 102.728 1437.24 Q100.922 1440.78 100.922 1447.91 Q100.922 1455.01 102.728 1458.58 Q104.557 1462.12 108.168 1462.12 Q111.802 1462.12 113.608 1458.58 Q115.436 1455.01 115.436 1447.91 Q115.436 1440.78 113.608 1437.24 Q111.802 1433.67 108.168 1433.67 M108.168 1429.97 Q113.978 1429.97 117.033 1434.57 Q120.112 1439.16 120.112 1447.91 Q120.112 1456.63 117.033 1461.24 Q113.978 1465.82 108.168 1465.82 Q102.358 1465.82 99.2789 1461.24 Q96.2234 1456.63 96.2234 1447.91 Q96.2234 1439.16 99.2789 1434.57 Q102.358 1429.97 108.168 1429.97 Z" fill="#000000" fill-rule="nonzero" fill-opacity="1" /><path clip-path="url(#clip030)" d="M138.33 1433.67 Q134.719 1433.67 132.89 1437.24 Q131.084 1440.78 131.084 1447.91 Q131.084 1455.01 132.89 1458.58 Q134.719 1462.12 138.33 1462.12 Q141.964 1462.12 143.769 1458.58 Q145.598 1455.01 145.598 1447.91 Q145.598 1440.78 143.769 1437.24 Q141.964 1433.67 138.33 1433.67 M138.33 1429.97 Q144.14 1429.97 147.195 1434.57 Q150.274 1439.16 150.274 1447.91 Q150.274 1456.63 147.195 1461.24 Q144.14 1465.82 138.33 1465.82 Q132.519 1465.82 129.441 1461.24 Q126.385 1456.63 126.385 1447.91 Q126.385 1439.16 129.441 1434.57 Q132.519 1429.97 138.33 1429.97 Z" fill="#000000" fill-rule="nonzero" fill-opacity="1" /><path clip-path="url(#clip030)" d="M63.9319 1112.22 Q60.3208 1112.22 58.4921 1115.78 Q56.6865 1119.32 56.6865 1126.45 Q56.6865 1133.56 58.4921 1137.12 Q60.3208 1140.66 63.9319 1140.66 Q67.5661 1140.66 69.3717 1137.12 Q71.2004 1133.56 71.2004 1126.45 Q71.2004 1119.32 69.3717 1115.78 Q67.5661 1112.22 63.9319 1112.22 M63.9319 1108.51 Q69.742 1108.51 72.7976 1113.12 Q75.8763 1117.7 75.8763 1126.45 Q75.8763 1135.18 72.7976 1139.78 Q69.742 1144.37 63.9319 1144.37 Q58.1217 1144.37 55.043 1139.78 Q51.9875 1135.18 51.9875 1126.45 Q51.9875 1117.7 55.043 1113.12 Q58.1217 1108.51 63.9319 1108.51 Z" fill="#000000" fill-rule="nonzero" fill-opacity="1" /><path clip-path="url(#clip030)" d="M84.0938 1137.82 L88.978 1137.82 L88.978 1143.7 L84.0938 1143.7 L84.0938 1137.82 Z" fill="#000000" fill-rule="nonzero" fill-opacity="1" /><path clip-path="url(#clip030)" d="M103.191 1139.76 L119.51 1139.76 L119.51 1143.7 L97.566 1143.7 L97.566 1139.76 Q100.228 1137.01 104.811 1132.38 Q109.418 1127.72 110.598 1126.38 Q112.844 1123.86 113.723 1122.12 Q114.626 1120.36 114.626 1118.67 Q114.626 1115.92 112.682 1114.18 Q110.76 1112.45 107.658 1112.45 Q105.459 1112.45 103.006 1113.21 Q100.575 1113.97 97.7974 1115.53 L97.7974 1110.8 Q100.621 1109.67 103.075 1109.09 Q105.529 1108.51 107.566 1108.51 Q112.936 1108.51 116.131 1111.2 Q119.325 1113.88 119.325 1118.37 Q119.325 1120.5 118.515 1122.42 Q117.728 1124.32 115.621 1126.91 Q115.043 1127.59 111.941 1130.8 Q108.839 1134 103.191 1139.76 Z" fill="#000000" fill-rule="nonzero" fill-opacity="1" /><path clip-path="url(#clip030)" d="M129.371 1109.14 L147.728 1109.14 L147.728 1113.07 L133.654 1113.07 L133.654 1121.54 Q134.672 1121.2 135.691 1121.03 Q136.709 1120.85 137.728 1120.85 Q143.515 1120.85 146.894 1124.02 Q150.274 1127.19 150.274 1132.61 Q150.274 1138.19 146.802 1141.29 Q143.33 1144.37 137.01 1144.37 Q134.834 1144.37 132.566 1144 Q130.32 1143.63 127.913 1142.89 L127.913 1138.19 Q129.996 1139.32 132.219 1139.88 Q134.441 1140.43 136.918 1140.43 Q140.922 1140.43 143.26 1138.33 Q145.598 1136.22 145.598 1132.61 Q145.598 1129 143.26 1126.89 Q140.922 1124.78 136.918 1124.78 Q135.043 1124.78 133.168 1125.2 Q131.316 1125.62 129.371 1126.5 L129.371 1109.14 Z" fill="#000000" fill-rule="nonzero" fill-opacity="1" /><path clip-path="url(#clip030)" d="M62.9365 790.759 Q59.3254 790.759 57.4967 794.323 Q55.6912 797.865 55.6912 804.995 Q55.6912 812.101 57.4967 815.666 Q59.3254 819.208 62.9365 819.208 Q66.5707 819.208 68.3763 815.666 Q70.205 812.101 70.205 804.995 Q70.205 797.865 68.3763 794.323 Q66.5707 790.759 62.9365 790.759 M62.9365 787.055 Q68.7467 787.055 71.8022 791.661 Q74.8809 796.245 74.8809 804.995 Q74.8809 813.722 71.8022 818.328 Q68.7467 822.911 62.9365 822.911 Q57.1264 822.911 54.0477 818.328 Q50.9921 813.722 50.9921 804.995 Q50.9921 796.245 54.0477 791.661 Q57.1264 787.055 62.9365 787.055 Z" fill="#000000" fill-rule="nonzero" fill-opacity="1" /><path clip-path="url(#clip030)" d="M83.0984 816.36 L87.9827 816.36 L87.9827 822.24 L83.0984 822.24 L83.0984 816.36 Z" fill="#000000" fill-rule="nonzero" fill-opacity="1" /><path clip-path="url(#clip030)" d="M98.2141 787.68 L116.57 787.68 L116.57 791.615 L102.496 791.615 L102.496 800.087 Q103.515 799.74 104.534 799.578 Q105.552 799.393 106.571 799.393 Q112.358 799.393 115.737 802.564 Q119.117 805.735 119.117 811.152 Q119.117 816.731 115.645 819.833 Q112.172 822.911 105.853 822.911 Q103.677 822.911 101.409 822.541 Q99.1632 822.171 96.7558 821.43 L96.7558 816.731 Q98.8391 817.865 101.061 818.421 Q103.284 818.976 105.76 818.976 Q109.765 818.976 112.103 816.87 Q114.441 814.763 114.441 811.152 Q114.441 807.541 112.103 805.435 Q109.765 803.328 105.76 803.328 Q103.885 803.328 102.01 803.745 Q100.159 804.161 98.2141 805.041 L98.2141 787.68 Z" fill="#000000" fill-rule="nonzero" fill-opacity="1" /><path clip-path="url(#clip030)" d="M138.33 790.759 Q134.719 790.759 132.89 794.323 Q131.084 797.865 131.084 804.995 Q131.084 812.101 132.89 815.666 Q134.719 819.208 138.33 819.208 Q141.964 819.208 143.769 815.666 Q145.598 812.101 145.598 804.995 Q145.598 797.865 143.769 794.323 Q141.964 790.759 138.33 790.759 M138.33 787.055 Q144.14 787.055 147.195 791.661 Q150.274 796.245 150.274 804.995 Q150.274 813.722 147.195 818.328 Q144.14 822.911 138.33 822.911 Q132.519 822.911 129.441 818.328 Q126.385 813.722 126.385 804.995 Q126.385 796.245 129.441 791.661 Q132.519 787.055 138.33 787.055 Z" fill="#000000" fill-rule="nonzero" fill-opacity="1" /><path clip-path="url(#clip030)" d="M63.9319 469.302 Q60.3208 469.302 58.4921 472.867 Q56.6865 476.409 56.6865 483.538 Q56.6865 490.645 58.4921 494.209 Q60.3208 497.751 63.9319 497.751 Q67.5661 497.751 69.3717 494.209 Q71.2004 490.645 71.2004 483.538 Q71.2004 476.409 69.3717 472.867 Q67.5661 469.302 63.9319 469.302 M63.9319 465.598 Q69.742 465.598 72.7976 470.205 Q75.8763 474.788 75.8763 483.538 Q75.8763 492.265 72.7976 496.871 Q69.742 501.455 63.9319 501.455 Q58.1217 501.455 55.043 496.871 Q51.9875 492.265 51.9875 483.538 Q51.9875 474.788 55.043 470.205 Q58.1217 465.598 63.9319 465.598 Z" fill="#000000" fill-rule="nonzero" fill-opacity="1" /><path clip-path="url(#clip030)" d="M84.0938 494.904 L88.978 494.904 L88.978 500.783 L84.0938 500.783 L84.0938 494.904 Z" fill="#000000" fill-rule="nonzero" fill-opacity="1" /><path clip-path="url(#clip030)" d="M97.9826 466.223 L120.205 466.223 L120.205 468.214 L107.658 500.783 L102.774 500.783 L114.58 470.159 L97.9826 470.159 L97.9826 466.223 Z" fill="#000000" fill-rule="nonzero" fill-opacity="1" /><path clip-path="url(#clip030)" d="M129.371 466.223 L147.728 466.223 L147.728 470.159 L133.654 470.159 L133.654 478.631 Q134.672 478.284 135.691 478.122 Q136.709 477.936 137.728 477.936 Q143.515 477.936 146.894 481.108 Q150.274 484.279 150.274 489.696 Q150.274 495.274 146.802 498.376 Q143.33 501.455 137.01 501.455 Q134.834 501.455 132.566 501.084 Q130.32 500.714 127.913 499.973 L127.913 495.274 Q129.996 496.408 132.219 496.964 Q134.441 497.52 136.918 497.52 Q140.922 497.52 143.26 495.413 Q145.598 493.307 145.598 489.696 Q145.598 486.084 143.26 483.978 Q140.922 481.872 136.918 481.872 Q135.043 481.872 133.168 482.288 Q131.316 482.705 129.371 483.584 L129.371 466.223 Z" fill="#000000" fill-rule="nonzero" fill-opacity="1" /><path clip-path="url(#clip030)" d="M53.7467 175.392 L61.3856 175.392 L61.3856 149.026 L53.0754 150.693 L53.0754 146.434 L61.3393 144.767 L66.0152 144.767 L66.0152 175.392 L73.654 175.392 L73.654 179.327 L53.7467 179.327 L53.7467 175.392 Z" fill="#000000" fill-rule="nonzero" fill-opacity="1" /><path clip-path="url(#clip030)" d="M83.0984 173.447 L87.9827 173.447 L87.9827 179.327 L83.0984 179.327 L83.0984 173.447 Z" fill="#000000" fill-rule="nonzero" fill-opacity="1" /><path clip-path="url(#clip030)" d="M108.168 147.846 Q104.557 147.846 102.728 151.41 Q100.922 154.952 100.922 162.082 Q100.922 169.188 102.728 172.753 Q104.557 176.295 108.168 176.295 Q111.802 176.295 113.608 172.753 Q115.436 169.188 115.436 162.082 Q115.436 154.952 113.608 151.41 Q111.802 147.846 108.168 147.846 M108.168 144.142 Q113.978 144.142 117.033 148.748 Q120.112 153.332 120.112 162.082 Q120.112 170.808 117.033 175.415 Q113.978 179.998 108.168 179.998 Q102.358 179.998 99.2789 175.415 Q96.2234 170.808 96.2234 162.082 Q96.2234 153.332 99.2789 148.748 Q102.358 144.142 108.168 144.142 Z" fill="#000000" fill-rule="nonzero" fill-opacity="1" /><path clip-path="url(#clip030)" d="M138.33 147.846 Q134.719 147.846 132.89 151.41 Q131.084 154.952 131.084 162.082 Q131.084 169.188 132.89 172.753 Q134.719 176.295 138.33 176.295 Q141.964 176.295 143.769 172.753 Q145.598 169.188 145.598 162.082 Q145.598 154.952 143.769 151.41 Q141.964 147.846 138.33 147.846 M138.33 144.142 Q144.14 144.142 147.195 148.748 Q150.274 153.332 150.274 162.082 Q150.274 170.808 147.195 175.415 Q144.14 179.998 138.33 179.998 Q132.519 179.998 129.441 175.415 Q126.385 170.808 126.385 162.082 Q126.385 153.332 129.441 148.748 Q132.519 144.142 138.33 144.142 Z" fill="#000000" fill-rule="nonzero" fill-opacity="1" /><path clip-path="url(#clip030)" d="M879.413 44.2197 Q882.046 45.1109 884.517 48.0275 Q887.029 50.9442 889.54 56.0483 L897.844 72.576 L889.054 72.576 L881.317 57.061 Q878.319 50.9847 875.484 48.9997 Q872.688 47.0148 867.827 47.0148 L858.915 47.0148 L858.915 72.576 L850.732 72.576 L850.732 12.096 L869.205 12.096 Q879.575 12.096 884.679 16.4305 Q889.783 20.7649 889.783 29.5149 Q889.783 35.2267 887.11 38.994 Q884.477 42.7613 879.413 44.2197 M858.915 18.8205 L858.915 40.2903 L869.205 40.2903 Q875.119 40.2903 878.117 37.5762 Q881.155 34.8216 881.155 29.5149 Q881.155 24.2082 878.117 21.5346 Q875.119 18.8205 869.205 18.8205 L858.915 18.8205 Z" fill="#000000" fill-rule="nonzero" fill-opacity="1" /><path clip-path="url(#clip030)" d="M943.134 48.0275 L943.134 51.6733 L908.863 51.6733 Q909.349 59.3701 913.481 63.421 Q917.653 67.4314 925.067 67.4314 Q929.361 67.4314 933.371 66.3781 Q937.422 65.3249 941.392 63.2184 L941.392 70.267 Q937.381 71.9684 933.168 72.8596 Q928.955 73.7508 924.621 73.7508 Q913.765 73.7508 907.405 67.4314 Q901.085 61.1119 901.085 50.3365 Q901.085 39.1965 907.081 32.6746 Q913.116 26.1121 923.325 26.1121 Q932.48 26.1121 937.786 32.0264 Q943.134 37.9003 943.134 48.0275 M935.68 45.84 Q935.599 39.7232 932.237 36.0774 Q928.915 32.4315 923.406 32.4315 Q917.167 32.4315 913.4 35.9558 Q909.673 39.4801 909.106 45.8805 L935.68 45.84 Z" fill="#000000" fill-rule="nonzero" fill-opacity="1" /><path clip-path="url(#clip030)" d="M985.222 49.3643 Q985.222 41.2625 981.86 36.8065 Q978.539 32.3505 972.503 32.3505 Q966.507 32.3505 963.145 36.8065 Q959.823 41.2625 959.823 49.3643 Q959.823 57.4256 963.145 61.8816 Q966.507 66.3376 972.503 66.3376 Q978.539 66.3376 981.86 61.8816 Q985.222 57.4256 985.222 49.3643 M992.676 66.9452 Q992.676 78.5308 987.532 84.1616 Q982.387 89.8329 971.773 89.8329 Q967.844 89.8329 964.36 89.2252 Q960.877 88.6581 957.595 87.4428 L957.595 80.1917 Q960.877 81.9741 964.077 82.8248 Q967.277 83.6755 970.599 83.6755 Q977.931 83.6755 981.577 79.8271 Q985.222 76.0193 985.222 68.282 L985.222 64.5957 Q982.913 68.6061 979.308 70.5911 Q975.703 72.576 970.68 72.576 Q962.335 72.576 957.231 66.2161 Q952.127 59.8562 952.127 49.3643 Q952.127 38.832 957.231 32.472 Q962.335 26.1121 970.68 26.1121 Q975.703 26.1121 979.308 28.0971 Q982.913 30.082 985.222 34.0924 L985.222 27.2059 L992.676 27.2059 L992.676 66.9452 Z" fill="#000000" fill-rule="nonzero" fill-opacity="1" /><path clip-path="url(#clip030)" d="M1008.03 27.2059 L1015.48 27.2059 L1015.48 72.576 L1008.03 72.576 L1008.03 27.2059 M1008.03 9.54393 L1015.48 9.54393 L1015.48 18.9825 L1008.03 18.9825 L1008.03 9.54393 Z" fill="#000000" fill-rule="nonzero" fill-opacity="1" /><path clip-path="url(#clip030)" d="M1066.4 35.9153 Q1069.2 30.8922 1073.09 28.5022 Q1076.98 26.1121 1082.24 26.1121 Q1089.33 26.1121 1093.18 31.0947 Q1097.03 36.0368 1097.03 45.1919 L1097.03 72.576 L1089.53 72.576 L1089.53 45.4349 Q1089.53 38.913 1087.22 35.7533 Q1084.92 32.5936 1080.18 32.5936 Q1074.38 32.5936 1071.02 36.4419 Q1067.66 40.2903 1067.66 46.9338 L1067.66 72.576 L1060.16 72.576 L1060.16 45.4349 Q1060.16 38.8725 1057.86 35.7533 Q1055.55 32.5936 1050.73 32.5936 Q1045.01 32.5936 1041.65 36.4824 Q1038.29 40.3308 1038.29 46.9338 L1038.29 72.576 L1030.8 72.576 L1030.8 27.2059 L1038.29 27.2059 L1038.29 34.2544 Q1040.84 30.082 1044.41 28.0971 Q1047.97 26.1121 1052.87 26.1121 Q1057.81 26.1121 1061.26 28.6237 Q1064.74 31.1352 1066.4 35.9153 Z" fill="#000000" fill-rule="nonzero" fill-opacity="1" /><path clip-path="url(#clip030)" d="M1150.7 48.0275 L1150.7 51.6733 L1116.43 51.6733 Q1116.92 59.3701 1121.05 63.421 Q1125.22 67.4314 1132.63 67.4314 Q1136.93 67.4314 1140.94 66.3781 Q1144.99 65.3249 1148.96 63.2184 L1148.96 70.267 Q1144.95 71.9684 1140.74 72.8596 Q1136.52 73.7508 1132.19 73.7508 Q1121.33 73.7508 1114.97 67.4314 Q1108.65 61.1119 1108.65 50.3365 Q1108.65 39.1965 1114.65 32.6746 Q1120.68 26.1121 1130.89 26.1121 Q1140.05 26.1121 1145.35 32.0264 Q1150.7 37.9003 1150.7 48.0275 M1143.25 45.84 Q1143.17 39.7232 1139.81 36.0774 Q1136.48 32.4315 1130.97 32.4315 Q1124.74 32.4315 1120.97 35.9558 Q1117.24 39.4801 1116.67 45.8805 L1143.25 45.84 Z" fill="#000000" fill-rule="nonzero" fill-opacity="1" /><path clip-path="url(#clip030)" d="M1196.52 65.7705 L1196.52 89.8329 L1189.02 89.8329 L1189.02 27.2059 L1196.52 27.2059 L1196.52 34.0924 Q1198.87 30.0415 1202.43 28.0971 Q1206.04 26.1121 1211.02 26.1121 Q1219.28 26.1121 1224.43 32.6746 Q1229.61 39.2371 1229.61 49.9314 Q1229.61 60.6258 1224.43 67.1883 Q1219.28 73.7508 1211.02 73.7508 Q1206.04 73.7508 1202.43 71.8063 Q1198.87 69.8214 1196.52 65.7705 M1221.88 49.9314 Q1221.88 41.7081 1218.47 37.0496 Q1215.11 32.3505 1209.2 32.3505 Q1203.28 32.3505 1199.88 37.0496 Q1196.52 41.7081 1196.52 49.9314 Q1196.52 58.1548 1199.88 62.8538 Q1203.28 67.5124 1209.2 67.5124 Q1215.11 67.5124 1218.47 62.8538 Q1221.88 58.1548 1221.88 49.9314 Z" fill="#000000" fill-rule="nonzero" fill-opacity="1" /><path clip-path="url(#clip030)" d="M1268.26 34.1734 Q1267 33.4443 1265.5 33.1202 Q1264.05 32.7556 1262.26 32.7556 Q1255.94 32.7556 1252.54 36.8875 Q1249.18 40.9789 1249.18 48.6757 L1249.18 72.576 L1241.69 72.576 L1241.69 27.2059 L1249.18 27.2059 L1249.18 34.2544 Q1251.53 30.1225 1255.3 28.1376 Q1259.06 26.1121 1264.45 26.1121 Q1265.22 26.1121 1266.15 26.2337 Q1267.08 26.3147 1268.22 26.5172 L1268.26 34.1734 Z" fill="#000000" fill-rule="nonzero" fill-opacity="1" /><path clip-path="url(#clip030)" d="M1291.84 32.4315 Q1285.84 32.4315 1282.36 37.1306 Q1278.87 41.7891 1278.87 49.9314 Q1278.87 58.0738 1282.32 62.7728 Q1285.8 67.4314 1291.84 67.4314 Q1297.79 67.4314 1301.27 62.7323 Q1304.76 58.0333 1304.76 49.9314 Q1304.76 41.8701 1301.27 37.1711 Q1297.79 32.4315 1291.84 32.4315 M1291.84 26.1121 Q1301.56 26.1121 1307.11 32.4315 Q1312.66 38.7509 1312.66 49.9314 Q1312.66 61.0714 1307.11 67.4314 Q1301.56 73.7508 1291.84 73.7508 Q1282.07 73.7508 1276.52 67.4314 Q1271.01 61.0714 1271.01 49.9314 Q1271.01 38.7509 1276.52 32.4315 Q1282.07 26.1121 1291.84 26.1121 Z" fill="#000000" fill-rule="nonzero" fill-opacity="1" /><path clip-path="url(#clip030)" d="M1357.58 49.9314 Q1357.58 41.7081 1354.18 37.0496 Q1350.82 32.3505 1344.9 32.3505 Q1338.99 32.3505 1335.59 37.0496 Q1332.22 41.7081 1332.22 49.9314 Q1332.22 58.1548 1335.59 62.8538 Q1338.99 67.5124 1344.9 67.5124 Q1350.82 67.5124 1354.18 62.8538 Q1357.58 58.1548 1357.58 49.9314 M1332.22 34.0924 Q1334.57 30.0415 1338.14 28.0971 Q1341.74 26.1121 1346.73 26.1121 Q1354.99 26.1121 1360.13 32.6746 Q1365.32 39.2371 1365.32 49.9314 Q1365.32 60.6258 1360.13 67.1883 Q1354.99 73.7508 1346.73 73.7508 Q1341.74 73.7508 1338.14 71.8063 Q1334.57 69.8214 1332.22 65.7705 L1332.22 72.576 L1324.73 72.576 L1324.73 9.54393 L1332.22 9.54393 L1332.22 34.0924 Z" fill="#000000" fill-rule="nonzero" fill-opacity="1" /><path clip-path="url(#clip030)" d="M1398.29 49.7694 Q1389.26 49.7694 1385.78 51.8354 Q1382.29 53.9013 1382.29 58.8839 Q1382.29 62.8538 1384.88 65.2034 Q1387.52 67.5124 1392.01 67.5124 Q1398.21 67.5124 1401.94 63.1374 Q1405.71 58.7219 1405.71 51.4303 L1405.71 49.7694 L1398.29 49.7694 M1413.16 46.6907 L1413.16 72.576 L1405.71 72.576 L1405.71 65.6895 Q1403.15 69.8214 1399.35 71.8063 Q1395.54 73.7508 1390.03 73.7508 Q1383.06 73.7508 1378.93 69.8619 Q1374.84 65.9325 1374.84 59.3701 Q1374.84 51.7138 1379.94 47.825 Q1385.09 43.9361 1395.26 43.9361 L1405.71 43.9361 L1405.71 43.2069 Q1405.71 38.0623 1402.3 35.2672 Q1398.94 32.4315 1392.82 32.4315 Q1388.94 32.4315 1385.25 33.3632 Q1381.56 34.295 1378.16 36.1584 L1378.16 29.2718 Q1382.25 27.692 1386.1 26.9223 Q1389.95 26.1121 1393.59 26.1121 Q1403.44 26.1121 1408.3 31.2163 Q1413.16 36.3204 1413.16 46.6907 Z" fill="#000000" fill-rule="nonzero" fill-opacity="1" /><path clip-path="url(#clip030)" d="M1461.08 49.9314 Q1461.08 41.7081 1457.68 37.0496 Q1454.32 32.3505 1448.4 32.3505 Q1442.49 32.3505 1439.09 37.0496 Q1435.72 41.7081 1435.72 49.9314 Q1435.72 58.1548 1439.09 62.8538 Q1442.49 67.5124 1448.4 67.5124 Q1454.32 67.5124 1457.68 62.8538 Q1461.08 58.1548 1461.08 49.9314 M1435.72 34.0924 Q1438.07 30.0415 1441.64 28.0971 Q1445.24 26.1121 1450.23 26.1121 Q1458.49 26.1121 1463.63 32.6746 Q1468.82 39.2371 1468.82 49.9314 Q1468.82 60.6258 1463.63 67.1883 Q1458.49 73.7508 1450.23 73.7508 Q1445.24 73.7508 1441.64 71.8063 Q1438.07 69.8214 1435.72 65.7705 L1435.72 72.576 L1428.23 72.576 L1428.23 9.54393 L1435.72 9.54393 L1435.72 34.0924 Z" fill="#000000" fill-rule="nonzero" fill-opacity="1" /><path clip-path="url(#clip030)" d="M1481.17 27.2059 L1488.63 27.2059 L1488.63 72.576 L1481.17 72.576 L1481.17 27.2059 M1481.17 9.54393 L1488.63 9.54393 L1488.63 18.9825 L1481.17 18.9825 L1481.17 9.54393 Z" fill="#000000" fill-rule="nonzero" fill-opacity="1" /><path clip-path="url(#clip030)" d="M1504.22 9.54393 L1511.68 9.54393 L1511.68 72.576 L1504.22 72.576 L1504.22 9.54393 Z" fill="#000000" fill-rule="nonzero" fill-opacity="1" /><path clip-path="url(#clip030)" d="M1527.27 27.2059 L1534.73 27.2059 L1534.73 72.576 L1527.27 72.576 L1527.27 27.2059 M1527.27 9.54393 L1534.73 9.54393 L1534.73 18.9825 L1527.27 18.9825 L1527.27 9.54393 Z" fill="#000000" fill-rule="nonzero" fill-opacity="1" /><path clip-path="url(#clip030)" d="M1557.7 14.324 L1557.7 27.2059 L1573.05 27.2059 L1573.05 32.9987 L1557.7 32.9987 L1557.7 57.6282 Q1557.7 63.1779 1559.2 64.7578 Q1560.73 66.3376 1565.39 66.3376 L1573.05 66.3376 L1573.05 72.576 L1565.39 72.576 Q1556.76 72.576 1553.48 69.3758 Q1550.2 66.1351 1550.2 57.6282 L1550.2 32.9987 L1544.73 32.9987 L1544.73 27.2059 L1550.2 27.2059 L1550.2 14.324 L1557.7 14.324 Z" fill="#000000" fill-rule="nonzero" fill-opacity="1" /><path clip-path="url(#clip030)" d="M1582.85 27.2059 L1590.31 27.2059 L1590.31 72.576 L1582.85 72.576 L1582.85 27.2059 M1582.85 9.54393 L1590.31 9.54393 L1590.31 18.9825 L1582.85 18.9825 L1582.85 9.54393 Z" fill="#000000" fill-rule="nonzero" fill-opacity="1" /><path clip-path="url(#clip030)" d="M1644.71 48.0275 L1644.71 51.6733 L1610.44 51.6733 Q1610.93 59.3701 1615.06 63.421 Q1619.23 67.4314 1626.64 67.4314 Q1630.94 67.4314 1634.95 66.3781 Q1639 65.3249 1642.97 63.2184 L1642.97 70.267 Q1638.96 71.9684 1634.74 72.8596 Q1630.53 73.7508 1626.2 73.7508 Q1615.34 73.7508 1608.98 67.4314 Q1602.66 61.1119 1602.66 50.3365 Q1602.66 39.1965 1608.66 32.6746 Q1614.69 26.1121 1624.9 26.1121 Q1634.06 26.1121 1639.36 32.0264 Q1644.71 37.9003 1644.71 48.0275 M1637.26 45.84 Q1637.18 39.7232 1633.81 36.0774 Q1630.49 32.4315 1624.98 32.4315 Q1618.74 32.4315 1614.98 35.9558 Q1611.25 39.4801 1610.68 45.8805 L1637.26 45.84 Z" fill="#000000" fill-rule="nonzero" fill-opacity="1" /><path clip-path="url(#clip030)" d="M1685.87 28.5427 L1685.87 35.5912 Q1682.71 33.9709 1679.3 33.1607 Q1675.9 32.3505 1672.26 32.3505 Q1666.71 32.3505 1663.91 34.0519 Q1661.16 35.7533 1661.16 39.156 Q1661.16 41.7486 1663.14 43.2475 Q1665.13 44.7058 1671.12 46.0426 L1673.67 46.6097 Q1681.61 48.3111 1684.94 51.4303 Q1688.3 54.509 1688.3 60.0587 Q1688.3 66.3781 1683.27 70.0644 Q1678.29 73.7508 1669.54 73.7508 Q1665.9 73.7508 1661.93 73.0216 Q1658 72.3329 1653.62 70.9151 L1653.62 63.2184 Q1657.75 65.3654 1661.76 66.4591 Q1665.77 67.5124 1669.7 67.5124 Q1674.97 67.5124 1677.81 65.73 Q1680.64 63.9071 1680.64 60.6258 Q1680.64 57.5877 1678.58 55.9673 Q1676.55 54.3469 1669.62 52.8481 L1667.03 52.2405 Q1660.1 50.7821 1657.02 47.7845 Q1653.95 44.7463 1653.95 39.4801 Q1653.95 33.0797 1658.48 29.5959 Q1663.02 26.1121 1671.36 26.1121 Q1675.5 26.1121 1679.14 26.7198 Q1682.79 27.3274 1685.87 28.5427 Z" fill="#000000" fill-rule="nonzero" fill-opacity="1" /><polyline clip-path="url(#clip032)" style="stroke:#009af9; stroke-linecap:round; stroke-linejoin:round; stroke-width:8; stroke-opacity:1; fill:none" points="247.59,744.12 252.712,1447.86 257.834,1311.22 262.957,1269.19 268.079,1446.3 273.202,1441.48 278.324,1447.83 283.447,1447.87 288.569,1376.87 293.691,675.538 298.814,711.097 303.936,478.857 309.059,164.339 314.181,583.926 319.304,1439.73 324.426,1336.59 329.548,1433.29 334.671,1447.18 339.793,1447.87 344.916,1445.95 350.038,1300.37 355.161,1428.42 360.283,934.063 365.405,162.297 370.528,188.439 375.65,186.599 380.773,184.761 385.895,219.559 391.018,244.45 396.14,265.095 401.263,520.975 406.385,271.892 411.507,302.021 416.63,311.457 421.752,232.472 426.875,231.535 431.997,186.112 437.12,176.76 442.242,274.541 447.364,283.093 452.487,261.831 457.609,162.109 462.732,226.045 467.854,164.555 472.977,193.623 478.099,162.833 483.221,182.851 488.344,168.498 493.466,162.047 498.589,170.934 503.711,209.065 508.834,163.586 513.956,162.302 519.078,191.089 524.201,218.741 529.323,180.661 534.446,162.573 539.568,171.171 544.691,221.653 549.813,225.463 554.936,340.903 560.058,342.606 565.18,211.524 570.303,196.285 575.425,174.332 580.548,204.309 585.67,164.874 590.793,167.583 595.915,292.779 601.037,275.847 606.16,162.085 611.282,167.185 616.405,188.582 621.527,232.742 626.65,169.654 631.772,162.325 636.894,166.369 642.017,168.982 647.139,243.542 652.262,229.67 657.384,241.697 662.507,198.246 667.629,231.996 672.751,215.641 677.874,170.343 682.996,174.331 688.119,184.177 693.241,198.714 698.364,162.95 703.486,162.119 708.609,221.195 713.731,167.681 718.853,231.361 723.976,165.099 729.098,264.872 734.221,263.775 739.343,291.027 744.466,373.489 749.588,296.88 754.71,177.042 759.833,199.889 764.955,162.916 770.078,167.896 775.2,451.23 780.323,163.679 785.445,189.563 790.567,277.77 795.69,481.278 800.812,256.574 805.935,269.791 811.057,251.843 816.18,219.51 821.302,162.252 826.424,218.594 831.547,222.663 836.669,187.56 841.792,190.686 846.914,249.846 852.037,1437.12 857.159,1426.72 862.282,1345.99 867.404,871.942 872.526,697.858 877.649,737.033 882.771,467.762 887.894,501.197 893.016,260.414 898.139,163.288 903.261,270.116 908.383,197.605 913.506,216.397 918.628,343.666 923.751,348.953 928.873,1444.66 933.996,1440.47 939.118,1352.22 944.24,1445.36 949.363,1351.15 954.485,1172.58 959.608,258.474 964.73,352.953 969.853,388.431 974.975,334.366 980.097,268.403 985.22,171.839 990.342,344.993 995.465,1067.3 1000.59,785.841 1005.71,550.33 1010.83,801.185 1015.95,360.497 1021.08,162.25 1026.2,195.093 1031.32,194.442 1036.44,162.062 1041.57,163.934 1046.69,203.993 1051.81,164.842 1056.93,162.19 1062.06,201.826 1067.18,215.585 1072.3,178.607 1077.42,197.05 1082.55,175.783 1087.67,365 1092.79,172.606 1097.91,179.831 1103.04,298.655 1108.16,311.621 1113.28,339.21 1118.4,393.651 1123.53,381.524 1128.65,244.743 1133.77,254.456 1138.89,294.12 1144.02,211.999 1149.14,228.773 1154.26,205.297 1159.38,227.778 1164.51,1210.97 1169.63,1353.87 1174.75,1447.87 1179.87,1433.8 1184.99,1373.71 1190.12,847.503 1195.24,790.816 1200.36,485.518 1205.48,187.158 1210.61,579.407 1215.73,176.018 1220.85,839.946 1225.97,172.586 1231.1,1426.86 1236.22,1447.87 1241.34,1431.42 1246.46,1233.15 1251.59,1447.87 1256.71,1329.2 1261.83,1447.27 1266.95,1354.65 1272.08,1420.12 1277.2,1165.78 1282.32,1330.24 1287.44,1447.87 1292.57,1311.73 1297.69,1440.39 1302.81,1327.45 1307.93,1447.74 1313.06,1409.09 1318.18,1321.04 1323.3,798.334 1328.42,683.645 1333.55,741.929 1338.67,393.839 1343.79,823.797 1348.91,780.363 1354.04,965.147 1359.16,937.913 1364.28,1447.67 1369.4,1421.21 1374.52,1334.41 1379.65,1290.23 1384.77,1429.67 1389.89,1395.59 1395.01,1275.34 1400.14,241.904 1405.26,1447.87 1410.38,1447.01 1415.5,1398.01 1420.63,1311.94 1425.75,1379.68 1430.87,1447.52 1435.99,1447.51 1441.12,1447.87 1446.24,1368.39 1451.36,1425.91 1456.48,1299.48 1461.61,1446.78 1466.73,1435.77 1471.85,1435.9 1476.97,1447.87 1482.1,1443.56 1487.22,1447.63 1492.34,1177.77 1497.46,1224.92 1502.59,1346.05 1507.71,1296.51 1512.83,1097.75 1517.95,1447.87 1523.08,1447.31 1528.2,1186.53 1533.32,1130.04 1538.44,1104.42 1543.57,1254.16 1548.69,1386.19 1553.81,1279.22 1558.93,1446.79 1564.05,563.939 1569.18,217.58 1574.3,166.049 1579.42,165.531 1584.54,168.224 1589.67,187.898 1594.79,200.46 1599.91,184.504 1605.03,162.049 1610.16,196.123 1615.28,236.11 1620.4,181.643 1625.52,176.038 1630.65,176.76 1635.77,188.105 1640.89,216.509 1646.01,172.566 1651.14,196.73 1656.26,182.591 1661.38,164.674 1666.5,162.842 1671.63,162.188 1676.75,162.367 1681.87,162.048 1686.99,162.956 1692.12,197.704 1697.24,168.605 1702.36,190.75 1707.48,202.757 1712.61,227.792 1717.73,169.862 1722.85,202.35 1727.97,215.341 1733.1,182.129 1738.22,165.151 1743.34,196.06 1748.46,474.125 1753.58,884.297 1758.71,162.266 1763.83,204.138 1768.95,395.875 1774.07,472.158 1779.2,809.992 1784.32,581.254 1789.44,521.831 1794.56,210.331 1799.69,168.777 1804.81,163.07 1809.93,186.724 1815.05,213.945 1820.18,174.21 1825.3,167.748 1830.42,201.596 1835.54,231.906 1840.67,233.099 1845.79,171.083 1850.91,162.947 1856.03,219.665 1861.16,162.073 1866.28,162.05 1871.4,171.552 1876.52,176.213 1881.65,166.661 1886.77,201.065 1891.89,246.185 1897.01,244.544 1902.14,250.936 1907.26,162.265 1912.38,213.734 1917.5,162.141 1922.63,180.762 1927.75,187.799 1932.87,168.2 1937.99,166.358 1943.11,176.746 1948.24,196.159 1953.36,235.084 1958.48,288.695 1963.6,272.04 1968.73,189.875 1973.85,1420.09 1978.97,177.432 1984.09,162.207 1989.22,189.319 1994.34,162.428 1999.46,198.431 2004.58,162.603 2009.71,238.006 2014.83,236.552 2019.95,243.569 2025.07,178.214 2030.2,207.897 2035.32,175.908 2040.44,204.371 2045.56,252.088 2050.69,288.87 2055.81,290.066 2060.93,1423.18 2066.05,1447.73 2071.18,1443.76 2076.3,1319.81 2081.42,1042.74 2086.54,1214.09 2091.67,558.54 2096.79,298.102 2101.91,222.54 2107.03,163.422 2112.16,187.72 2117.28,176.434 2122.4,168.159 2127.52,478.077 2132.64,195.816 2137.77,259.813 2142.89,162.092 2148.01,162.105 2153.13,223.497 2158.26,173.544 2163.38,181.658 2168.5,226.109 2173.62,234.412 2178.75,220.062 2183.87,189.749 2188.99,194.419 2194.11,202.319 2199.24,240.494 2204.36,223.474 2209.48,221.805 2214.6,179.47 2219.73,212.48 2224.85,319.308 2229.97,172.379 2235.09,162.298 2240.22,162.187 2245.34,222.638 2250.46,174.542 2255.58,166.845 2260.71,195.745 2265.83,171.375 2270.95,193.36 2276.07,162.841 2281.2,162.409 2286.32,162.55 2291.44,195.536 "/>
<polyline clip-path="url(#clip032)" style="stroke:#e26f46; stroke-linecap:round; stroke-linejoin:round; stroke-width:8; stroke-opacity:1; fill:none" points="247.59,865.8 252.712,162.061 257.834,298.699 262.957,340.731 268.079,163.617 273.202,168.441 278.324,162.094 283.447,162.047 288.569,233.05 293.691,934.382 298.814,898.823 303.936,1131.06 309.059,1445.58 314.181,1025.99 319.304,170.193 324.426,273.333 329.548,176.634 334.671,162.742 339.793,162.047 344.916,163.975 350.038,309.552 355.161,181.497 360.283,675.857 365.405,1447.62 370.528,1421.48 375.65,1423.32 380.773,1425.16 385.895,1390.36 391.018,1365.47 396.14,1344.82 401.263,1088.95 406.385,1338.03 411.507,1307.9 416.63,1298.46 421.752,1377.45 426.875,1378.38 431.997,1423.81 437.12,1433.16 442.242,1335.38 447.364,1326.83 452.487,1348.09 457.609,1447.81 462.732,1383.87 467.854,1445.36 472.977,1416.3 478.099,1447.09 483.221,1427.07 488.344,1441.42 493.466,1447.87 498.589,1438.99 503.711,1400.85 508.834,1446.33 513.956,1447.62 519.078,1418.83 524.201,1391.18 529.323,1429.26 534.446,1447.35 539.568,1438.75 544.691,1388.27 549.813,1384.46 554.936,1269.02 560.058,1267.31 565.18,1398.4 570.303,1413.63 575.425,1435.59 580.548,1405.61 585.67,1445.05 590.793,1442.34 595.915,1317.14 601.037,1334.07 606.16,1447.83 611.282,1442.74 616.405,1421.34 621.527,1377.18 626.65,1440.27 631.772,1447.59 636.894,1443.55 642.017,1440.94 647.139,1366.38 652.262,1380.25 657.384,1368.22 662.507,1411.67 667.629,1377.92 672.751,1394.28 677.874,1439.58 682.996,1435.59 688.119,1425.74 693.241,1411.21 698.364,1446.97 703.486,1447.8 708.609,1388.72 713.731,1442.24 718.853,1378.56 723.976,1444.82 729.098,1345.05 734.221,1346.14 739.343,1318.89 744.466,1236.43 749.588,1313.04 754.71,1432.88 759.833,1410.03 764.955,1447 770.078,1442.02 775.2,1158.69 780.323,1446.24 785.445,1420.36 790.567,1332.15 795.69,1128.64 800.812,1353.35 805.935,1340.13 811.057,1358.08 816.18,1390.41 821.302,1447.67 826.424,1391.33 831.547,1387.26 836.669,1422.36 841.792,1419.23 846.914,1360.07 852.037,172.804 857.159,183.196 862.282,263.93 867.404,737.978 872.526,912.062 877.649,872.887 882.771,1142.16 887.894,1108.72 893.016,1349.51 898.139,1446.63 903.261,1339.8 908.383,1412.31 913.506,1393.52 918.628,1266.25 923.751,1260.97 928.873,165.262 933.996,169.451 939.118,257.703 944.24,164.558 949.363,258.775 954.485,437.336 959.608,1351.45 964.73,1256.97 969.853,1221.49 974.975,1275.55 980.097,1341.52 985.22,1438.08 990.342,1264.93 995.465,542.623 1000.59,824.079 1005.71,1059.59 1010.83,808.735 1015.95,1249.42 1021.08,1447.67 1026.2,1414.83 1031.32,1415.48 1036.44,1447.86 1041.57,1445.99 1046.69,1405.93 1051.81,1445.08 1056.93,1447.73 1062.06,1408.09 1067.18,1394.34 1072.3,1431.31 1077.42,1412.87 1082.55,1434.14 1087.67,1244.92 1092.79,1437.31 1097.91,1430.09 1103.04,1311.27 1108.16,1298.3 1113.28,1270.71 1118.4,1216.27 1123.53,1228.4 1128.65,1365.18 1133.77,1355.46 1138.89,1315.8 1144.02,1397.92 1149.14,1381.15 1154.26,1404.62 1159.38,1382.14 1164.51,398.947 1169.63,256.053 1174.75,162.047 1179.87,176.125 1184.99,236.207 1190.12,762.417 1195.24,819.104 1200.36,1124.4 1205.48,1422.76 1210.61,1030.51 1215.73,1433.9 1220.85,769.974 1225.97,1437.33 1231.1,183.057 1236.22,162.047 1241.34,178.5 1246.46,376.765 1251.59,162.047 1256.71,280.724 1261.83,162.645 1266.95,255.265 1272.08,189.797 1277.2,444.136 1282.32,279.683 1287.44,162.047 1292.57,298.189 1297.69,169.531 1302.81,282.467 1307.93,162.178 1313.06,200.828 1318.18,288.879 1323.3,811.586 1328.42,926.275 1333.55,867.991 1338.67,1216.08 1343.79,786.123 1348.91,829.557 1354.04,644.773 1359.16,672.007 1364.28,162.252 1369.4,188.71 1374.52,275.509 1379.65,319.685 1384.77,180.253 1389.89,214.327 1395.01,334.58 1400.14,1368.02 1405.26,162.047 1410.38,162.909 1415.5,211.913 1420.63,297.983 1425.75,230.24 1430.87,162.398 1435.99,162.412 1441.12,162.048 1446.24,241.535 1451.36,184.012 1456.48,310.439 1461.61,163.143 1466.73,174.152 1471.85,174.023 1476.97,162.048 1482.1,166.359 1487.22,162.286 1492.34,432.149 1497.46,385.001 1502.59,263.875 1507.71,313.405 1512.83,512.168 1517.95,162.047 1523.08,162.613 1528.2,423.386 1533.32,479.882 1538.44,505.497 1543.57,355.758 1548.69,223.735 1553.81,330.704 1558.93,163.127 1564.05,1045.98 1569.18,1392.34 1574.3,1443.87 1579.42,1444.39 1584.54,1441.7 1589.67,1422.02 1594.79,1409.46 1599.91,1425.42 1605.03,1447.87 1610.16,1413.8 1615.28,1373.81 1620.4,1428.28 1625.52,1433.88 1630.65,1433.16 1635.77,1421.81 1640.89,1393.41 1646.01,1437.35 1651.14,1413.19 1656.26,1427.33 1661.38,1445.25 1666.5,1447.08 1671.63,1447.73 1676.75,1447.55 1681.87,1447.87 1686.99,1446.96 1692.12,1412.22 1697.24,1441.32 1702.36,1419.17 1707.48,1407.16 1712.61,1382.13 1717.73,1440.06 1722.85,1407.57 1727.97,1394.58 1733.1,1427.79 1738.22,1444.77 1743.34,1413.86 1748.46,1135.79 1753.58,725.623 1758.71,1447.65 1763.83,1405.78 1768.95,1214.04 1774.07,1137.76 1779.2,799.928 1784.32,1028.67 1789.44,1088.09 1794.56,1399.59 1799.69,1441.14 1804.81,1446.85 1809.93,1423.2 1815.05,1395.97 1820.18,1435.71 1825.3,1442.17 1830.42,1408.32 1835.54,1378.01 1840.67,1376.82 1845.79,1438.84 1850.91,1446.97 1856.03,1390.25 1861.16,1447.85 1866.28,1447.87 1871.4,1438.37 1876.52,1433.71 1881.65,1443.26 1886.77,1408.85 1891.89,1363.73 1897.01,1365.38 1902.14,1358.98 1907.26,1447.66 1912.38,1396.19 1917.5,1447.78 1922.63,1429.16 1927.75,1422.12 1932.87,1441.72 1937.99,1443.56 1943.11,1433.17 1948.24,1413.76 1953.36,1374.84 1958.48,1321.22 1963.6,1337.88 1968.73,1420.04 1973.85,189.826 1978.97,1432.49 1984.09,1447.71 1989.22,1420.6 1994.34,1447.49 1999.46,1411.49 2004.58,1447.32 2009.71,1371.91 2014.83,1373.37 2019.95,1366.35 2025.07,1431.71 2030.2,1402.02 2035.32,1434.01 2040.44,1405.55 2045.56,1357.83 2050.69,1321.05 2055.81,1319.85 2060.93,186.736 2066.05,162.193 2071.18,166.163 2076.3,290.11 2081.42,567.185 2086.54,395.833 2091.67,1051.38 2096.79,1311.82 2101.91,1387.38 2107.03,1446.5 2112.16,1422.2 2117.28,1433.49 2122.4,1441.76 2127.52,1131.84 2132.64,1414.1 2137.77,1350.11 2142.89,1447.83 2148.01,1447.82 2153.13,1386.42 2158.26,1436.38 2163.38,1428.26 2168.5,1383.81 2173.62,1375.51 2178.75,1389.86 2183.87,1420.17 2188.99,1415.5 2194.11,1407.6 2199.24,1369.43 2204.36,1386.45 2209.48,1388.12 2214.6,1430.45 2219.73,1397.44 2224.85,1290.61 2229.97,1437.54 2235.09,1447.62 2240.22,1447.73 2245.34,1387.28 2250.46,1435.38 2255.58,1443.08 2260.71,1414.18 2265.83,1438.54 2270.95,1416.56 2276.07,1447.08 2281.2,1447.51 2286.32,1447.37 2291.44,1414.38 "/>
<path clip-path="url(#clip030)" d="M258.49 324.425 L689.929 324.425 L689.929 168.905 L258.49 168.905  Z" fill="#ffffff" fill-rule="evenodd" fill-opacity="1"/>
<polyline clip-path="url(#clip030)" style="stroke:#000000; stroke-linecap:round; stroke-linejoin:round; stroke-width:4; stroke-opacity:1; fill:none" points="258.49,324.425 689.929,324.425 689.929,168.905 258.49,168.905 258.49,324.425 "/>
<polyline clip-path="url(#clip030)" style="stroke:#009af9; stroke-linecap:round; stroke-linejoin:round; stroke-width:8; stroke-opacity:1; fill:none" points="282.562,220.745 426.994,220.745 "/>
<path clip-path="url(#clip030)" d="M467.455 221.821 Q468.96 222.33 470.372 223.997 Q471.807 225.664 473.242 228.58 L477.987 238.025 L472.964 238.025 L468.543 229.159 Q466.83 225.687 465.21 224.553 Q463.612 223.418 460.835 223.418 L455.742 223.418 L455.742 238.025 L451.066 238.025 L451.066 203.465 L461.622 203.465 Q467.548 203.465 470.464 205.941 Q473.381 208.418 473.381 213.418 Q473.381 216.682 471.853 218.835 Q470.349 220.988 467.455 221.821 M455.742 207.307 L455.742 219.576 L461.622 219.576 Q465.001 219.576 466.714 218.025 Q468.45 216.451 468.45 213.418 Q468.45 210.386 466.714 208.858 Q465.001 207.307 461.622 207.307 L455.742 207.307 Z" fill="#000000" fill-rule="nonzero" fill-opacity="1" /><path clip-path="url(#clip030)" d="M503.867 223.997 L503.867 226.08 L484.284 226.08 Q484.561 230.478 486.923 232.793 Q489.307 235.085 493.543 235.085 Q495.997 235.085 498.288 234.483 Q500.603 233.881 502.872 232.677 L502.872 236.705 Q500.58 237.677 498.172 238.187 Q495.765 238.696 493.288 238.696 Q487.085 238.696 483.45 235.085 Q479.839 231.474 479.839 225.316 Q479.839 218.951 483.265 215.224 Q486.714 211.474 492.547 211.474 Q497.779 211.474 500.811 214.853 Q503.867 218.21 503.867 223.997 M499.608 222.747 Q499.561 219.252 497.64 217.168 Q495.742 215.085 492.594 215.085 Q489.029 215.085 486.876 217.099 Q484.747 219.113 484.423 222.77 L499.608 222.747 Z" fill="#000000" fill-rule="nonzero" fill-opacity="1" /><path clip-path="url(#clip030)" d="M527.918 224.761 Q527.918 220.131 525.996 217.585 Q524.098 215.039 520.649 215.039 Q517.223 215.039 515.302 217.585 Q513.404 220.131 513.404 224.761 Q513.404 229.367 515.302 231.914 Q517.223 234.46 520.649 234.46 Q524.098 234.46 525.996 231.914 Q527.918 229.367 527.918 224.761 M532.177 234.807 Q532.177 241.427 529.237 244.645 Q526.297 247.886 520.233 247.886 Q517.987 247.886 515.996 247.538 Q514.006 247.214 512.131 246.52 L512.131 242.376 Q514.006 243.395 515.834 243.881 Q517.663 244.367 519.561 244.367 Q523.751 244.367 525.834 242.168 Q527.918 239.992 527.918 235.571 L527.918 233.464 Q526.598 235.756 524.538 236.89 Q522.478 238.025 519.608 238.025 Q514.839 238.025 511.922 234.39 Q509.006 230.756 509.006 224.761 Q509.006 218.742 511.922 215.108 Q514.839 211.474 519.608 211.474 Q522.478 211.474 524.538 212.608 Q526.598 213.742 527.918 216.034 L527.918 212.099 L532.177 212.099 L532.177 234.807 Z" fill="#000000" fill-rule="nonzero" fill-opacity="1" /><path clip-path="url(#clip030)" d="M540.95 212.099 L545.209 212.099 L545.209 238.025 L540.95 238.025 L540.95 212.099 M540.95 202.006 L545.209 202.006 L545.209 207.4 L540.95 207.4 L540.95 202.006 Z" fill="#000000" fill-rule="nonzero" fill-opacity="1" /><path clip-path="url(#clip030)" d="M574.306 217.076 Q575.904 214.205 578.126 212.84 Q580.348 211.474 583.357 211.474 Q587.408 211.474 589.607 214.321 Q591.806 217.145 591.806 222.377 L591.806 238.025 L587.524 238.025 L587.524 222.515 Q587.524 218.789 586.204 216.983 Q584.885 215.178 582.177 215.178 Q578.866 215.178 576.945 217.377 Q575.024 219.576 575.024 223.372 L575.024 238.025 L570.742 238.025 L570.742 222.515 Q570.742 218.765 569.422 216.983 Q568.103 215.178 565.348 215.178 Q562.084 215.178 560.163 217.4 Q558.242 219.599 558.242 223.372 L558.242 238.025 L553.959 238.025 L553.959 212.099 L558.242 212.099 L558.242 216.127 Q559.7 213.742 561.737 212.608 Q563.774 211.474 566.575 211.474 Q569.399 211.474 571.367 212.909 Q573.357 214.344 574.306 217.076 Z" fill="#000000" fill-rule="nonzero" fill-opacity="1" /><path clip-path="url(#clip030)" d="M622.477 223.997 L622.477 226.08 L602.894 226.08 Q603.172 230.478 605.533 232.793 Q607.917 235.085 612.153 235.085 Q614.607 235.085 616.899 234.483 Q619.213 233.881 621.482 232.677 L621.482 236.705 Q619.19 237.677 616.783 238.187 Q614.376 238.696 611.899 238.696 Q605.695 238.696 602.061 235.085 Q598.45 231.474 598.45 225.316 Q598.45 218.951 601.876 215.224 Q605.325 211.474 611.158 211.474 Q616.389 211.474 619.422 214.853 Q622.477 218.21 622.477 223.997 M618.218 222.747 Q618.172 219.252 616.251 217.168 Q614.352 215.085 611.204 215.085 Q607.639 215.085 605.487 217.099 Q603.357 219.113 603.033 222.77 L618.218 222.747 Z" fill="#000000" fill-rule="nonzero" fill-opacity="1" /><path clip-path="url(#clip030)" d="M645.949 234.089 L653.588 234.089 L653.588 207.724 L645.278 209.391 L645.278 205.131 L653.542 203.465 L658.218 203.465 L658.218 234.089 L665.857 234.089 L665.857 238.025 L645.949 238.025 L645.949 234.089 Z" fill="#000000" fill-rule="nonzero" fill-opacity="1" /><polyline clip-path="url(#clip030)" style="stroke:#e26f46; stroke-linecap:round; stroke-linejoin:round; stroke-width:8; stroke-opacity:1; fill:none" points="282.562,272.585 426.994,272.585 "/>
<path clip-path="url(#clip030)" d="M467.455 273.661 Q468.96 274.17 470.372 275.837 Q471.807 277.504 473.242 280.42 L477.987 289.865 L472.964 289.865 L468.543 280.999 Q466.83 277.527 465.21 276.393 Q463.612 275.258 460.835 275.258 L455.742 275.258 L455.742 289.865 L451.066 289.865 L451.066 255.305 L461.622 255.305 Q467.548 255.305 470.464 257.781 Q473.381 260.258 473.381 265.258 Q473.381 268.522 471.853 270.675 Q470.349 272.828 467.455 273.661 M455.742 259.147 L455.742 271.416 L461.622 271.416 Q465.001 271.416 466.714 269.865 Q468.45 268.291 468.45 265.258 Q468.45 262.226 466.714 260.698 Q465.001 259.147 461.622 259.147 L455.742 259.147 Z" fill="#000000" fill-rule="nonzero" fill-opacity="1" /><path clip-path="url(#clip030)" d="M503.867 275.837 L503.867 277.92 L484.284 277.92 Q484.561 282.318 486.923 284.633 Q489.307 286.925 493.543 286.925 Q495.997 286.925 498.288 286.323 Q500.603 285.721 502.872 284.517 L502.872 288.545 Q500.58 289.517 498.172 290.027 Q495.765 290.536 493.288 290.536 Q487.085 290.536 483.45 286.925 Q479.839 283.314 479.839 277.156 Q479.839 270.791 483.265 267.064 Q486.714 263.314 492.547 263.314 Q497.779 263.314 500.811 266.693 Q503.867 270.05 503.867 275.837 M499.608 274.587 Q499.561 271.092 497.64 269.008 Q495.742 266.925 492.594 266.925 Q489.029 266.925 486.876 268.939 Q484.747 270.953 484.423 274.61 L499.608 274.587 Z" fill="#000000" fill-rule="nonzero" fill-opacity="1" /><path clip-path="url(#clip030)" d="M527.918 276.601 Q527.918 271.971 525.996 269.425 Q524.098 266.879 520.649 266.879 Q517.223 266.879 515.302 269.425 Q513.404 271.971 513.404 276.601 Q513.404 281.207 515.302 283.754 Q517.223 286.3 520.649 286.3 Q524.098 286.3 525.996 283.754 Q527.918 281.207 527.918 276.601 M532.177 286.647 Q532.177 293.267 529.237 296.485 Q526.297 299.726 520.233 299.726 Q517.987 299.726 515.996 299.378 Q514.006 299.054 512.131 298.36 L512.131 294.216 Q514.006 295.235 515.834 295.721 Q517.663 296.207 519.561 296.207 Q523.751 296.207 525.834 294.008 Q527.918 291.832 527.918 287.411 L527.918 285.304 Q526.598 287.596 524.538 288.73 Q522.478 289.865 519.608 289.865 Q514.839 289.865 511.922 286.23 Q509.006 282.596 509.006 276.601 Q509.006 270.582 511.922 266.948 Q514.839 263.314 519.608 263.314 Q522.478 263.314 524.538 264.448 Q526.598 265.582 527.918 267.874 L527.918 263.939 L532.177 263.939 L532.177 286.647 Z" fill="#000000" fill-rule="nonzero" fill-opacity="1" /><path clip-path="url(#clip030)" d="M540.95 263.939 L545.209 263.939 L545.209 289.865 L540.95 289.865 L540.95 263.939 M540.95 253.846 L545.209 253.846 L545.209 259.24 L540.95 259.24 L540.95 253.846 Z" fill="#000000" fill-rule="nonzero" fill-opacity="1" /><path clip-path="url(#clip030)" d="M574.306 268.916 Q575.904 266.045 578.126 264.68 Q580.348 263.314 583.357 263.314 Q587.408 263.314 589.607 266.161 Q591.806 268.985 591.806 274.217 L591.806 289.865 L587.524 289.865 L587.524 274.355 Q587.524 270.629 586.204 268.823 Q584.885 267.018 582.177 267.018 Q578.866 267.018 576.945 269.217 Q575.024 271.416 575.024 275.212 L575.024 289.865 L570.742 289.865 L570.742 274.355 Q570.742 270.605 569.422 268.823 Q568.103 267.018 565.348 267.018 Q562.084 267.018 560.163 269.24 Q558.242 271.439 558.242 275.212 L558.242 289.865 L553.959 289.865 L553.959 263.939 L558.242 263.939 L558.242 267.967 Q559.7 265.582 561.737 264.448 Q563.774 263.314 566.575 263.314 Q569.399 263.314 571.367 264.749 Q573.357 266.184 574.306 268.916 Z" fill="#000000" fill-rule="nonzero" fill-opacity="1" /><path clip-path="url(#clip030)" d="M622.477 275.837 L622.477 277.92 L602.894 277.92 Q603.172 282.318 605.533 284.633 Q607.917 286.925 612.153 286.925 Q614.607 286.925 616.899 286.323 Q619.213 285.721 621.482 284.517 L621.482 288.545 Q619.19 289.517 616.783 290.027 Q614.376 290.536 611.899 290.536 Q605.695 290.536 602.061 286.925 Q598.45 283.314 598.45 277.156 Q598.45 270.791 601.876 267.064 Q605.325 263.314 611.158 263.314 Q616.389 263.314 619.422 266.693 Q622.477 270.05 622.477 275.837 M618.218 274.587 Q618.172 271.092 616.251 269.008 Q614.352 266.925 611.204 266.925 Q607.639 266.925 605.487 268.939 Q603.357 270.953 603.033 274.61 L618.218 274.587 Z" fill="#000000" fill-rule="nonzero" fill-opacity="1" /><path clip-path="url(#clip030)" d="M649.167 285.929 L665.486 285.929 L665.486 289.865 L643.542 289.865 L643.542 285.929 Q646.204 283.175 650.787 278.545 Q655.394 273.893 656.574 272.55 Q658.82 270.027 659.699 268.291 Q660.602 266.531 660.602 264.842 Q660.602 262.087 658.658 260.351 Q656.736 258.615 653.635 258.615 Q651.436 258.615 648.982 259.379 Q646.551 260.143 643.774 261.694 L643.774 256.971 Q646.598 255.837 649.051 255.258 Q651.505 254.68 653.542 254.68 Q658.912 254.68 662.107 257.365 Q665.301 260.05 665.301 264.541 Q665.301 266.67 664.491 268.592 Q663.704 270.49 661.598 273.082 Q661.019 273.754 657.917 276.971 Q654.815 280.166 649.167 285.929 Z" fill="#000000" fill-rule="nonzero" fill-opacity="1" /></svg>
