<?xml version="1.0" encoding="utf-8"?>
<svg xmlns="http://www.w3.org/2000/svg" xmlns:xlink="http://www.w3.org/1999/xlink" width="700" height="500" viewBox="0 0 2800 2000">
<defs>
  <clipPath id="clip500">
    <rect x="0" y="0" width="2800" height="2000"/>
  </clipPath>
</defs>
<path clip-path="url(#clip500)" d="M0 2000 L2800 2000 L2800 0 L0 0  Z" fill="#ffffff" fill-rule="evenodd" fill-opacity="1"/>
<defs>
  <clipPath id="clip501">
    <rect x="560" y="0" width="1961" height="1961"/>
  </clipPath>
</defs>
<path clip-path="url(#clip500)" d="M190.274 1879.98 L2752.76 1879.98 L2752.76 127.792 L190.274 127.792  Z" fill="#ffffff" fill-rule="evenodd" fill-opacity="1"/>
<defs>
  <clipPath id="clip502">
    <rect x="190" y="127" width="2563" height="1753"/>
  </clipPath>
</defs>
<polyline clip-path="url(#clip502)" style="stroke:#000000; stroke-linecap:round; stroke-linejoin:round; stroke-width:2; stroke-opacity:0.1; fill:none" points="256.738,1879.98 256.738,127.792 "/>
<polyline clip-path="url(#clip502)" style="stroke:#000000; stroke-linecap:round; stroke-linejoin:round; stroke-width:2; stroke-opacity:0.1; fill:none" points="862.612,1879.98 862.612,127.792 "/>
<polyline clip-path="url(#clip502)" style="stroke:#000000; stroke-linecap:round; stroke-linejoin:round; stroke-width:2; stroke-opacity:0.1; fill:none" points="1468.49,1879.98 1468.49,127.792 "/>
<polyline clip-path="url(#clip502)" style="stroke:#000000; stroke-linecap:round; stroke-linejoin:round; stroke-width:2; stroke-opacity:0.1; fill:none" points="2074.36,1879.98 2074.36,127.792 "/>
<polyline clip-path="url(#clip502)" style="stroke:#000000; stroke-linecap:round; stroke-linejoin:round; stroke-width:2; stroke-opacity:0.1; fill:none" points="2680.23,1879.98 2680.23,127.792 "/>
<polyline clip-path="url(#clip500)" style="stroke:#000000; stroke-linecap:round; stroke-linejoin:round; stroke-width:4; stroke-opacity:1; fill:none" points="190.274,1879.98 2752.76,1879.98 "/>
<polyline clip-path="url(#clip500)" style="stroke:#000000; stroke-linecap:round; stroke-linejoin:round; stroke-width:4; stroke-opacity:1; fill:none" points="256.738,1879.98 256.738,1861.08 "/>
<polyline clip-path="url(#clip500)" style="stroke:#000000; stroke-linecap:round; stroke-linejoin:round; stroke-width:4; stroke-opacity:1; fill:none" points="862.612,1879.98 862.612,1861.08 "/>
<polyline clip-path="url(#clip500)" style="stroke:#000000; stroke-linecap:round; stroke-linejoin:round; stroke-width:4; stroke-opacity:1; fill:none" points="1468.49,1879.98 1468.49,1861.08 "/>
<polyline clip-path="url(#clip500)" style="stroke:#000000; stroke-linecap:round; stroke-linejoin:round; stroke-width:4; stroke-opacity:1; fill:none" points="2074.36,1879.98 2074.36,1861.08 "/>
<polyline clip-path="url(#clip500)" style="stroke:#000000; stroke-linecap:round; stroke-linejoin:round; stroke-width:4; stroke-opacity:1; fill:none" points="2680.23,1879.98 2680.23,1861.08 "/>
<path clip-path="url(#clip500)" d="M256.738 1914.1 Q253.127 1914.1 251.299 1917.66 Q249.493 1921.2 249.493 1928.33 Q249.493 1935.44 251.299 1939.01 Q253.127 1942.55 256.738 1942.55 Q260.373 1942.55 262.178 1939.01 Q264.007 1935.44 264.007 1928.33 Q264.007 1921.2 262.178 1917.66 Q260.373 1914.1 256.738 1914.1 M256.738 1910.39 Q262.548 1910.39 265.604 1915 Q268.683 1919.58 268.683 1928.33 Q268.683 1937.06 265.604 1941.67 Q262.548 1946.25 256.738 1946.25 Q250.928 1946.25 247.849 1941.67 Q244.794 1937.06 244.794 1928.33 Q244.794 1919.58 247.849 1915 Q250.928 1910.39 256.738 1910.39 Z" fill="#000000" fill-rule="nonzero" fill-opacity="1" /><path clip-path="url(#clip500)" d="M822.219 1941.64 L829.858 1941.64 L829.858 1915.28 L821.547 1916.95 L821.547 1912.69 L829.811 1911.02 L834.487 1911.02 L834.487 1941.64 L842.126 1941.64 L842.126 1945.58 L822.219 1945.58 L822.219 1941.64 Z" fill="#000000" fill-rule="nonzero" fill-opacity="1" /><path clip-path="url(#clip500)" d="M861.57 1914.1 Q857.959 1914.1 856.131 1917.66 Q854.325 1921.2 854.325 1928.33 Q854.325 1935.44 856.131 1939.01 Q857.959 1942.55 861.57 1942.55 Q865.205 1942.55 867.01 1939.01 Q868.839 1935.44 868.839 1928.33 Q868.839 1921.2 867.01 1917.66 Q865.205 1914.1 861.57 1914.1 M861.57 1910.39 Q867.38 1910.39 870.436 1915 Q873.515 1919.58 873.515 1928.33 Q873.515 1937.06 870.436 1941.67 Q867.38 1946.25 861.57 1946.25 Q855.76 1946.25 852.681 1941.67 Q849.626 1937.06 849.626 1928.33 Q849.626 1919.58 852.681 1915 Q855.76 1910.39 861.57 1910.39 Z" fill="#000000" fill-rule="nonzero" fill-opacity="1" /><path clip-path="url(#clip500)" d="M891.732 1914.1 Q888.121 1914.1 886.292 1917.66 Q884.487 1921.2 884.487 1928.33 Q884.487 1935.44 886.292 1939.01 Q888.121 1942.55 891.732 1942.55 Q895.366 1942.55 897.172 1939.01 Q899.001 1935.44 899.001 1928.33 Q899.001 1921.2 897.172 1917.66 Q895.366 1914.1 891.732 1914.1 M891.732 1910.39 Q897.542 1910.39 900.598 1915 Q903.677 1919.58 903.677 1928.33 Q903.677 1937.06 900.598 1941.67 Q897.542 1946.25 891.732 1946.25 Q885.922 1946.25 882.843 1941.67 Q879.788 1937.06 879.788 1928.33 Q879.788 1919.58 882.843 1915 Q885.922 1910.39 891.732 1910.39 Z" fill="#000000" fill-rule="nonzero" fill-opacity="1" /><path clip-path="url(#clip500)" d="M1432.18 1941.64 L1448.5 1941.64 L1448.5 1945.58 L1426.55 1945.58 L1426.55 1941.64 Q1429.21 1938.89 1433.8 1934.26 Q1438.4 1929.61 1439.59 1928.26 Q1441.83 1925.74 1442.71 1924.01 Q1443.61 1922.25 1443.61 1920.56 Q1443.61 1917.8 1441.67 1916.07 Q1439.75 1914.33 1436.65 1914.33 Q1434.45 1914.33 1431.99 1915.09 Q1429.56 1915.86 1426.78 1917.41 L1426.78 1912.69 Q1429.61 1911.55 1432.06 1910.97 Q1434.52 1910.39 1436.55 1910.39 Q1441.92 1910.39 1445.12 1913.08 Q1448.31 1915.76 1448.31 1920.26 Q1448.31 1922.38 1447.5 1924.31 Q1446.71 1926.2 1444.61 1928.8 Q1444.03 1929.47 1440.93 1932.69 Q1437.83 1935.88 1432.18 1941.64 Z" fill="#000000" fill-rule="nonzero" fill-opacity="1" /><path clip-path="url(#clip500)" d="M1468.31 1914.1 Q1464.7 1914.1 1462.87 1917.66 Q1461.07 1921.2 1461.07 1928.33 Q1461.07 1935.44 1462.87 1939.01 Q1464.7 1942.55 1468.31 1942.55 Q1471.95 1942.55 1473.75 1939.01 Q1475.58 1935.44 1475.58 1928.33 Q1475.58 1921.2 1473.75 1917.66 Q1471.95 1914.1 1468.31 1914.1 M1468.31 1910.39 Q1474.12 1910.39 1477.18 1915 Q1480.26 1919.58 1480.26 1928.33 Q1480.26 1937.06 1477.18 1941.67 Q1474.12 1946.25 1468.31 1946.25 Q1462.5 1946.25 1459.42 1941.67 Q1456.37 1937.06 1456.37 1928.33 Q1456.37 1919.58 1459.42 1915 Q1462.5 1910.39 1468.31 1910.39 Z" fill="#000000" fill-rule="nonzero" fill-opacity="1" /><path clip-path="url(#clip500)" d="M1498.47 1914.1 Q1494.86 1914.1 1493.03 1917.66 Q1491.23 1921.2 1491.23 1928.33 Q1491.23 1935.44 1493.03 1939.01 Q1494.86 1942.55 1498.47 1942.55 Q1502.11 1942.55 1503.91 1939.01 Q1505.74 1935.44 1505.74 1928.33 Q1505.74 1921.2 1503.91 1917.66 Q1502.11 1914.1 1498.47 1914.1 M1498.47 1910.39 Q1504.28 1910.39 1507.34 1915 Q1510.42 1919.58 1510.42 1928.33 Q1510.42 1937.06 1507.34 1941.67 Q1504.28 1946.25 1498.47 1946.25 Q1492.66 1946.25 1489.59 1941.67 Q1486.53 1937.06 1486.53 1928.33 Q1486.53 1919.58 1489.59 1915 Q1492.66 1910.39 1498.47 1910.39 Z" fill="#000000" fill-rule="nonzero" fill-opacity="1" /><path clip-path="url(#clip500)" d="M2048.12 1926.95 Q2051.48 1927.66 2053.35 1929.93 Q2055.25 1932.2 2055.25 1935.53 Q2055.25 1940.65 2051.73 1943.45 Q2048.21 1946.25 2041.73 1946.25 Q2039.56 1946.25 2037.24 1945.81 Q2034.95 1945.39 2032.5 1944.54 L2032.5 1940.02 Q2034.44 1941.16 2036.76 1941.74 Q2039.07 1942.32 2041.59 1942.32 Q2045.99 1942.32 2048.28 1940.58 Q2050.6 1938.84 2050.6 1935.53 Q2050.6 1932.48 2048.44 1930.76 Q2046.32 1929.03 2042.5 1929.03 L2038.47 1929.03 L2038.47 1925.19 L2042.68 1925.19 Q2046.13 1925.19 2047.96 1923.82 Q2049.79 1922.43 2049.79 1919.84 Q2049.79 1917.18 2047.89 1915.76 Q2046.01 1914.33 2042.5 1914.33 Q2040.57 1914.33 2038.38 1914.75 Q2036.18 1915.16 2033.54 1916.04 L2033.54 1911.88 Q2036.2 1911.14 2038.51 1910.76 Q2040.85 1910.39 2042.91 1910.39 Q2048.24 1910.39 2051.34 1912.82 Q2054.44 1915.23 2054.44 1919.35 Q2054.44 1922.22 2052.8 1924.21 Q2051.15 1926.18 2048.12 1926.95 Z" fill="#000000" fill-rule="nonzero" fill-opacity="1" /><path clip-path="url(#clip500)" d="M2074.12 1914.1 Q2070.51 1914.1 2068.68 1917.66 Q2066.87 1921.2 2066.87 1928.33 Q2066.87 1935.44 2068.68 1939.01 Q2070.51 1942.55 2074.12 1942.55 Q2077.75 1942.55 2079.56 1939.01 Q2081.38 1935.44 2081.38 1928.33 Q2081.38 1921.2 2079.56 1917.66 Q2077.75 1914.1 2074.12 1914.1 M2074.12 1910.39 Q2079.93 1910.39 2082.98 1915 Q2086.06 1919.58 2086.06 1928.33 Q2086.06 1937.06 2082.98 1941.67 Q2079.93 1946.25 2074.12 1946.25 Q2068.31 1946.25 2065.23 1941.67 Q2062.17 1937.06 2062.17 1928.33 Q2062.17 1919.58 2065.23 1915 Q2068.31 1910.39 2074.12 1910.39 Z" fill="#000000" fill-rule="nonzero" fill-opacity="1" /><path clip-path="url(#clip500)" d="M2104.28 1914.1 Q2100.67 1914.1 2098.84 1917.66 Q2097.03 1921.2 2097.03 1928.33 Q2097.03 1935.44 2098.84 1939.01 Q2100.67 1942.55 2104.28 1942.55 Q2107.91 1942.55 2109.72 1939.01 Q2111.55 1935.44 2111.55 1928.33 Q2111.55 1921.2 2109.72 1917.66 Q2107.91 1914.1 2104.28 1914.1 M2104.28 1910.39 Q2110.09 1910.39 2113.14 1915 Q2116.22 1919.58 2116.22 1928.33 Q2116.22 1937.06 2113.14 1941.67 Q2110.09 1946.25 2104.28 1946.25 Q2098.47 1946.25 2095.39 1941.67 Q2092.33 1937.06 2092.33 1928.33 Q2092.33 1919.58 2095.39 1915 Q2098.47 1910.39 2104.28 1910.39 Z" fill="#000000" fill-rule="nonzero" fill-opacity="1" /><path clip-path="url(#clip500)" d="M2653.32 1915.09 L2641.52 1933.54 L2653.32 1933.54 L2653.32 1915.09 M2652.1 1911.02 L2657.98 1911.02 L2657.98 1933.54 L2662.91 1933.54 L2662.91 1937.43 L2657.98 1937.43 L2657.98 1945.58 L2653.32 1945.58 L2653.32 1937.43 L2637.72 1937.43 L2637.72 1932.92 L2652.1 1911.02 Z" fill="#000000" fill-rule="nonzero" fill-opacity="1" /><path clip-path="url(#clip500)" d="M2680.64 1914.1 Q2677.03 1914.1 2675.2 1917.66 Q2673.39 1921.2 2673.39 1928.33 Q2673.39 1935.44 2675.2 1939.01 Q2677.03 1942.55 2680.64 1942.55 Q2684.27 1942.55 2686.08 1939.01 Q2687.91 1935.44 2687.91 1928.33 Q2687.91 1921.2 2686.08 1917.66 Q2684.27 1914.1 2680.64 1914.1 M2680.64 1910.39 Q2686.45 1910.39 2689.5 1915 Q2692.58 1919.58 2692.58 1928.33 Q2692.58 1937.06 2689.5 1941.67 Q2686.45 1946.25 2680.64 1946.25 Q2674.83 1946.25 2671.75 1941.67 Q2668.69 1937.06 2668.69 1928.33 Q2668.69 1919.58 2671.75 1915 Q2674.83 1910.39 2680.64 1910.39 Z" fill="#000000" fill-rule="nonzero" fill-opacity="1" /><path clip-path="url(#clip500)" d="M2710.8 1914.1 Q2707.19 1914.1 2705.36 1917.66 Q2703.55 1921.2 2703.55 1928.33 Q2703.55 1935.44 2705.36 1939.01 Q2707.19 1942.55 2710.8 1942.55 Q2714.43 1942.55 2716.24 1939.01 Q2718.07 1935.44 2718.07 1928.33 Q2718.07 1921.2 2716.24 1917.66 Q2714.43 1914.1 2710.8 1914.1 M2710.8 1910.39 Q2716.61 1910.39 2719.67 1915 Q2722.74 1919.58 2722.74 1928.33 Q2722.74 1937.06 2719.67 1941.67 Q2716.61 1946.25 2710.8 1946.25 Q2704.99 1946.25 2701.91 1941.67 Q2698.86 1937.06 2698.86 1928.33 Q2698.86 1919.58 2701.91 1915 Q2704.99 1910.39 2710.8 1910.39 Z" fill="#000000" fill-rule="nonzero" fill-opacity="1" /><polyline clip-path="url(#clip502)" style="stroke:#000000; stroke-linecap:round; stroke-linejoin:round; stroke-width:2; stroke-opacity:0.1; fill:none" points="190.274,1830.39 2752.76,1830.39 "/>
<polyline clip-path="url(#clip502)" style="stroke:#000000; stroke-linecap:round; stroke-linejoin:round; stroke-width:2; stroke-opacity:0.1; fill:none" points="190.274,1417.14 2752.76,1417.14 "/>
<polyline clip-path="url(#clip502)" style="stroke:#000000; stroke-linecap:round; stroke-linejoin:round; stroke-width:2; stroke-opacity:0.1; fill:none" points="190.274,1003.89 2752.76,1003.89 "/>
<polyline clip-path="url(#clip502)" style="stroke:#000000; stroke-linecap:round; stroke-linejoin:round; stroke-width:2; stroke-opacity:0.1; fill:none" points="190.274,590.634 2752.76,590.634 "/>
<polyline clip-path="url(#clip502)" style="stroke:#000000; stroke-linecap:round; stroke-linejoin:round; stroke-width:2; stroke-opacity:0.1; fill:none" points="190.274,177.382 2752.76,177.382 "/>
<polyline clip-path="url(#clip500)" style="stroke:#000000; stroke-linecap:round; stroke-linejoin:round; stroke-width:4; stroke-opacity:1; fill:none" points="190.274,1879.98 190.274,127.792 "/>
<polyline clip-path="url(#clip500)" style="stroke:#000000; stroke-linecap:round; stroke-linejoin:round; stroke-width:4; stroke-opacity:1; fill:none" points="190.274,1830.39 209.172,1830.39 "/>
<polyline clip-path="url(#clip500)" style="stroke:#000000; stroke-linecap:round; stroke-linejoin:round; stroke-width:4; stroke-opacity:1; fill:none" points="190.274,1417.14 209.172,1417.14 "/>
<polyline clip-path="url(#clip500)" style="stroke:#000000; stroke-linecap:round; stroke-linejoin:round; stroke-width:4; stroke-opacity:1; fill:none" points="190.274,1003.89 209.172,1003.89 "/>
<polyline clip-path="url(#clip500)" style="stroke:#000000; stroke-linecap:round; stroke-linejoin:round; stroke-width:4; stroke-opacity:1; fill:none" points="190.274,590.634 209.172,590.634 "/>
<polyline clip-path="url(#clip500)" style="stroke:#000000; stroke-linecap:round; stroke-linejoin:round; stroke-width:4; stroke-opacity:1; fill:none" points="190.274,177.382 209.172,177.382 "/>
<path clip-path="url(#clip500)" d="M60.9365 1816.19 Q57.3254 1816.19 55.4967 1819.75 Q53.6912 1823.29 53.6912 1830.42 Q53.6912 1837.53 55.4967 1841.1 Q57.3254 1844.64 60.9365 1844.64 Q64.5707 1844.64 66.3763 1841.1 Q68.205 1837.53 68.205 1830.42 Q68.205 1823.29 66.3763 1819.75 Q64.5707 1816.19 60.9365 1816.19 M60.9365 1812.48 Q66.7467 1812.48 69.8022 1817.09 Q72.8809 1821.67 72.8809 1830.42 Q72.8809 1839.15 69.8022 1843.76 Q66.7467 1848.34 60.9365 1848.34 Q55.1264 1848.34 52.0477 1843.76 Q48.9921 1839.15 48.9921 1830.42 Q48.9921 1821.67 52.0477 1817.09 Q55.1264 1812.48 60.9365 1812.48 Z" fill="#000000" fill-rule="nonzero" fill-opacity="1" /><path clip-path="url(#clip500)" d="M81.0984 1841.79 L85.9827 1841.79 L85.9827 1847.67 L81.0984 1847.67 L81.0984 1841.79 Z" fill="#000000" fill-rule="nonzero" fill-opacity="1" /><path clip-path="url(#clip500)" d="M106.168 1816.19 Q102.557 1816.19 100.728 1819.75 Q98.9224 1823.29 98.9224 1830.42 Q98.9224 1837.53 100.728 1841.1 Q102.557 1844.64 106.168 1844.64 Q109.802 1844.64 111.608 1841.1 Q113.436 1837.53 113.436 1830.42 Q113.436 1823.29 111.608 1819.75 Q109.802 1816.19 106.168 1816.19 M106.168 1812.48 Q111.978 1812.48 115.033 1817.09 Q118.112 1821.67 118.112 1830.42 Q118.112 1839.15 115.033 1843.76 Q111.978 1848.34 106.168 1848.34 Q100.358 1848.34 97.2789 1843.76 Q94.2234 1839.15 94.2234 1830.42 Q94.2234 1821.67 97.2789 1817.09 Q100.358 1812.48 106.168 1812.48 Z" fill="#000000" fill-rule="nonzero" fill-opacity="1" /><path clip-path="url(#clip500)" d="M136.33 1816.19 Q132.719 1816.19 130.89 1819.75 Q129.084 1823.29 129.084 1830.42 Q129.084 1837.53 130.89 1841.1 Q132.719 1844.64 136.33 1844.64 Q139.964 1844.64 141.769 1841.1 Q143.598 1837.53 143.598 1830.42 Q143.598 1823.29 141.769 1819.75 Q139.964 1816.19 136.33 1816.19 M136.33 1812.48 Q142.14 1812.48 145.195 1817.09 Q148.274 1821.67 148.274 1830.42 Q148.274 1839.15 145.195 1843.76 Q142.14 1848.34 136.33 1848.34 Q130.519 1848.34 127.441 1843.76 Q124.385 1839.15 124.385 1830.42 Q124.385 1821.67 127.441 1817.09 Q130.519 1812.48 136.33 1812.48 Z" fill="#000000" fill-rule="nonzero" fill-opacity="1" /><path clip-path="url(#clip500)" d="M61.9319 1402.94 Q58.3208 1402.94 56.4921 1406.5 Q54.6865 1410.04 54.6865 1417.17 Q54.6865 1424.28 56.4921 1427.84 Q58.3208 1431.39 61.9319 1431.39 Q65.5661 1431.39 67.3717 1427.84 Q69.2004 1424.28 69.2004 1417.17 Q69.2004 1410.04 67.3717 1406.5 Q65.5661 1402.94 61.9319 1402.94 M61.9319 1399.23 Q67.742 1399.23 70.7976 1403.84 Q73.8763 1408.42 73.8763 1417.17 Q73.8763 1425.9 70.7976 1430.51 Q67.742 1435.09 61.9319 1435.09 Q56.1217 1435.09 53.043 1430.51 Q49.9875 1425.9 49.9875 1417.17 Q49.9875 1408.42 53.043 1403.84 Q56.1217 1399.23 61.9319 1399.23 Z" fill="#000000" fill-rule="nonzero" fill-opacity="1" /><path clip-path="url(#clip500)" d="M82.0938 1428.54 L86.978 1428.54 L86.978 1434.42 L82.0938 1434.42 L82.0938 1428.54 Z" fill="#000000" fill-rule="nonzero" fill-opacity="1" /><path clip-path="url(#clip500)" d="M101.191 1430.48 L117.51 1430.48 L117.51 1434.42 L95.566 1434.42 L95.566 1430.48 Q98.228 1427.73 102.811 1423.1 Q107.418 1418.45 108.598 1417.1 Q110.844 1414.58 111.723 1412.84 Q112.626 1411.08 112.626 1409.39 Q112.626 1406.64 110.682 1404.9 Q108.76 1403.17 105.658 1403.17 Q103.459 1403.17 101.006 1403.93 Q98.5752 1404.7 95.7974 1406.25 L95.7974 1401.52 Q98.6215 1400.39 101.075 1399.81 Q103.529 1399.23 105.566 1399.23 Q110.936 1399.23 114.131 1401.92 Q117.325 1404.6 117.325 1409.09 Q117.325 1411.22 116.515 1413.14 Q115.728 1415.04 113.621 1417.64 Q113.043 1418.31 109.941 1421.52 Q106.839 1424.72 101.191 1430.48 Z" fill="#000000" fill-rule="nonzero" fill-opacity="1" /><path clip-path="url(#clip500)" d="M127.371 1399.86 L145.728 1399.86 L145.728 1403.79 L131.654 1403.79 L131.654 1412.26 Q132.672 1411.92 133.691 1411.76 Q134.709 1411.57 135.728 1411.57 Q141.515 1411.57 144.894 1414.74 Q148.274 1417.91 148.274 1423.33 Q148.274 1428.91 144.802 1432.01 Q141.33 1435.09 135.01 1435.09 Q132.834 1435.09 130.566 1434.72 Q128.32 1434.35 125.913 1433.61 L125.913 1428.91 Q127.996 1430.04 130.219 1430.6 Q132.441 1431.15 134.918 1431.15 Q138.922 1431.15 141.26 1429.05 Q143.598 1426.94 143.598 1423.33 Q143.598 1419.72 141.26 1417.61 Q138.922 1415.51 134.918 1415.51 Q133.043 1415.51 131.168 1415.92 Q129.316 1416.34 127.371 1417.22 L127.371 1399.86 Z" fill="#000000" fill-rule="nonzero" fill-opacity="1" /><path clip-path="url(#clip500)" d="M60.9365 989.684 Q57.3254 989.684 55.4967 993.249 Q53.6912 996.791 53.6912 1003.92 Q53.6912 1011.03 55.4967 1014.59 Q57.3254 1018.13 60.9365 1018.13 Q64.5707 1018.13 66.3763 1014.59 Q68.205 1011.03 68.205 1003.92 Q68.205 996.791 66.3763 993.249 Q64.5707 989.684 60.9365 989.684 M60.9365 985.981 Q66.7467 985.981 69.8022 990.587 Q72.8809 995.17 72.8809 1003.92 Q72.8809 1012.65 69.8022 1017.25 Q66.7467 1021.84 60.9365 1021.84 Q55.1264 1021.84 52.0477 1017.25 Q48.9921 1012.65 48.9921 1003.92 Q48.9921 995.17 52.0477 990.587 Q55.1264 985.981 60.9365 985.981 Z" fill="#000000" fill-rule="nonzero" fill-opacity="1" /><path clip-path="url(#clip500)" d="M81.0984 1015.29 L85.9827 1015.29 L85.9827 1021.17 L81.0984 1021.17 L81.0984 1015.29 Z" fill="#000000" fill-rule="nonzero" fill-opacity="1" /><path clip-path="url(#clip500)" d="M96.2141 986.606 L114.57 986.606 L114.57 990.541 L100.496 990.541 L100.496 999.013 Q101.515 998.666 102.534 998.504 Q103.552 998.319 104.571 998.319 Q110.358 998.319 113.737 1001.49 Q117.117 1004.66 117.117 1010.08 Q117.117 1015.66 113.645 1018.76 Q110.172 1021.84 103.853 1021.84 Q101.677 1021.84 99.4085 1021.47 Q97.1632 1021.1 94.7558 1020.36 L94.7558 1015.66 Q96.8391 1016.79 99.0613 1017.35 Q101.284 1017.9 103.76 1017.9 Q107.765 1017.9 110.103 1015.8 Q112.441 1013.69 112.441 1010.08 Q112.441 1006.47 110.103 1004.36 Q107.765 1002.25 103.76 1002.25 Q101.885 1002.25 100.01 1002.67 Q98.1585 1003.09 96.2141 1003.97 L96.2141 986.606 Z" fill="#000000" fill-rule="nonzero" fill-opacity="1" /><path clip-path="url(#clip500)" d="M136.33 989.684 Q132.719 989.684 130.89 993.249 Q129.084 996.791 129.084 1003.92 Q129.084 1011.03 130.89 1014.59 Q132.719 1018.13 136.33 1018.13 Q139.964 1018.13 141.769 1014.59 Q143.598 1011.03 143.598 1003.92 Q143.598 996.791 141.769 993.249 Q139.964 989.684 136.33 989.684 M136.33 985.981 Q142.14 985.981 145.195 990.587 Q148.274 995.17 148.274 1003.92 Q148.274 1012.65 145.195 1017.25 Q142.14 1021.84 136.33 1021.84 Q130.519 1021.84 127.441 1017.25 Q124.385 1012.65 124.385 1003.92 Q124.385 995.17 127.441 990.587 Q130.519 985.981 136.33 985.981 Z" fill="#000000" fill-rule="nonzero" fill-opacity="1" /><path clip-path="url(#clip500)" d="M61.9319 576.433 Q58.3208 576.433 56.4921 579.998 Q54.6865 583.539 54.6865 590.669 Q54.6865 597.775 56.4921 601.34 Q58.3208 604.882 61.9319 604.882 Q65.5661 604.882 67.3717 601.34 Q69.2004 597.775 69.2004 590.669 Q69.2004 583.539 67.3717 579.998 Q65.5661 576.433 61.9319 576.433 M61.9319 572.729 Q67.742 572.729 70.7976 577.335 Q73.8763 581.919 73.8763 590.669 Q73.8763 599.396 70.7976 604.002 Q67.742 608.585 61.9319 608.585 Q56.1217 608.585 53.043 604.002 Q49.9875 599.396 49.9875 590.669 Q49.9875 581.919 53.043 577.335 Q56.1217 572.729 61.9319 572.729 Z" fill="#000000" fill-rule="nonzero" fill-opacity="1" /><path clip-path="url(#clip500)" d="M82.0938 602.034 L86.978 602.034 L86.978 607.914 L82.0938 607.914 L82.0938 602.034 Z" fill="#000000" fill-rule="nonzero" fill-opacity="1" /><path clip-path="url(#clip500)" d="M95.9826 573.354 L118.205 573.354 L118.205 575.345 L105.658 607.914 L100.774 607.914 L112.58 577.289 L95.9826 577.289 L95.9826 573.354 Z" fill="#000000" fill-rule="nonzero" fill-opacity="1" /><path clip-path="url(#clip500)" d="M127.371 573.354 L145.728 573.354 L145.728 577.289 L131.654 577.289 L131.654 585.761 Q132.672 585.414 133.691 585.252 Q134.709 585.067 135.728 585.067 Q141.515 585.067 144.894 588.238 Q148.274 591.409 148.274 596.826 Q148.274 602.405 144.802 605.507 Q141.33 608.585 135.01 608.585 Q132.834 608.585 130.566 608.215 Q128.32 607.845 125.913 607.104 L125.913 602.405 Q127.996 603.539 130.219 604.095 Q132.441 604.65 134.918 604.65 Q138.922 604.65 141.26 602.544 Q143.598 600.437 143.598 596.826 Q143.598 593.215 141.26 591.109 Q138.922 589.002 134.918 589.002 Q133.043 589.002 131.168 589.419 Q129.316 589.835 127.371 590.715 L127.371 573.354 Z" fill="#000000" fill-rule="nonzero" fill-opacity="1" /><path clip-path="url(#clip500)" d="M51.7467 190.727 L59.3856 190.727 L59.3856 164.362 L51.0754 166.028 L51.0754 161.769 L59.3393 160.102 L64.0152 160.102 L64.0152 190.727 L71.654 190.727 L71.654 194.662 L51.7467 194.662 L51.7467 190.727 Z" fill="#000000" fill-rule="nonzero" fill-opacity="1" /><path clip-path="url(#clip500)" d="M81.0984 188.783 L85.9827 188.783 L85.9827 194.662 L81.0984 194.662 L81.0984 188.783 Z" fill="#000000" fill-rule="nonzero" fill-opacity="1" /><path clip-path="url(#clip500)" d="M106.168 163.181 Q102.557 163.181 100.728 166.746 Q98.9224 170.287 98.9224 177.417 Q98.9224 184.523 100.728 188.088 Q102.557 191.63 106.168 191.63 Q109.802 191.63 111.608 188.088 Q113.436 184.523 113.436 177.417 Q113.436 170.287 111.608 166.746 Q109.802 163.181 106.168 163.181 M106.168 159.477 Q111.978 159.477 115.033 164.084 Q118.112 168.667 118.112 177.417 Q118.112 186.144 115.033 190.75 Q111.978 195.334 106.168 195.334 Q100.358 195.334 97.2789 190.75 Q94.2234 186.144 94.2234 177.417 Q94.2234 168.667 97.2789 164.084 Q100.358 159.477 106.168 159.477 Z" fill="#000000" fill-rule="nonzero" fill-opacity="1" /><path clip-path="url(#clip500)" d="M136.33 163.181 Q132.719 163.181 130.89 166.746 Q129.084 170.287 129.084 177.417 Q129.084 184.523 130.89 188.088 Q132.719 191.63 136.33 191.63 Q139.964 191.63 141.769 188.088 Q143.598 184.523 143.598 177.417 Q143.598 170.287 141.769 166.746 Q139.964 163.181 136.33 163.181 M136.33 159.477 Q142.14 159.477 145.195 164.084 Q148.274 168.667 148.274 177.417 Q148.274 186.144 145.195 190.75 Q142.14 195.334 136.33 195.334 Q130.519 195.334 127.441 190.75 Q124.385 186.144 124.385 177.417 Q124.385 168.667 127.441 164.084 Q130.519 159.477 136.33 159.477 Z" fill="#000000" fill-rule="nonzero" fill-opacity="1" /><path clip-path="url(#clip500)" d="M1081.41 44.2197 Q1084.05 45.1109 1086.52 48.0275 Q1089.03 50.9442 1091.54 56.0483 L1099.84 72.576 L1091.05 72.576 L1083.32 57.061 Q1080.32 50.9847 1077.48 48.9997 Q1074.69 47.0148 1069.83 47.0148 L1060.92 47.0148 L1060.92 72.576 L1052.73 72.576 L1052.73 12.096 L1071.2 12.096 Q1081.57 12.096 1086.68 16.4305 Q1091.78 20.7649 1091.78 29.5149 Q1091.78 35.2267 1089.11 38.994 Q1086.48 42.7613 1081.41 44.2197 M1060.92 18.8205 L1060.92 40.2903 L1071.2 40.2903 Q1077.12 40.2903 1080.12 37.5762 Q1083.15 34.8216 1083.15 29.5149 Q1083.15 24.2082 1080.12 21.5346 Q1077.12 18.8205 1071.2 18.8205 L1060.92 18.8205 Z" fill="#000000" fill-rule="nonzero" fill-opacity="1" /><path clip-path="url(#clip500)" d="M1145.13 48.0275 L1145.13 51.6733 L1110.86 51.6733 Q1111.35 59.3701 1115.48 63.421 Q1119.65 67.4314 1127.07 67.4314 Q1131.36 67.4314 1135.37 66.3781 Q1139.42 65.3249 1143.39 63.2184 L1143.39 70.267 Q1139.38 71.9684 1135.17 72.8596 Q1130.96 73.7508 1126.62 73.7508 Q1115.76 73.7508 1109.4 67.4314 Q1103.09 61.1119 1103.09 50.3365 Q1103.09 39.1965 1109.08 32.6746 Q1115.12 26.1121 1125.32 26.1121 Q1134.48 26.1121 1139.79 32.0264 Q1145.13 37.9003 1145.13 48.0275 M1137.68 45.84 Q1137.6 39.7232 1134.24 36.0774 Q1130.91 32.4315 1125.41 32.4315 Q1119.17 32.4315 1115.4 35.9558 Q1111.67 39.4801 1111.11 45.8805 L1137.68 45.84 Z" fill="#000000" fill-rule="nonzero" fill-opacity="1" /><path clip-path="url(#clip500)" d="M1187.22 49.3643 Q1187.22 41.2625 1183.86 36.8065 Q1180.54 32.3505 1174.5 32.3505 Q1168.51 32.3505 1165.15 36.8065 Q1161.82 41.2625 1161.82 49.3643 Q1161.82 57.4256 1165.15 61.8816 Q1168.51 66.3376 1174.5 66.3376 Q1180.54 66.3376 1183.86 61.8816 Q1187.22 57.4256 1187.22 49.3643 M1194.68 66.9452 Q1194.68 78.5308 1189.53 84.1616 Q1184.39 89.8329 1173.77 89.8329 Q1169.84 89.8329 1166.36 89.2252 Q1162.88 88.6581 1159.6 87.4428 L1159.6 80.1917 Q1162.88 81.9741 1166.08 82.8248 Q1169.28 83.6755 1172.6 83.6755 Q1179.93 83.6755 1183.58 79.8271 Q1187.22 76.0193 1187.22 68.282 L1187.22 64.5957 Q1184.91 68.6061 1181.31 70.5911 Q1177.7 72.576 1172.68 72.576 Q1164.33 72.576 1159.23 66.2161 Q1154.13 59.8562 1154.13 49.3643 Q1154.13 38.832 1159.23 32.472 Q1164.33 26.1121 1172.68 26.1121 Q1177.7 26.1121 1181.31 28.0971 Q1184.91 30.082 1187.22 34.0924 L1187.22 27.2059 L1194.68 27.2059 L1194.68 66.9452 Z" fill="#000000" fill-rule="nonzero" fill-opacity="1" /><path clip-path="url(#clip500)" d="M1210.03 27.2059 L1217.48 27.2059 L1217.48 72.576 L1210.03 72.576 L1210.03 27.2059 M1210.03 9.54393 L1217.48 9.54393 L1217.48 18.9825 L1210.03 18.9825 L1210.03 9.54393 Z" fill="#000000" fill-rule="nonzero" fill-opacity="1" /><path clip-path="url(#clip500)" d="M1268.4 35.9153 Q1271.2 30.8922 1275.09 28.5022 Q1278.98 26.1121 1284.24 26.1121 Q1291.33 26.1121 1295.18 31.0947 Q1299.03 36.0368 1299.03 45.1919 L1299.03 72.576 L1291.53 72.576 L1291.53 45.4349 Q1291.53 38.913 1289.22 35.7533 Q1286.92 32.5936 1282.18 32.5936 Q1276.38 32.5936 1273.02 36.4419 Q1269.66 40.2903 1269.66 46.9338 L1269.66 72.576 L1262.16 72.576 L1262.16 45.4349 Q1262.16 38.8725 1259.86 35.7533 Q1257.55 32.5936 1252.73 32.5936 Q1247.01 32.5936 1243.65 36.4824 Q1240.29 40.3308 1240.29 46.9338 L1240.29 72.576 L1232.8 72.576 L1232.8 27.2059 L1240.29 27.2059 L1240.29 34.2544 Q1242.84 30.082 1246.41 28.0971 Q1249.97 26.1121 1254.87 26.1121 Q1259.81 26.1121 1263.26 28.6237 Q1266.74 31.1352 1268.4 35.9153 Z" fill="#000000" fill-rule="nonzero" fill-opacity="1" /><path clip-path="url(#clip500)" d="M1352.7 48.0275 L1352.7 51.6733 L1318.43 51.6733 Q1318.92 59.3701 1323.05 63.421 Q1327.22 67.4314 1334.63 67.4314 Q1338.93 67.4314 1342.94 66.3781 Q1346.99 65.3249 1350.96 63.2184 L1350.96 70.267 Q1346.95 71.9684 1342.74 72.8596 Q1338.52 73.7508 1334.19 73.7508 Q1323.33 73.7508 1316.97 67.4314 Q1310.65 61.1119 1310.65 50.3365 Q1310.65 39.1965 1316.65 32.6746 Q1322.68 26.1121 1332.89 26.1121 Q1342.05 26.1121 1347.35 32.0264 Q1352.7 37.9003 1352.7 48.0275 M1345.25 45.84 Q1345.17 39.7232 1341.81 36.0774 Q1338.48 32.4315 1332.97 32.4315 Q1326.74 32.4315 1322.97 35.9558 Q1319.24 39.4801 1318.67 45.8805 L1345.25 45.84 Z" fill="#000000" fill-rule="nonzero" fill-opacity="1" /><path clip-path="url(#clip500)" d="M1398.52 65.7705 L1398.52 89.8329 L1391.02 89.8329 L1391.02 27.2059 L1398.52 27.2059 L1398.52 34.0924 Q1400.87 30.0415 1404.43 28.0971 Q1408.04 26.1121 1413.02 26.1121 Q1421.28 26.1121 1426.43 32.6746 Q1431.61 39.2371 1431.61 49.9314 Q1431.61 60.6258 1426.43 67.1883 Q1421.28 73.7508 1413.02 73.7508 Q1408.04 73.7508 1404.43 71.8063 Q1400.87 69.8214 1398.52 65.7705 M1423.88 49.9314 Q1423.88 41.7081 1420.47 37.0496 Q1417.11 32.3505 1411.2 32.3505 Q1405.28 32.3505 1401.88 37.0496 Q1398.52 41.7081 1398.52 49.9314 Q1398.52 58.1548 1401.88 62.8538 Q1405.28 67.5124 1411.2 67.5124 Q1417.11 67.5124 1420.47 62.8538 Q1423.88 58.1548 1423.88 49.9314 Z" fill="#000000" fill-rule="nonzero" fill-opacity="1" /><path clip-path="url(#clip500)" d="M1470.26 34.1734 Q1469 33.4443 1467.5 33.1202 Q1466.05 32.7556 1464.26 32.7556 Q1457.94 32.7556 1454.54 36.8875 Q1451.18 40.9789 1451.18 48.6757 L1451.18 72.576 L1443.69 72.576 L1443.69 27.2059 L1451.18 27.2059 L1451.18 34.2544 Q1453.53 30.1225 1457.3 28.1376 Q1461.06 26.1121 1466.45 26.1121 Q1467.22 26.1121 1468.15 26.2337 Q1469.08 26.3147 1470.22 26.5172 L1470.26 34.1734 Z" fill="#000000" fill-rule="nonzero" fill-opacity="1" /><path clip-path="url(#clip500)" d="M1493.84 32.4315 Q1487.84 32.4315 1484.36 37.1306 Q1480.87 41.7891 1480.87 49.9314 Q1480.87 58.0738 1484.32 62.7728 Q1487.8 67.4314 1493.84 67.4314 Q1499.79 67.4314 1503.27 62.7323 Q1506.76 58.0333 1506.76 49.9314 Q1506.76 41.8701 1503.27 37.1711 Q1499.79 32.4315 1493.84 32.4315 M1493.84 26.1121 Q1503.56 26.1121 1509.11 32.4315 Q1514.66 38.7509 1514.66 49.9314 Q1514.66 61.0714 1509.11 67.4314 Q1503.56 73.7508 1493.84 73.7508 Q1484.07 73.7508 1478.52 67.4314 Q1473.01 61.0714 1473.01 49.9314 Q1473.01 38.7509 1478.52 32.4315 Q1484.07 26.1121 1493.84 26.1121 Z" fill="#000000" fill-rule="nonzero" fill-opacity="1" /><path clip-path="url(#clip500)" d="M1559.58 49.9314 Q1559.58 41.7081 1556.18 37.0496 Q1552.82 32.3505 1546.9 32.3505 Q1540.99 32.3505 1537.59 37.0496 Q1534.22 41.7081 1534.22 49.9314 Q1534.22 58.1548 1537.59 62.8538 Q1540.99 67.5124 1546.9 67.5124 Q1552.82 67.5124 1556.18 62.8538 Q1559.58 58.1548 1559.58 49.9314 M1534.22 34.0924 Q1536.57 30.0415 1540.14 28.0971 Q1543.74 26.1121 1548.73 26.1121 Q1556.99 26.1121 1562.13 32.6746 Q1567.32 39.2371 1567.32 49.9314 Q1567.32 60.6258 1562.13 67.1883 Q1556.99 73.7508 1548.73 73.7508 Q1543.74 73.7508 1540.14 71.8063 Q1536.57 69.8214 1534.22 65.7705 L1534.22 72.576 L1526.73 72.576 L1526.73 9.54393 L1534.22 9.54393 L1534.22 34.0924 Z" fill="#000000" fill-rule="nonzero" fill-opacity="1" /><path clip-path="url(#clip500)" d="M1600.29 49.7694 Q1591.26 49.7694 1587.78 51.8354 Q1584.29 53.9013 1584.29 58.8839 Q1584.29 62.8538 1586.88 65.2034 Q1589.52 67.5124 1594.01 67.5124 Q1600.21 67.5124 1603.94 63.1374 Q1607.71 58.7219 1607.71 51.4303 L1607.71 49.7694 L1600.29 49.7694 M1615.16 46.6907 L1615.16 72.576 L1607.71 72.576 L1607.71 65.6895 Q1605.15 69.8214 1601.35 71.8063 Q1597.54 73.7508 1592.03 73.7508 Q1585.06 73.7508 1580.93 69.8619 Q1576.84 65.9325 1576.84 59.3701 Q1576.84 51.7138 1581.94 47.825 Q1587.09 43.9361 1597.26 43.9361 L1607.71 43.9361 L1607.71 43.2069 Q1607.71 38.0623 1604.3 35.2672 Q1600.94 32.4315 1594.82 32.4315 Q1590.94 32.4315 1587.25 33.3632 Q1583.56 34.295 1580.16 36.1584 L1580.16 29.2718 Q1584.25 27.692 1588.1 26.9223 Q1591.95 26.1121 1595.59 26.1121 Q1605.44 26.1121 1610.3 31.2163 Q1615.16 36.3204 1615.16 46.6907 Z" fill="#000000" fill-rule="nonzero" fill-opacity="1" /><path clip-path="url(#clip500)" d="M1663.08 49.9314 Q1663.08 41.7081 1659.68 37.0496 Q1656.32 32.3505 1650.4 32.3505 Q1644.49 32.3505 1641.09 37.0496 Q1637.72 41.7081 1637.72 49.9314 Q1637.72 58.1548 1641.09 62.8538 Q1644.49 67.5124 1650.4 67.5124 Q1656.32 67.5124 1659.68 62.8538 Q1663.08 58.1548 1663.08 49.9314 M1637.72 34.0924 Q1640.07 30.0415 1643.64 28.0971 Q1647.24 26.1121 1652.23 26.1121 Q1660.49 26.1121 1665.63 32.6746 Q1670.82 39.2371 1670.82 49.9314 Q1670.82 60.6258 1665.63 67.1883 Q1660.49 73.7508 1652.23 73.7508 Q1647.24 73.7508 1643.64 71.8063 Q1640.07 69.8214 1637.72 65.7705 L1637.72 72.576 L1630.23 72.576 L1630.23 9.54393 L1637.72 9.54393 L1637.72 34.0924 Z" fill="#000000" fill-rule="nonzero" fill-opacity="1" /><path clip-path="url(#clip500)" d="M1683.17 27.2059 L1690.63 27.2059 L1690.63 72.576 L1683.17 72.576 L1683.17 27.2059 M1683.17 9.54393 L1690.63 9.54393 L1690.63 18.9825 L1683.17 18.9825 L1683.17 9.54393 Z" fill="#000000" fill-rule="nonzero" fill-opacity="1" /><path clip-path="url(#clip500)" d="M1706.22 9.54393 L1713.68 9.54393 L1713.68 72.576 L1706.22 72.576 L1706.22 9.54393 Z" fill="#000000" fill-rule="nonzero" fill-opacity="1" /><path clip-path="url(#clip500)" d="M1729.27 27.2059 L1736.73 27.2059 L1736.73 72.576 L1729.27 72.576 L1729.27 27.2059 M1729.27 9.54393 L1736.73 9.54393 L1736.73 18.9825 L1729.27 18.9825 L1729.27 9.54393 Z" fill="#000000" fill-rule="nonzero" fill-opacity="1" /><path clip-path="url(#clip500)" d="M1759.7 14.324 L1759.7 27.2059 L1775.05 27.2059 L1775.05 32.9987 L1759.7 32.9987 L1759.7 57.6282 Q1759.7 63.1779 1761.2 64.7578 Q1762.73 66.3376 1767.39 66.3376 L1775.05 66.3376 L1775.05 72.576 L1767.39 72.576 Q1758.76 72.576 1755.48 69.3758 Q1752.2 66.1351 1752.2 57.6282 L1752.2 32.9987 L1746.73 32.9987 L1746.73 27.2059 L1752.2 27.2059 L1752.2 14.324 L1759.7 14.324 Z" fill="#000000" fill-rule="nonzero" fill-opacity="1" /><path clip-path="url(#clip500)" d="M1784.85 27.2059 L1792.31 27.2059 L1792.31 72.576 L1784.85 72.576 L1784.85 27.2059 M1784.85 9.54393 L1792.31 9.54393 L1792.31 18.9825 L1784.85 18.9825 L1784.85 9.54393 Z" fill="#000000" fill-rule="nonzero" fill-opacity="1" /><path clip-path="url(#clip500)" d="M1846.71 48.0275 L1846.71 51.6733 L1812.44 51.6733 Q1812.93 59.3701 1817.06 63.421 Q1821.23 67.4314 1828.64 67.4314 Q1832.94 67.4314 1836.95 66.3781 Q1841 65.3249 1844.97 63.2184 L1844.97 70.267 Q1840.96 71.9684 1836.74 72.8596 Q1832.53 73.7508 1828.2 73.7508 Q1817.34 73.7508 1810.98 67.4314 Q1804.66 61.1119 1804.66 50.3365 Q1804.66 39.1965 1810.66 32.6746 Q1816.69 26.1121 1826.9 26.1121 Q1836.06 26.1121 1841.36 32.0264 Q1846.71 37.9003 1846.71 48.0275 M1839.26 45.84 Q1839.18 39.7232 1835.81 36.0774 Q1832.49 32.4315 1826.98 32.4315 Q1820.74 32.4315 1816.98 35.9558 Q1813.25 39.4801 1812.68 45.8805 L1839.26 45.84 Z" fill="#000000" fill-rule="nonzero" fill-opacity="1" /><path clip-path="url(#clip500)" d="M1887.87 28.5427 L1887.87 35.5912 Q1884.71 33.9709 1881.3 33.1607 Q1877.9 32.3505 1874.26 32.3505 Q1868.71 32.3505 1865.91 34.0519 Q1863.16 35.7533 1863.16 39.156 Q1863.16 41.7486 1865.14 43.2475 Q1867.13 44.7058 1873.12 46.0426 L1875.67 46.6097 Q1883.61 48.3111 1886.94 51.4303 Q1890.3 54.509 1890.3 60.0587 Q1890.3 66.3781 1885.27 70.0644 Q1880.29 73.7508 1871.54 73.7508 Q1867.9 73.7508 1863.93 73.0216 Q1860 72.3329 1855.62 70.9151 L1855.62 63.2184 Q1859.75 65.3654 1863.76 66.4591 Q1867.77 67.5124 1871.7 67.5124 Q1876.97 67.5124 1879.81 65.73 Q1882.64 63.9071 1882.64 60.6258 Q1882.64 57.5877 1880.58 55.9673 Q1878.55 54.3469 1871.62 52.8481 L1869.03 52.2405 Q1862.1 50.7821 1859.02 47.7845 Q1855.95 44.7463 1855.95 39.4801 Q1855.95 33.0797 1860.48 29.5959 Q1865.02 26.1121 1873.36 26.1121 Q1877.5 26.1121 1881.14 26.7198 Q1884.79 27.3274 1887.87 28.5427 Z" fill="#000000" fill-rule="nonzero" fill-opacity="1" /><polyline clip-path="url(#clip502)" style="stroke:#009af9; stroke-linecap:round; stroke-linejoin:round; stroke-width:8; stroke-opacity:1; fill:none" points="262.797,925.672 268.856,1830.37 274.915,1654.71 280.973,1600.68 287.032,1828.37 293.091,1822.17 299.149,1830.33 305.208,1830.39 311.267,1739.11 317.326,837.505 323.384,883.219 329.443,584.661 335.502,180.329 341.561,719.734 347.619,1819.92 353.678,1687.32 359.737,1811.64 365.796,1829.5 371.854,1830.39 377.913,1827.91 383.972,1640.76 390.031,1805.38 396.089,1169.86 402.148,177.703 408.207,211.312 414.265,208.946 420.324,206.582 426.383,251.318 432.442,283.317 438.5,309.857 444.559,638.806 450.618,318.595 456.677,357.328 462.735,369.458 468.794,267.918 474.853,266.714 480.912,208.319 486.97,196.297 493.029,322 499.088,332.994 505.147,305.66 511.205,177.462 517.264,259.656 523.323,180.607 529.381,217.975 535.44,178.393 541.499,204.127 547.558,185.676 553.616,177.383 559.675,188.807 565.734,237.827 571.793,179.36 577.851,177.711 583.91,214.718 589.969,250.266 596.028,201.312 602.086,178.059 608.145,189.112 614.204,254.01 620.263,258.907 626.321,407.313 632.38,409.502 638.439,240.988 644.497,221.398 650.556,193.176 656.615,231.712 662.674,181.016 668.732,184.499 674.791,345.447 680.85,323.679 686.909,177.432 692.967,183.987 699.026,211.495 705.085,268.266 711.144,187.162 717.202,177.74 723.261,182.939 729.32,186.298 735.379,282.149 741.437,264.316 747.496,279.777 753.555,223.918 759.613,267.306 765.672,246.281 771.731,188.047 777.79,193.174 783.848,205.832 789.907,224.52 795.966,178.543 802.025,177.475 808.083,253.421 814.142,184.625 820.201,266.49 826.26,181.307 832.318,309.57 838.377,308.16 844.436,343.194 850.494,449.203 856.553,350.719 862.612,196.66 868.671,226.031 874.729,178.499 880.788,184.902 886.847,549.145 892.906,179.48 898.964,212.756 905.023,326.151 911.082,587.773 917.141,298.902 923.199,315.893 929.258,292.82 935.317,251.254 941.376,177.645 947.434,250.077 953.493,255.308 959.552,210.181 965.61,214.2 971.669,290.253 977.728,1816.56 983.787,1803.2 989.845,1699.41 995.904,1090 1001.96,866.2 1008.02,916.562 1014.08,570.398 1020.14,613.38 1026.2,303.839 1032.26,178.978 1038.32,316.311 1044.37,223.094 1050.43,247.252 1056.49,410.864 1062.55,417.662 1068.61,1826.26 1074.67,1820.87 1080.73,1707.42 1086.79,1827.16 1092.84,1706.04 1098.9,1476.49 1104.96,301.345 1111.02,422.804 1117.08,468.412 1123.14,398.908 1129.2,314.11 1135.26,189.97 1141.31,412.571 1147.37,1341.14 1153.43,979.307 1159.49,676.543 1165.55,999.032 1171.61,432.502 1177.67,177.643 1183.72,219.865 1189.78,219.028 1195.84,177.401 1201.9,179.808 1207.96,231.307 1214.02,180.975 1220.08,177.566 1226.14,228.521 1232.19,246.209 1238.25,198.671 1244.31,222.381 1250.37,195.041 1256.43,438.29 1262.49,190.957 1268.55,200.244 1274.61,353 1280.66,369.668 1286.72,405.136 1292.78,475.123 1298.84,459.534 1304.9,283.693 1310.96,296.18 1317.02,347.171 1323.08,241.598 1329.13,263.163 1335.19,232.983 1341.25,261.883 1347.31,1525.84 1353.37,1709.54 1359.43,1830.39 1365.49,1812.29 1371.55,1735.05 1377.6,1058.58 1383.66,985.703 1389.72,593.224 1395.78,209.664 1401.84,713.924 1407.9,195.343 1413.96,1048.86 1420.02,190.931 1426.07,1803.38 1432.13,1830.39 1438.19,1809.24 1444.25,1554.36 1450.31,1830.39 1456.37,1677.82 1462.43,1829.62 1468.49,1710.55 1474.54,1794.71 1480.6,1467.75 1486.66,1679.16 1492.72,1830.39 1498.78,1655.37 1504.84,1820.77 1510.9,1675.58 1516.96,1830.22 1523.01,1780.53 1529.07,1667.34 1535.13,995.367 1541.19,847.928 1547.25,922.855 1553.31,475.365 1559.37,1028.1 1565.43,972.265 1571.48,1209.82 1577.54,1174.8 1583.6,1830.13 1589.66,1796.11 1595.72,1684.53 1601.78,1627.74 1607.84,1806.98 1613.9,1763.18 1619.95,1608.59 1626.01,280.044 1632.07,1830.39 1638.13,1829.28 1644.19,1766.28 1650.25,1655.64 1656.31,1742.72 1662.37,1829.94 1668.42,1829.92 1674.48,1830.39 1680.54,1728.2 1686.6,1802.15 1692.66,1639.62 1698.72,1828.98 1704.78,1814.83 1710.84,1814.99 1716.89,1830.39 1722.95,1824.85 1729.01,1830.08 1735.07,1483.16 1741.13,1543.77 1747.19,1699.48 1753.25,1635.81 1759.3,1380.29 1765.36,1830.39 1771.42,1829.66 1777.48,1494.42 1783.54,1421.79 1789.6,1388.86 1795.66,1581.36 1801.72,1751.09 1807.77,1613.57 1813.83,1829 1819.89,694.038 1825.95,248.773 1832.01,182.527 1838.07,181.862 1844.13,185.323 1850.19,210.615 1856.24,226.765 1862.3,206.253 1868.36,177.386 1874.42,221.189 1880.48,272.595 1886.54,202.574 1892.6,195.369 1898.66,196.297 1904.71,210.882 1910.77,247.397 1916.83,190.905 1922.89,221.97 1928.95,203.793 1935.01,180.76 1941.07,178.404 1947.13,177.564 1953.18,177.793 1959.24,177.383 1965.3,178.55 1971.36,223.221 1977.42,185.813 1983.48,214.281 1989.54,229.718 1995.6,261.902 2001.65,187.429 2007.71,229.194 2013.77,245.895 2019.83,203.199 2025.89,181.373 2031.95,221.108 2038.01,578.578 2044.07,1105.88 2050.12,177.664 2056.18,231.493 2062.24,477.983 2068.3,576.048 2074.36,1010.36 2080.42,716.298 2086.48,639.906 2092.54,239.454 2098.59,186.034 2104.65,178.697 2110.71,209.106 2116.77,244.101 2122.83,193.018 2128.89,184.711 2134.95,228.225 2141.01,267.191 2147.06,268.724 2153.12,188.999 2159.18,178.54 2165.24,251.454 2171.3,177.416 2177.36,177.387 2183.42,189.602 2189.48,195.593 2195.53,183.314 2201.59,227.543 2207.65,285.547 2213.71,283.437 2219.77,291.655 2225.83,177.663 2231.89,243.829 2237.95,177.503 2244,201.442 2250.06,210.488 2256.12,185.292 2262.18,182.924 2268.24,196.279 2274.3,221.236 2280.36,271.276 2286.41,340.196 2292.47,318.784 2298.53,213.157 2304.59,1794.68 2310.65,197.16 2316.71,177.588 2322.77,212.442 2328.83,177.872 2334.88,224.156 2340.94,178.097 2347,275.033 2353.06,273.164 2359.12,282.184 2365.18,198.166 2371.24,236.325 2377.3,195.202 2383.35,231.793 2389.41,293.136 2395.47,340.421 2401.53,341.958 2407.59,1798.65 2413.65,1830.2 2419.71,1825.1 2425.77,1665.76 2431.82,1309.56 2437.88,1529.84 2443.94,687.098 2450,352.289 2456.06,255.15 2462.12,179.15 2468.18,210.386 2474.24,195.878 2480.29,185.24 2486.35,583.658 2492.41,220.795 2498.47,303.066 2504.53,177.44 2510.59,177.456 2516.65,256.38 2522.71,192.163 2528.76,202.594 2534.82,259.738 2540.88,270.411 2546.94,251.964 2553,212.995 2559.06,218.999 2565.12,229.155 2571.18,278.231 2577.23,256.35 2583.29,254.204 2589.35,199.781 2595.41,242.217 2601.47,379.55 2607.53,190.665 2613.59,177.705 2619.65,177.562 2625.7,255.276 2631.76,193.446 2637.82,183.55 2643.88,220.703 2649.94,189.375 2656,217.637 2662.06,178.404 2668.12,177.848 2674.17,178.029 2680.23,220.434 "/>
<polyline clip-path="url(#clip502)" style="stroke:#e26f46; stroke-linecap:round; stroke-linejoin:round; stroke-width:8; stroke-opacity:1; fill:none" points="262.797,1082.1 268.856,177.401 274.915,353.057 280.973,407.092 287.032,179.401 293.091,185.603 299.149,177.443 305.208,177.383 311.267,268.661 317.326,1170.27 323.384,1124.55 329.443,1423.11 335.502,1827.44 341.561,1288.04 347.619,187.854 353.678,320.447 359.737,196.135 365.796,178.276 371.854,177.382 377.913,179.861 383.972,367.009 390.031,202.387 396.089,837.916 402.148,1830.07 408.207,1796.46 414.265,1798.83 420.324,1801.19 426.383,1756.45 432.442,1724.45 438.5,1697.91 444.559,1368.97 450.618,1689.18 456.677,1650.44 462.735,1638.31 468.794,1739.85 474.853,1741.06 480.912,1799.45 486.97,1811.47 493.029,1685.77 499.088,1674.78 505.147,1702.11 511.205,1830.31 517.264,1748.12 523.323,1827.16 529.381,1789.8 535.44,1829.38 541.499,1803.64 547.558,1822.1 553.616,1830.39 559.675,1818.96 565.734,1769.94 571.793,1828.41 577.851,1830.06 583.91,1793.05 589.969,1757.51 596.028,1806.46 602.086,1829.71 608.145,1818.66 614.204,1753.76 620.263,1748.86 626.321,1600.46 632.38,1598.27 638.439,1766.78 644.497,1786.37 650.556,1814.6 656.615,1776.06 662.674,1826.76 668.732,1823.27 674.791,1662.32 680.85,1684.09 686.909,1830.34 692.967,1823.78 699.026,1796.28 705.085,1739.51 711.144,1820.61 717.202,1830.03 723.261,1824.83 729.32,1821.47 735.379,1725.62 741.437,1743.46 747.496,1727.99 753.555,1783.85 759.613,1740.47 765.672,1761.49 771.731,1819.72 777.79,1814.6 783.848,1801.94 789.907,1783.25 795.966,1829.23 802.025,1830.3 808.083,1754.35 814.142,1823.15 820.201,1741.28 826.26,1826.46 832.318,1698.2 838.377,1699.61 844.436,1664.58 850.494,1558.57 856.553,1657.05 862.612,1811.11 868.671,1781.74 874.729,1829.27 880.788,1822.87 886.847,1458.63 892.906,1828.29 898.964,1795.02 905.023,1681.62 911.082,1420 917.141,1708.87 923.199,1691.88 929.258,1714.95 935.317,1756.52 941.376,1830.13 947.434,1757.69 953.493,1752.46 959.552,1797.59 965.61,1793.57 971.669,1717.52 977.728,191.211 983.787,204.57 989.845,308.359 995.904,917.776 1001.96,1141.57 1008.02,1091.21 1014.08,1437.37 1020.14,1394.39 1026.2,1703.93 1032.26,1828.79 1038.32,1691.46 1044.37,1784.68 1050.43,1760.52 1056.49,1596.91 1062.55,1590.11 1068.61,181.516 1074.67,186.9 1080.73,300.354 1086.79,180.611 1092.84,301.732 1098.9,531.283 1104.96,1706.43 1111.02,1584.97 1117.08,1539.36 1123.14,1608.86 1129.2,1693.66 1135.26,1817.8 1141.31,1595.2 1147.37,666.635 1153.43,1028.46 1159.49,1331.23 1165.55,1008.74 1171.61,1575.27 1177.67,1830.13 1183.72,1787.91 1189.78,1788.74 1195.84,1830.37 1201.9,1827.96 1207.96,1776.46 1214.02,1826.8 1220.08,1830.21 1226.14,1779.25 1232.19,1761.56 1238.25,1809.1 1244.31,1785.39 1250.37,1812.73 1256.43,1569.48 1262.49,1816.81 1268.55,1807.53 1274.61,1654.77 1280.66,1638.1 1286.72,1602.64 1292.78,1532.65 1298.84,1548.24 1304.9,1724.08 1310.96,1711.59 1317.02,1660.6 1323.08,1766.17 1329.13,1744.61 1335.19,1774.79 1341.25,1745.89 1347.31,481.932 1353.37,298.233 1359.43,177.382 1365.49,195.48 1371.55,272.72 1377.6,949.194 1383.66,1022.07 1389.72,1414.55 1395.78,1798.11 1401.84,1293.85 1407.9,1812.43 1413.96,958.909 1420.02,1816.84 1426.07,204.392 1432.13,177.382 1438.19,198.534 1444.25,453.416 1450.31,177.382 1456.37,329.949 1462.43,178.151 1468.49,297.22 1474.54,213.057 1480.6,540.024 1486.66,328.61 1492.72,177.382 1498.78,352.401 1504.84,187.003 1510.9,332.19 1516.96,177.55 1523.01,227.238 1529.07,340.433 1535.13,1012.4 1541.19,1159.84 1547.25,1084.92 1553.31,1532.41 1559.37,979.669 1565.43,1035.51 1571.48,797.955 1577.54,832.967 1583.6,177.646 1589.66,211.659 1595.72,323.244 1601.78,380.036 1607.84,200.788 1613.9,244.591 1619.95,399.184 1626.01,1727.73 1632.07,177.383 1638.13,178.49 1644.19,241.488 1650.25,352.136 1656.31,265.049 1662.37,177.833 1668.42,177.851 1674.48,177.384 1680.54,279.569 1686.6,205.62 1692.66,368.15 1698.72,178.792 1704.78,192.944 1710.84,192.778 1716.89,177.383 1722.95,182.926 1729.01,177.689 1735.07,524.614 1741.13,464.003 1747.19,308.288 1753.25,371.962 1759.3,627.484 1765.36,177.382 1771.42,178.111 1777.48,513.35 1783.54,585.978 1789.6,618.908 1795.66,426.41 1801.72,256.685 1807.77,394.201 1813.83,178.77 1819.89,1313.73 1825.95,1759 1832.01,1825.24 1838.07,1825.91 1844.13,1822.45 1850.19,1797.16 1856.24,1781.01 1862.3,1801.52 1868.36,1830.39 1874.42,1786.58 1880.48,1735.18 1886.54,1805.2 1892.6,1812.4 1898.66,1811.47 1904.71,1796.89 1910.77,1760.37 1916.83,1816.87 1922.89,1785.8 1928.95,1803.98 1935.01,1827.01 1941.07,1829.37 1947.13,1830.21 1953.18,1829.98 1959.24,1830.39 1965.3,1829.22 1971.36,1784.55 1977.42,1821.96 1983.48,1793.49 1989.54,1778.05 1995.6,1745.87 2001.65,1820.34 2007.71,1778.58 2013.77,1761.88 2019.83,1804.57 2025.89,1826.4 2031.95,1786.66 2038.01,1429.19 2044.07,901.893 2050.12,1830.11 2056.18,1776.28 2062.24,1529.79 2068.3,1431.72 2074.36,997.416 2080.42,1291.47 2086.48,1367.87 2092.54,1768.32 2098.59,1821.74 2104.65,1829.07 2110.71,1798.67 2116.77,1763.67 2122.83,1814.75 2128.89,1823.06 2134.95,1779.55 2141.01,1740.58 2147.06,1739.05 2153.12,1818.77 2159.18,1829.23 2165.24,1756.32 2171.3,1830.36 2177.36,1830.38 2183.42,1818.17 2189.48,1812.18 2195.53,1824.46 2201.59,1780.23 2207.65,1722.22 2213.71,1724.33 2219.77,1716.12 2225.83,1830.11 2231.89,1763.94 2237.95,1830.27 2244,1806.33 2250.06,1797.28 2256.12,1822.48 2262.18,1824.85 2268.24,1811.49 2274.3,1786.54 2280.36,1736.5 2286.41,1667.57 2292.47,1688.99 2298.53,1794.61 2304.59,213.094 2310.65,1810.61 2316.71,1830.18 2322.77,1795.33 2328.83,1829.9 2334.88,1783.62 2340.94,1829.67 2347,1732.74 2353.06,1734.61 2359.12,1725.59 2365.18,1809.61 2371.24,1771.45 2377.3,1812.57 2383.35,1775.98 2389.41,1714.64 2395.47,1667.35 2401.53,1665.81 2407.59,209.121 2413.65,177.57 2419.71,182.674 2425.77,342.016 2431.82,698.211 2437.88,477.929 2443.94,1320.67 2450,1655.48 2456.06,1752.62 2462.12,1828.62 2468.18,1797.39 2474.24,1811.89 2480.29,1822.53 2486.35,1424.11 2492.41,1786.98 2498.47,1704.71 2504.53,1830.33 2510.59,1830.32 2516.65,1751.39 2522.71,1815.61 2528.76,1805.18 2534.82,1748.03 2540.88,1737.36 2546.94,1755.81 2553,1794.78 2559.06,1788.77 2565.12,1778.62 2571.18,1729.54 2577.23,1751.42 2583.29,1753.57 2589.35,1807.99 2595.41,1765.55 2601.47,1628.22 2607.53,1817.11 2613.59,1830.07 2619.65,1830.21 2625.7,1752.5 2631.76,1814.33 2637.82,1824.22 2643.88,1787.07 2649.94,1818.4 2656,1790.13 2662.06,1829.37 2668.12,1829.92 2674.17,1829.74 2680.23,1787.34 "/>
<path clip-path="url(#clip500)" d="M275.69 341.718 L746.729 341.718 L746.729 186.198 L275.69 186.198  Z" fill="#ffffff" fill-rule="evenodd" fill-opacity="1"/>
<polyline clip-path="url(#clip500)" style="stroke:#000000; stroke-linecap:round; stroke-linejoin:round; stroke-width:4; stroke-opacity:1; fill:none" points="275.69,341.718 746.729,341.718 746.729,186.198 275.69,186.198 275.69,341.718 "/>
<polyline clip-path="url(#clip500)" style="stroke:#009af9; stroke-linecap:round; stroke-linejoin:round; stroke-width:8; stroke-opacity:1; fill:none" points="304.162,238.038 474.994,238.038 "/>
<path clip-path="url(#clip500)" d="M519.855 239.115 Q521.36 239.624 522.772 241.291 Q524.207 242.957 525.642 245.874 L530.387 255.318 L525.364 255.318 L520.943 246.453 Q519.23 242.98 517.61 241.846 Q516.012 240.712 513.235 240.712 L508.142 240.712 L508.142 255.318 L503.466 255.318 L503.466 220.758 L514.022 220.758 Q519.948 220.758 522.864 223.235 Q525.781 225.712 525.781 230.712 Q525.781 233.976 524.253 236.129 Q522.749 238.281 519.855 239.115 M508.142 224.601 L508.142 236.869 L514.022 236.869 Q517.401 236.869 519.114 235.318 Q520.85 233.744 520.85 230.712 Q520.85 227.68 519.114 226.152 Q517.401 224.601 514.022 224.601 L508.142 224.601 Z" fill="#000000" fill-rule="nonzero" fill-opacity="1" /><path clip-path="url(#clip500)" d="M556.267 241.291 L556.267 243.374 L536.684 243.374 Q536.961 247.772 539.323 250.087 Q541.707 252.379 545.943 252.379 Q548.397 252.379 550.688 251.777 Q553.003 251.175 555.272 249.971 L555.272 253.999 Q552.98 254.971 550.572 255.48 Q548.165 255.99 545.688 255.99 Q539.485 255.99 535.85 252.379 Q532.239 248.767 532.239 242.61 Q532.239 236.244 535.665 232.518 Q539.114 228.768 544.947 228.768 Q550.179 228.768 553.211 232.147 Q556.267 235.504 556.267 241.291 M552.008 240.041 Q551.961 236.545 550.04 234.462 Q548.142 232.379 544.994 232.379 Q541.429 232.379 539.276 234.393 Q537.147 236.406 536.823 240.064 L552.008 240.041 Z" fill="#000000" fill-rule="nonzero" fill-opacity="1" /><path clip-path="url(#clip500)" d="M580.318 242.055 Q580.318 237.425 578.396 234.879 Q576.498 232.332 573.049 232.332 Q569.623 232.332 567.702 234.879 Q565.804 237.425 565.804 242.055 Q565.804 246.661 567.702 249.207 Q569.623 251.754 573.049 251.754 Q576.498 251.754 578.396 249.207 Q580.318 246.661 580.318 242.055 M584.577 252.101 Q584.577 258.721 581.637 261.939 Q578.697 265.179 572.633 265.179 Q570.387 265.179 568.396 264.832 Q566.406 264.508 564.531 263.814 L564.531 259.67 Q566.406 260.689 568.234 261.175 Q570.063 261.661 571.961 261.661 Q576.151 261.661 578.234 259.462 Q580.318 257.286 580.318 252.865 L580.318 250.758 Q578.998 253.05 576.938 254.184 Q574.878 255.318 572.008 255.318 Q567.239 255.318 564.322 251.684 Q561.406 248.05 561.406 242.055 Q561.406 236.036 564.322 232.402 Q567.239 228.768 572.008 228.768 Q574.878 228.768 576.938 229.902 Q578.998 231.036 580.318 233.328 L580.318 229.393 L584.577 229.393 L584.577 252.101 Z" fill="#000000" fill-rule="nonzero" fill-opacity="1" /><path clip-path="url(#clip500)" d="M593.35 229.393 L597.609 229.393 L597.609 255.318 L593.35 255.318 L593.35 229.393 M593.35 219.3 L597.609 219.3 L597.609 224.694 L593.35 224.694 L593.35 219.3 Z" fill="#000000" fill-rule="nonzero" fill-opacity="1" /><path clip-path="url(#clip500)" d="M626.706 234.369 Q628.304 231.499 630.526 230.133 Q632.748 228.768 635.757 228.768 Q639.808 228.768 642.007 231.615 Q644.206 234.439 644.206 239.67 L644.206 255.318 L639.924 255.318 L639.924 239.809 Q639.924 236.082 638.604 234.277 Q637.285 232.471 634.577 232.471 Q631.266 232.471 629.345 234.67 Q627.424 236.869 627.424 240.666 L627.424 255.318 L623.142 255.318 L623.142 239.809 Q623.142 236.059 621.822 234.277 Q620.503 232.471 617.748 232.471 Q614.484 232.471 612.563 234.693 Q610.642 236.893 610.642 240.666 L610.642 255.318 L606.359 255.318 L606.359 229.393 L610.642 229.393 L610.642 233.42 Q612.1 231.036 614.137 229.902 Q616.174 228.768 618.975 228.768 Q621.799 228.768 623.767 230.203 Q625.757 231.638 626.706 234.369 Z" fill="#000000" fill-rule="nonzero" fill-opacity="1" /><path clip-path="url(#clip500)" d="M674.877 241.291 L674.877 243.374 L655.294 243.374 Q655.572 247.772 657.933 250.087 Q660.317 252.379 664.553 252.379 Q667.007 252.379 669.299 251.777 Q671.613 251.175 673.882 249.971 L673.882 253.999 Q671.59 254.971 669.183 255.48 Q666.776 255.99 664.299 255.99 Q658.095 255.99 654.461 252.379 Q650.85 248.767 650.85 242.61 Q650.85 236.244 654.276 232.518 Q657.725 228.768 663.558 228.768 Q668.789 228.768 671.822 232.147 Q674.877 235.504 674.877 241.291 M670.618 240.041 Q670.572 236.545 668.651 234.462 Q666.752 232.379 663.604 232.379 Q660.039 232.379 657.887 234.393 Q655.757 236.406 655.433 240.064 L670.618 240.041 Z" fill="#000000" fill-rule="nonzero" fill-opacity="1" /><path clip-path="url(#clip500)" d="M698.349 251.383 L705.988 251.383 L705.988 225.018 L697.678 226.684 L697.678 222.425 L705.942 220.758 L710.618 220.758 L710.618 251.383 L718.257 251.383 L718.257 255.318 L698.349 255.318 L698.349 251.383 Z" fill="#000000" fill-rule="nonzero" fill-opacity="1" /><polyline clip-path="url(#clip500)" style="stroke:#e26f46; stroke-linecap:round; stroke-linejoin:round; stroke-width:8; stroke-opacity:1; fill:none" points="304.162,289.878 474.994,289.878 "/>
<path clip-path="url(#clip500)" d="M519.855 290.955 Q521.36 291.464 522.772 293.131 Q524.207 294.797 525.642 297.714 L530.387 307.158 L525.364 307.158 L520.943 298.293 Q519.23 294.82 517.61 293.686 Q516.012 292.552 513.235 292.552 L508.142 292.552 L508.142 307.158 L503.466 307.158 L503.466 272.598 L514.022 272.598 Q519.948 272.598 522.864 275.075 Q525.781 277.552 525.781 282.552 Q525.781 285.816 524.253 287.969 Q522.749 290.121 519.855 290.955 M508.142 276.441 L508.142 288.709 L514.022 288.709 Q517.401 288.709 519.114 287.158 Q520.85 285.584 520.85 282.552 Q520.85 279.52 519.114 277.992 Q517.401 276.441 514.022 276.441 L508.142 276.441 Z" fill="#000000" fill-rule="nonzero" fill-opacity="1" /><path clip-path="url(#clip500)" d="M556.267 293.131 L556.267 295.214 L536.684 295.214 Q536.961 299.612 539.323 301.927 Q541.707 304.219 545.943 304.219 Q548.397 304.219 550.688 303.617 Q553.003 303.015 555.272 301.811 L555.272 305.839 Q552.98 306.811 550.572 307.32 Q548.165 307.83 545.688 307.83 Q539.485 307.83 535.85 304.219 Q532.239 300.607 532.239 294.45 Q532.239 288.084 535.665 284.358 Q539.114 280.608 544.947 280.608 Q550.179 280.608 553.211 283.987 Q556.267 287.344 556.267 293.131 M552.008 291.881 Q551.961 288.385 550.04 286.302 Q548.142 284.219 544.994 284.219 Q541.429 284.219 539.276 286.233 Q537.147 288.246 536.823 291.904 L552.008 291.881 Z" fill="#000000" fill-rule="nonzero" fill-opacity="1" /><path clip-path="url(#clip500)" d="M580.318 293.895 Q580.318 289.265 578.396 286.719 Q576.498 284.172 573.049 284.172 Q569.623 284.172 567.702 286.719 Q565.804 289.265 565.804 293.895 Q565.804 298.501 567.702 301.047 Q569.623 303.594 573.049 303.594 Q576.498 303.594 578.396 301.047 Q580.318 298.501 580.318 293.895 M584.577 303.941 Q584.577 310.561 581.637 313.779 Q578.697 317.019 572.633 317.019 Q570.387 317.019 568.396 316.672 Q566.406 316.348 564.531 315.654 L564.531 311.51 Q566.406 312.529 568.234 313.015 Q570.063 313.501 571.961 313.501 Q576.151 313.501 578.234 311.302 Q580.318 309.126 580.318 304.705 L580.318 302.598 Q578.998 304.89 576.938 306.024 Q574.878 307.158 572.008 307.158 Q567.239 307.158 564.322 303.524 Q561.406 299.89 561.406 293.895 Q561.406 287.876 564.322 284.242 Q567.239 280.608 572.008 280.608 Q574.878 280.608 576.938 281.742 Q578.998 282.876 580.318 285.168 L580.318 281.233 L584.577 281.233 L584.577 303.941 Z" fill="#000000" fill-rule="nonzero" fill-opacity="1" /><path clip-path="url(#clip500)" d="M593.35 281.233 L597.609 281.233 L597.609 307.158 L593.35 307.158 L593.35 281.233 M593.35 271.14 L597.609 271.14 L597.609 276.534 L593.35 276.534 L593.35 271.14 Z" fill="#000000" fill-rule="nonzero" fill-opacity="1" /><path clip-path="url(#clip500)" d="M626.706 286.209 Q628.304 283.339 630.526 281.973 Q632.748 280.608 635.757 280.608 Q639.808 280.608 642.007 283.455 Q644.206 286.279 644.206 291.51 L644.206 307.158 L639.924 307.158 L639.924 291.649 Q639.924 287.922 638.604 286.117 Q637.285 284.311 634.577 284.311 Q631.266 284.311 629.345 286.51 Q627.424 288.709 627.424 292.506 L627.424 307.158 L623.142 307.158 L623.142 291.649 Q623.142 287.899 621.822 286.117 Q620.503 284.311 617.748 284.311 Q614.484 284.311 612.563 286.533 Q610.642 288.733 610.642 292.506 L610.642 307.158 L606.359 307.158 L606.359 281.233 L610.642 281.233 L610.642 285.26 Q612.1 282.876 614.137 281.742 Q616.174 280.608 618.975 280.608 Q621.799 280.608 623.767 282.043 Q625.757 283.478 626.706 286.209 Z" fill="#000000" fill-rule="nonzero" fill-opacity="1" /><path clip-path="url(#clip500)" d="M674.877 293.131 L674.877 295.214 L655.294 295.214 Q655.572 299.612 657.933 301.927 Q660.317 304.219 664.553 304.219 Q667.007 304.219 669.299 303.617 Q671.613 303.015 673.882 301.811 L673.882 305.839 Q671.59 306.811 669.183 307.32 Q666.776 307.83 664.299 307.83 Q658.095 307.83 654.461 304.219 Q650.85 300.607 650.85 294.45 Q650.85 288.084 654.276 284.358 Q657.725 280.608 663.558 280.608 Q668.789 280.608 671.822 283.987 Q674.877 287.344 674.877 293.131 M670.618 291.881 Q670.572 288.385 668.651 286.302 Q666.752 284.219 663.604 284.219 Q660.039 284.219 657.887 286.233 Q655.757 288.246 655.433 291.904 L670.618 291.881 Z" fill="#000000" fill-rule="nonzero" fill-opacity="1" /><path clip-path="url(#clip500)" d="M701.567 303.223 L717.886 303.223 L717.886 307.158 L695.942 307.158 L695.942 303.223 Q698.604 300.469 703.187 295.839 Q707.794 291.186 708.974 289.844 Q711.22 287.321 712.099 285.584 Q713.002 283.825 713.002 282.135 Q713.002 279.381 711.058 277.645 Q709.136 275.909 706.035 275.909 Q703.836 275.909 701.382 276.672 Q698.951 277.436 696.174 278.987 L696.174 274.265 Q698.998 273.131 701.451 272.552 Q703.905 271.973 705.942 271.973 Q711.312 271.973 714.507 274.659 Q717.701 277.344 717.701 281.834 Q717.701 283.964 716.891 285.885 Q716.104 287.783 713.998 290.376 Q713.419 291.047 710.317 294.265 Q707.215 297.459 701.567 303.223 Z" fill="#000000" fill-rule="nonzero" fill-opacity="1" /></svg>
