<?xml version="1.0" encoding="utf-8"?>
<svg xmlns="http://www.w3.org/2000/svg" xmlns:xlink="http://www.w3.org/1999/xlink" width="600" height="400" viewBox="0 0 2400 1600">
<defs>
  <clipPath id="clip890">
    <rect x="0" y="0" width="2400" height="1600"/>
  </clipPath>
</defs>
<path clip-path="url(#clip890)" d="M0 1600 L2400 1600 L2400 0 L0 0  Z" fill="#ffffff" fill-rule="evenodd" fill-opacity="1"/>
<defs>
  <clipPath id="clip891">
    <rect x="480" y="0" width="1681" height="1600"/>
  </clipPath>
</defs>
<path clip-path="url(#clip890)" d="M186.274 1486.45 L2352.76 1486.45 L2352.76 123.472 L186.274 123.472  Z" fill="#ffffff" fill-rule="evenodd" fill-opacity="1"/>
<defs>
  <clipPath id="clip892">
    <rect x="186" y="123" width="2167" height="1364"/>
  </clipPath>
</defs>
<polyline clip-path="url(#clip892)" style="stroke:#000000; stroke-linecap:round; stroke-linejoin:round; stroke-width:2; stroke-opacity:0.1; fill:none" points="242.467,1486.45 242.467,123.472 "/>
<polyline clip-path="url(#clip892)" style="stroke:#000000; stroke-linecap:round; stroke-linejoin:round; stroke-width:2; stroke-opacity:0.1; fill:none" points="754.71,1486.45 754.71,123.472 "/>
<polyline clip-path="url(#clip892)" style="stroke:#000000; stroke-linecap:round; stroke-linejoin:round; stroke-width:2; stroke-opacity:0.1; fill:none" points="1266.95,1486.45 1266.95,123.472 "/>
<polyline clip-path="url(#clip892)" style="stroke:#000000; stroke-linecap:round; stroke-linejoin:round; stroke-width:2; stroke-opacity:0.1; fill:none" points="1779.2,1486.45 1779.2,123.472 "/>
<polyline clip-path="url(#clip892)" style="stroke:#000000; stroke-linecap:round; stroke-linejoin:round; stroke-width:2; stroke-opacity:0.1; fill:none" points="2291.44,1486.45 2291.44,123.472 "/>
<polyline clip-path="url(#clip890)" style="stroke:#000000; stroke-linecap:round; stroke-linejoin:round; stroke-width:4; stroke-opacity:1; fill:none" points="186.274,1486.45 2352.76,1486.45 "/>
<polyline clip-path="url(#clip890)" style="stroke:#000000; stroke-linecap:round; stroke-linejoin:round; stroke-width:4; stroke-opacity:1; fill:none" points="242.467,1486.45 242.467,1467.55 "/>
<polyline clip-path="url(#clip890)" style="stroke:#000000; stroke-linecap:round; stroke-linejoin:round; stroke-width:4; stroke-opacity:1; fill:none" points="754.71,1486.45 754.71,1467.55 "/>
<polyline clip-path="url(#clip890)" style="stroke:#000000; stroke-linecap:round; stroke-linejoin:round; stroke-width:4; stroke-opacity:1; fill:none" points="1266.95,1486.45 1266.95,1467.55 "/>
<polyline clip-path="url(#clip890)" style="stroke:#000000; stroke-linecap:round; stroke-linejoin:round; stroke-width:4; stroke-opacity:1; fill:none" points="1779.2,1486.45 1779.2,1467.55 "/>
<polyline clip-path="url(#clip890)" style="stroke:#000000; stroke-linecap:round; stroke-linejoin:round; stroke-width:4; stroke-opacity:1; fill:none" points="2291.44,1486.45 2291.44,1467.55 "/>
<path clip-path="url(#clip890)" d="M242.467 1517.37 Q238.856 1517.37 237.027 1520.93 Q235.222 1524.47 235.222 1531.6 Q235.222 1538.71 237.027 1542.27 Q238.856 1545.82 242.467 1545.82 Q246.101 1545.82 247.907 1542.27 Q249.736 1538.71 249.736 1531.6 Q249.736 1524.47 247.907 1520.93 Q246.101 1517.37 242.467 1517.37 M242.467 1513.66 Q248.277 1513.66 251.333 1518.27 Q254.411 1522.85 254.411 1531.6 Q254.411 1540.33 251.333 1544.94 Q248.277 1549.52 242.467 1549.52 Q236.657 1549.52 233.578 1544.94 Q230.523 1540.33 230.523 1531.6 Q230.523 1522.85 233.578 1518.27 Q236.657 1513.66 242.467 1513.66 Z" fill="#000000" fill-rule="nonzero" fill-opacity="1" /><path clip-path="url(#clip890)" d="M714.317 1544.91 L721.956 1544.91 L721.956 1518.55 L713.646 1520.21 L713.646 1515.95 L721.91 1514.29 L726.586 1514.29 L726.586 1544.91 L734.224 1544.91 L734.224 1548.85 L714.317 1548.85 L714.317 1544.91 Z" fill="#000000" fill-rule="nonzero" fill-opacity="1" /><path clip-path="url(#clip890)" d="M753.669 1517.37 Q750.058 1517.37 748.229 1520.93 Q746.423 1524.47 746.423 1531.6 Q746.423 1538.71 748.229 1542.27 Q750.058 1545.82 753.669 1545.82 Q757.303 1545.82 759.109 1542.27 Q760.937 1538.71 760.937 1531.6 Q760.937 1524.47 759.109 1520.93 Q757.303 1517.37 753.669 1517.37 M753.669 1513.66 Q759.479 1513.66 762.534 1518.27 Q765.613 1522.85 765.613 1531.6 Q765.613 1540.33 762.534 1544.94 Q759.479 1549.52 753.669 1549.52 Q747.859 1549.52 744.78 1544.94 Q741.724 1540.33 741.724 1531.6 Q741.724 1522.85 744.78 1518.27 Q747.859 1513.66 753.669 1513.66 Z" fill="#000000" fill-rule="nonzero" fill-opacity="1" /><path clip-path="url(#clip890)" d="M783.831 1517.37 Q780.22 1517.37 778.391 1520.93 Q776.585 1524.47 776.585 1531.6 Q776.585 1538.71 778.391 1542.27 Q780.22 1545.82 783.831 1545.82 Q787.465 1545.82 789.27 1542.27 Q791.099 1538.71 791.099 1531.6 Q791.099 1524.47 789.27 1520.93 Q787.465 1517.37 783.831 1517.37 M783.831 1513.66 Q789.641 1513.66 792.696 1518.27 Q795.775 1522.85 795.775 1531.6 Q795.775 1540.33 792.696 1544.94 Q789.641 1549.52 783.831 1549.52 Q778.02 1549.52 774.942 1544.94 Q771.886 1540.33 771.886 1531.6 Q771.886 1522.85 774.942 1518.27 Q778.02 1513.66 783.831 1513.66 Z" fill="#000000" fill-rule="nonzero" fill-opacity="1" /><path clip-path="url(#clip890)" d="M1230.65 1544.91 L1246.97 1544.91 L1246.97 1548.85 L1225.02 1548.85 L1225.02 1544.91 Q1227.68 1542.16 1232.27 1537.53 Q1236.87 1532.88 1238.05 1531.53 Q1240.3 1529.01 1241.18 1527.27 Q1242.08 1525.51 1242.08 1523.82 Q1242.08 1521.07 1240.14 1519.33 Q1238.22 1517.6 1235.11 1517.6 Q1232.91 1517.6 1230.46 1518.36 Q1228.03 1519.13 1225.25 1520.68 L1225.25 1515.95 Q1228.08 1514.82 1230.53 1514.24 Q1232.98 1513.66 1235.02 1513.66 Q1240.39 1513.66 1243.59 1516.35 Q1246.78 1519.03 1246.78 1523.52 Q1246.78 1525.65 1245.97 1527.57 Q1245.18 1529.47 1243.08 1532.07 Q1242.5 1532.74 1239.4 1535.95 Q1236.29 1539.15 1230.65 1544.91 Z" fill="#000000" fill-rule="nonzero" fill-opacity="1" /><path clip-path="url(#clip890)" d="M1266.78 1517.37 Q1263.17 1517.37 1261.34 1520.93 Q1259.53 1524.47 1259.53 1531.6 Q1259.53 1538.71 1261.34 1542.27 Q1263.17 1545.82 1266.78 1545.82 Q1270.41 1545.82 1272.22 1542.27 Q1274.05 1538.71 1274.05 1531.6 Q1274.05 1524.47 1272.22 1520.93 Q1270.41 1517.37 1266.78 1517.37 M1266.78 1513.66 Q1272.59 1513.66 1275.65 1518.27 Q1278.72 1522.85 1278.72 1531.6 Q1278.72 1540.33 1275.65 1544.94 Q1272.59 1549.52 1266.78 1549.52 Q1260.97 1549.52 1257.89 1544.94 Q1254.84 1540.33 1254.84 1531.6 Q1254.84 1522.85 1257.89 1518.27 Q1260.97 1513.66 1266.78 1513.66 Z" fill="#000000" fill-rule="nonzero" fill-opacity="1" /><path clip-path="url(#clip890)" d="M1296.94 1517.37 Q1293.33 1517.37 1291.5 1520.93 Q1289.7 1524.47 1289.7 1531.6 Q1289.7 1538.71 1291.5 1542.27 Q1293.33 1545.82 1296.94 1545.82 Q1300.58 1545.82 1302.38 1542.27 Q1304.21 1538.71 1304.21 1531.6 Q1304.21 1524.47 1302.38 1520.93 Q1300.58 1517.37 1296.94 1517.37 M1296.94 1513.66 Q1302.75 1513.66 1305.81 1518.27 Q1308.89 1522.85 1308.89 1531.6 Q1308.89 1540.33 1305.81 1544.94 Q1302.75 1549.52 1296.94 1549.52 Q1291.13 1549.52 1288.05 1544.94 Q1285 1540.33 1285 1531.6 Q1285 1522.85 1288.05 1518.27 Q1291.13 1513.66 1296.94 1513.66 Z" fill="#000000" fill-rule="nonzero" fill-opacity="1" /><path clip-path="url(#clip890)" d="M1752.96 1530.21 Q1756.32 1530.93 1758.19 1533.2 Q1760.09 1535.47 1760.09 1538.8 Q1760.09 1543.92 1756.57 1546.72 Q1753.05 1549.52 1746.57 1549.52 Q1744.39 1549.52 1742.08 1549.08 Q1739.79 1548.66 1737.33 1547.81 L1737.33 1543.29 Q1739.28 1544.43 1741.59 1545.01 Q1743.91 1545.58 1746.43 1545.58 Q1750.83 1545.58 1753.12 1543.85 Q1755.44 1542.11 1755.44 1538.8 Q1755.44 1535.75 1753.28 1534.03 Q1751.15 1532.3 1747.33 1532.3 L1743.31 1532.3 L1743.31 1528.45 L1747.52 1528.45 Q1750.97 1528.45 1752.8 1527.09 Q1754.63 1525.7 1754.63 1523.11 Q1754.63 1520.45 1752.73 1519.03 Q1750.85 1517.6 1747.33 1517.6 Q1745.41 1517.6 1743.21 1518.01 Q1741.01 1518.43 1738.38 1519.31 L1738.38 1515.14 Q1741.04 1514.4 1743.35 1514.03 Q1745.69 1513.66 1747.75 1513.66 Q1753.07 1513.66 1756.18 1516.09 Q1759.28 1518.5 1759.28 1522.62 Q1759.28 1525.49 1757.63 1527.48 Q1755.99 1529.45 1752.96 1530.21 Z" fill="#000000" fill-rule="nonzero" fill-opacity="1" /><path clip-path="url(#clip890)" d="M1778.95 1517.37 Q1775.34 1517.37 1773.51 1520.93 Q1771.71 1524.47 1771.71 1531.6 Q1771.71 1538.71 1773.51 1542.27 Q1775.34 1545.82 1778.95 1545.82 Q1782.59 1545.82 1784.39 1542.27 Q1786.22 1538.71 1786.22 1531.6 Q1786.22 1524.47 1784.39 1520.93 Q1782.59 1517.37 1778.95 1517.37 M1778.95 1513.66 Q1784.76 1513.66 1787.82 1518.27 Q1790.9 1522.85 1790.9 1531.6 Q1790.9 1540.33 1787.82 1544.94 Q1784.76 1549.52 1778.95 1549.52 Q1773.14 1549.52 1770.07 1544.94 Q1767.01 1540.33 1767.01 1531.6 Q1767.01 1522.85 1770.07 1518.27 Q1773.14 1513.66 1778.95 1513.66 Z" fill="#000000" fill-rule="nonzero" fill-opacity="1" /><path clip-path="url(#clip890)" d="M1809.12 1517.37 Q1805.5 1517.37 1803.68 1520.93 Q1801.87 1524.47 1801.87 1531.6 Q1801.87 1538.71 1803.68 1542.27 Q1805.5 1545.82 1809.12 1545.82 Q1812.75 1545.82 1814.56 1542.27 Q1816.38 1538.71 1816.38 1531.6 Q1816.38 1524.47 1814.56 1520.93 Q1812.75 1517.37 1809.12 1517.37 M1809.12 1513.66 Q1814.93 1513.66 1817.98 1518.27 Q1821.06 1522.85 1821.06 1531.6 Q1821.06 1540.33 1817.98 1544.94 Q1814.93 1549.52 1809.12 1549.52 Q1803.31 1549.52 1800.23 1544.94 Q1797.17 1540.33 1797.17 1531.6 Q1797.17 1522.85 1800.23 1518.27 Q1803.31 1513.66 1809.12 1513.66 Z" fill="#000000" fill-rule="nonzero" fill-opacity="1" /><path clip-path="url(#clip890)" d="M2264.53 1518.36 L2252.73 1536.81 L2264.53 1536.81 L2264.53 1518.36 M2263.3 1514.29 L2269.18 1514.29 L2269.18 1536.81 L2274.11 1536.81 L2274.11 1540.7 L2269.18 1540.7 L2269.18 1548.85 L2264.53 1548.85 L2264.53 1540.7 L2248.93 1540.7 L2248.93 1536.19 L2263.3 1514.29 Z" fill="#000000" fill-rule="nonzero" fill-opacity="1" /><path clip-path="url(#clip890)" d="M2291.85 1517.37 Q2288.23 1517.37 2286.41 1520.93 Q2284.6 1524.47 2284.6 1531.6 Q2284.6 1538.71 2286.41 1542.27 Q2288.23 1545.82 2291.85 1545.82 Q2295.48 1545.82 2297.29 1542.27 Q2299.11 1538.71 2299.11 1531.6 Q2299.11 1524.47 2297.29 1520.93 Q2295.48 1517.37 2291.85 1517.37 M2291.85 1513.66 Q2297.66 1513.66 2300.71 1518.27 Q2303.79 1522.85 2303.79 1531.6 Q2303.79 1540.33 2300.71 1544.94 Q2297.66 1549.52 2291.85 1549.52 Q2286.04 1549.52 2282.96 1544.94 Q2279.9 1540.33 2279.9 1531.6 Q2279.9 1522.85 2282.96 1518.27 Q2286.04 1513.66 2291.85 1513.66 Z" fill="#000000" fill-rule="nonzero" fill-opacity="1" /><path clip-path="url(#clip890)" d="M2322.01 1517.37 Q2318.4 1517.37 2316.57 1520.93 Q2314.76 1524.47 2314.76 1531.6 Q2314.76 1538.71 2316.57 1542.27 Q2318.4 1545.82 2322.01 1545.82 Q2325.64 1545.82 2327.45 1542.27 Q2329.28 1538.71 2329.28 1531.6 Q2329.28 1524.47 2327.45 1520.93 Q2325.64 1517.37 2322.01 1517.37 M2322.01 1513.66 Q2327.82 1513.66 2330.87 1518.27 Q2333.95 1522.85 2333.95 1531.6 Q2333.95 1540.33 2330.87 1544.94 Q2327.82 1549.52 2322.01 1549.52 Q2316.2 1549.52 2313.12 1544.94 Q2310.06 1540.33 2310.06 1531.6 Q2310.06 1522.85 2313.12 1518.27 Q2316.2 1513.66 2322.01 1513.66 Z" fill="#000000" fill-rule="nonzero" fill-opacity="1" /><polyline clip-path="url(#clip892)" style="stroke:#000000; stroke-linecap:round; stroke-linejoin:round; stroke-width:2; stroke-opacity:0.1; fill:none" points="186.274,1447.87 2352.76,1447.87 "/>
<polyline clip-path="url(#clip892)" style="stroke:#000000; stroke-linecap:round; stroke-linejoin:round; stroke-width:2; stroke-opacity:0.1; fill:none" points="186.274,1126.42 2352.76,1126.42 "/>
<polyline clip-path="url(#clip892)" style="stroke:#000000; stroke-linecap:round; stroke-linejoin:round; stroke-width:2; stroke-opacity:0.1; fill:none" points="186.274,804.96 2352.76,804.96 "/>
<polyline clip-path="url(#clip892)" style="stroke:#000000; stroke-linecap:round; stroke-linejoin:round; stroke-width:2; stroke-opacity:0.1; fill:none" points="186.274,483.503 2352.76,483.503 "/>
<polyline clip-path="url(#clip892)" style="stroke:#000000; stroke-linecap:round; stroke-linejoin:round; stroke-width:2; stroke-opacity:0.1; fill:none" points="186.274,162.047 2352.76,162.047 "/>
<polyline clip-path="url(#clip890)" style="stroke:#000000; stroke-linecap:round; stroke-linejoin:round; stroke-width:4; stroke-opacity:1; fill:none" points="186.274,1486.45 186.274,123.472 "/>
<polyline clip-path="url(#clip890)" style="stroke:#000000; stroke-linecap:round; stroke-linejoin:round; stroke-width:4; stroke-opacity:1; fill:none" points="186.274,1447.87 205.172,1447.87 "/>
<polyline clip-path="url(#clip890)" style="stroke:#000000; stroke-linecap:round; stroke-linejoin:round; stroke-width:4; stroke-opacity:1; fill:none" points="186.274,1126.42 205.172,1126.42 "/>
<polyline clip-path="url(#clip890)" style="stroke:#000000; stroke-linecap:round; stroke-linejoin:round; stroke-width:4; stroke-opacity:1; fill:none" points="186.274,804.96 205.172,804.96 "/>
<polyline clip-path="url(#clip890)" style="stroke:#000000; stroke-linecap:round; stroke-linejoin:round; stroke-width:4; stroke-opacity:1; fill:none" points="186.274,483.503 205.172,483.503 "/>
<polyline clip-path="url(#clip890)" style="stroke:#000000; stroke-linecap:round; stroke-linejoin:round; stroke-width:4; stroke-opacity:1; fill:none" points="186.274,162.047 205.172,162.047 "/>
<path clip-path="url(#clip890)" d="M62.9365 1433.67 Q59.3254 1433.67 57.4967 1437.24 Q55.6912 1440.78 55.6912 1447.91 Q55.6912 1455.01 57.4967 1458.58 Q59.3254 1462.12 62.9365 1462.12 Q66.5707 1462.12 68.3763 1458.58 Q70.205 1455.01 70.205 1447.91 Q70.205 1440.78 68.3763 1437.24 Q66.5707 1433.67 62.9365 1433.67 M62.9365 1429.97 Q68.7467 1429.97 71.8022 1434.57 Q74.8809 1439.16 74.8809 1447.91 Q74.8809 1456.63 71.8022 1461.24 Q68.7467 1465.82 62.9365 1465.82 Q57.1264 1465.82 54.0477 1461.24 Q50.9921 1456.63 50.9921 1447.91 Q50.9921 1439.16 54.0477 1434.57 Q57.1264 1429.97 62.9365 1429.97 Z" fill="#000000" fill-rule="nonzero" fill-opacity="1" /><path clip-path="url(#clip890)" d="M83.0984 1459.27 L87.9827 1459.27 L87.9827 1465.15 L83.0984 1465.15 L83.0984 1459.27 Z" fill="#000000" fill-rule="nonzero" fill-opacity="1" /><path clip-path="url(#clip890)" d="M108.168 1433.67 Q104.557 1433.67 102.728 1437.24 Q100.922 1440.78 100.922 1447.91 Q100.922 1455.01 102.728 1458.58 Q104.557 1462.12 108.168 1462.12 Q111.802 1462.12 113.608 1458.58 Q115.436 1455.01 115.436 1447.91 Q115.436 1440.78 113.608 1437.24 Q111.802 1433.67 108.168 1433.67 M108.168 1429.97 Q113.978 1429.97 117.033 1434.57 Q120.112 1439.16 120.112 1447.91 Q120.112 1456.63 117.033 1461.24 Q113.978 1465.82 108.168 1465.82 Q102.358 1465.82 99.2789 1461.24 Q96.2234 1456.63 96.2234 1447.91 Q96.2234 1439.16 99.2789 1434.57 Q102.358 1429.97 108.168 1429.97 Z" fill="#000000" fill-rule="nonzero" fill-opacity="1" /><path clip-path="url(#clip890)" d="M138.33 1433.67 Q134.719 1433.67 132.89 1437.24 Q131.084 1440.78 131.084 1447.91 Q131.084 1455.01 132.89 1458.58 Q134.719 1462.12 138.33 1462.12 Q141.964 1462.12 143.769 1458.58 Q145.598 1455.01 145.598 1447.91 Q145.598 1440.78 143.769 1437.24 Q141.964 1433.67 138.33 1433.67 M138.33 1429.97 Q144.14 1429.97 147.195 1434.57 Q150.274 1439.16 150.274 1447.91 Q150.274 1456.63 147.195 1461.24 Q144.14 1465.82 138.33 1465.82 Q132.519 1465.82 129.441 1461.24 Q126.385 1456.63 126.385 1447.91 Q126.385 1439.16 129.441 1434.57 Q132.519 1429.97 138.33 1429.97 Z" fill="#000000" fill-rule="nonzero" fill-opacity="1" /><path clip-path="url(#clip890)" d="M63.9319 1112.22 Q60.3208 1112.22 58.4921 1115.78 Q56.6865 1119.32 56.6865 1126.45 Q56.6865 1133.56 58.4921 1137.12 Q60.3208 1140.66 63.9319 1140.66 Q67.5661 1140.66 69.3717 1137.12 Q71.2004 1133.56 71.2004 1126.45 Q71.2004 1119.32 69.3717 1115.78 Q67.5661 1112.22 63.9319 1112.22 M63.9319 1108.51 Q69.742 1108.51 72.7976 1113.12 Q75.8763 1117.7 75.8763 1126.45 Q75.8763 1135.18 72.7976 1139.78 Q69.742 1144.37 63.9319 1144.37 Q58.1217 1144.37 55.043 1139.78 Q51.9875 1135.18 51.9875 1126.45 Q51.9875 1117.7 55.043 1113.12 Q58.1217 1108.51 63.9319 1108.51 Z" fill="#000000" fill-rule="nonzero" fill-opacity="1" /><path clip-path="url(#clip890)" d="M84.0938 1137.82 L88.978 1137.82 L88.978 1143.7 L84.0938 1143.7 L84.0938 1137.82 Z" fill="#000000" fill-rule="nonzero" fill-opacity="1" /><path clip-path="url(#clip890)" d="M103.191 1139.76 L119.51 1139.76 L119.51 1143.7 L97.566 1143.7 L97.566 1139.76 Q100.228 1137.01 104.811 1132.38 Q109.418 1127.72 110.598 1126.38 Q112.844 1123.86 113.723 1122.12 Q114.626 1120.36 114.626 1118.67 Q114.626 1115.92 112.682 1114.18 Q110.76 1112.45 107.658 1112.45 Q105.459 1112.45 103.006 1113.21 Q100.575 1113.97 97.7974 1115.53 L97.7974 1110.8 Q100.621 1109.67 103.075 1109.09 Q105.529 1108.51 107.566 1108.51 Q112.936 1108.51 116.131 1111.2 Q119.325 1113.88 119.325 1118.37 Q119.325 1120.5 118.515 1122.42 Q117.728 1124.32 115.621 1126.91 Q115.043 1127.59 111.941 1130.8 Q108.839 1134 103.191 1139.76 Z" fill="#000000" fill-rule="nonzero" fill-opacity="1" /><path clip-path="url(#clip890)" d="M129.371 1109.14 L147.728 1109.14 L147.728 1113.07 L133.654 1113.07 L133.654 1121.54 Q134.672 1121.2 135.691 1121.03 Q136.709 1120.85 137.728 1120.85 Q143.515 1120.85 146.894 1124.02 Q150.274 1127.19 150.274 1132.61 Q150.274 1138.19 146.802 1141.29 Q143.33 1144.37 137.01 1144.37 Q134.834 1144.37 132.566 1144 Q130.32 1143.63 127.913 1142.89 L127.913 1138.19 Q129.996 1139.32 132.219 1139.88 Q134.441 1140.43 136.918 1140.43 Q140.922 1140.43 143.26 1138.33 Q145.598 1136.22 145.598 1132.61 Q145.598 1129 143.26 1126.89 Q140.922 1124.78 136.918 1124.78 Q135.043 1124.78 133.168 1125.2 Q131.316 1125.62 129.371 1126.5 L129.371 1109.14 Z" fill="#000000" fill-rule="nonzero" fill-opacity="1" /><path clip-path="url(#clip890)" d="M62.9365 790.759 Q59.3254 790.759 57.4967 794.323 Q55.6912 797.865 55.6912 804.995 Q55.6912 812.101 57.4967 815.666 Q59.3254 819.208 62.9365 819.208 Q66.5707 819.208 68.3763 815.666 Q70.205 812.101 70.205 804.995 Q70.205 797.865 68.3763 794.323 Q66.5707 790.759 62.9365 790.759 M62.9365 787.055 Q68.7467 787.055 71.8022 791.661 Q74.8809 796.245 74.8809 804.995 Q74.8809 813.722 71.8022 818.328 Q68.7467 822.911 62.9365 822.911 Q57.1264 822.911 54.0477 818.328 Q50.9921 813.722 50.9921 804.995 Q50.9921 796.245 54.0477 791.661 Q57.1264 787.055 62.9365 787.055 Z" fill="#000000" fill-rule="nonzero" fill-opacity="1" /><path clip-path="url(#clip890)" d="M83.0984 816.36 L87.9827 816.36 L87.9827 822.24 L83.0984 822.24 L83.0984 816.36 Z" fill="#000000" fill-rule="nonzero" fill-opacity="1" /><path clip-path="url(#clip890)" d="M98.2141 787.68 L116.57 787.68 L116.57 791.615 L102.496 791.615 L102.496 800.087 Q103.515 799.74 104.534 799.578 Q105.552 799.393 106.571 799.393 Q112.358 799.393 115.737 802.564 Q119.117 805.735 119.117 811.152 Q119.117 816.731 115.645 819.833 Q112.172 822.911 105.853 822.911 Q103.677 822.911 101.409 822.541 Q99.1632 822.171 96.7558 821.43 L96.7558 816.731 Q98.8391 817.865 101.061 818.421 Q103.284 818.976 105.76 818.976 Q109.765 818.976 112.103 816.87 Q114.441 814.763 114.441 811.152 Q114.441 807.541 112.103 805.435 Q109.765 803.328 105.76 803.328 Q103.885 803.328 102.01 803.745 Q100.159 804.161 98.2141 805.041 L98.2141 787.68 Z" fill="#000000" fill-rule="nonzero" fill-opacity="1" /><path clip-path="url(#clip890)" d="M138.33 790.759 Q134.719 790.759 132.89 794.323 Q131.084 797.865 131.084 804.995 Q131.084 812.101 132.89 815.666 Q134.719 819.208 138.33 819.208 Q141.964 819.208 143.769 815.666 Q145.598 812.101 145.598 804.995 Q145.598 797.865 143.769 794.323 Q141.964 790.759 138.33 790.759 M138.33 787.055 Q144.14 787.055 147.195 791.661 Q150.274 796.245 150.274 804.995 Q150.274 813.722 147.195 818.328 Q144.14 822.911 138.33 822.911 Q132.519 822.911 129.441 818.328 Q126.385 813.722 126.385 804.995 Q126.385 796.245 129.441 791.661 Q132.519 787.055 138.33 787.055 Z" fill="#000000" fill-rule="nonzero" fill-opacity="1" /><path clip-path="url(#clip890)" d="M63.9319 469.302 Q60.3208 469.302 58.4921 472.867 Q56.6865 476.409 56.6865 483.538 Q56.6865 490.645 58.4921 494.209 Q60.3208 497.751 63.9319 497.751 Q67.5661 497.751 69.3717 494.209 Q71.2004 490.645 71.2004 483.538 Q71.2004 476.409 69.3717 472.867 Q67.5661 469.302 63.9319 469.302 M63.9319 465.598 Q69.742 465.598 72.7976 470.205 Q75.8763 474.788 75.8763 483.538 Q75.8763 492.265 72.7976 496.871 Q69.742 501.455 63.9319 501.455 Q58.1217 501.455 55.043 496.871 Q51.9875 492.265 51.9875 483.538 Q51.9875 474.788 55.043 470.205 Q58.1217 465.598 63.9319 465.598 Z" fill="#000000" fill-rule="nonzero" fill-opacity="1" /><path clip-path="url(#clip890)" d="M84.0938 494.904 L88.978 494.904 L88.978 500.783 L84.0938 500.783 L84.0938 494.904 Z" fill="#000000" fill-rule="nonzero" fill-opacity="1" /><path clip-path="url(#clip890)" d="M97.9826 466.223 L120.205 466.223 L120.205 468.214 L107.658 500.783 L102.774 500.783 L114.58 470.159 L97.9826 470.159 L97.9826 466.223 Z" fill="#000000" fill-rule="nonzero" fill-opacity="1" /><path clip-path="url(#clip890)" d="M129.371 466.223 L147.728 466.223 L147.728 470.159 L133.654 470.159 L133.654 478.631 Q134.672 478.284 135.691 478.122 Q136.709 477.936 137.728 477.936 Q143.515 477.936 146.894 481.108 Q150.274 484.279 150.274 489.696 Q150.274 495.274 146.802 498.376 Q143.33 501.455 137.01 501.455 Q134.834 501.455 132.566 501.084 Q130.32 500.714 127.913 499.973 L127.913 495.274 Q129.996 496.408 132.219 496.964 Q134.441 497.52 136.918 497.52 Q140.922 497.52 143.26 495.413 Q145.598 493.307 145.598 489.696 Q145.598 486.084 143.26 483.978 Q140.922 481.872 136.918 481.872 Q135.043 481.872 133.168 482.288 Q131.316 482.705 129.371 483.584 L129.371 466.223 Z" fill="#000000" fill-rule="nonzero" fill-opacity="1" /><path clip-path="url(#clip890)" d="M53.7467 175.392 L61.3856 175.392 L61.3856 149.026 L53.0754 150.693 L53.0754 146.434 L61.3393 144.767 L66.0152 144.767 L66.0152 175.392 L73.654 175.392 L73.654 179.327 L53.7467 179.327 L53.7467 175.392 Z" fill="#000000" fill-rule="nonzero" fill-opacity="1" /><path clip-path="url(#clip890)" d="M83.0984 173.447 L87.9827 173.447 L87.9827 179.327 L83.0984 179.327 L83.0984 173.447 Z" fill="#000000" fill-rule="nonzero" fill-opacity="1" /><path clip-path="url(#clip890)" d="M108.168 147.846 Q104.557 147.846 102.728 151.41 Q100.922 154.952 100.922 162.082 Q100.922 169.188 102.728 172.753 Q104.557 176.295 108.168 176.295 Q111.802 176.295 113.608 172.753 Q115.436 169.188 115.436 162.082 Q115.436 154.952 113.608 151.41 Q111.802 147.846 108.168 147.846 M108.168 144.142 Q113.978 144.142 117.033 148.748 Q120.112 153.332 120.112 162.082 Q120.112 170.808 117.033 175.415 Q113.978 179.998 108.168 179.998 Q102.358 179.998 99.2789 175.415 Q96.2234 170.808 96.2234 162.082 Q96.2234 153.332 99.2789 148.748 Q102.358 144.142 108.168 144.142 Z" fill="#000000" fill-rule="nonzero" fill-opacity="1" /><path clip-path="url(#clip890)" d="M138.33 147.846 Q134.719 147.846 132.89 151.41 Q131.084 154.952 131.084 162.082 Q131.084 169.188 132.89 172.753 Q134.719 176.295 138.33 176.295 Q141.964 176.295 143.769 172.753 Q145.598 169.188 145.598 162.082 Q145.598 154.952 143.769 151.41 Q141.964 147.846 138.33 147.846 M138.33 144.142 Q144.14 144.142 147.195 148.748 Q150.274 153.332 150.274 162.082 Q150.274 170.808 147.195 175.415 Q144.14 179.998 138.33 179.998 Q132.519 179.998 129.441 175.415 Q126.385 170.808 126.385 162.082 Q126.385 153.332 129.441 148.748 Q132.519 144.142 138.33 144.142 Z" fill="#000000" fill-rule="nonzero" fill-opacity="1" /><path clip-path="url(#clip890)" d="M804.248 12.096 L855.411 12.096 L855.411 18.9825 L833.941 18.9825 L833.941 72.576 L825.718 72.576 L825.718 18.9825 L804.248 18.9825 L804.248 12.096 Z" fill="#000000" fill-rule="nonzero" fill-opacity="1" /><path clip-path="url(#clip890)" d="M877.084 34.1734 Q875.828 33.4443 874.329 33.1202 Q872.871 32.7556 871.088 32.7556 Q864.769 32.7556 861.366 36.8875 Q858.004 40.9789 858.004 48.6757 L858.004 72.576 L850.51 72.576 L850.51 27.2059 L858.004 27.2059 L858.004 34.2544 Q860.353 30.1225 864.121 28.1376 Q867.888 26.1121 873.276 26.1121 Q874.045 26.1121 874.977 26.2337 Q875.909 26.3147 877.043 26.5172 L877.084 34.1734 Z" fill="#000000" fill-rule="nonzero" fill-opacity="1" /><path clip-path="url(#clip890)" d="M905.521 49.7694 Q896.487 49.7694 893.004 51.8354 Q889.52 53.9013 889.52 58.8839 Q889.52 62.8538 892.112 65.2034 Q894.746 67.5124 899.242 67.5124 Q905.44 67.5124 909.167 63.1374 Q912.934 58.7219 912.934 51.4303 L912.934 49.7694 L905.521 49.7694 M920.388 46.6907 L920.388 72.576 L912.934 72.576 L912.934 65.6895 Q910.382 69.8214 906.574 71.8063 Q902.766 73.7508 897.257 73.7508 Q890.29 73.7508 886.158 69.8619 Q882.066 65.9325 882.066 59.3701 Q882.066 51.7138 887.17 47.825 Q892.315 43.9361 902.483 43.9361 L912.934 43.9361 L912.934 43.2069 Q912.934 38.0623 909.531 35.2672 Q906.169 32.4315 900.052 32.4315 Q896.163 32.4315 892.477 33.3632 Q888.791 34.295 885.388 36.1584 L885.388 29.2718 Q889.479 27.692 893.328 26.9223 Q897.176 26.1121 900.822 26.1121 Q910.666 26.1121 915.527 31.2163 Q920.388 36.3204 920.388 46.6907 Z" fill="#000000" fill-rule="nonzero" fill-opacity="1" /><path clip-path="url(#clip890)" d="M973.455 45.1919 L973.455 72.576 L966.001 72.576 L966.001 45.4349 Q966.001 38.994 963.489 35.7938 Q960.978 32.5936 955.955 32.5936 Q949.919 32.5936 946.435 36.4419 Q942.951 40.2903 942.951 46.9338 L942.951 72.576 L935.457 72.576 L935.457 27.2059 L942.951 27.2059 L942.951 34.2544 Q945.625 30.163 949.23 28.1376 Q952.876 26.1121 957.616 26.1121 Q965.434 26.1121 969.444 30.9732 Q973.455 35.7938 973.455 45.1919 Z" fill="#000000" fill-rule="nonzero" fill-opacity="1" /><path clip-path="url(#clip890)" d="M1017.24 28.5427 L1017.24 35.5912 Q1014.09 33.9709 1010.68 33.1607 Q1007.28 32.3505 1003.63 32.3505 Q998.084 32.3505 995.289 34.0519 Q992.534 35.7533 992.534 39.156 Q992.534 41.7486 994.519 43.2475 Q996.504 44.7058 1002.5 46.0426 L1005.05 46.6097 Q1012.99 48.3111 1016.31 51.4303 Q1019.68 54.509 1019.68 60.0587 Q1019.68 66.3781 1014.65 70.0644 Q1009.67 73.7508 1000.92 73.7508 Q997.274 73.7508 993.304 73.0216 Q989.375 72.3329 985 70.9151 L985 63.2184 Q989.132 65.3654 993.142 66.4591 Q997.152 67.5124 1001.08 67.5124 Q1006.35 67.5124 1009.18 65.73 Q1012.02 63.9071 1012.02 60.6258 Q1012.02 57.5877 1009.95 55.9673 Q1007.93 54.3469 1001 52.8481 L998.408 52.2405 Q991.481 50.7821 988.402 47.7845 Q985.324 44.7463 985.324 39.4801 Q985.324 33.0797 989.861 29.5959 Q994.398 26.1121 1002.74 26.1121 Q1006.87 26.1121 1010.52 26.7198 Q1014.17 27.3274 1017.24 28.5427 Z" fill="#000000" fill-rule="nonzero" fill-opacity="1" /><path clip-path="url(#clip890)" d="M1031.54 27.2059 L1039 27.2059 L1039 72.576 L1031.54 72.576 L1031.54 27.2059 M1031.54 9.54393 L1039 9.54393 L1039 18.9825 L1031.54 18.9825 L1031.54 9.54393 Z" fill="#000000" fill-rule="nonzero" fill-opacity="1" /><path clip-path="url(#clip890)" d="M1061.97 14.324 L1061.97 27.2059 L1077.32 27.2059 L1077.32 32.9987 L1061.97 32.9987 L1061.97 57.6282 Q1061.97 63.1779 1063.47 64.7578 Q1065.01 66.3376 1069.66 66.3376 L1077.32 66.3376 L1077.32 72.576 L1069.66 72.576 Q1061.04 72.576 1057.75 69.3758 Q1054.47 66.1351 1054.47 57.6282 L1054.47 32.9987 L1049 32.9987 L1049 27.2059 L1054.47 27.2059 L1054.47 14.324 L1061.97 14.324 Z" fill="#000000" fill-rule="nonzero" fill-opacity="1" /><path clip-path="url(#clip890)" d="M1087.12 27.2059 L1094.58 27.2059 L1094.58 72.576 L1087.12 72.576 L1087.12 27.2059 M1087.12 9.54393 L1094.58 9.54393 L1094.58 18.9825 L1087.12 18.9825 L1087.12 9.54393 Z" fill="#000000" fill-rule="nonzero" fill-opacity="1" /><path clip-path="url(#clip890)" d="M1127.75 32.4315 Q1121.76 32.4315 1118.27 37.1306 Q1114.79 41.7891 1114.79 49.9314 Q1114.79 58.0738 1118.23 62.7728 Q1121.72 67.4314 1127.75 67.4314 Q1133.71 67.4314 1137.19 62.7323 Q1140.68 58.0333 1140.68 49.9314 Q1140.68 41.8701 1137.19 37.1711 Q1133.71 32.4315 1127.75 32.4315 M1127.75 26.1121 Q1137.48 26.1121 1143.03 32.4315 Q1148.58 38.7509 1148.58 49.9314 Q1148.58 61.0714 1143.03 67.4314 Q1137.48 73.7508 1127.75 73.7508 Q1117.99 73.7508 1112.44 67.4314 Q1106.93 61.0714 1106.93 49.9314 Q1106.93 38.7509 1112.44 32.4315 Q1117.99 26.1121 1127.75 26.1121 Z" fill="#000000" fill-rule="nonzero" fill-opacity="1" /><path clip-path="url(#clip890)" d="M1198.64 45.1919 L1198.64 72.576 L1191.19 72.576 L1191.19 45.4349 Q1191.19 38.994 1188.68 35.7938 Q1186.17 32.5936 1181.14 32.5936 Q1175.11 32.5936 1171.62 36.4419 Q1168.14 40.2903 1168.14 46.9338 L1168.14 72.576 L1160.65 72.576 L1160.65 27.2059 L1168.14 27.2059 L1168.14 34.2544 Q1170.81 30.163 1174.42 28.1376 Q1178.07 26.1121 1182.81 26.1121 Q1190.62 26.1121 1194.63 30.9732 Q1198.64 35.7938 1198.64 45.1919 Z" fill="#000000" fill-rule="nonzero" fill-opacity="1" /><path clip-path="url(#clip890)" d="M1248.39 18.8205 L1248.39 41.5461 L1258.68 41.5461 Q1264.39 41.5461 1267.51 38.5889 Q1270.63 35.6318 1270.63 30.163 Q1270.63 24.7348 1267.51 21.7777 Q1264.39 18.8205 1258.68 18.8205 L1248.39 18.8205 M1240.21 12.096 L1258.68 12.096 Q1268.85 12.096 1274.03 16.714 Q1279.26 21.2916 1279.26 30.163 Q1279.26 39.1155 1274.03 43.6931 Q1268.85 48.2706 1258.68 48.2706 L1248.39 48.2706 L1248.39 72.576 L1240.21 72.576 L1240.21 12.096 Z" fill="#000000" fill-rule="nonzero" fill-opacity="1" /><path clip-path="url(#clip890)" d="M1314.74 34.1734 Q1313.49 33.4443 1311.99 33.1202 Q1310.53 32.7556 1308.75 32.7556 Q1302.43 32.7556 1299.03 36.8875 Q1295.66 40.9789 1295.66 48.6757 L1295.66 72.576 L1288.17 72.576 L1288.17 27.2059 L1295.66 27.2059 L1295.66 34.2544 Q1298.01 30.1225 1301.78 28.1376 Q1305.55 26.1121 1310.94 26.1121 Q1311.71 26.1121 1312.64 26.2337 Q1313.57 26.3147 1314.7 26.5172 L1314.74 34.1734 Z" fill="#000000" fill-rule="nonzero" fill-opacity="1" /><path clip-path="url(#clip890)" d="M1338.32 32.4315 Q1332.32 32.4315 1328.84 37.1306 Q1325.36 41.7891 1325.36 49.9314 Q1325.36 58.0738 1328.8 62.7728 Q1332.28 67.4314 1338.32 67.4314 Q1344.27 67.4314 1347.76 62.7323 Q1351.24 58.0333 1351.24 49.9314 Q1351.24 41.8701 1347.76 37.1711 Q1344.27 32.4315 1338.32 32.4315 M1338.32 26.1121 Q1348.04 26.1121 1353.59 32.4315 Q1359.14 38.7509 1359.14 49.9314 Q1359.14 61.0714 1353.59 67.4314 Q1348.04 73.7508 1338.32 73.7508 Q1328.56 73.7508 1323.01 67.4314 Q1317.5 61.0714 1317.5 49.9314 Q1317.5 38.7509 1323.01 32.4315 Q1328.56 26.1121 1338.32 26.1121 Z" fill="#000000" fill-rule="nonzero" fill-opacity="1" /><path clip-path="url(#clip890)" d="M1404.07 49.9314 Q1404.07 41.7081 1400.66 37.0496 Q1397.3 32.3505 1391.39 32.3505 Q1385.47 32.3505 1382.07 37.0496 Q1378.71 41.7081 1378.71 49.9314 Q1378.71 58.1548 1382.07 62.8538 Q1385.47 67.5124 1391.39 67.5124 Q1397.3 67.5124 1400.66 62.8538 Q1404.07 58.1548 1404.07 49.9314 M1378.71 34.0924 Q1381.06 30.0415 1384.62 28.0971 Q1388.23 26.1121 1393.21 26.1121 Q1401.47 26.1121 1406.62 32.6746 Q1411.8 39.2371 1411.8 49.9314 Q1411.8 60.6258 1406.62 67.1883 Q1401.47 73.7508 1393.21 73.7508 Q1388.23 73.7508 1384.62 71.8063 Q1381.06 69.8214 1378.71 65.7705 L1378.71 72.576 L1371.21 72.576 L1371.21 9.54393 L1378.71 9.54393 L1378.71 34.0924 Z" fill="#000000" fill-rule="nonzero" fill-opacity="1" /><path clip-path="url(#clip890)" d="M1444.78 49.7694 Q1435.74 49.7694 1432.26 51.8354 Q1428.78 53.9013 1428.78 58.8839 Q1428.78 62.8538 1431.37 65.2034 Q1434 67.5124 1438.5 67.5124 Q1444.7 67.5124 1448.42 63.1374 Q1452.19 58.7219 1452.19 51.4303 L1452.19 49.7694 L1444.78 49.7694 M1459.64 46.6907 L1459.64 72.576 L1452.19 72.576 L1452.19 65.6895 Q1449.64 69.8214 1445.83 71.8063 Q1442.02 73.7508 1436.51 73.7508 Q1429.55 73.7508 1425.41 69.8619 Q1421.32 65.9325 1421.32 59.3701 Q1421.32 51.7138 1426.43 47.825 Q1431.57 43.9361 1441.74 43.9361 L1452.19 43.9361 L1452.19 43.2069 Q1452.19 38.0623 1448.79 35.2672 Q1445.43 32.4315 1439.31 32.4315 Q1435.42 32.4315 1431.73 33.3632 Q1428.05 34.295 1424.64 36.1584 L1424.64 29.2718 Q1428.74 27.692 1432.58 26.9223 Q1436.43 26.1121 1440.08 26.1121 Q1449.92 26.1121 1454.78 31.2163 Q1459.64 36.3204 1459.64 46.6907 Z" fill="#000000" fill-rule="nonzero" fill-opacity="1" /><path clip-path="url(#clip890)" d="M1507.57 49.9314 Q1507.57 41.7081 1504.16 37.0496 Q1500.8 32.3505 1494.89 32.3505 Q1488.97 32.3505 1485.57 37.0496 Q1482.21 41.7081 1482.21 49.9314 Q1482.21 58.1548 1485.57 62.8538 Q1488.97 67.5124 1494.89 67.5124 Q1500.8 67.5124 1504.16 62.8538 Q1507.57 58.1548 1507.57 49.9314 M1482.21 34.0924 Q1484.56 30.0415 1488.12 28.0971 Q1491.73 26.1121 1496.71 26.1121 Q1504.97 26.1121 1510.12 32.6746 Q1515.3 39.2371 1515.3 49.9314 Q1515.3 60.6258 1510.12 67.1883 Q1504.97 73.7508 1496.71 73.7508 Q1491.73 73.7508 1488.12 71.8063 Q1484.56 69.8214 1482.21 65.7705 L1482.21 72.576 L1474.71 72.576 L1474.71 9.54393 L1482.21 9.54393 L1482.21 34.0924 Z" fill="#000000" fill-rule="nonzero" fill-opacity="1" /><path clip-path="url(#clip890)" d="M1527.66 27.2059 L1535.11 27.2059 L1535.11 72.576 L1527.66 72.576 L1527.66 27.2059 M1527.66 9.54393 L1535.11 9.54393 L1535.11 18.9825 L1527.66 18.9825 L1527.66 9.54393 Z" fill="#000000" fill-rule="nonzero" fill-opacity="1" /><path clip-path="url(#clip890)" d="M1550.71 9.54393 L1558.16 9.54393 L1558.16 72.576 L1550.71 72.576 L1550.71 9.54393 Z" fill="#000000" fill-rule="nonzero" fill-opacity="1" /><path clip-path="url(#clip890)" d="M1573.76 27.2059 L1581.21 27.2059 L1581.21 72.576 L1573.76 72.576 L1573.76 27.2059 M1573.76 9.54393 L1581.21 9.54393 L1581.21 18.9825 L1573.76 18.9825 L1573.76 9.54393 Z" fill="#000000" fill-rule="nonzero" fill-opacity="1" /><path clip-path="url(#clip890)" d="M1604.18 14.324 L1604.18 27.2059 L1619.53 27.2059 L1619.53 32.9987 L1604.18 32.9987 L1604.18 57.6282 Q1604.18 63.1779 1605.68 64.7578 Q1607.22 66.3376 1611.88 66.3376 L1619.53 66.3376 L1619.53 72.576 L1611.88 72.576 Q1603.25 72.576 1599.97 69.3758 Q1596.69 66.1351 1596.69 57.6282 L1596.69 32.9987 L1591.22 32.9987 L1591.22 27.2059 L1596.69 27.2059 L1596.69 14.324 L1604.18 14.324 Z" fill="#000000" fill-rule="nonzero" fill-opacity="1" /><path clip-path="url(#clip890)" d="M1629.34 27.2059 L1636.79 27.2059 L1636.79 72.576 L1629.34 72.576 L1629.34 27.2059 M1629.34 9.54393 L1636.79 9.54393 L1636.79 18.9825 L1629.34 18.9825 L1629.34 9.54393 Z" fill="#000000" fill-rule="nonzero" fill-opacity="1" /><path clip-path="url(#clip890)" d="M1691.19 48.0275 L1691.19 51.6733 L1656.92 51.6733 Q1657.41 59.3701 1661.54 63.421 Q1665.71 67.4314 1673.13 67.4314 Q1677.42 67.4314 1681.43 66.3781 Q1685.48 65.3249 1689.45 63.2184 L1689.45 70.267 Q1685.44 71.9684 1681.23 72.8596 Q1677.02 73.7508 1672.68 73.7508 Q1661.82 73.7508 1655.46 67.4314 Q1649.15 61.1119 1649.15 50.3365 Q1649.15 39.1965 1655.14 32.6746 Q1661.18 26.1121 1671.38 26.1121 Q1680.54 26.1121 1685.85 32.0264 Q1691.19 37.9003 1691.19 48.0275 M1683.74 45.84 Q1683.66 39.7232 1680.3 36.0774 Q1676.98 32.4315 1671.47 32.4315 Q1665.23 32.4315 1661.46 35.9558 Q1657.73 39.4801 1657.17 45.8805 L1683.74 45.84 Z" fill="#000000" fill-rule="nonzero" fill-opacity="1" /><path clip-path="url(#clip890)" d="M1732.35 28.5427 L1732.35 35.5912 Q1729.19 33.9709 1725.79 33.1607 Q1722.39 32.3505 1718.74 32.3505 Q1713.19 32.3505 1710.4 34.0519 Q1707.64 35.7533 1707.64 39.156 Q1707.64 41.7486 1709.63 43.2475 Q1711.61 44.7058 1717.61 46.0426 L1720.16 46.6097 Q1728.1 48.3111 1731.42 51.4303 Q1734.78 54.509 1734.78 60.0587 Q1734.78 66.3781 1729.76 70.0644 Q1724.78 73.7508 1716.03 73.7508 Q1712.38 73.7508 1708.41 73.0216 Q1704.48 72.3329 1700.11 70.9151 L1700.11 63.2184 Q1704.24 65.3654 1708.25 66.4591 Q1712.26 67.5124 1716.19 67.5124 Q1721.45 67.5124 1724.29 65.73 Q1727.13 63.9071 1727.13 60.6258 Q1727.13 57.5877 1725.06 55.9673 Q1723.03 54.3469 1716.11 52.8481 L1713.51 52.2405 Q1706.59 50.7821 1703.51 47.7845 Q1700.43 44.7463 1700.43 39.4801 Q1700.43 33.0797 1704.97 29.5959 Q1709.5 26.1121 1717.85 26.1121 Q1721.98 26.1121 1725.63 26.7198 Q1729.27 27.3274 1732.35 28.5427 Z" fill="#000000" fill-rule="nonzero" fill-opacity="1" /><polyline clip-path="url(#clip892)" style="stroke:#009af9; stroke-linecap:round; stroke-linejoin:round; stroke-width:4; stroke-opacity:1; fill:none" points="247.59,1390.86 252.712,1447.87 257.834,1437.57 262.957,1439.92 268.079,1447.81 273.202,1447.63 278.324,1447.87 283.447,1447.87 288.569,1028.54 293.691,374.077 298.814,317.851 303.936,245.243 309.059,215.043 314.181,1353.63 319.304,1447.24 324.426,1442.93 329.548,1447.3 334.671,1447.85 339.793,1447.87 344.916,1446.17 350.038,1346.88 355.161,1285.12 360.283,317.334 365.405,162.093 370.528,166.706 375.65,168.312 380.773,173.941 385.895,192.871 391.018,208.524 396.14,222.68 401.263,235.592 406.385,195.844 411.507,194.763 416.63,186.743 421.752,174.418 426.875,171.434 431.997,166.615 437.12,169.103 442.242,186.745 447.364,181.224 452.487,171.867 457.609,162.061 462.732,168.387 467.854,162.421 472.977,165.04 478.099,162.152 483.221,164.153 488.344,162.639 493.466,162.047 498.589,163.555 503.711,166.562 508.834,162.189 513.956,162.096 519.078,167.128 524.201,168.392 529.323,163.796 534.446,162.138 539.568,166.177 544.691,183.096 549.813,189.756 554.936,200.008 560.058,186.307 565.18,168.77 570.303,166.067 575.425,164.013 580.548,166.216 585.67,162.451 590.793,164.723 595.915,183.543 601.037,173.36 606.16,162.051 611.282,162.991 616.405,167.064 621.527,169.267 626.65,162.75 631.772,162.076 636.894,162.66 642.017,164.737 647.139,178.697 652.262,175.887 657.384,174.585 662.507,169.748 667.629,172.118 672.751,167.674 677.874,163.063 682.996,163.807 688.119,165.185 693.241,165.523 698.364,162.13 703.486,162.063 708.609,168.429 713.731,163.388 718.853,170.087 723.976,164.374 729.098,197.251 734.221,198.6 739.343,200.873 744.466,197.28 749.588,177.325 754.71,164.279 759.833,165.666 764.955,162.198 770.078,166.18 775.2,195.975 780.323,162.877 785.445,183.372 790.567,214.013 795.69,218.896 800.812,184.175 805.935,181.348 811.057,174.463 816.18,167.625 821.302,162.238 826.424,203.851 831.547,229.368 836.669,272.186 841.792,475.764 846.914,1001.72 852.037,1441.31 857.159,1374.85 862.282,979.154 867.404,483.549 872.526,382.319 877.649,321.403 882.771,242.019 887.894,213.435 893.016,174.236 898.139,165.787 903.261,310.256 908.383,359.399 913.506,620.638 918.628,1016.13 923.751,1211.06 928.873,1447.73 933.996,1447.1 939.118,1439.67 944.24,1438.74 949.363,1015.12 954.485,531.372 959.608,224.772 964.73,241.389 969.853,235.653 974.975,221.154 980.097,214.342 985.22,222.316 990.342,519.808 995.465,586.733 1000.59,404.214 1005.71,321.101 1010.83,287.149 1015.95,183.17 1021.08,162.083 1026.2,166.366 1031.32,165.077 1036.44,162.048 1041.57,162.369 1046.69,166.117 1051.81,162.305 1056.93,162.079 1062.06,168.815 1067.18,168.757 1072.3,165.13 1077.42,168.192 1082.55,168.882 1087.67,187.516 1092.79,166.739 1097.91,183.094 1103.04,234.881 1108.16,241.24 1113.28,245.871 1118.4,244.52 1123.53,230.786 1128.65,216.631 1133.77,235.308 1138.89,259.122 1144.02,275.455 1149.14,375.43 1154.26,517.149 1159.38,905.013 1164.51,1434.1 1169.63,1443.99 1174.75,1447.87 1179.87,1403.39 1184.99,1039.58 1190.12,431.502 1195.24,331.538 1200.36,237.053 1205.48,204.324 1210.61,279.561 1215.73,233.787 1220.85,480.036 1225.97,389.752 1231.1,1447.05 1236.22,1447.87 1241.34,1446.02 1246.46,1438.06 1251.59,1447.87 1256.71,1442.85 1261.83,1447.82 1266.95,1441.99 1272.08,1443.42 1277.2,1430.47 1282.32,1442.92 1287.44,1447.87 1292.57,1441.72 1297.69,1447.28 1302.81,1442.76 1307.93,1447.81 1313.06,1395.48 1318.18,1246.6 1323.3,1085.6 1328.42,1091.33 1333.55,1123.46 1338.67,1146.33 1343.79,1315.01 1348.91,1347.55 1354.04,1392.13 1359.16,1416.23 1364.28,1447.86 1369.4,1444.49 1374.52,1435.38 1379.65,1432.72 1384.77,1434.03 1389.89,1350.73 1395.01,1146.31 1400.14,976.122 1405.26,1447.87 1410.38,1447.81 1415.5,1443.65 1420.63,1440.52 1425.75,1445.11 1430.87,1447.86 1435.99,1447.86 1441.12,1447.87 1446.24,1443.85 1451.36,1445.99 1456.48,1441.44 1461.61,1447.83 1466.73,1447.36 1471.85,1447.41 1476.97,1447.87 1482.1,1447.7 1487.22,1447.81 1492.34,1421.01 1497.46,1428.97 1502.59,1435.33 1507.71,1430.61 1512.83,1429.67 1517.95,1447.87 1523.08,1447.66 1528.2,1407.88 1533.32,1409.98 1538.44,1419.44 1543.57,1434.25 1548.69,1440.33 1553.81,1433.55 1558.93,1436.67 1564.05,218.191 1569.18,167.542 1574.3,162.443 1579.42,162.433 1584.54,163.056 1589.67,166.024 1594.79,166.578 1599.91,164.133 1605.03,162.047 1610.16,168.771 1615.28,170.613 1620.4,164.385 1625.52,163.872 1630.65,164.453 1635.77,166.589 1640.89,168.12 1646.01,163.733 1651.14,166.121 1656.26,164.024 1661.38,162.291 1666.5,162.12 1671.63,162.06 1676.75,162.076 1681.87,162.047 1686.99,162.2 1692.12,165.91 1697.24,163.275 1702.36,167.376 1707.48,169.195 1712.61,169.306 1717.73,163.7 1722.85,168.877 1727.97,168.732 1733.1,165.134 1738.22,166.257 1743.34,228.475 1748.46,315.524 1753.58,297.237 1758.71,162.487 1763.83,257.211 1768.95,357.943 1774.07,366.517 1779.2,356.684 1784.32,259.253 1789.44,210.419 1794.56,166.936 1799.69,162.686 1804.81,162.225 1809.93,166.241 1815.05,167.699 1820.18,163.451 1825.3,163.472 1830.42,170.751 1835.54,173.132 1840.67,169.398 1845.79,162.906 1850.91,162.227 1856.03,167.537 1861.16,162.049 1866.28,162.047 1871.4,163.183 1876.52,163.663 1881.65,163.425 1886.77,173.225 1891.89,178.874 1897.01,175.574 1902.14,170.742 1907.26,162.088 1912.38,166.956 1917.5,162.06 1922.63,164.514 1927.75,164.701 1932.87,162.79 1937.99,163.657 1943.11,177.178 1948.24,221.8 1953.36,299.062 1958.48,376.767 1963.6,438.699 1968.73,541.348 1973.85,1197.94 1978.97,163.474 1984.09,162.07 1989.22,164.61 1994.34,162.109 1999.46,165.562 2004.58,162.284 2009.71,178.837 2014.83,177.421 2019.95,175.463 2025.07,170.765 2030.2,191.176 2035.32,212.929 2040.44,387.331 2045.56,635.962 2050.69,871.528 2055.81,1115.89 2060.93,1446.9 2066.05,1447.85 2071.18,1434.14 2076.3,1046.51 2081.42,719.201 2086.54,583.197 2091.67,228.383 2096.79,180.192 2101.91,167.942 2107.03,162.261 2112.16,165.312 2117.28,164.586 2122.4,167.386 2127.52,205.381 2132.64,169.148 2137.77,171.648 2142.89,162.051 2148.01,162.06 2153.13,169.104 2158.26,164.156 2163.38,167.587 2168.5,175.057 2173.62,174.057 2178.75,170.405 2183.87,167.214 2188.99,169.177 2194.11,172.304 2199.24,176.286 2204.36,172.722 2209.48,170.6 2214.6,167.183 2219.73,175.478 2224.85,178.953 2229.97,163.002 2235.09,162.07 2240.22,162.078 2245.34,168.563 2250.46,163.355 2255.58,162.815 2260.71,165.746 2265.83,163.376 2270.95,165.002 2276.07,162.12 2281.2,162.083 2286.32,162.43 2291.44,195.536 "/>
<polyline clip-path="url(#clip892)" style="stroke:#e26f46; stroke-linecap:round; stroke-linejoin:round; stroke-width:4; stroke-opacity:1; fill:none" points="247.59,1447.87 252.712,1447.87 257.834,1447.87 262.957,1447.87 268.079,1447.87 273.202,1447.87 278.324,1447.87 283.447,1447.87 288.569,162.047 293.691,162.047 298.814,162.047 303.936,162.047 309.059,162.047 314.181,1447.87 319.304,1447.87 324.426,1447.87 329.548,1447.87 334.671,1447.87 339.793,1447.87 344.916,1447.87 350.038,1447.87 355.161,1447.87 360.283,162.047 365.405,162.047 370.528,162.047 375.65,162.047 380.773,162.047 385.895,162.047 391.018,162.047 396.14,162.047 401.263,162.047 406.385,162.047 411.507,162.047 416.63,162.047 421.752,162.047 426.875,162.047 431.997,162.047 437.12,162.047 442.242,1447.87 447.364,1447.87 452.487,162.047 457.609,162.047 462.732,162.047 467.854,162.047 472.977,162.047 478.099,162.047 483.221,162.047 488.344,162.047 493.466,162.047 498.589,162.047 503.711,162.047 508.834,162.047 513.956,162.047 519.078,162.047 524.201,162.047 529.323,162.047 534.446,162.047 539.568,162.047 544.691,162.047 549.813,162.047 554.936,162.047 560.058,162.047 565.18,162.047 570.303,162.047 575.425,162.047 580.548,162.047 585.67,162.047 590.793,162.047 595.915,162.047 601.037,162.047 606.16,162.047 611.282,162.047 616.405,162.047 621.527,162.047 626.65,162.047 631.772,162.047 636.894,162.047 642.017,162.047 647.139,1447.87 652.262,1447.87 657.384,1447.87 662.507,162.047 667.629,162.047 672.751,162.047 677.874,162.047 682.996,162.047 688.119,162.047 693.241,162.047 698.364,162.047 703.486,162.047 708.609,162.047 713.731,162.047 718.853,162.047 723.976,162.047 729.098,162.047 734.221,162.047 739.343,162.047 744.466,162.047 749.588,162.047 754.71,162.047 759.833,162.047 764.955,162.047 770.078,162.047 775.2,162.047 780.323,162.047 785.445,162.047 790.567,162.047 795.69,162.047 800.812,162.047 805.935,162.047 811.057,162.047 816.18,162.047 821.302,162.047 826.424,162.047 831.547,162.047 836.669,162.047 841.792,1447.87 846.914,1447.87 852.037,1447.87 857.159,1447.87 862.282,1447.87 867.404,162.047 872.526,162.047 877.649,162.047 882.771,162.047 887.894,162.047 893.016,162.047 898.139,162.047 903.261,162.047 908.383,1447.87 913.506,1447.87 918.628,1447.87 923.751,1447.87 928.873,1447.87 933.996,1447.87 939.118,1447.87 944.24,1447.87 949.363,162.047 954.485,162.047 959.608,162.047 964.73,162.047 969.853,162.047 974.975,162.047 980.097,162.047 985.22,162.047 990.342,1447.87 995.465,1447.87 1000.59,1447.87 1005.71,162.047 1010.83,162.047 1015.95,162.047 1021.08,162.047 1026.2,162.047 1031.32,162.047 1036.44,162.047 1041.57,162.047 1046.69,162.047 1051.81,162.047 1056.93,162.047 1062.06,162.047 1067.18,162.047 1072.3,162.047 1077.42,162.047 1082.55,162.047 1087.67,162.047 1092.79,162.047 1097.91,162.047 1103.04,162.047 1108.16,162.047 1113.28,162.047 1118.4,162.047 1123.53,162.047 1128.65,162.047 1133.77,162.047 1138.89,162.047 1144.02,162.047 1149.14,162.047 1154.26,162.047 1159.38,162.047 1164.51,1447.87 1169.63,1447.87 1174.75,1447.87 1179.87,1447.87 1184.99,1447.87 1190.12,162.047 1195.24,162.047 1200.36,162.047 1205.48,162.047 1210.61,162.047 1215.73,162.047 1220.85,162.047 1225.97,162.047 1231.1,1447.87 1236.22,1447.87 1241.34,1447.87 1246.46,1447.87 1251.59,1447.87 1256.71,1447.87 1261.83,1447.87 1266.95,1447.87 1272.08,1447.87 1277.2,1447.87 1282.32,1447.87 1287.44,1447.87 1292.57,1447.87 1297.69,1447.87 1302.81,1447.87 1307.93,1447.87 1313.06,1447.87 1318.18,1447.87 1323.3,1447.87 1328.42,1447.87 1333.55,1447.87 1338.67,1447.87 1343.79,1447.87 1348.91,1447.87 1354.04,1447.87 1359.16,1447.87 1364.28,1447.87 1369.4,1447.87 1374.52,1447.87 1379.65,1447.87 1384.77,1447.87 1389.89,1447.87 1395.01,162.047 1400.14,162.047 1405.26,1447.87 1410.38,1447.87 1415.5,1447.87 1420.63,1447.87 1425.75,1447.87 1430.87,1447.87 1435.99,1447.87 1441.12,1447.87 1446.24,1447.87 1451.36,1447.87 1456.48,1447.87 1461.61,1447.87 1466.73,1447.87 1471.85,1447.87 1476.97,1447.87 1482.1,1447.87 1487.22,1447.87 1492.34,1447.87 1497.46,1447.87 1502.59,1447.87 1507.71,1447.87 1512.83,1447.87 1517.95,1447.87 1523.08,1447.87 1528.2,1447.87 1533.32,1447.87 1538.44,1447.87 1543.57,1447.87 1548.69,1447.87 1553.81,1447.87 1558.93,1447.87 1564.05,162.047 1569.18,162.047 1574.3,162.047 1579.42,162.047 1584.54,162.047 1589.67,162.047 1594.79,162.047 1599.91,162.047 1605.03,162.047 1610.16,162.047 1615.28,162.047 1620.4,162.047 1625.52,162.047 1630.65,162.047 1635.77,162.047 1640.89,162.047 1646.01,162.047 1651.14,162.047 1656.26,162.047 1661.38,162.047 1666.5,162.047 1671.63,162.047 1676.75,162.047 1681.87,162.047 1686.99,162.047 1692.12,162.047 1697.24,162.047 1702.36,162.047 1707.48,162.047 1712.61,162.047 1717.73,162.047 1722.85,162.047 1727.97,162.047 1733.1,162.047 1738.22,162.047 1743.34,162.047 1748.46,162.047 1753.58,162.047 1758.71,162.047 1763.83,162.047 1768.95,162.047 1774.07,162.047 1779.2,162.047 1784.32,162.047 1789.44,162.047 1794.56,162.047 1799.69,162.047 1804.81,162.047 1809.93,162.047 1815.05,162.047 1820.18,162.047 1825.3,162.047 1830.42,162.047 1835.54,162.047 1840.67,162.047 1845.79,162.047 1850.91,162.047 1856.03,162.047 1861.16,162.047 1866.28,162.047 1871.4,162.047 1876.52,162.047 1881.65,162.047 1886.77,162.047 1891.89,162.047 1897.01,162.047 1902.14,162.047 1907.26,162.047 1912.38,162.047 1917.5,162.047 1922.63,162.047 1927.75,162.047 1932.87,162.047 1937.99,162.047 1943.11,162.047 1948.24,162.047 1953.36,162.047 1958.48,162.047 1963.6,162.047 1968.73,162.047 1973.85,162.047 1978.97,162.047 1984.09,162.047 1989.22,162.047 1994.34,162.047 1999.46,162.047 2004.58,162.047 2009.71,162.047 2014.83,162.047 2019.95,162.047 2025.07,162.047 2030.2,162.047 2035.32,162.047 2040.44,1447.87 2045.56,1447.87 2050.69,1447.87 2055.81,1447.87 2060.93,1447.87 2066.05,1447.87 2071.18,1447.87 2076.3,1447.87 2081.42,1447.87 2086.54,1447.87 2091.67,162.047 2096.79,162.047 2101.91,162.047 2107.03,162.047 2112.16,162.047 2117.28,162.047 2122.4,162.047 2127.52,162.047 2132.64,162.047 2137.77,162.047 2142.89,162.047 2148.01,162.047 2153.13,162.047 2158.26,162.047 2163.38,162.047 2168.5,162.047 2173.62,162.047 2178.75,162.047 2183.87,162.047 2188.99,162.047 2194.11,162.047 2199.24,162.047 2204.36,162.047 2209.48,162.047 2214.6,162.047 2219.73,162.047 2224.85,162.047 2229.97,162.047 2235.09,162.047 2240.22,162.047 2245.34,162.047 2250.46,162.047 2255.58,162.047 2260.71,162.047 2265.83,162.047 2270.95,162.047 2276.07,162.047 2281.2,162.047 2286.32,162.047 2291.44,162.047 "/>
<path clip-path="url(#clip890)" d="M1849.1 1441.02 L2280.54 1441.02 L2280.54 1285.5 L1849.1 1285.5  Z" fill="#ffffff" fill-rule="evenodd" fill-opacity="1"/>
<polyline clip-path="url(#clip890)" style="stroke:#000000; stroke-linecap:round; stroke-linejoin:round; stroke-width:4; stroke-opacity:1; fill:none" points="1849.1,1441.02 2280.54,1441.02 2280.54,1285.5 1849.1,1285.5 1849.1,1441.02 "/>
<polyline clip-path="url(#clip890)" style="stroke:#009af9; stroke-linecap:round; stroke-linejoin:round; stroke-width:4; stroke-opacity:1; fill:none" points="1873.17,1337.34 2017.61,1337.34 "/>
<path clip-path="url(#clip890)" d="M2058.07 1338.41 Q2059.57 1338.92 2060.98 1340.59 Q2062.42 1342.25 2063.85 1345.17 L2068.6 1354.62 L2063.58 1354.62 L2059.15 1345.75 Q2057.44 1342.28 2055.82 1341.14 Q2054.22 1340.01 2051.45 1340.01 L2046.35 1340.01 L2046.35 1354.62 L2041.68 1354.62 L2041.68 1320.06 L2052.23 1320.06 Q2058.16 1320.06 2061.08 1322.53 Q2063.99 1325.01 2063.99 1330.01 Q2063.99 1333.27 2062.46 1335.43 Q2060.96 1337.58 2058.07 1338.41 M2046.35 1323.9 L2046.35 1336.17 L2052.23 1336.17 Q2055.61 1336.17 2057.33 1334.62 Q2059.06 1333.04 2059.06 1330.01 Q2059.06 1326.98 2057.33 1325.45 Q2055.61 1323.9 2052.23 1323.9 L2046.35 1323.9 Z" fill="#000000" fill-rule="nonzero" fill-opacity="1" /><path clip-path="url(#clip890)" d="M2094.48 1340.59 L2094.48 1342.67 L2074.89 1342.67 Q2075.17 1347.07 2077.53 1349.38 Q2079.92 1351.68 2084.15 1351.68 Q2086.61 1351.68 2088.9 1351.07 Q2091.21 1350.47 2093.48 1349.27 L2093.48 1353.3 Q2091.19 1354.27 2088.78 1354.78 Q2086.38 1355.29 2083.9 1355.29 Q2077.7 1355.29 2074.06 1351.68 Q2070.45 1348.06 2070.45 1341.91 Q2070.45 1335.54 2073.88 1331.81 Q2077.33 1328.06 2083.16 1328.06 Q2088.39 1328.06 2091.42 1331.44 Q2094.48 1334.8 2094.48 1340.59 M2090.22 1339.34 Q2090.17 1335.84 2088.25 1333.76 Q2086.35 1331.68 2083.2 1331.68 Q2079.64 1331.68 2077.49 1333.69 Q2075.36 1335.7 2075.03 1339.36 L2090.22 1339.34 Z" fill="#000000" fill-rule="nonzero" fill-opacity="1" /><path clip-path="url(#clip890)" d="M2118.53 1341.35 Q2118.53 1336.72 2116.61 1334.18 Q2114.71 1331.63 2111.26 1331.63 Q2107.83 1331.63 2105.91 1334.18 Q2104.01 1336.72 2104.01 1341.35 Q2104.01 1345.96 2105.91 1348.5 Q2107.83 1351.05 2111.26 1351.05 Q2114.71 1351.05 2116.61 1348.5 Q2118.53 1345.96 2118.53 1341.35 M2122.79 1351.4 Q2122.79 1358.02 2119.85 1361.24 Q2116.91 1364.48 2110.84 1364.48 Q2108.6 1364.48 2106.61 1364.13 Q2104.62 1363.81 2102.74 1363.11 L2102.74 1358.97 Q2104.62 1359.99 2106.45 1360.47 Q2108.27 1360.96 2110.17 1360.96 Q2114.36 1360.96 2116.45 1358.76 Q2118.53 1356.58 2118.53 1352.16 L2118.53 1350.06 Q2117.21 1352.35 2115.15 1353.48 Q2113.09 1354.62 2110.22 1354.62 Q2105.45 1354.62 2102.53 1350.98 Q2099.62 1347.35 2099.62 1341.35 Q2099.62 1335.33 2102.53 1331.7 Q2105.45 1328.06 2110.22 1328.06 Q2113.09 1328.06 2115.15 1329.2 Q2117.21 1330.33 2118.53 1332.62 L2118.53 1328.69 L2122.79 1328.69 L2122.79 1351.4 Z" fill="#000000" fill-rule="nonzero" fill-opacity="1" /><path clip-path="url(#clip890)" d="M2131.56 1328.69 L2135.82 1328.69 L2135.82 1354.62 L2131.56 1354.62 L2131.56 1328.69 M2131.56 1318.6 L2135.82 1318.6 L2135.82 1323.99 L2131.56 1323.99 L2131.56 1318.6 Z" fill="#000000" fill-rule="nonzero" fill-opacity="1" /><path clip-path="url(#clip890)" d="M2164.92 1333.67 Q2166.51 1330.8 2168.74 1329.43 Q2170.96 1328.06 2173.97 1328.06 Q2178.02 1328.06 2180.22 1330.91 Q2182.42 1333.74 2182.42 1338.97 L2182.42 1354.62 L2178.13 1354.62 L2178.13 1339.11 Q2178.13 1335.38 2176.82 1333.57 Q2175.5 1331.77 2172.79 1331.77 Q2169.48 1331.77 2167.56 1333.97 Q2165.63 1336.17 2165.63 1339.96 L2165.63 1354.62 L2161.35 1354.62 L2161.35 1339.11 Q2161.35 1335.36 2160.03 1333.57 Q2158.71 1331.77 2155.96 1331.77 Q2152.7 1331.77 2150.77 1333.99 Q2148.85 1336.19 2148.85 1339.96 L2148.85 1354.62 L2144.57 1354.62 L2144.57 1328.69 L2148.85 1328.69 L2148.85 1332.72 Q2150.31 1330.33 2152.35 1329.2 Q2154.39 1328.06 2157.19 1328.06 Q2160.01 1328.06 2161.98 1329.5 Q2163.97 1330.93 2164.92 1333.67 Z" fill="#000000" fill-rule="nonzero" fill-opacity="1" /><path clip-path="url(#clip890)" d="M2213.09 1340.59 L2213.09 1342.67 L2193.51 1342.67 Q2193.78 1347.07 2196.14 1349.38 Q2198.53 1351.68 2202.76 1351.68 Q2205.22 1351.68 2207.51 1351.07 Q2209.82 1350.47 2212.09 1349.27 L2212.09 1353.3 Q2209.8 1354.27 2207.39 1354.78 Q2204.99 1355.29 2202.51 1355.29 Q2196.31 1355.29 2192.67 1351.68 Q2189.06 1348.06 2189.06 1341.91 Q2189.06 1335.54 2192.49 1331.81 Q2195.94 1328.06 2201.77 1328.06 Q2207 1328.06 2210.03 1331.44 Q2213.09 1334.8 2213.09 1340.59 M2208.83 1339.34 Q2208.78 1335.84 2206.86 1333.76 Q2204.96 1331.68 2201.82 1331.68 Q2198.25 1331.68 2196.1 1333.69 Q2193.97 1335.7 2193.64 1339.36 L2208.83 1339.34 Z" fill="#000000" fill-rule="nonzero" fill-opacity="1" /><path clip-path="url(#clip890)" d="M2236.56 1350.68 L2244.2 1350.68 L2244.2 1324.31 L2235.89 1325.98 L2235.89 1321.72 L2244.15 1320.06 L2248.83 1320.06 L2248.83 1350.68 L2256.47 1350.68 L2256.47 1354.62 L2236.56 1354.62 L2236.56 1350.68 Z" fill="#000000" fill-rule="nonzero" fill-opacity="1" /><polyline clip-path="url(#clip890)" style="stroke:#e26f46; stroke-linecap:round; stroke-linejoin:round; stroke-width:4; stroke-opacity:1; fill:none" points="1873.17,1389.18 2017.61,1389.18 "/>
<path clip-path="url(#clip890)" d="M2058.07 1390.25 Q2059.57 1390.76 2060.98 1392.43 Q2062.42 1394.09 2063.85 1397.01 L2068.6 1406.46 L2063.58 1406.46 L2059.15 1397.59 Q2057.44 1394.12 2055.82 1392.98 Q2054.22 1391.85 2051.45 1391.85 L2046.35 1391.85 L2046.35 1406.46 L2041.68 1406.46 L2041.68 1371.9 L2052.23 1371.9 Q2058.16 1371.9 2061.08 1374.37 Q2063.99 1376.85 2063.99 1381.85 Q2063.99 1385.11 2062.46 1387.27 Q2060.96 1389.42 2058.07 1390.25 M2046.35 1375.74 L2046.35 1388.01 L2052.23 1388.01 Q2055.61 1388.01 2057.33 1386.46 Q2059.06 1384.88 2059.06 1381.85 Q2059.06 1378.82 2057.33 1377.29 Q2055.61 1375.74 2052.23 1375.74 L2046.35 1375.74 Z" fill="#000000" fill-rule="nonzero" fill-opacity="1" /><path clip-path="url(#clip890)" d="M2094.48 1392.43 L2094.48 1394.51 L2074.89 1394.51 Q2075.17 1398.91 2077.53 1401.22 Q2079.92 1403.52 2084.15 1403.52 Q2086.61 1403.52 2088.9 1402.91 Q2091.21 1402.31 2093.48 1401.11 L2093.48 1405.14 Q2091.19 1406.11 2088.78 1406.62 Q2086.38 1407.13 2083.9 1407.13 Q2077.7 1407.13 2074.06 1403.52 Q2070.45 1399.9 2070.45 1393.75 Q2070.45 1387.38 2073.88 1383.65 Q2077.33 1379.9 2083.16 1379.9 Q2088.39 1379.9 2091.42 1383.28 Q2094.48 1386.64 2094.48 1392.43 M2090.22 1391.18 Q2090.17 1387.68 2088.25 1385.6 Q2086.35 1383.52 2083.2 1383.52 Q2079.64 1383.52 2077.49 1385.53 Q2075.36 1387.54 2075.03 1391.2 L2090.22 1391.18 Z" fill="#000000" fill-rule="nonzero" fill-opacity="1" /><path clip-path="url(#clip890)" d="M2118.53 1393.19 Q2118.53 1388.56 2116.61 1386.02 Q2114.71 1383.47 2111.26 1383.47 Q2107.83 1383.47 2105.91 1386.02 Q2104.01 1388.56 2104.01 1393.19 Q2104.01 1397.8 2105.91 1400.34 Q2107.83 1402.89 2111.26 1402.89 Q2114.71 1402.89 2116.61 1400.34 Q2118.53 1397.8 2118.53 1393.19 M2122.79 1403.24 Q2122.79 1409.86 2119.85 1413.08 Q2116.91 1416.32 2110.84 1416.32 Q2108.6 1416.32 2106.61 1415.97 Q2104.62 1415.65 2102.74 1414.95 L2102.74 1410.81 Q2104.62 1411.83 2106.45 1412.31 Q2108.27 1412.8 2110.17 1412.8 Q2114.36 1412.8 2116.45 1410.6 Q2118.53 1408.42 2118.53 1404 L2118.53 1401.9 Q2117.21 1404.19 2115.15 1405.32 Q2113.09 1406.46 2110.22 1406.46 Q2105.45 1406.46 2102.53 1402.82 Q2099.62 1399.19 2099.62 1393.19 Q2099.62 1387.17 2102.53 1383.54 Q2105.45 1379.9 2110.22 1379.9 Q2113.09 1379.9 2115.15 1381.04 Q2117.21 1382.17 2118.53 1384.46 L2118.53 1380.53 L2122.79 1380.53 L2122.79 1403.24 Z" fill="#000000" fill-rule="nonzero" fill-opacity="1" /><path clip-path="url(#clip890)" d="M2131.56 1380.53 L2135.82 1380.53 L2135.82 1406.46 L2131.56 1406.46 L2131.56 1380.53 M2131.56 1370.44 L2135.82 1370.44 L2135.82 1375.83 L2131.56 1375.83 L2131.56 1370.44 Z" fill="#000000" fill-rule="nonzero" fill-opacity="1" /><path clip-path="url(#clip890)" d="M2164.92 1385.51 Q2166.51 1382.64 2168.74 1381.27 Q2170.96 1379.9 2173.97 1379.9 Q2178.02 1379.9 2180.22 1382.75 Q2182.42 1385.58 2182.42 1390.81 L2182.42 1406.46 L2178.13 1406.46 L2178.13 1390.95 Q2178.13 1387.22 2176.82 1385.41 Q2175.5 1383.61 2172.79 1383.61 Q2169.48 1383.61 2167.56 1385.81 Q2165.63 1388.01 2165.63 1391.8 L2165.63 1406.46 L2161.35 1406.46 L2161.35 1390.95 Q2161.35 1387.2 2160.03 1385.41 Q2158.71 1383.61 2155.96 1383.61 Q2152.7 1383.61 2150.77 1385.83 Q2148.85 1388.03 2148.85 1391.8 L2148.85 1406.46 L2144.57 1406.46 L2144.57 1380.53 L2148.85 1380.53 L2148.85 1384.56 Q2150.31 1382.17 2152.35 1381.04 Q2154.39 1379.9 2157.19 1379.9 Q2160.01 1379.9 2161.98 1381.34 Q2163.97 1382.77 2164.92 1385.51 Z" fill="#000000" fill-rule="nonzero" fill-opacity="1" /><path clip-path="url(#clip890)" d="M2213.09 1392.43 L2213.09 1394.51 L2193.51 1394.51 Q2193.78 1398.91 2196.14 1401.22 Q2198.53 1403.52 2202.76 1403.52 Q2205.22 1403.52 2207.51 1402.91 Q2209.82 1402.31 2212.09 1401.11 L2212.09 1405.14 Q2209.8 1406.11 2207.39 1406.62 Q2204.99 1407.13 2202.51 1407.13 Q2196.31 1407.13 2192.67 1403.52 Q2189.06 1399.9 2189.06 1393.75 Q2189.06 1387.38 2192.49 1383.65 Q2195.94 1379.9 2201.77 1379.9 Q2207 1379.9 2210.03 1383.28 Q2213.09 1386.64 2213.09 1392.43 M2208.83 1391.18 Q2208.78 1387.68 2206.86 1385.6 Q2204.96 1383.52 2201.82 1383.52 Q2198.25 1383.52 2196.1 1385.53 Q2193.97 1387.54 2193.64 1391.2 L2208.83 1391.18 Z" fill="#000000" fill-rule="nonzero" fill-opacity="1" /><path clip-path="url(#clip890)" d="M2239.78 1402.52 L2256.1 1402.52 L2256.1 1406.46 L2234.15 1406.46 L2234.15 1402.52 Q2236.82 1399.77 2241.4 1395.14 Q2246 1390.48 2247.19 1389.14 Q2249.43 1386.62 2250.31 1384.88 Q2251.21 1383.12 2251.21 1381.43 Q2251.21 1378.68 2249.27 1376.94 Q2247.35 1375.21 2244.25 1375.21 Q2242.05 1375.21 2239.59 1375.97 Q2237.16 1376.73 2234.38 1378.28 L2234.38 1373.56 Q2237.21 1372.43 2239.66 1371.85 Q2242.12 1371.27 2244.15 1371.27 Q2249.52 1371.27 2252.72 1373.96 Q2255.91 1376.64 2255.91 1381.13 Q2255.91 1383.26 2255.1 1385.18 Q2254.32 1387.08 2252.21 1389.67 Q2251.63 1390.34 2248.53 1393.56 Q2245.43 1396.76 2239.78 1402.52 Z" fill="#000000" fill-rule="nonzero" fill-opacity="1" /></svg>
