<?xml version="1.0" encoding="utf-8"?>
<svg xmlns="http://www.w3.org/2000/svg" xmlns:xlink="http://www.w3.org/1999/xlink" width="600" height="400" viewBox="0 0 2400 1600">
<defs>
  <clipPath id="clip250">
    <rect x="0" y="0" width="2400" height="1600"/>
  </clipPath>
</defs>
<path clip-path="url(#clip250)" d="M0 1600 L2400 1600 L2400 0 L0 0  Z" fill="#ffffff" fill-rule="evenodd" fill-opacity="1"/>
<defs>
  <clipPath id="clip251">
    <rect x="480" y="0" width="1681" height="1600"/>
  </clipPath>
</defs>
<path clip-path="url(#clip250)" d="M186.274 1486.45 L2352.76 1486.45 L2352.76 123.472 L186.274 123.472  Z" fill="#ffffff" fill-rule="evenodd" fill-opacity="1"/>
<defs>
  <clipPath id="clip252">
    <rect x="186" y="123" width="2167" height="1364"/>
  </clipPath>
</defs>
<polyline clip-path="url(#clip252)" style="stroke:#000000; stroke-linecap:round; stroke-linejoin:round; stroke-width:2; stroke-opacity:0.1; fill:none" points="242.467,1486.45 242.467,123.472 "/>
<polyline clip-path="url(#clip252)" style="stroke:#000000; stroke-linecap:round; stroke-linejoin:round; stroke-width:2; stroke-opacity:0.1; fill:none" points="754.71,1486.45 754.71,123.472 "/>
<polyline clip-path="url(#clip252)" style="stroke:#000000; stroke-linecap:round; stroke-linejoin:round; stroke-width:2; stroke-opacity:0.1; fill:none" points="1266.95,1486.45 1266.95,123.472 "/>
<polyline clip-path="url(#clip252)" style="stroke:#000000; stroke-linecap:round; stroke-linejoin:round; stroke-width:2; stroke-opacity:0.1; fill:none" points="1779.2,1486.45 1779.2,123.472 "/>
<polyline clip-path="url(#clip252)" style="stroke:#000000; stroke-linecap:round; stroke-linejoin:round; stroke-width:2; stroke-opacity:0.1; fill:none" points="2291.44,1486.45 2291.44,123.472 "/>
<polyline clip-path="url(#clip250)" style="stroke:#000000; stroke-linecap:round; stroke-linejoin:round; stroke-width:4; stroke-opacity:1; fill:none" points="186.274,1486.45 2352.76,1486.45 "/>
<polyline clip-path="url(#clip250)" style="stroke:#000000; stroke-linecap:round; stroke-linejoin:round; stroke-width:4; stroke-opacity:1; fill:none" points="242.467,1486.45 242.467,1467.55 "/>
<polyline clip-path="url(#clip250)" style="stroke:#000000; stroke-linecap:round; stroke-linejoin:round; stroke-width:4; stroke-opacity:1; fill:none" points="754.71,1486.45 754.71,1467.55 "/>
<polyline clip-path="url(#clip250)" style="stroke:#000000; stroke-linecap:round; stroke-linejoin:round; stroke-width:4; stroke-opacity:1; fill:none" points="1266.95,1486.45 1266.95,1467.55 "/>
<polyline clip-path="url(#clip250)" style="stroke:#000000; stroke-linecap:round; stroke-linejoin:round; stroke-width:4; stroke-opacity:1; fill:none" points="1779.2,1486.45 1779.2,1467.55 "/>
<polyline clip-path="url(#clip250)" style="stroke:#000000; stroke-linecap:round; stroke-linejoin:round; stroke-width:4; stroke-opacity:1; fill:none" points="2291.44,1486.45 2291.44,1467.55 "/>
<path clip-path="url(#clip250)" d="M242.467 1517.37 Q238.856 1517.37 237.027 1520.93 Q235.222 1524.47 235.222 1531.6 Q235.222 1538.71 237.027 1542.27 Q238.856 1545.82 242.467 1545.82 Q246.101 1545.82 247.907 1542.27 Q249.736 1538.71 249.736 1531.6 Q249.736 1524.47 247.907 1520.93 Q246.101 1517.37 242.467 1517.37 M242.467 1513.66 Q248.277 1513.66 251.333 1518.27 Q254.411 1522.85 254.411 1531.6 Q254.411 1540.33 251.333 1544.94 Q248.277 1549.52 242.467 1549.52 Q236.657 1549.52 233.578 1544.94 Q230.523 1540.33 230.523 1531.6 Q230.523 1522.85 233.578 1518.27 Q236.657 1513.66 242.467 1513.66 Z" fill="#000000" fill-rule="nonzero" fill-opacity="1" /><path clip-path="url(#clip250)" d="M714.317 1544.91 L721.956 1544.91 L721.956 1518.55 L713.646 1520.21 L713.646 1515.95 L721.91 1514.29 L726.586 1514.29 L726.586 1544.91 L734.224 1544.91 L734.224 1548.85 L714.317 1548.85 L714.317 1544.91 Z" fill="#000000" fill-rule="nonzero" fill-opacity="1" /><path clip-path="url(#clip250)" d="M753.669 1517.37 Q750.058 1517.37 748.229 1520.93 Q746.423 1524.47 746.423 1531.6 Q746.423 1538.71 748.229 1542.27 Q750.058 1545.82 753.669 1545.82 Q757.303 1545.82 759.109 1542.27 Q760.937 1538.71 760.937 1531.6 Q760.937 1524.47 759.109 1520.93 Q757.303 1517.37 753.669 1517.37 M753.669 1513.66 Q759.479 1513.66 762.534 1518.27 Q765.613 1522.85 765.613 1531.6 Q765.613 1540.33 762.534 1544.94 Q759.479 1549.52 753.669 1549.52 Q747.859 1549.52 744.78 1544.94 Q741.724 1540.33 741.724 1531.6 Q741.724 1522.85 744.78 1518.27 Q747.859 1513.66 753.669 1513.66 Z" fill="#000000" fill-rule="nonzero" fill-opacity="1" /><path clip-path="url(#clip250)" d="M783.831 1517.37 Q780.22 1517.37 778.391 1520.93 Q776.585 1524.47 776.585 1531.6 Q776.585 1538.71 778.391 1542.27 Q780.22 1545.82 783.831 1545.82 Q787.465 1545.82 789.27 1542.27 Q791.099 1538.71 791.099 1531.6 Q791.099 1524.47 789.27 1520.93 Q787.465 1517.37 783.831 1517.37 M783.831 1513.66 Q789.641 1513.66 792.696 1518.27 Q795.775 1522.85 795.775 1531.6 Q795.775 1540.33 792.696 1544.94 Q789.641 1549.52 783.831 1549.52 Q778.02 1549.52 774.942 1544.94 Q771.886 1540.33 771.886 1531.6 Q771.886 1522.85 774.942 1518.27 Q778.02 1513.66 783.831 1513.66 Z" fill="#000000" fill-rule="nonzero" fill-opacity="1" /><path clip-path="url(#clip250)" d="M1230.65 1544.91 L1246.97 1544.91 L1246.97 1548.85 L1225.02 1548.85 L1225.02 1544.91 Q1227.68 1542.16 1232.27 1537.53 Q1236.87 1532.88 1238.05 1531.53 Q1240.3 1529.01 1241.18 1527.27 Q1242.08 1525.51 1242.08 1523.82 Q1242.08 1521.07 1240.14 1519.33 Q1238.22 1517.6 1235.11 1517.6 Q1232.91 1517.6 1230.46 1518.36 Q1228.03 1519.13 1225.25 1520.68 L1225.25 1515.95 Q1228.08 1514.82 1230.53 1514.24 Q1232.98 1513.66 1235.02 1513.66 Q1240.39 1513.66 1243.59 1516.35 Q1246.78 1519.03 1246.78 1523.52 Q1246.78 1525.65 1245.97 1527.57 Q1245.18 1529.47 1243.08 1532.07 Q1242.5 1532.74 1239.4 1535.95 Q1236.29 1539.15 1230.65 1544.91 Z" fill="#000000" fill-rule="nonzero" fill-opacity="1" /><path clip-path="url(#clip250)" d="M1266.78 1517.37 Q1263.17 1517.37 1261.34 1520.93 Q1259.53 1524.47 1259.53 1531.6 Q1259.53 1538.71 1261.34 1542.27 Q1263.17 1545.82 1266.78 1545.82 Q1270.41 1545.82 1272.22 1542.27 Q1274.05 1538.71 1274.05 1531.6 Q1274.05 1524.47 1272.22 1520.93 Q1270.41 1517.37 1266.78 1517.37 M1266.78 1513.66 Q1272.59 1513.66 1275.65 1518.27 Q1278.72 1522.85 1278.72 1531.6 Q1278.72 1540.33 1275.65 1544.94 Q1272.59 1549.52 1266.78 1549.52 Q1260.97 1549.52 1257.89 1544.94 Q1254.84 1540.33 1254.84 1531.6 Q1254.84 1522.85 1257.89 1518.27 Q1260.97 1513.66 1266.78 1513.66 Z" fill="#000000" fill-rule="nonzero" fill-opacity="1" /><path clip-path="url(#clip250)" d="M1296.94 1517.37 Q1293.33 1517.37 1291.5 1520.93 Q1289.7 1524.47 1289.7 1531.6 Q1289.7 1538.71 1291.5 1542.27 Q1293.33 1545.82 1296.94 1545.82 Q1300.58 1545.82 1302.38 1542.27 Q1304.21 1538.71 1304.21 1531.6 Q1304.21 1524.47 1302.38 1520.93 Q1300.58 1517.37 1296.94 1517.37 M1296.94 1513.66 Q1302.75 1513.66 1305.81 1518.27 Q1308.89 1522.85 1308.89 1531.6 Q1308.89 1540.33 1305.81 1544.94 Q1302.75 1549.52 1296.94 1549.52 Q1291.13 1549.52 1288.05 1544.94 Q1285 1540.33 1285 1531.6 Q1285 1522.85 1288.05 1518.27 Q1291.13 1513.66 1296.94 1513.66 Z" fill="#000000" fill-rule="nonzero" fill-opacity="1" /><path clip-path="url(#clip250)" d="M1752.96 1530.21 Q1756.32 1530.93 1758.19 1533.2 Q1760.09 1535.47 1760.09 1538.8 Q1760.09 1543.92 1756.57 1546.72 Q1753.05 1549.52 1746.57 1549.52 Q1744.39 1549.52 1742.08 1549.08 Q1739.79 1548.66 1737.33 1547.81 L1737.33 1543.29 Q1739.28 1544.43 1741.59 1545.01 Q1743.91 1545.58 1746.43 1545.58 Q1750.83 1545.58 1753.12 1543.85 Q1755.44 1542.11 1755.44 1538.8 Q1755.44 1535.75 1753.28 1534.03 Q1751.15 1532.3 1747.33 1532.3 L1743.31 1532.3 L1743.31 1528.45 L1747.52 1528.45 Q1750.97 1528.45 1752.8 1527.09 Q1754.63 1525.7 1754.63 1523.11 Q1754.63 1520.45 1752.73 1519.03 Q1750.85 1517.6 1747.33 1517.6 Q1745.41 1517.6 1743.21 1518.01 Q1741.01 1518.43 1738.38 1519.31 L1738.38 1515.14 Q1741.04 1514.4 1743.35 1514.03 Q1745.69 1513.66 1747.75 1513.66 Q1753.07 1513.66 1756.18 1516.09 Q1759.28 1518.5 1759.28 1522.62 Q1759.28 1525.49 1757.63 1527.48 Q1755.99 1529.45 1752.96 1530.21 Z" fill="#000000" fill-rule="nonzero" fill-opacity="1" /><path clip-path="url(#clip250)" d="M1778.95 1517.37 Q1775.34 1517.37 1773.51 1520.93 Q1771.71 1524.47 1771.71 1531.6 Q1771.71 1538.71 1773.51 1542.27 Q1775.34 1545.82 1778.95 1545.82 Q1782.59 1545.82 1784.39 1542.27 Q1786.22 1538.71 1786.22 1531.6 Q1786.22 1524.47 1784.39 1520.93 Q1782.59 1517.37 1778.95 1517.37 M1778.95 1513.66 Q1784.76 1513.66 1787.82 1518.27 Q1790.9 1522.85 1790.9 1531.6 Q1790.9 1540.33 1787.82 1544.94 Q1784.76 1549.52 1778.95 1549.52 Q1773.14 1549.52 1770.07 1544.94 Q1767.01 1540.33 1767.01 1531.6 Q1767.01 1522.85 1770.07 1518.27 Q1773.14 1513.66 1778.95 1513.66 Z" fill="#000000" fill-rule="nonzero" fill-opacity="1" /><path clip-path="url(#clip250)" d="M1809.12 1517.37 Q1805.5 1517.37 1803.68 1520.93 Q1801.87 1524.47 1801.87 1531.6 Q1801.87 1538.71 1803.68 1542.27 Q1805.5 1545.82 1809.12 1545.82 Q1812.75 1545.82 1814.56 1542.27 Q1816.38 1538.71 1816.38 1531.6 Q1816.38 1524.47 1814.56 1520.93 Q1812.75 1517.37 1809.12 1517.37 M1809.12 1513.66 Q1814.93 1513.66 1817.98 1518.27 Q1821.06 1522.85 1821.06 1531.6 Q1821.06 1540.33 1817.98 1544.94 Q1814.93 1549.52 1809.12 1549.52 Q1803.31 1549.52 1800.23 1544.94 Q1797.17 1540.33 1797.17 1531.6 Q1797.17 1522.85 1800.23 1518.27 Q1803.31 1513.66 1809.12 1513.66 Z" fill="#000000" fill-rule="nonzero" fill-opacity="1" /><path clip-path="url(#clip250)" d="M2264.53 1518.36 L2252.73 1536.81 L2264.53 1536.81 L2264.53 1518.36 M2263.3 1514.29 L2269.18 1514.29 L2269.18 1536.81 L2274.11 1536.81 L2274.11 1540.7 L2269.18 1540.7 L2269.18 1548.85 L2264.53 1548.85 L2264.53 1540.7 L2248.93 1540.7 L2248.93 1536.19 L2263.3 1514.29 Z" fill="#000000" fill-rule="nonzero" fill-opacity="1" /><path clip-path="url(#clip250)" d="M2291.85 1517.37 Q2288.23 1517.37 2286.41 1520.93 Q2284.6 1524.47 2284.6 1531.6 Q2284.6 1538.71 2286.41 1542.27 Q2288.23 1545.82 2291.85 1545.82 Q2295.48 1545.82 2297.29 1542.27 Q2299.11 1538.71 2299.11 1531.6 Q2299.11 1524.47 2297.29 1520.93 Q2295.48 1517.37 2291.85 1517.37 M2291.85 1513.66 Q2297.66 1513.66 2300.71 1518.27 Q2303.79 1522.85 2303.79 1531.6 Q2303.79 1540.33 2300.71 1544.94 Q2297.66 1549.52 2291.85 1549.52 Q2286.04 1549.52 2282.96 1544.94 Q2279.9 1540.33 2279.9 1531.6 Q2279.9 1522.85 2282.96 1518.27 Q2286.04 1513.66 2291.85 1513.66 Z" fill="#000000" fill-rule="nonzero" fill-opacity="1" /><path clip-path="url(#clip250)" d="M2322.01 1517.37 Q2318.4 1517.37 2316.57 1520.93 Q2314.76 1524.47 2314.76 1531.6 Q2314.76 1538.71 2316.57 1542.27 Q2318.4 1545.82 2322.01 1545.82 Q2325.64 1545.82 2327.45 1542.27 Q2329.28 1538.71 2329.28 1531.6 Q2329.28 1524.47 2327.45 1520.93 Q2325.64 1517.37 2322.01 1517.37 M2322.01 1513.66 Q2327.82 1513.66 2330.87 1518.27 Q2333.95 1522.85 2333.95 1531.6 Q2333.95 1540.33 2330.87 1544.94 Q2327.82 1549.52 2322.01 1549.52 Q2316.2 1549.52 2313.12 1544.94 Q2310.06 1540.33 2310.06 1531.6 Q2310.06 1522.85 2313.12 1518.27 Q2316.2 1513.66 2322.01 1513.66 Z" fill="#000000" fill-rule="nonzero" fill-opacity="1" /><polyline clip-path="url(#clip252)" style="stroke:#000000; stroke-linecap:round; stroke-linejoin:round; stroke-width:2; stroke-opacity:0.1; fill:none" points="186.274,1447.87 2352.76,1447.87 "/>
<polyline clip-path="url(#clip252)" style="stroke:#000000; stroke-linecap:round; stroke-linejoin:round; stroke-width:2; stroke-opacity:0.1; fill:none" points="186.274,1126.42 2352.76,1126.42 "/>
<polyline clip-path="url(#clip252)" style="stroke:#000000; stroke-linecap:round; stroke-linejoin:round; stroke-width:2; stroke-opacity:0.1; fill:none" points="186.274,804.96 2352.76,804.96 "/>
<polyline clip-path="url(#clip252)" style="stroke:#000000; stroke-linecap:round; stroke-linejoin:round; stroke-width:2; stroke-opacity:0.1; fill:none" points="186.274,483.503 2352.76,483.503 "/>
<polyline clip-path="url(#clip252)" style="stroke:#000000; stroke-linecap:round; stroke-linejoin:round; stroke-width:2; stroke-opacity:0.1; fill:none" points="186.274,162.047 2352.76,162.047 "/>
<polyline clip-path="url(#clip250)" style="stroke:#000000; stroke-linecap:round; stroke-linejoin:round; stroke-width:4; stroke-opacity:1; fill:none" points="186.274,1486.45 186.274,123.472 "/>
<polyline clip-path="url(#clip250)" style="stroke:#000000; stroke-linecap:round; stroke-linejoin:round; stroke-width:4; stroke-opacity:1; fill:none" points="186.274,1447.87 205.172,1447.87 "/>
<polyline clip-path="url(#clip250)" style="stroke:#000000; stroke-linecap:round; stroke-linejoin:round; stroke-width:4; stroke-opacity:1; fill:none" points="186.274,1126.42 205.172,1126.42 "/>
<polyline clip-path="url(#clip250)" style="stroke:#000000; stroke-linecap:round; stroke-linejoin:round; stroke-width:4; stroke-opacity:1; fill:none" points="186.274,804.96 205.172,804.96 "/>
<polyline clip-path="url(#clip250)" style="stroke:#000000; stroke-linecap:round; stroke-linejoin:round; stroke-width:4; stroke-opacity:1; fill:none" points="186.274,483.503 205.172,483.503 "/>
<polyline clip-path="url(#clip250)" style="stroke:#000000; stroke-linecap:round; stroke-linejoin:round; stroke-width:4; stroke-opacity:1; fill:none" points="186.274,162.047 205.172,162.047 "/>
<path clip-path="url(#clip250)" d="M62.9365 1433.67 Q59.3254 1433.67 57.4967 1437.24 Q55.6912 1440.78 55.6912 1447.91 Q55.6912 1455.01 57.4967 1458.58 Q59.3254 1462.12 62.9365 1462.12 Q66.5707 1462.12 68.3763 1458.58 Q70.205 1455.01 70.205 1447.91 Q70.205 1440.78 68.3763 1437.24 Q66.5707 1433.67 62.9365 1433.67 M62.9365 1429.97 Q68.7467 1429.97 71.8022 1434.57 Q74.8809 1439.16 74.8809 1447.91 Q74.8809 1456.63 71.8022 1461.24 Q68.7467 1465.82 62.9365 1465.82 Q57.1264 1465.82 54.0477 1461.24 Q50.9921 1456.63 50.9921 1447.91 Q50.9921 1439.16 54.0477 1434.57 Q57.1264 1429.97 62.9365 1429.97 Z" fill="#000000" fill-rule="nonzero" fill-opacity="1" /><path clip-path="url(#clip250)" d="M83.0984 1459.27 L87.9827 1459.27 L87.9827 1465.15 L83.0984 1465.15 L83.0984 1459.27 Z" fill="#000000" fill-rule="nonzero" fill-opacity="1" /><path clip-path="url(#clip250)" d="M108.168 1433.67 Q104.557 1433.67 102.728 1437.24 Q100.922 1440.78 100.922 1447.91 Q100.922 1455.01 102.728 1458.58 Q104.557 1462.12 108.168 1462.12 Q111.802 1462.12 113.608 1458.58 Q115.436 1455.01 115.436 1447.91 Q115.436 1440.78 113.608 1437.24 Q111.802 1433.67 108.168 1433.67 M108.168 1429.97 Q113.978 1429.97 117.033 1434.57 Q120.112 1439.16 120.112 1447.91 Q120.112 1456.63 117.033 1461.24 Q113.978 1465.82 108.168 1465.82 Q102.358 1465.82 99.2789 1461.24 Q96.2234 1456.63 96.2234 1447.91 Q96.2234 1439.16 99.2789 1434.57 Q102.358 1429.97 108.168 1429.97 Z" fill="#000000" fill-rule="nonzero" fill-opacity="1" /><path clip-path="url(#clip250)" d="M138.33 1433.67 Q134.719 1433.67 132.89 1437.24 Q131.084 1440.78 131.084 1447.91 Q131.084 1455.01 132.89 1458.58 Q134.719 1462.12 138.33 1462.12 Q141.964 1462.12 143.769 1458.58 Q145.598 1455.01 145.598 1447.91 Q145.598 1440.78 143.769 1437.24 Q141.964 1433.67 138.33 1433.67 M138.33 1429.97 Q144.14 1429.97 147.195 1434.57 Q150.274 1439.16 150.274 1447.91 Q150.274 1456.63 147.195 1461.24 Q144.14 1465.82 138.33 1465.82 Q132.519 1465.82 129.441 1461.24 Q126.385 1456.63 126.385 1447.91 Q126.385 1439.16 129.441 1434.57 Q132.519 1429.97 138.33 1429.97 Z" fill="#000000" fill-rule="nonzero" fill-opacity="1" /><path clip-path="url(#clip250)" d="M63.9319 1112.22 Q60.3208 1112.22 58.4921 1115.78 Q56.6865 1119.32 56.6865 1126.45 Q56.6865 1133.56 58.4921 1137.12 Q60.3208 1140.66 63.9319 1140.66 Q67.5661 1140.66 69.3717 1137.12 Q71.2004 1133.56 71.2004 1126.45 Q71.2004 1119.32 69.3717 1115.78 Q67.5661 1112.22 63.9319 1112.22 M63.9319 1108.51 Q69.742 1108.51 72.7976 1113.12 Q75.8763 1117.7 75.8763 1126.45 Q75.8763 1135.18 72.7976 1139.78 Q69.742 1144.37 63.9319 1144.37 Q58.1217 1144.37 55.043 1139.78 Q51.9875 1135.18 51.9875 1126.45 Q51.9875 1117.7 55.043 1113.12 Q58.1217 1108.51 63.9319 1108.51 Z" fill="#000000" fill-rule="nonzero" fill-opacity="1" /><path clip-path="url(#clip250)" d="M84.0938 1137.82 L88.978 1137.82 L88.978 1143.7 L84.0938 1143.7 L84.0938 1137.82 Z" fill="#000000" fill-rule="nonzero" fill-opacity="1" /><path clip-path="url(#clip250)" d="M103.191 1139.76 L119.51 1139.76 L119.51 1143.7 L97.566 1143.7 L97.566 1139.76 Q100.228 1137.01 104.811 1132.38 Q109.418 1127.72 110.598 1126.38 Q112.844 1123.86 113.723 1122.12 Q114.626 1120.36 114.626 1118.67 Q114.626 1115.92 112.682 1114.18 Q110.76 1112.45 107.658 1112.45 Q105.459 1112.45 103.006 1113.21 Q100.575 1113.97 97.7974 1115.53 L97.7974 1110.8 Q100.621 1109.67 103.075 1109.09 Q105.529 1108.51 107.566 1108.51 Q112.936 1108.51 116.131 1111.2 Q119.325 1113.88 119.325 1118.37 Q119.325 1120.5 118.515 1122.42 Q117.728 1124.32 115.621 1126.91 Q115.043 1127.59 111.941 1130.8 Q108.839 1134 103.191 1139.76 Z" fill="#000000" fill-rule="nonzero" fill-opacity="1" /><path clip-path="url(#clip250)" d="M129.371 1109.14 L147.728 1109.14 L147.728 1113.07 L133.654 1113.07 L133.654 1121.54 Q134.672 1121.2 135.691 1121.03 Q136.709 1120.85 137.728 1120.85 Q143.515 1120.85 146.894 1124.02 Q150.274 1127.19 150.274 1132.61 Q150.274 1138.19 146.802 1141.29 Q143.33 1144.37 137.01 1144.37 Q134.834 1144.37 132.566 1144 Q130.32 1143.63 127.913 1142.89 L127.913 1138.19 Q129.996 1139.32 132.219 1139.88 Q134.441 1140.43 136.918 1140.43 Q140.922 1140.43 143.26 1138.33 Q145.598 1136.22 145.598 1132.61 Q145.598 1129 143.26 1126.89 Q140.922 1124.78 136.918 1124.78 Q135.043 1124.78 133.168 1125.2 Q131.316 1125.62 129.371 1126.5 L129.371 1109.14 Z" fill="#000000" fill-rule="nonzero" fill-opacity="1" /><path clip-path="url(#clip250)" d="M62.9365 790.759 Q59.3254 790.759 57.4967 794.323 Q55.6912 797.865 55.6912 804.995 Q55.6912 812.101 57.4967 815.666 Q59.3254 819.208 62.9365 819.208 Q66.5707 819.208 68.3763 815.666 Q70.205 812.101 70.205 804.995 Q70.205 797.865 68.3763 794.323 Q66.5707 790.759 62.9365 790.759 M62.9365 787.055 Q68.7467 787.055 71.8022 791.661 Q74.8809 796.245 74.8809 804.995 Q74.8809 813.722 71.8022 818.328 Q68.7467 822.911 62.9365 822.911 Q57.1264 822.911 54.0477 818.328 Q50.9921 813.722 50.9921 804.995 Q50.9921 796.245 54.0477 791.661 Q57.1264 787.055 62.9365 787.055 Z" fill="#000000" fill-rule="nonzero" fill-opacity="1" /><path clip-path="url(#clip250)" d="M83.0984 816.36 L87.9827 816.36 L87.9827 822.24 L83.0984 822.24 L83.0984 816.36 Z" fill="#000000" fill-rule="nonzero" fill-opacity="1" /><path clip-path="url(#clip250)" d="M98.2141 787.68 L116.57 787.68 L116.57 791.615 L102.496 791.615 L102.496 800.087 Q103.515 799.74 104.534 799.578 Q105.552 799.393 106.571 799.393 Q112.358 799.393 115.737 802.564 Q119.117 805.735 119.117 811.152 Q119.117 816.731 115.645 819.833 Q112.172 822.911 105.853 822.911 Q103.677 822.911 101.409 822.541 Q99.1632 822.171 96.7558 821.43 L96.7558 816.731 Q98.8391 817.865 101.061 818.421 Q103.284 818.976 105.76 818.976 Q109.765 818.976 112.103 816.87 Q114.441 814.763 114.441 811.152 Q114.441 807.541 112.103 805.435 Q109.765 803.328 105.76 803.328 Q103.885 803.328 102.01 803.745 Q100.159 804.161 98.2141 805.041 L98.2141 787.68 Z" fill="#000000" fill-rule="nonzero" fill-opacity="1" /><path clip-path="url(#clip250)" d="M138.33 790.759 Q134.719 790.759 132.89 794.323 Q131.084 797.865 131.084 804.995 Q131.084 812.101 132.89 815.666 Q134.719 819.208 138.33 819.208 Q141.964 819.208 143.769 815.666 Q145.598 812.101 145.598 804.995 Q145.598 797.865 143.769 794.323 Q141.964 790.759 138.33 790.759 M138.33 787.055 Q144.14 787.055 147.195 791.661 Q150.274 796.245 150.274 804.995 Q150.274 813.722 147.195 818.328 Q144.14 822.911 138.33 822.911 Q132.519 822.911 129.441 818.328 Q126.385 813.722 126.385 804.995 Q126.385 796.245 129.441 791.661 Q132.519 787.055 138.33 787.055 Z" fill="#000000" fill-rule="nonzero" fill-opacity="1" /><path clip-path="url(#clip250)" d="M63.9319 469.302 Q60.3208 469.302 58.4921 472.867 Q56.6865 476.409 56.6865 483.538 Q56.6865 490.645 58.4921 494.209 Q60.3208 497.751 63.9319 497.751 Q67.5661 497.751 69.3717 494.209 Q71.2004 490.645 71.2004 483.538 Q71.2004 476.409 69.3717 472.867 Q67.5661 469.302 63.9319 469.302 M63.9319 465.598 Q69.742 465.598 72.7976 470.205 Q75.8763 474.788 75.8763 483.538 Q75.8763 492.265 72.7976 496.871 Q69.742 501.455 63.9319 501.455 Q58.1217 501.455 55.043 496.871 Q51.9875 492.265 51.9875 483.538 Q51.9875 474.788 55.043 470.205 Q58.1217 465.598 63.9319 465.598 Z" fill="#000000" fill-rule="nonzero" fill-opacity="1" /><path clip-path="url(#clip250)" d="M84.0938 494.904 L88.978 494.904 L88.978 500.783 L84.0938 500.783 L84.0938 494.904 Z" fill="#000000" fill-rule="nonzero" fill-opacity="1" /><path clip-path="url(#clip250)" d="M97.9826 466.223 L120.205 466.223 L120.205 468.214 L107.658 500.783 L102.774 500.783 L114.58 470.159 L97.9826 470.159 L97.9826 466.223 Z" fill="#000000" fill-rule="nonzero" fill-opacity="1" /><path clip-path="url(#clip250)" d="M129.371 466.223 L147.728 466.223 L147.728 470.159 L133.654 470.159 L133.654 478.631 Q134.672 478.284 135.691 478.122 Q136.709 477.936 137.728 477.936 Q143.515 477.936 146.894 481.108 Q150.274 484.279 150.274 489.696 Q150.274 495.274 146.802 498.376 Q143.33 501.455 137.01 501.455 Q134.834 501.455 132.566 501.084 Q130.32 500.714 127.913 499.973 L127.913 495.274 Q129.996 496.408 132.219 496.964 Q134.441 497.52 136.918 497.52 Q140.922 497.52 143.26 495.413 Q145.598 493.307 145.598 489.696 Q145.598 486.084 143.26 483.978 Q140.922 481.872 136.918 481.872 Q135.043 481.872 133.168 482.288 Q131.316 482.705 129.371 483.584 L129.371 466.223 Z" fill="#000000" fill-rule="nonzero" fill-opacity="1" /><path clip-path="url(#clip250)" d="M53.7467 175.392 L61.3856 175.392 L61.3856 149.026 L53.0754 150.693 L53.0754 146.434 L61.3393 144.767 L66.0152 144.767 L66.0152 175.392 L73.654 175.392 L73.654 179.327 L53.7467 179.327 L53.7467 175.392 Z" fill="#000000" fill-rule="nonzero" fill-opacity="1" /><path clip-path="url(#clip250)" d="M83.0984 173.447 L87.9827 173.447 L87.9827 179.327 L83.0984 179.327 L83.0984 173.447 Z" fill="#000000" fill-rule="nonzero" fill-opacity="1" /><path clip-path="url(#clip250)" d="M108.168 147.846 Q104.557 147.846 102.728 151.41 Q100.922 154.952 100.922 162.082 Q100.922 169.188 102.728 172.753 Q104.557 176.295 108.168 176.295 Q111.802 176.295 113.608 172.753 Q115.436 169.188 115.436 162.082 Q115.436 154.952 113.608 151.41 Q111.802 147.846 108.168 147.846 M108.168 144.142 Q113.978 144.142 117.033 148.748 Q120.112 153.332 120.112 162.082 Q120.112 170.808 117.033 175.415 Q113.978 179.998 108.168 179.998 Q102.358 179.998 99.2789 175.415 Q96.2234 170.808 96.2234 162.082 Q96.2234 153.332 99.2789 148.748 Q102.358 144.142 108.168 144.142 Z" fill="#000000" fill-rule="nonzero" fill-opacity="1" /><path clip-path="url(#clip250)" d="M138.33 147.846 Q134.719 147.846 132.89 151.41 Q131.084 154.952 131.084 162.082 Q131.084 169.188 132.89 172.753 Q134.719 176.295 138.33 176.295 Q141.964 176.295 143.769 172.753 Q145.598 169.188 145.598 162.082 Q145.598 154.952 143.769 151.41 Q141.964 147.846 138.33 147.846 M138.33 144.142 Q144.14 144.142 147.195 148.748 Q150.274 153.332 150.274 162.082 Q150.274 170.808 147.195 175.415 Q144.14 179.998 138.33 179.998 Q132.519 179.998 129.441 175.415 Q126.385 170.808 126.385 162.082 Q126.385 153.332 129.441 148.748 Q132.519 144.142 138.33 144.142 Z" fill="#000000" fill-rule="nonzero" fill-opacity="1" /><path clip-path="url(#clip250)" d="M648.208 14.0809 L648.208 22.0612 Q643.549 19.8332 639.417 18.7395 Q635.285 17.6457 631.437 17.6457 Q624.753 17.6457 621.107 20.2383 Q617.502 22.8309 617.502 27.611 Q617.502 31.6214 619.892 33.6873 Q622.322 35.7128 629.047 36.9686 L633.989 37.9813 Q643.144 39.7232 647.478 44.1387 Q651.853 48.5136 651.853 55.8863 Q651.853 64.6767 645.939 69.2137 Q640.065 73.7508 628.682 73.7508 Q624.388 73.7508 619.527 72.7785 Q614.707 71.8063 609.521 69.9024 L609.521 61.4765 Q614.504 64.2716 619.284 65.6895 Q624.064 67.1073 628.682 67.1073 Q635.69 67.1073 639.498 64.3527 Q643.306 61.598 643.306 56.4939 Q643.306 52.0379 640.551 49.5264 Q637.837 47.0148 631.599 45.759 L626.616 44.7868 Q617.461 42.9639 613.37 39.075 Q609.278 35.1862 609.278 28.2591 Q609.278 20.2383 614.909 15.6203 Q620.58 11.0023 630.505 11.0023 Q634.759 11.0023 639.174 11.7719 Q643.589 12.5416 648.208 14.0809 Z" fill="#000000" fill-rule="nonzero" fill-opacity="1" /><path clip-path="url(#clip250)" d="M699.613 35.9153 Q702.409 30.8922 706.297 28.5022 Q710.186 26.1121 715.453 26.1121 Q722.542 26.1121 726.39 31.0947 Q730.238 36.0368 730.238 45.1919 L730.238 72.576 L722.744 72.576 L722.744 45.4349 Q722.744 38.913 720.435 35.7533 Q718.126 32.5936 713.387 32.5936 Q707.594 32.5936 704.232 36.4419 Q700.869 40.2903 700.869 46.9338 L700.869 72.576 L693.375 72.576 L693.375 45.4349 Q693.375 38.8725 691.066 35.7533 Q688.757 32.5936 683.936 32.5936 Q678.225 32.5936 674.862 36.4824 Q671.5 40.3308 671.5 46.9338 L671.5 72.576 L664.006 72.576 L664.006 27.2059 L671.5 27.2059 L671.5 34.2544 Q674.052 30.082 677.617 28.0971 Q681.182 26.1121 686.083 26.1121 Q691.026 26.1121 694.469 28.6237 Q697.953 31.1352 699.613 35.9153 Z" fill="#000000" fill-rule="nonzero" fill-opacity="1" /><path clip-path="url(#clip250)" d="M762.686 32.4315 Q756.691 32.4315 753.207 37.1306 Q749.723 41.7891 749.723 49.9314 Q749.723 58.0738 753.166 62.7728 Q756.65 67.4314 762.686 67.4314 Q768.641 67.4314 772.125 62.7323 Q775.608 58.0333 775.608 49.9314 Q775.608 41.8701 772.125 37.1711 Q768.641 32.4315 762.686 32.4315 M762.686 26.1121 Q772.408 26.1121 777.958 32.4315 Q783.508 38.7509 783.508 49.9314 Q783.508 61.0714 777.958 67.4314 Q772.408 73.7508 762.686 73.7508 Q752.923 73.7508 747.374 67.4314 Q741.864 61.0714 741.864 49.9314 Q741.864 38.7509 747.374 32.4315 Q752.923 26.1121 762.686 26.1121 Z" fill="#000000" fill-rule="nonzero" fill-opacity="1" /><path clip-path="url(#clip250)" d="M813.444 32.4315 Q807.449 32.4315 803.965 37.1306 Q800.481 41.7891 800.481 49.9314 Q800.481 58.0738 803.924 62.7728 Q807.408 67.4314 813.444 67.4314 Q819.399 67.4314 822.883 62.7323 Q826.366 58.0333 826.366 49.9314 Q826.366 41.8701 822.883 37.1711 Q819.399 32.4315 813.444 32.4315 M813.444 26.1121 Q823.166 26.1121 828.716 32.4315 Q834.266 38.7509 834.266 49.9314 Q834.266 61.0714 828.716 67.4314 Q823.166 73.7508 813.444 73.7508 Q803.681 73.7508 798.131 67.4314 Q792.622 61.0714 792.622 49.9314 Q792.622 38.7509 798.131 32.4315 Q803.681 26.1121 813.444 26.1121 Z" fill="#000000" fill-rule="nonzero" fill-opacity="1" /><path clip-path="url(#clip250)" d="M853.993 14.324 L853.993 27.2059 L869.346 27.2059 L869.346 32.9987 L853.993 32.9987 L853.993 57.6282 Q853.993 63.1779 855.492 64.7578 Q857.032 66.3376 861.69 66.3376 L869.346 66.3376 L869.346 72.576 L861.69 72.576 Q853.062 72.576 849.781 69.3758 Q846.499 66.1351 846.499 57.6282 L846.499 32.9987 L841.031 32.9987 L841.031 27.2059 L846.499 27.2059 L846.499 14.324 L853.993 14.324 Z" fill="#000000" fill-rule="nonzero" fill-opacity="1" /><path clip-path="url(#clip250)" d="M916.863 45.1919 L916.863 72.576 L909.41 72.576 L909.41 45.4349 Q909.41 38.994 906.898 35.7938 Q904.387 32.5936 899.364 32.5936 Q893.328 32.5936 889.844 36.4419 Q886.36 40.2903 886.36 46.9338 L886.36 72.576 L878.866 72.576 L878.866 9.54393 L886.36 9.54393 L886.36 34.2544 Q889.034 30.163 892.639 28.1376 Q896.285 26.1121 901.024 26.1121 Q908.843 26.1121 912.853 30.9732 Q916.863 35.7938 916.863 45.1919 Z" fill="#000000" fill-rule="nonzero" fill-opacity="1" /><path clip-path="url(#clip250)" d="M970.538 48.0275 L970.538 51.6733 L936.267 51.6733 Q936.753 59.3701 940.885 63.421 Q945.058 67.4314 952.471 67.4314 Q956.765 67.4314 960.775 66.3781 Q964.826 65.3249 968.796 63.2184 L968.796 70.267 Q964.786 71.9684 960.573 72.8596 Q956.36 73.7508 952.025 73.7508 Q941.169 73.7508 934.809 67.4314 Q928.49 61.1119 928.49 50.3365 Q928.49 39.1965 934.485 32.6746 Q940.521 26.1121 950.729 26.1121 Q959.884 26.1121 965.191 32.0264 Q970.538 37.9003 970.538 48.0275 M963.084 45.84 Q963.003 39.7232 959.641 36.0774 Q956.319 32.4315 950.81 32.4315 Q944.572 32.4315 940.804 35.9558 Q937.077 39.4801 936.51 45.8805 L963.084 45.84 Z" fill="#000000" fill-rule="nonzero" fill-opacity="1" /><path clip-path="url(#clip250)" d="M1012.63 34.0924 L1012.63 9.54393 L1020.08 9.54393 L1020.08 72.576 L1012.63 72.576 L1012.63 65.7705 Q1010.28 69.8214 1006.67 71.8063 Q1003.11 73.7508 998.084 73.7508 Q989.861 73.7508 984.676 67.1883 Q979.531 60.6258 979.531 49.9314 Q979.531 39.2371 984.676 32.6746 Q989.861 26.1121 998.084 26.1121 Q1003.11 26.1121 1006.67 28.0971 Q1010.28 30.0415 1012.63 34.0924 M987.228 49.9314 Q987.228 58.1548 990.59 62.8538 Q993.993 67.5124 999.907 67.5124 Q1005.82 67.5124 1009.22 62.8538 Q1012.63 58.1548 1012.63 49.9314 Q1012.63 41.7081 1009.22 37.0496 Q1005.82 32.3505 999.907 32.3505 Q993.993 32.3505 990.59 37.0496 Q987.228 41.7081 987.228 49.9314 Z" fill="#000000" fill-rule="nonzero" fill-opacity="1" /><path clip-path="url(#clip250)" d="M1069.18 14.324 L1069.18 27.2059 L1084.53 27.2059 L1084.53 32.9987 L1069.18 32.9987 L1069.18 57.6282 Q1069.18 63.1779 1070.68 64.7578 Q1072.22 66.3376 1076.87 66.3376 L1084.53 66.3376 L1084.53 72.576 L1076.87 72.576 Q1068.25 72.576 1064.96 69.3758 Q1061.68 66.1351 1061.68 57.6282 L1061.68 32.9987 L1056.21 32.9987 L1056.21 27.2059 L1061.68 27.2059 L1061.68 14.324 L1069.18 14.324 Z" fill="#000000" fill-rule="nonzero" fill-opacity="1" /><path clip-path="url(#clip250)" d="M1120.62 34.1734 Q1119.37 33.4443 1117.87 33.1202 Q1116.41 32.7556 1114.63 32.7556 Q1108.31 32.7556 1104.91 36.8875 Q1101.54 40.9789 1101.54 48.6757 L1101.54 72.576 L1094.05 72.576 L1094.05 27.2059 L1101.54 27.2059 L1101.54 34.2544 Q1103.89 30.1225 1107.66 28.1376 Q1111.43 26.1121 1116.82 26.1121 Q1117.59 26.1121 1118.52 26.2337 Q1119.45 26.3147 1120.58 26.5172 L1120.62 34.1734 Z" fill="#000000" fill-rule="nonzero" fill-opacity="1" /><path clip-path="url(#clip250)" d="M1149.06 49.7694 Q1140.03 49.7694 1136.54 51.8354 Q1133.06 53.9013 1133.06 58.8839 Q1133.06 62.8538 1135.65 65.2034 Q1138.29 67.5124 1142.78 67.5124 Q1148.98 67.5124 1152.71 63.1374 Q1156.47 58.7219 1156.47 51.4303 L1156.47 49.7694 L1149.06 49.7694 M1163.93 46.6907 L1163.93 72.576 L1156.47 72.576 L1156.47 65.6895 Q1153.92 69.8214 1150.11 71.8063 Q1146.31 73.7508 1140.8 73.7508 Q1133.83 73.7508 1129.7 69.8619 Q1125.61 65.9325 1125.61 59.3701 Q1125.61 51.7138 1130.71 47.825 Q1135.86 43.9361 1146.02 43.9361 L1156.47 43.9361 L1156.47 43.2069 Q1156.47 38.0623 1153.07 35.2672 Q1149.71 32.4315 1143.59 32.4315 Q1139.7 32.4315 1136.02 33.3632 Q1132.33 34.295 1128.93 36.1584 L1128.93 29.2718 Q1133.02 27.692 1136.87 26.9223 Q1140.72 26.1121 1144.36 26.1121 Q1154.21 26.1121 1159.07 31.2163 Q1163.93 36.3204 1163.93 46.6907 Z" fill="#000000" fill-rule="nonzero" fill-opacity="1" /><path clip-path="url(#clip250)" d="M1216.99 45.1919 L1216.99 72.576 L1209.54 72.576 L1209.54 45.4349 Q1209.54 38.994 1207.03 35.7938 Q1204.52 32.5936 1199.5 32.5936 Q1193.46 32.5936 1189.98 36.4419 Q1186.49 40.2903 1186.49 46.9338 L1186.49 72.576 L1179 72.576 L1179 27.2059 L1186.49 27.2059 L1186.49 34.2544 Q1189.17 30.163 1192.77 28.1376 Q1196.42 26.1121 1201.16 26.1121 Q1208.97 26.1121 1212.98 30.9732 Q1216.99 35.7938 1216.99 45.1919 Z" fill="#000000" fill-rule="nonzero" fill-opacity="1" /><path clip-path="url(#clip250)" d="M1260.79 28.5427 L1260.79 35.5912 Q1257.63 33.9709 1254.22 33.1607 Q1250.82 32.3505 1247.17 32.3505 Q1241.62 32.3505 1238.83 34.0519 Q1236.07 35.7533 1236.07 39.156 Q1236.07 41.7486 1238.06 43.2475 Q1240.04 44.7058 1246.04 46.0426 L1248.59 46.6097 Q1256.53 48.3111 1259.85 51.4303 Q1263.22 54.509 1263.22 60.0587 Q1263.22 66.3781 1258.19 70.0644 Q1253.21 73.7508 1244.46 73.7508 Q1240.81 73.7508 1236.84 73.0216 Q1232.92 72.3329 1228.54 70.9151 L1228.54 63.2184 Q1232.67 65.3654 1236.68 66.4591 Q1240.69 67.5124 1244.62 67.5124 Q1249.89 67.5124 1252.72 65.73 Q1255.56 63.9071 1255.56 60.6258 Q1255.56 57.5877 1253.49 55.9673 Q1251.47 54.3469 1244.54 52.8481 L1241.95 52.2405 Q1235.02 50.7821 1231.94 47.7845 Q1228.86 44.7463 1228.86 39.4801 Q1228.86 33.0797 1233.4 29.5959 Q1237.94 26.1121 1246.28 26.1121 Q1250.41 26.1121 1254.06 26.7198 Q1257.71 27.3274 1260.79 28.5427 Z" fill="#000000" fill-rule="nonzero" fill-opacity="1" /><path clip-path="url(#clip250)" d="M1275.08 27.2059 L1282.54 27.2059 L1282.54 72.576 L1275.08 72.576 L1275.08 27.2059 M1275.08 9.54393 L1282.54 9.54393 L1282.54 18.9825 L1275.08 18.9825 L1275.08 9.54393 Z" fill="#000000" fill-rule="nonzero" fill-opacity="1" /><path clip-path="url(#clip250)" d="M1305.51 14.324 L1305.51 27.2059 L1320.86 27.2059 L1320.86 32.9987 L1305.51 32.9987 L1305.51 57.6282 Q1305.51 63.1779 1307.01 64.7578 Q1308.55 66.3376 1313.2 66.3376 L1320.86 66.3376 L1320.86 72.576 L1313.2 72.576 Q1304.58 72.576 1301.29 69.3758 Q1298.01 66.1351 1298.01 57.6282 L1298.01 32.9987 L1292.54 32.9987 L1292.54 27.2059 L1298.01 27.2059 L1298.01 14.324 L1305.51 14.324 Z" fill="#000000" fill-rule="nonzero" fill-opacity="1" /><path clip-path="url(#clip250)" d="M1330.66 27.2059 L1338.12 27.2059 L1338.12 72.576 L1330.66 72.576 L1330.66 27.2059 M1330.66 9.54393 L1338.12 9.54393 L1338.12 18.9825 L1330.66 18.9825 L1330.66 9.54393 Z" fill="#000000" fill-rule="nonzero" fill-opacity="1" /><path clip-path="url(#clip250)" d="M1371.29 32.4315 Q1365.3 32.4315 1361.81 37.1306 Q1358.33 41.7891 1358.33 49.9314 Q1358.33 58.0738 1361.77 62.7728 Q1365.26 67.4314 1371.29 67.4314 Q1377.25 67.4314 1380.73 62.7323 Q1384.22 58.0333 1384.22 49.9314 Q1384.22 41.8701 1380.73 37.1711 Q1377.25 32.4315 1371.29 32.4315 M1371.29 26.1121 Q1381.02 26.1121 1386.57 32.4315 Q1392.12 38.7509 1392.12 49.9314 Q1392.12 61.0714 1386.57 67.4314 Q1381.02 73.7508 1371.29 73.7508 Q1361.53 73.7508 1355.98 67.4314 Q1350.47 61.0714 1350.47 49.9314 Q1350.47 38.7509 1355.98 32.4315 Q1361.53 26.1121 1371.29 26.1121 Z" fill="#000000" fill-rule="nonzero" fill-opacity="1" /><path clip-path="url(#clip250)" d="M1442.18 45.1919 L1442.18 72.576 L1434.73 72.576 L1434.73 45.4349 Q1434.73 38.994 1432.22 35.7938 Q1429.71 32.5936 1424.68 32.5936 Q1418.65 32.5936 1415.17 36.4419 Q1411.68 40.2903 1411.68 46.9338 L1411.68 72.576 L1404.19 72.576 L1404.19 27.2059 L1411.68 27.2059 L1411.68 34.2544 Q1414.36 30.163 1417.96 28.1376 Q1421.61 26.1121 1426.35 26.1121 Q1434.16 26.1121 1438.17 30.9732 Q1442.18 35.7938 1442.18 45.1919 Z" fill="#000000" fill-rule="nonzero" fill-opacity="1" /><path clip-path="url(#clip250)" d="M1509.71 34.1734 Q1508.46 33.4443 1506.96 33.1202 Q1505.5 32.7556 1503.72 32.7556 Q1497.4 32.7556 1494 36.8875 Q1490.63 40.9789 1490.63 48.6757 L1490.63 72.576 L1483.14 72.576 L1483.14 27.2059 L1490.63 27.2059 L1490.63 34.2544 Q1492.98 30.1225 1496.75 28.1376 Q1500.52 26.1121 1505.91 26.1121 Q1506.68 26.1121 1507.61 26.2337 Q1508.54 26.3147 1509.67 26.5172 L1509.71 34.1734 Z" fill="#000000" fill-rule="nonzero" fill-opacity="1" /><path clip-path="url(#clip250)" d="M1533.29 32.4315 Q1527.29 32.4315 1523.81 37.1306 Q1520.33 41.7891 1520.33 49.9314 Q1520.33 58.0738 1523.77 62.7728 Q1527.25 67.4314 1533.29 67.4314 Q1539.24 67.4314 1542.73 62.7323 Q1546.21 58.0333 1546.21 49.9314 Q1546.21 41.8701 1542.73 37.1711 Q1539.24 32.4315 1533.29 32.4315 M1533.29 26.1121 Q1543.01 26.1121 1548.56 32.4315 Q1554.11 38.7509 1554.11 49.9314 Q1554.11 61.0714 1548.56 67.4314 Q1543.01 73.7508 1533.29 73.7508 Q1523.53 73.7508 1517.98 67.4314 Q1512.47 61.0714 1512.47 49.9314 Q1512.47 38.7509 1517.98 32.4315 Q1523.53 26.1121 1533.29 26.1121 Z" fill="#000000" fill-rule="nonzero" fill-opacity="1" /><path clip-path="url(#clip250)" d="M1599.04 49.9314 Q1599.04 41.7081 1595.63 37.0496 Q1592.27 32.3505 1586.36 32.3505 Q1580.44 32.3505 1577.04 37.0496 Q1573.68 41.7081 1573.68 49.9314 Q1573.68 58.1548 1577.04 62.8538 Q1580.44 67.5124 1586.36 67.5124 Q1592.27 67.5124 1595.63 62.8538 Q1599.04 58.1548 1599.04 49.9314 M1573.68 34.0924 Q1576.03 30.0415 1579.59 28.0971 Q1583.2 26.1121 1588.18 26.1121 Q1596.44 26.1121 1601.59 32.6746 Q1606.77 39.2371 1606.77 49.9314 Q1606.77 60.6258 1601.59 67.1883 Q1596.44 73.7508 1588.18 73.7508 Q1583.2 73.7508 1579.59 71.8063 Q1576.03 69.8214 1573.68 65.7705 L1573.68 72.576 L1566.18 72.576 L1566.18 9.54393 L1573.68 9.54393 L1573.68 34.0924 Z" fill="#000000" fill-rule="nonzero" fill-opacity="1" /><path clip-path="url(#clip250)" d="M1639.75 49.7694 Q1630.71 49.7694 1627.23 51.8354 Q1623.75 53.9013 1623.75 58.8839 Q1623.75 62.8538 1626.34 65.2034 Q1628.97 67.5124 1633.47 67.5124 Q1639.67 67.5124 1643.39 63.1374 Q1647.16 58.7219 1647.16 51.4303 L1647.16 49.7694 L1639.75 49.7694 M1654.61 46.6907 L1654.61 72.576 L1647.16 72.576 L1647.16 65.6895 Q1644.61 69.8214 1640.8 71.8063 Q1636.99 73.7508 1631.48 73.7508 Q1624.52 73.7508 1620.38 69.8619 Q1616.29 65.9325 1616.29 59.3701 Q1616.29 51.7138 1621.4 47.825 Q1626.54 43.9361 1636.71 43.9361 L1647.16 43.9361 L1647.16 43.2069 Q1647.16 38.0623 1643.76 35.2672 Q1640.4 32.4315 1634.28 32.4315 Q1630.39 32.4315 1626.7 33.3632 Q1623.02 34.295 1619.61 36.1584 L1619.61 29.2718 Q1623.71 27.692 1627.55 26.9223 Q1631.4 26.1121 1635.05 26.1121 Q1644.89 26.1121 1649.75 31.2163 Q1654.61 36.3204 1654.61 46.6907 Z" fill="#000000" fill-rule="nonzero" fill-opacity="1" /><path clip-path="url(#clip250)" d="M1702.54 49.9314 Q1702.54 41.7081 1699.13 37.0496 Q1695.77 32.3505 1689.86 32.3505 Q1683.94 32.3505 1680.54 37.0496 Q1677.18 41.7081 1677.18 49.9314 Q1677.18 58.1548 1680.54 62.8538 Q1683.94 67.5124 1689.86 67.5124 Q1695.77 67.5124 1699.13 62.8538 Q1702.54 58.1548 1702.54 49.9314 M1677.18 34.0924 Q1679.53 30.0415 1683.09 28.0971 Q1686.7 26.1121 1691.68 26.1121 Q1699.94 26.1121 1705.09 32.6746 Q1710.27 39.2371 1710.27 49.9314 Q1710.27 60.6258 1705.09 67.1883 Q1699.94 73.7508 1691.68 73.7508 Q1686.7 73.7508 1683.09 71.8063 Q1679.53 69.8214 1677.18 65.7705 L1677.18 72.576 L1669.68 72.576 L1669.68 9.54393 L1677.18 9.54393 L1677.18 34.0924 Z" fill="#000000" fill-rule="nonzero" fill-opacity="1" /><path clip-path="url(#clip250)" d="M1722.63 27.2059 L1730.08 27.2059 L1730.08 72.576 L1722.63 72.576 L1722.63 27.2059 M1722.63 9.54393 L1730.08 9.54393 L1730.08 18.9825 L1722.63 18.9825 L1722.63 9.54393 Z" fill="#000000" fill-rule="nonzero" fill-opacity="1" /><path clip-path="url(#clip250)" d="M1745.68 9.54393 L1753.13 9.54393 L1753.13 72.576 L1745.68 72.576 L1745.68 9.54393 Z" fill="#000000" fill-rule="nonzero" fill-opacity="1" /><path clip-path="url(#clip250)" d="M1768.73 27.2059 L1776.18 27.2059 L1776.18 72.576 L1768.73 72.576 L1768.73 27.2059 M1768.73 9.54393 L1776.18 9.54393 L1776.18 18.9825 L1768.73 18.9825 L1768.73 9.54393 Z" fill="#000000" fill-rule="nonzero" fill-opacity="1" /><path clip-path="url(#clip250)" d="M1799.15 14.324 L1799.15 27.2059 L1814.5 27.2059 L1814.5 32.9987 L1799.15 32.9987 L1799.15 57.6282 Q1799.15 63.1779 1800.65 64.7578 Q1802.19 66.3376 1806.85 66.3376 L1814.5 66.3376 L1814.5 72.576 L1806.85 72.576 Q1798.22 72.576 1794.94 69.3758 Q1791.66 66.1351 1791.66 57.6282 L1791.66 32.9987 L1786.19 32.9987 L1786.19 27.2059 L1791.66 27.2059 L1791.66 14.324 L1799.15 14.324 Z" fill="#000000" fill-rule="nonzero" fill-opacity="1" /><path clip-path="url(#clip250)" d="M1824.31 27.2059 L1831.76 27.2059 L1831.76 72.576 L1824.31 72.576 L1824.31 27.2059 M1824.31 9.54393 L1831.76 9.54393 L1831.76 18.9825 L1824.31 18.9825 L1824.31 9.54393 Z" fill="#000000" fill-rule="nonzero" fill-opacity="1" /><path clip-path="url(#clip250)" d="M1886.16 48.0275 L1886.16 51.6733 L1851.89 51.6733 Q1852.38 59.3701 1856.51 63.421 Q1860.68 67.4314 1868.1 67.4314 Q1872.39 67.4314 1876.4 66.3781 Q1880.45 65.3249 1884.42 63.2184 L1884.42 70.267 Q1880.41 71.9684 1876.2 72.8596 Q1871.99 73.7508 1867.65 73.7508 Q1856.79 73.7508 1850.43 67.4314 Q1844.12 61.1119 1844.12 50.3365 Q1844.12 39.1965 1850.11 32.6746 Q1856.15 26.1121 1866.35 26.1121 Q1875.51 26.1121 1880.82 32.0264 Q1886.16 37.9003 1886.16 48.0275 M1878.71 45.84 Q1878.63 39.7232 1875.27 36.0774 Q1871.95 32.4315 1866.44 32.4315 Q1860.2 32.4315 1856.43 35.9558 Q1852.7 39.4801 1852.14 45.8805 L1878.71 45.84 Z" fill="#000000" fill-rule="nonzero" fill-opacity="1" /><path clip-path="url(#clip250)" d="M1927.32 28.5427 L1927.32 35.5912 Q1924.16 33.9709 1920.76 33.1607 Q1917.36 32.3505 1913.71 32.3505 Q1908.16 32.3505 1905.37 34.0519 Q1902.61 35.7533 1902.61 39.156 Q1902.61 41.7486 1904.6 43.2475 Q1906.58 44.7058 1912.58 46.0426 L1915.13 46.6097 Q1923.07 48.3111 1926.39 51.4303 Q1929.75 54.509 1929.75 60.0587 Q1929.75 66.3781 1924.73 70.0644 Q1919.75 73.7508 1911 73.7508 Q1907.35 73.7508 1903.38 73.0216 Q1899.45 72.3329 1895.08 70.9151 L1895.08 63.2184 Q1899.21 65.3654 1903.22 66.4591 Q1907.23 67.5124 1911.16 67.5124 Q1916.42 67.5124 1919.26 65.73 Q1922.1 63.9071 1922.1 60.6258 Q1922.1 57.5877 1920.03 55.9673 Q1918 54.3469 1911.08 52.8481 L1908.48 52.2405 Q1901.56 50.7821 1898.48 47.7845 Q1895.4 44.7463 1895.4 39.4801 Q1895.4 33.0797 1899.94 29.5959 Q1904.47 26.1121 1912.82 26.1121 Q1916.95 26.1121 1920.6 26.7198 Q1924.24 27.3274 1927.32 28.5427 Z" fill="#000000" fill-rule="nonzero" fill-opacity="1" /><polyline clip-path="url(#clip252)" style="stroke:#009af9; stroke-linecap:round; stroke-linejoin:round; stroke-width:8; stroke-opacity:1; fill:none" points="247.59,1390.86 252.712,1447.87 257.834,1437.57 262.957,1439.92 268.079,1447.81 273.202,1447.63 278.324,1447.87 283.447,1447.87 288.569,1028.54 293.691,374.077 298.814,317.851 303.936,245.243 309.059,215.043 314.181,1353.63 319.304,1447.24 324.426,1442.93 329.548,1447.3 334.671,1447.85 339.793,1447.87 344.916,1446.17 350.038,1346.88 355.161,1285.12 360.283,317.334 365.405,162.093 370.528,166.706 375.65,168.312 380.773,173.941 385.895,192.871 391.018,208.524 396.14,222.68 401.263,235.592 406.385,195.844 411.507,194.763 416.63,186.743 421.752,174.418 426.875,171.434 431.997,166.615 437.12,169.103 442.242,186.745 447.364,181.224 452.487,171.867 457.609,162.061 462.732,168.387 467.854,162.421 472.977,165.04 478.099,162.152 483.221,164.153 488.344,162.639 493.466,162.047 498.589,163.555 503.711,166.562 508.834,162.189 513.956,162.096 519.078,167.128 524.201,168.392 529.323,163.796 534.446,162.138 539.568,166.177 544.691,183.096 549.813,189.756 554.936,200.008 560.058,186.307 565.18,168.77 570.303,166.067 575.425,164.013 580.548,166.216 585.67,162.451 590.793,164.723 595.915,183.543 601.037,173.36 606.16,162.051 611.282,162.991 616.405,167.064 621.527,169.267 626.65,162.75 631.772,162.076 636.894,162.66 642.017,164.737 647.139,178.697 652.262,175.887 657.384,174.585 662.507,169.748 667.629,172.118 672.751,167.674 677.874,163.063 682.996,163.807 688.119,165.185 693.241,165.523 698.364,162.13 703.486,162.063 708.609,168.429 713.731,163.388 718.853,170.087 723.976,164.374 729.098,197.251 734.221,198.6 739.343,200.873 744.466,197.28 749.588,177.325 754.71,164.279 759.833,165.666 764.955,162.198 770.078,166.18 775.2,195.975 780.323,162.877 785.445,183.372 790.567,214.013 795.69,218.896 800.812,184.175 805.935,181.348 811.057,174.463 816.18,167.625 821.302,162.238 826.424,203.851 831.547,229.368 836.669,272.186 841.792,475.764 846.914,1001.72 852.037,1441.31 857.159,1374.85 862.282,979.154 867.404,483.549 872.526,382.319 877.649,321.403 882.771,242.019 887.894,213.435 893.016,174.236 898.139,165.787 903.261,310.256 908.383,359.399 913.506,620.638 918.628,1016.13 923.751,1211.06 928.873,1447.73 933.996,1447.1 939.118,1439.67 944.24,1438.74 949.363,1015.12 954.485,531.372 959.608,224.772 964.73,241.389 969.853,235.653 974.975,221.154 980.097,214.342 985.22,222.316 990.342,519.808 995.465,586.733 1000.59,404.214 1005.71,321.101 1010.83,287.149 1015.95,183.17 1021.08,162.083 1026.2,166.366 1031.32,165.077 1036.44,162.048 1041.57,162.369 1046.69,166.117 1051.81,162.305 1056.93,162.079 1062.06,168.815 1067.18,168.757 1072.3,165.13 1077.42,168.192 1082.55,168.882 1087.67,187.516 1092.79,166.739 1097.91,183.094 1103.04,234.881 1108.16,241.24 1113.28,245.871 1118.4,244.52 1123.53,230.786 1128.65,216.631 1133.77,235.308 1138.89,259.122 1144.02,275.455 1149.14,375.43 1154.26,517.149 1159.38,905.013 1164.51,1434.1 1169.63,1443.99 1174.75,1447.87 1179.87,1403.39 1184.99,1039.58 1190.12,431.502 1195.24,331.538 1200.36,237.053 1205.48,204.324 1210.61,279.561 1215.73,233.787 1220.85,480.036 1225.97,389.752 1231.1,1447.05 1236.22,1447.87 1241.34,1446.02 1246.46,1438.06 1251.59,1447.87 1256.71,1442.85 1261.83,1447.82 1266.95,1441.99 1272.08,1443.42 1277.2,1430.47 1282.32,1442.92 1287.44,1447.87 1292.57,1441.72 1297.69,1447.28 1302.81,1442.76 1307.93,1447.81 1313.06,1395.48 1318.18,1246.6 1323.3,1085.6 1328.42,1091.33 1333.55,1123.46 1338.67,1146.33 1343.79,1315.01 1348.91,1347.55 1354.04,1392.13 1359.16,1416.23 1364.28,1447.86 1369.4,1444.49 1374.52,1435.38 1379.65,1432.72 1384.77,1434.03 1389.89,1350.73 1395.01,1146.31 1400.14,976.122 1405.26,1447.87 1410.38,1447.81 1415.5,1443.65 1420.63,1440.52 1425.75,1445.11 1430.87,1447.86 1435.99,1447.86 1441.12,1447.87 1446.24,1443.85 1451.36,1445.99 1456.48,1441.44 1461.61,1447.83 1466.73,1447.36 1471.85,1447.41 1476.97,1447.87 1482.1,1447.7 1487.22,1447.81 1492.34,1421.01 1497.46,1428.97 1502.59,1435.33 1507.71,1430.61 1512.83,1429.67 1517.95,1447.87 1523.08,1447.66 1528.2,1407.88 1533.32,1409.98 1538.44,1419.44 1543.57,1434.25 1548.69,1440.33 1553.81,1433.55 1558.93,1436.67 1564.05,218.191 1569.18,167.542 1574.3,162.443 1579.42,162.433 1584.54,163.056 1589.67,166.024 1594.79,166.578 1599.91,164.133 1605.03,162.047 1610.16,168.771 1615.28,170.613 1620.4,164.385 1625.52,163.872 1630.65,164.453 1635.77,166.589 1640.89,168.12 1646.01,163.733 1651.14,166.121 1656.26,164.024 1661.38,162.291 1666.5,162.12 1671.63,162.06 1676.75,162.076 1681.87,162.047 1686.99,162.2 1692.12,165.91 1697.24,163.275 1702.36,167.376 1707.48,169.195 1712.61,169.306 1717.73,163.7 1722.85,168.877 1727.97,168.732 1733.1,165.134 1738.22,166.257 1743.34,228.475 1748.46,315.524 1753.58,297.237 1758.71,162.487 1763.83,257.211 1768.95,357.943 1774.07,366.517 1779.2,356.684 1784.32,259.253 1789.44,210.419 1794.56,166.936 1799.69,162.686 1804.81,162.225 1809.93,166.241 1815.05,167.699 1820.18,163.451 1825.3,163.472 1830.42,170.751 1835.54,173.132 1840.67,169.398 1845.79,162.906 1850.91,162.227 1856.03,167.537 1861.16,162.049 1866.28,162.047 1871.4,163.183 1876.52,163.663 1881.65,163.425 1886.77,173.225 1891.89,178.874 1897.01,175.574 1902.14,170.742 1907.26,162.088 1912.38,166.956 1917.5,162.06 1922.63,164.514 1927.75,164.701 1932.87,162.79 1937.99,163.657 1943.11,177.178 1948.24,221.8 1953.36,299.062 1958.48,376.767 1963.6,438.699 1968.73,541.348 1973.85,1197.94 1978.97,163.474 1984.09,162.07 1989.22,164.61 1994.34,162.109 1999.46,165.562 2004.58,162.284 2009.71,178.837 2014.83,177.421 2019.95,175.463 2025.07,170.765 2030.2,191.176 2035.32,212.929 2040.44,387.331 2045.56,635.962 2050.69,871.528 2055.81,1115.89 2060.93,1446.9 2066.05,1447.85 2071.18,1434.14 2076.3,1046.51 2081.42,719.201 2086.54,583.197 2091.67,228.383 2096.79,180.192 2101.91,167.942 2107.03,162.261 2112.16,165.312 2117.28,164.586 2122.4,167.386 2127.52,205.381 2132.64,169.148 2137.77,171.648 2142.89,162.051 2148.01,162.06 2153.13,169.104 2158.26,164.156 2163.38,167.587 2168.5,175.057 2173.62,174.057 2178.75,170.405 2183.87,167.214 2188.99,169.177 2194.11,172.304 2199.24,176.286 2204.36,172.722 2209.48,170.6 2214.6,167.183 2219.73,175.478 2224.85,178.953 2229.97,163.002 2235.09,162.07 2240.22,162.078 2245.34,168.563 2250.46,163.355 2255.58,162.815 2260.71,165.746 2265.83,163.376 2270.95,165.002 2276.07,162.12 2281.2,162.083 2286.32,162.43 2291.44,195.536 "/>
<polyline clip-path="url(#clip252)" style="stroke:#e26f46; stroke-linecap:round; stroke-linejoin:round; stroke-width:8; stroke-opacity:1; fill:none" points="247.59,1447.87 252.712,1447.87 257.834,1447.87 262.957,1447.87 268.079,1447.87 273.202,1447.87 278.324,1447.87 283.447,1447.87 288.569,162.047 293.691,162.047 298.814,162.047 303.936,162.047 309.059,162.047 314.181,1447.87 319.304,1447.87 324.426,1447.87 329.548,1447.87 334.671,1447.87 339.793,1447.87 344.916,1447.87 350.038,1447.87 355.161,1447.87 360.283,162.047 365.405,162.047 370.528,162.047 375.65,162.047 380.773,162.047 385.895,162.047 391.018,162.047 396.14,162.047 401.263,162.047 406.385,162.047 411.507,162.047 416.63,162.047 421.752,162.047 426.875,162.047 431.997,162.047 437.12,162.047 442.242,1447.87 447.364,1447.87 452.487,162.047 457.609,162.047 462.732,162.047 467.854,162.047 472.977,162.047 478.099,162.047 483.221,162.047 488.344,162.047 493.466,162.047 498.589,162.047 503.711,162.047 508.834,162.047 513.956,162.047 519.078,162.047 524.201,162.047 529.323,162.047 534.446,162.047 539.568,162.047 544.691,162.047 549.813,162.047 554.936,162.047 560.058,162.047 565.18,162.047 570.303,162.047 575.425,162.047 580.548,162.047 585.67,162.047 590.793,162.047 595.915,162.047 601.037,162.047 606.16,162.047 611.282,162.047 616.405,162.047 621.527,162.047 626.65,162.047 631.772,162.047 636.894,162.047 642.017,162.047 647.139,1447.87 652.262,1447.87 657.384,1447.87 662.507,162.047 667.629,162.047 672.751,162.047 677.874,162.047 682.996,162.047 688.119,162.047 693.241,162.047 698.364,162.047 703.486,162.047 708.609,162.047 713.731,162.047 718.853,162.047 723.976,162.047 729.098,162.047 734.221,162.047 739.343,162.047 744.466,162.047 749.588,162.047 754.71,162.047 759.833,162.047 764.955,162.047 770.078,162.047 775.2,162.047 780.323,162.047 785.445,162.047 790.567,162.047 795.69,162.047 800.812,162.047 805.935,162.047 811.057,162.047 816.18,162.047 821.302,162.047 826.424,162.047 831.547,162.047 836.669,162.047 841.792,1447.87 846.914,1447.87 852.037,1447.87 857.159,1447.87 862.282,1447.87 867.404,162.047 872.526,162.047 877.649,162.047 882.771,162.047 887.894,162.047 893.016,162.047 898.139,162.047 903.261,162.047 908.383,1447.87 913.506,1447.87 918.628,1447.87 923.751,1447.87 928.873,1447.87 933.996,1447.87 939.118,1447.87 944.24,1447.87 949.363,162.047 954.485,162.047 959.608,162.047 964.73,162.047 969.853,162.047 974.975,162.047 980.097,162.047 985.22,162.047 990.342,1447.87 995.465,1447.87 1000.59,1447.87 1005.71,162.047 1010.83,162.047 1015.95,162.047 1021.08,162.047 1026.2,162.047 1031.32,162.047 1036.44,162.047 1041.57,162.047 1046.69,162.047 1051.81,162.047 1056.93,162.047 1062.06,162.047 1067.18,162.047 1072.3,162.047 1077.42,162.047 1082.55,162.047 1087.67,162.047 1092.79,162.047 1097.91,162.047 1103.04,162.047 1108.16,162.047 1113.28,162.047 1118.4,162.047 1123.53,162.047 1128.65,162.047 1133.77,162.047 1138.89,162.047 1144.02,162.047 1149.14,162.047 1154.26,162.047 1159.38,162.047 1164.51,1447.87 1169.63,1447.87 1174.75,1447.87 1179.87,1447.87 1184.99,1447.87 1190.12,162.047 1195.24,162.047 1200.36,162.047 1205.48,162.047 1210.61,162.047 1215.73,162.047 1220.85,162.047 1225.97,162.047 1231.1,1447.87 1236.22,1447.87 1241.34,1447.87 1246.46,1447.87 1251.59,1447.87 1256.71,1447.87 1261.83,1447.87 1266.95,1447.87 1272.08,1447.87 1277.2,1447.87 1282.32,1447.87 1287.44,1447.87 1292.57,1447.87 1297.69,1447.87 1302.81,1447.87 1307.93,1447.87 1313.06,1447.87 1318.18,1447.87 1323.3,1447.87 1328.42,1447.87 1333.55,1447.87 1338.67,1447.87 1343.79,1447.87 1348.91,1447.87 1354.04,1447.87 1359.16,1447.87 1364.28,1447.87 1369.4,1447.87 1374.52,1447.87 1379.65,1447.87 1384.77,1447.87 1389.89,1447.87 1395.01,162.047 1400.14,162.047 1405.26,1447.87 1410.38,1447.87 1415.5,1447.87 1420.63,1447.87 1425.75,1447.87 1430.87,1447.87 1435.99,1447.87 1441.12,1447.87 1446.24,1447.87 1451.36,1447.87 1456.48,1447.87 1461.61,1447.87 1466.73,1447.87 1471.85,1447.87 1476.97,1447.87 1482.1,1447.87 1487.22,1447.87 1492.34,1447.87 1497.46,1447.87 1502.59,1447.87 1507.71,1447.87 1512.83,1447.87 1517.95,1447.87 1523.08,1447.87 1528.2,1447.87 1533.32,1447.87 1538.44,1447.87 1543.57,1447.87 1548.69,1447.87 1553.81,1447.87 1558.93,1447.87 1564.05,162.047 1569.18,162.047 1574.3,162.047 1579.42,162.047 1584.54,162.047 1589.67,162.047 1594.79,162.047 1599.91,162.047 1605.03,162.047 1610.16,162.047 1615.28,162.047 1620.4,162.047 1625.52,162.047 1630.65,162.047 1635.77,162.047 1640.89,162.047 1646.01,162.047 1651.14,162.047 1656.26,162.047 1661.38,162.047 1666.5,162.047 1671.63,162.047 1676.75,162.047 1681.87,162.047 1686.99,162.047 1692.12,162.047 1697.24,162.047 1702.36,162.047 1707.48,162.047 1712.61,162.047 1717.73,162.047 1722.85,162.047 1727.97,162.047 1733.1,162.047 1738.22,162.047 1743.34,162.047 1748.46,162.047 1753.58,162.047 1758.71,162.047 1763.83,162.047 1768.95,162.047 1774.07,162.047 1779.2,162.047 1784.32,162.047 1789.44,162.047 1794.56,162.047 1799.69,162.047 1804.81,162.047 1809.93,162.047 1815.05,162.047 1820.18,162.047 1825.3,162.047 1830.42,162.047 1835.54,162.047 1840.67,162.047 1845.79,162.047 1850.91,162.047 1856.03,162.047 1861.16,162.047 1866.28,162.047 1871.4,162.047 1876.52,162.047 1881.65,162.047 1886.77,162.047 1891.89,162.047 1897.01,162.047 1902.14,162.047 1907.26,162.047 1912.38,162.047 1917.5,162.047 1922.63,162.047 1927.75,162.047 1932.87,162.047 1937.99,162.047 1943.11,162.047 1948.24,162.047 1953.36,162.047 1958.48,162.047 1963.6,162.047 1968.73,162.047 1973.85,162.047 1978.97,162.047 1984.09,162.047 1989.22,162.047 1994.34,162.047 1999.46,162.047 2004.58,162.047 2009.71,162.047 2014.83,162.047 2019.95,162.047 2025.07,162.047 2030.2,162.047 2035.32,162.047 2040.44,1447.87 2045.56,1447.87 2050.69,1447.87 2055.81,1447.87 2060.93,1447.87 2066.05,1447.87 2071.18,1447.87 2076.3,1447.87 2081.42,1447.87 2086.54,1447.87 2091.67,162.047 2096.79,162.047 2101.91,162.047 2107.03,162.047 2112.16,162.047 2117.28,162.047 2122.4,162.047 2127.52,162.047 2132.64,162.047 2137.77,162.047 2142.89,162.047 2148.01,162.047 2153.13,162.047 2158.26,162.047 2163.38,162.047 2168.5,162.047 2173.62,162.047 2178.75,162.047 2183.87,162.047 2188.99,162.047 2194.11,162.047 2199.24,162.047 2204.36,162.047 2209.48,162.047 2214.6,162.047 2219.73,162.047 2224.85,162.047 2229.97,162.047 2235.09,162.047 2240.22,162.047 2245.34,162.047 2250.46,162.047 2255.58,162.047 2260.71,162.047 2265.83,162.047 2270.95,162.047 2276.07,162.047 2281.2,162.047 2286.32,162.047 2291.44,162.047 "/>
<path clip-path="url(#clip250)" d="M1849.1 1441.02 L2280.54 1441.02 L2280.54 1285.5 L1849.1 1285.5  Z" fill="#ffffff" fill-rule="evenodd" fill-opacity="1"/>
<polyline clip-path="url(#clip250)" style="stroke:#000000; stroke-linecap:round; stroke-linejoin:round; stroke-width:4; stroke-opacity:1; fill:none" points="1849.1,1441.02 2280.54,1441.02 2280.54,1285.5 1849.1,1285.5 1849.1,1441.02 "/>
<polyline clip-path="url(#clip250)" style="stroke:#009af9; stroke-linecap:round; stroke-linejoin:round; stroke-width:8; stroke-opacity:1; fill:none" points="1873.17,1337.34 2017.61,1337.34 "/>
<path clip-path="url(#clip250)" d="M2058.07 1338.41 Q2059.57 1338.92 2060.98 1340.59 Q2062.42 1342.25 2063.85 1345.17 L2068.6 1354.62 L2063.58 1354.62 L2059.15 1345.75 Q2057.44 1342.28 2055.82 1341.14 Q2054.22 1340.01 2051.45 1340.01 L2046.35 1340.01 L2046.35 1354.62 L2041.68 1354.62 L2041.68 1320.06 L2052.23 1320.06 Q2058.16 1320.06 2061.08 1322.53 Q2063.99 1325.01 2063.99 1330.01 Q2063.99 1333.27 2062.46 1335.43 Q2060.96 1337.58 2058.07 1338.41 M2046.35 1323.9 L2046.35 1336.17 L2052.23 1336.17 Q2055.61 1336.17 2057.33 1334.62 Q2059.06 1333.04 2059.06 1330.01 Q2059.06 1326.98 2057.33 1325.45 Q2055.61 1323.9 2052.23 1323.9 L2046.35 1323.9 Z" fill="#000000" fill-rule="nonzero" fill-opacity="1" /><path clip-path="url(#clip250)" d="M2094.48 1340.59 L2094.48 1342.67 L2074.89 1342.67 Q2075.17 1347.07 2077.53 1349.38 Q2079.92 1351.68 2084.15 1351.68 Q2086.61 1351.68 2088.9 1351.07 Q2091.21 1350.47 2093.48 1349.27 L2093.48 1353.3 Q2091.19 1354.27 2088.78 1354.78 Q2086.38 1355.29 2083.9 1355.29 Q2077.7 1355.29 2074.06 1351.68 Q2070.45 1348.06 2070.45 1341.91 Q2070.45 1335.54 2073.88 1331.81 Q2077.33 1328.06 2083.16 1328.06 Q2088.39 1328.06 2091.42 1331.44 Q2094.48 1334.8 2094.48 1340.59 M2090.22 1339.34 Q2090.17 1335.84 2088.25 1333.76 Q2086.35 1331.68 2083.2 1331.68 Q2079.64 1331.68 2077.49 1333.69 Q2075.36 1335.7 2075.03 1339.36 L2090.22 1339.34 Z" fill="#000000" fill-rule="nonzero" fill-opacity="1" /><path clip-path="url(#clip250)" d="M2118.53 1341.35 Q2118.53 1336.72 2116.61 1334.18 Q2114.71 1331.63 2111.26 1331.63 Q2107.83 1331.63 2105.91 1334.18 Q2104.01 1336.72 2104.01 1341.35 Q2104.01 1345.96 2105.91 1348.5 Q2107.83 1351.05 2111.26 1351.05 Q2114.71 1351.05 2116.61 1348.5 Q2118.53 1345.96 2118.53 1341.35 M2122.79 1351.4 Q2122.79 1358.02 2119.85 1361.24 Q2116.91 1364.48 2110.84 1364.48 Q2108.6 1364.48 2106.61 1364.13 Q2104.62 1363.81 2102.74 1363.11 L2102.74 1358.97 Q2104.62 1359.99 2106.45 1360.47 Q2108.27 1360.96 2110.17 1360.96 Q2114.36 1360.96 2116.45 1358.76 Q2118.53 1356.58 2118.53 1352.16 L2118.53 1350.06 Q2117.21 1352.35 2115.15 1353.48 Q2113.09 1354.62 2110.22 1354.62 Q2105.45 1354.62 2102.53 1350.98 Q2099.62 1347.35 2099.62 1341.35 Q2099.62 1335.33 2102.53 1331.7 Q2105.45 1328.06 2110.22 1328.06 Q2113.09 1328.06 2115.15 1329.2 Q2117.21 1330.33 2118.53 1332.62 L2118.53 1328.69 L2122.79 1328.69 L2122.79 1351.4 Z" fill="#000000" fill-rule="nonzero" fill-opacity="1" /><path clip-path="url(#clip250)" d="M2131.56 1328.69 L2135.82 1328.69 L2135.82 1354.62 L2131.56 1354.62 L2131.56 1328.69 M2131.56 1318.6 L2135.82 1318.6 L2135.82 1323.99 L2131.56 1323.99 L2131.56 1318.6 Z" fill="#000000" fill-rule="nonzero" fill-opacity="1" /><path clip-path="url(#clip250)" d="M2164.92 1333.67 Q2166.51 1330.8 2168.74 1329.43 Q2170.96 1328.06 2173.97 1328.06 Q2178.02 1328.06 2180.22 1330.91 Q2182.42 1333.74 2182.42 1338.97 L2182.42 1354.62 L2178.13 1354.62 L2178.13 1339.11 Q2178.13 1335.38 2176.82 1333.57 Q2175.5 1331.77 2172.79 1331.77 Q2169.48 1331.77 2167.56 1333.97 Q2165.63 1336.17 2165.63 1339.96 L2165.63 1354.62 L2161.35 1354.62 L2161.35 1339.11 Q2161.35 1335.36 2160.03 1333.57 Q2158.71 1331.77 2155.96 1331.77 Q2152.7 1331.77 2150.77 1333.99 Q2148.85 1336.19 2148.85 1339.96 L2148.85 1354.62 L2144.57 1354.62 L2144.57 1328.69 L2148.85 1328.69 L2148.85 1332.72 Q2150.31 1330.33 2152.35 1329.2 Q2154.39 1328.06 2157.19 1328.06 Q2160.01 1328.06 2161.98 1329.5 Q2163.97 1330.93 2164.92 1333.67 Z" fill="#000000" fill-rule="nonzero" fill-opacity="1" /><path clip-path="url(#clip250)" d="M2213.09 1340.59 L2213.09 1342.67 L2193.51 1342.67 Q2193.78 1347.07 2196.14 1349.38 Q2198.53 1351.68 2202.76 1351.68 Q2205.22 1351.68 2207.51 1351.07 Q2209.82 1350.47 2212.09 1349.27 L2212.09 1353.3 Q2209.8 1354.27 2207.39 1354.78 Q2204.99 1355.29 2202.51 1355.29 Q2196.31 1355.29 2192.67 1351.68 Q2189.06 1348.06 2189.06 1341.91 Q2189.06 1335.54 2192.49 1331.81 Q2195.94 1328.06 2201.77 1328.06 Q2207 1328.06 2210.03 1331.44 Q2213.09 1334.8 2213.09 1340.59 M2208.83 1339.34 Q2208.78 1335.84 2206.86 1333.76 Q2204.96 1331.68 2201.82 1331.68 Q2198.25 1331.68 2196.1 1333.69 Q2193.97 1335.7 2193.64 1339.36 L2208.83 1339.34 Z" fill="#000000" fill-rule="nonzero" fill-opacity="1" /><path clip-path="url(#clip250)" d="M2236.56 1350.68 L2244.2 1350.68 L2244.2 1324.31 L2235.89 1325.98 L2235.89 1321.72 L2244.15 1320.06 L2248.83 1320.06 L2248.83 1350.68 L2256.47 1350.68 L2256.47 1354.62 L2236.56 1354.62 L2236.56 1350.68 Z" fill="#000000" fill-rule="nonzero" fill-opacity="1" /><polyline clip-path="url(#clip250)" style="stroke:#e26f46; stroke-linecap:round; stroke-linejoin:round; stroke-width:8; stroke-opacity:1; fill:none" points="1873.17,1389.18 2017.61,1389.18 "/>
<path clip-path="url(#clip250)" d="M2058.07 1390.25 Q2059.57 1390.76 2060.98 1392.43 Q2062.42 1394.09 2063.85 1397.01 L2068.6 1406.46 L2063.58 1406.46 L2059.15 1397.59 Q2057.44 1394.12 2055.82 1392.98 Q2054.22 1391.85 2051.45 1391.85 L2046.35 1391.85 L2046.35 1406.46 L2041.68 1406.46 L2041.68 1371.9 L2052.23 1371.9 Q2058.16 1371.9 2061.08 1374.37 Q2063.99 1376.85 2063.99 1381.85 Q2063.99 1385.11 2062.46 1387.27 Q2060.96 1389.42 2058.07 1390.25 M2046.35 1375.74 L2046.35 1388.01 L2052.23 1388.01 Q2055.61 1388.01 2057.33 1386.46 Q2059.06 1384.88 2059.06 1381.85 Q2059.06 1378.82 2057.33 1377.29 Q2055.61 1375.74 2052.23 1375.74 L2046.35 1375.74 Z" fill="#000000" fill-rule="nonzero" fill-opacity="1" /><path clip-path="url(#clip250)" d="M2094.48 1392.43 L2094.48 1394.51 L2074.89 1394.51 Q2075.17 1398.91 2077.53 1401.22 Q2079.92 1403.52 2084.15 1403.52 Q2086.61 1403.52 2088.9 1402.91 Q2091.21 1402.31 2093.48 1401.11 L2093.48 1405.14 Q2091.19 1406.11 2088.78 1406.62 Q2086.38 1407.13 2083.9 1407.13 Q2077.7 1407.13 2074.06 1403.52 Q2070.45 1399.9 2070.45 1393.75 Q2070.45 1387.38 2073.88 1383.65 Q2077.33 1379.9 2083.16 1379.9 Q2088.39 1379.9 2091.42 1383.28 Q2094.48 1386.64 2094.48 1392.43 M2090.22 1391.18 Q2090.17 1387.68 2088.25 1385.6 Q2086.35 1383.52 2083.2 1383.52 Q2079.64 1383.52 2077.49 1385.53 Q2075.36 1387.54 2075.03 1391.2 L2090.22 1391.18 Z" fill="#000000" fill-rule="nonzero" fill-opacity="1" /><path clip-path="url(#clip250)" d="M2118.53 1393.19 Q2118.53 1388.56 2116.61 1386.02 Q2114.71 1383.47 2111.26 1383.47 Q2107.83 1383.47 2105.91 1386.02 Q2104.01 1388.56 2104.01 1393.19 Q2104.01 1397.8 2105.91 1400.34 Q2107.83 1402.89 2111.26 1402.89 Q2114.71 1402.89 2116.61 1400.34 Q2118.53 1397.8 2118.53 1393.19 M2122.79 1403.24 Q2122.79 1409.86 2119.85 1413.08 Q2116.91 1416.32 2110.84 1416.32 Q2108.6 1416.32 2106.61 1415.97 Q2104.62 1415.65 2102.74 1414.95 L2102.74 1410.81 Q2104.62 1411.83 2106.45 1412.31 Q2108.27 1412.8 2110.17 1412.8 Q2114.36 1412.8 2116.45 1410.6 Q2118.53 1408.42 2118.53 1404 L2118.53 1401.9 Q2117.21 1404.19 2115.15 1405.32 Q2113.09 1406.46 2110.22 1406.46 Q2105.45 1406.46 2102.53 1402.82 Q2099.62 1399.19 2099.62 1393.19 Q2099.62 1387.17 2102.53 1383.54 Q2105.45 1379.9 2110.22 1379.9 Q2113.09 1379.9 2115.15 1381.04 Q2117.21 1382.17 2118.53 1384.46 L2118.53 1380.53 L2122.79 1380.53 L2122.79 1403.24 Z" fill="#000000" fill-rule="nonzero" fill-opacity="1" /><path clip-path="url(#clip250)" d="M2131.56 1380.53 L2135.82 1380.53 L2135.82 1406.46 L2131.56 1406.46 L2131.56 1380.53 M2131.56 1370.44 L2135.82 1370.44 L2135.82 1375.83 L2131.56 1375.83 L2131.56 1370.44 Z" fill="#000000" fill-rule="nonzero" fill-opacity="1" /><path clip-path="url(#clip250)" d="M2164.92 1385.51 Q2166.51 1382.64 2168.74 1381.27 Q2170.96 1379.9 2173.97 1379.9 Q2178.02 1379.9 2180.22 1382.75 Q2182.42 1385.58 2182.42 1390.81 L2182.42 1406.46 L2178.13 1406.46 L2178.13 1390.95 Q2178.13 1387.22 2176.82 1385.41 Q2175.5 1383.61 2172.79 1383.61 Q2169.48 1383.61 2167.56 1385.81 Q2165.63 1388.01 2165.63 1391.8 L2165.63 1406.46 L2161.35 1406.46 L2161.35 1390.95 Q2161.35 1387.2 2160.03 1385.41 Q2158.71 1383.61 2155.96 1383.61 Q2152.7 1383.61 2150.77 1385.83 Q2148.85 1388.03 2148.85 1391.8 L2148.85 1406.46 L2144.57 1406.46 L2144.57 1380.53 L2148.85 1380.53 L2148.85 1384.56 Q2150.31 1382.17 2152.35 1381.04 Q2154.39 1379.9 2157.19 1379.9 Q2160.01 1379.9 2161.98 1381.34 Q2163.97 1382.77 2164.92 1385.51 Z" fill="#000000" fill-rule="nonzero" fill-opacity="1" /><path clip-path="url(#clip250)" d="M2213.09 1392.43 L2213.09 1394.51 L2193.51 1394.51 Q2193.78 1398.91 2196.14 1401.22 Q2198.53 1403.52 2202.76 1403.52 Q2205.22 1403.52 2207.51 1402.91 Q2209.82 1402.31 2212.09 1401.11 L2212.09 1405.14 Q2209.8 1406.11 2207.39 1406.62 Q2204.99 1407.13 2202.51 1407.13 Q2196.31 1407.13 2192.67 1403.52 Q2189.06 1399.9 2189.06 1393.75 Q2189.06 1387.38 2192.49 1383.65 Q2195.94 1379.9 2201.77 1379.9 Q2207 1379.9 2210.03 1383.28 Q2213.09 1386.64 2213.09 1392.43 M2208.83 1391.18 Q2208.78 1387.68 2206.86 1385.6 Q2204.96 1383.52 2201.82 1383.52 Q2198.25 1383.52 2196.1 1385.53 Q2193.97 1387.54 2193.64 1391.2 L2208.83 1391.18 Z" fill="#000000" fill-rule="nonzero" fill-opacity="1" /><path clip-path="url(#clip250)" d="M2239.78 1402.52 L2256.1 1402.52 L2256.1 1406.46 L2234.15 1406.46 L2234.15 1402.52 Q2236.82 1399.77 2241.4 1395.14 Q2246 1390.48 2247.19 1389.14 Q2249.43 1386.62 2250.31 1384.88 Q2251.21 1383.12 2251.21 1381.43 Q2251.21 1378.68 2249.27 1376.94 Q2247.35 1375.21 2244.25 1375.21 Q2242.05 1375.21 2239.59 1375.97 Q2237.16 1376.73 2234.38 1378.28 L2234.38 1373.56 Q2237.21 1372.43 2239.66 1371.85 Q2242.12 1371.27 2244.15 1371.27 Q2249.52 1371.27 2252.72 1373.96 Q2255.91 1376.64 2255.91 1381.13 Q2255.91 1383.26 2255.1 1385.18 Q2254.32 1387.08 2252.21 1389.67 Q2251.63 1390.34 2248.53 1393.56 Q2245.43 1396.76 2239.78 1402.52 Z" fill="#000000" fill-rule="nonzero" fill-opacity="1" /></svg>
